<svg xmlns="http://www.w3.org/2000/svg" width="864.449" height="414" viewBox="0 0 864.449 414">
  <g id="Grupo_152022" data-name="Grupo 152022" transform="translate(-400.775 -742.196)">
    <rect id="Rectángulo_35412" data-name="Rectángulo 35412" width="399" height="82" rx="10" transform="translate(607 742.196)" fill="#a2f9be"/>
    <rect id="Rectángulo_35413" data-name="Rectángulo 35413" width="190" height="60" transform="translate(400.775 889.196)" fill="#d0fcdf"/>
    <rect id="Rectángulo_35435" data-name="Rectángulo 35435" width="167" height="38" transform="translate(1043 971.196)" fill="#d4efff"/>
    <rect id="Rectángulo_35436" data-name="Rectángulo 35436" width="167" height="46" transform="translate(1043 1087.196)" fill="#d4efff"/>
    <rect id="Rectángulo_35437" data-name="Rectángulo 35437" width="167" height="46" transform="translate(1043 1027.196)" fill="#d4efff"/>
    <rect id="Rectángulo_35416" data-name="Rectángulo 35416" width="167" height="60" transform="translate(1043 889.196)" fill="#d0fcdf"/>
    <text id="MANTENIMIENTO_DE_EQUIPOS" data-name="MANTENIMIENTO DE EQUIPOS" transform="translate(740.225 772.196)" fill="#12263f" font-size="18" font-family="Roboto-Black, Roboto" font-weight="800"><tspan x="-126.795" y="19">MANTENIMIENTO DE EQUIPOS</tspan></text>
    <text id="Cronogramas_de_mantenimiento" data-name="Cronogramas de mantenimiento" transform="translate(495 903.196)" fill="#12263f" font-size="13" font-family="Roboto-Black, Roboto" font-weight="800"><tspan x="-48.328" y="14">Cronogramas de </tspan><tspan x="-44.313" y="32">mantenimiento</tspan></text>
    <text id="Ejecución_de_equipos" data-name="Ejecución de
 equipos" transform="translate(1134.225 902.196)" fill="#12263f" font-size="13" font-family="Roboto-Black, Roboto" font-weight="800"><tspan x="-37.267" y="14">Ejecución de</tspan><tspan x="-24.902" y="32" xml:space="preserve"> equipos</tspan></text>
    <line id="Línea_144" data-name="Línea 144" y2="23.804" transform="translate(807 823.696)" fill="none" stroke="#004e64" stroke-width="3"/>
    <line id="Línea_146" data-name="Línea 146" x2="0.25" y2="28.5" transform="translate(806.25 875.696)" fill="none" stroke="#004e64" stroke-width="3"/>
    <line id="Línea_215" data-name="Línea 215" x2="39.25" transform="translate(528.025 1098.143)" fill="none" stroke="#004e64" stroke-width="3"/>
    <text id="Tipos_de_programación" data-name="Tipos de programación" transform="translate(1116.225 983.196)" fill="#12263f" font-size="13" font-family="Roboto-Regular, Roboto"><tspan x="-66.739" y="14">Tipos de programación</tspan></text>
    <text id="Mantenimiento" transform="translate(1116.225 1045.696)" fill="#12263f" font-size="13" font-family="Roboto-Regular, Roboto"><tspan x="-43.599" y="14">Mantenimiento</tspan></text>
    <text id="Mantenimiento_preventivo" data-name="Mantenimiento preventivo" transform="translate(1116.225 1094.196)" fill="#12263f" font-size="13" font-family="Roboto-Regular, Roboto"><tspan x="-43.599" y="14">Mantenimiento </tspan><tspan x="-29.936" y="32">preventivo</tspan></text>
    <text id="Incluye" transform="translate(800 851.196)" fill="#12263f" font-size="13" font-family="Roboto-Regular, Roboto"><tspan x="-20.436" y="14">Incluye</tspan></text>
    <path id="Trazado_146179" data-name="Trazado 146179" d="M5966.507-10849.171,5686-10850v29" transform="translate(-5193.725 11710.196)" fill="none" stroke="#004e64" stroke-width="3"/>
    <path id="Trazado_218276" data-name="Trazado 218276" d="M5715.965-10850h283.26v29" transform="translate(-4876.75 11710.196)" fill="none" stroke="#004e64" stroke-width="3"/>
    <g id="Grupo_95160" data-name="Grupo 95160" transform="translate(-152.225 10.196)">
      <line id="Línea_141" data-name="Línea 141" y2="22" transform="translate(646.5 939.5)" fill="none" stroke="#004e64" stroke-width="3"/>
      <path id="Polígono_8" data-name="Polígono 8" d="M4.5,0,9,8H0Z" transform="translate(651 965) rotate(180)" fill="#004e64"/>
    </g>
    <g id="Grupo_95175" data-name="Grupo 95175" transform="translate(80.5 1637.696) rotate(-90)">
      <line id="Línea_141-2" data-name="Línea 141" y2="18.75" transform="translate(646.5 939.5)" fill="none" stroke="#004e64" stroke-width="3"/>
      <path id="Polígono_8-2" data-name="Polígono 8" d="M4.5,0,9,8H0Z" transform="translate(651 961.75) rotate(180)" fill="#004e64"/>
    </g>
    <g id="Grupo_152019" data-name="Grupo 152019" transform="translate(-227.5 1653.696) rotate(-90)">
      <line id="Línea_141-3" data-name="Línea 141" y2="18.75" transform="translate(646.5 939.5)" fill="none" stroke="#004e64" stroke-width="3"/>
      <path id="Polígono_8-3" data-name="Polígono 8" d="M4.5,0,9,8H0Z" transform="translate(651 961.75) rotate(180)" fill="#004e64"/>
    </g>
    <g id="Grupo_95176" data-name="Grupo 95176" transform="translate(80.5 1696.696) rotate(-90)">
      <line id="Línea_141-4" data-name="Línea 141" y2="18.75" transform="translate(646.5 939.5)" fill="none" stroke="#004e64" stroke-width="3"/>
      <path id="Polígono_8-4" data-name="Polígono 8" d="M4.5,0,9,8H0Z" transform="translate(651 961.75) rotate(180)" fill="#004e64"/>
    </g>
    <g id="Grupo_152020" data-name="Grupo 152020" transform="translate(-227.5 1712.696) rotate(-90)">
      <line id="Línea_141-5" data-name="Línea 141" y2="18.75" transform="translate(646.5 939.5)" fill="none" stroke="#004e64" stroke-width="3"/>
      <path id="Polígono_8-5" data-name="Polígono 8" d="M4.5,0,9,8H0Z" transform="translate(651 961.75) rotate(180)" fill="#004e64"/>
    </g>
    <g id="Grupo_95177" data-name="Grupo 95177" transform="translate(80.5 1756.696) rotate(-90)">
      <line id="Línea_141-6" data-name="Línea 141" y2="18.75" transform="translate(646.5 939.5)" fill="none" stroke="#004e64" stroke-width="3"/>
      <path id="Polígono_8-6" data-name="Polígono 8" d="M4.5,0,9,8H0Z" transform="translate(651 961.75) rotate(180)" fill="#004e64"/>
    </g>
    <g id="Grupo_152021" data-name="Grupo 152021" transform="translate(-227.5 1772.696) rotate(-90)">
      <line id="Línea_141-7" data-name="Línea 141" y2="18.75" transform="translate(646.5 939.5)" fill="none" stroke="#004e64" stroke-width="3"/>
      <path id="Polígono_8-7" data-name="Polígono 8" d="M4.5,0,9,8H0Z" transform="translate(651 961.75) rotate(180)" fill="#004e64"/>
    </g>
    <g id="Grupo_95161" data-name="Grupo 95161" transform="translate(-152.225 62.196)">
      <line id="Línea_141-8" data-name="Línea 141" y2="22" transform="translate(646.5 939.5)" fill="none" stroke="#004e64" stroke-width="3"/>
      <path id="Polígono_8-8" data-name="Polígono 8" d="M4.5,0,9,8H0Z" transform="translate(651 965) rotate(180)" fill="#004e64"/>
    </g>
    <g id="Grupo_95162" data-name="Grupo 95162" transform="translate(-152.225 113.946)">
      <line id="Línea_141-9" data-name="Línea 141" y2="22" transform="translate(646.5 939.5)" fill="none" stroke="#004e64" stroke-width="3"/>
      <path id="Polígono_8-9" data-name="Polígono 8" d="M4.5,0,9,8H0Z" transform="translate(651 965) rotate(180)" fill="#004e64"/>
    </g>
    <rect id="Rectángulo_35417" data-name="Rectángulo 35417" width="150" height="38" transform="translate(418.775 975.446)" fill="#d4efff"/>
    <rect id="Rectángulo_35419" data-name="Rectángulo 35419" width="132.5" height="33" transform="translate(402.525 1081.446)" fill="#d4efff"/>
    <rect id="Rectángulo_40472" data-name="Rectángulo 40472" width="125.725" height="33" transform="translate(552.275 1081.446)" fill="#d4efff"/>
    <text id="Tipos_de_redes_de_agua" data-name="Tipos de redes de agua" transform="translate(483 988.696)" fill="#12263f" font-size="13" font-family="Roboto-Regular, Roboto"><tspan x="-67.222" y="14">Tipos de redes de agua</tspan></text>
    <text id="Son" transform="translate(495 1032.946)" fill="#12263f" font-size="13" font-family="Roboto-Regular, Roboto"><tspan x="-11.15" y="14">Son</tspan></text>
    <text id="Redes_ramificadas" data-name="Redes ramificadas" transform="translate(470 1090.446)" fill="#12263f" font-size="13" font-family="Roboto-Regular, Roboto"><tspan x="-53.489" y="14">Redes ramificadas</tspan></text>
    <text id="Redes_malladas" data-name="Redes malladas" transform="translate(623.862 1090.446)" fill="#12263f" font-size="13" font-family="Roboto-Regular, Roboto"><tspan x="-45.992" y="14">Redes malladas</tspan></text>
    <rect id="Rectángulo_35426" data-name="Rectángulo 35426" width="167" height="38" transform="translate(743.5 990.196)" fill="#d4efff"/>
    <rect id="Rectángulo_35428" data-name="Rectángulo 35428" width="167" height="46" transform="translate(743.5 1110.196)" fill="#d4efff"/>
    <rect id="Rectángulo_35434" data-name="Rectángulo 35434" width="167" height="46" transform="translate(743.5 1046.196)" fill="#d4efff"/>
    <text id="Mantenimiento_técnico" data-name="Mantenimiento técnico" transform="translate(816.725 1002.196)" fill="#12263f" font-size="13" font-family="Roboto-Regular, Roboto"><tspan x="-66.45" y="14">Mantenimiento técnico</tspan></text>
    <text id="Análisis_de_datos_registrados" data-name="Análisis de datos registrados" transform="translate(816.725 1053.196)" fill="#12263f" font-size="13" font-family="Roboto-Regular, Roboto"><tspan x="-49.445" y="14">Análisis de datos </tspan><tspan x="-32.675" y="32">registrados</tspan></text>
    <text id="Presentación_de_informes" data-name="Presentación de informes" transform="translate(816.725 1117.196)" fill="#12263f" font-size="13" font-family="Roboto-Regular, Roboto"><tspan x="-74.204" y="14">Presentación de informes</tspan></text>
    <path id="Trazado_146180" data-name="Trazado 146180" d="M6295-10791h-23v191.835" transform="translate(-5252 11710.196)" fill="none" stroke="#004e64" stroke-width="3"/>
    <path id="Trazado_218277" data-name="Trazado 218277" d="M6295-10791h-23l.55,192.306" transform="translate(-5560 11726.196)" fill="none" stroke="#004e64" stroke-width="3"/>
    <rect id="Rectángulo_40471" data-name="Rectángulo 40471" width="167" height="60" transform="translate(723.5 904.196)" fill="#d0fcdf"/>
    <text id="Intervención_de_anomalías" data-name="Intervención de
 anomalías" transform="translate(810 919.196)" fill="#12263f" font-size="13" font-family="Roboto-Black, Roboto" font-weight="800"><tspan x="-45.773" y="14">Intervención de</tspan><tspan x="-31.853" y="32" xml:space="preserve"> anomalías</tspan></text>
  </g>
</svg>
