<svg xmlns="http://www.w3.org/2000/svg" width="265.888" height="265.888" viewBox="0 0 265.888 265.888">
  <g id="Grupo_154378" data-name="Grupo 154378" transform="translate(-253.522 -2836.003)">
    <g id="Grupo_148267_00000101103413091110260360000006662417807731680673_" transform="translate(-357 -2298.973)">
      <g id="Grupo_148241_00000124879490211116686190000001629107784270365058_" transform="translate(12 12)">
        <circle id="Elipse_4725_00000109731991554292417200000003671070362758283400_" cx="132.944" cy="132.944" r="132.944" transform="translate(598.522 5122.976)" fill="#0cca4a"/>
        <circle id="Elipse_4726_00000036227789886392193820000002586142823599220118_" cx="111.551" cy="111.551" r="111.551" transform="translate(619.915 5144.369)" fill="#fff"/>
      </g>
    </g>
    <g id="Grupo_148619" data-name="Grupo 148619" transform="translate(136 2389.027)">
      <g id="Grupo_148534" data-name="Grupo 148534">
        <g id="Grupo_148528" data-name="Grupo 148528">
          <ellipse id="Elipse_4731" data-name="Elipse 4731" cx="5.709" cy="9.856" rx="5.709" ry="9.856" transform="translate(249.438 553.553) rotate(-89.84)" fill="#555b5e" opacity="0.16"/>
        </g>
        <g id="Grupo_148533" data-name="Grupo 148533">
          <g id="Grupo_148529" data-name="Grupo 148529">
            <path id="Trazado_210462" data-name="Trazado 210462" d="M254.134,523.537s-.6,1.665-.133,2.2c.266.133.466-.333.466-.333a5.8,5.8,0,0,0,.533,1.865c.333.4,1.332-.666,1.332-2.065S255.266,522.405,254.134,523.537Z" fill="#e0a082"/>
            <path id="Trazado_210463" data-name="Trazado 210463" d="M255.977,506.466a21.142,21.142,0,0,0-1.421,5.861c-.355,3.463-.888,11.189-.888,11.189a1.619,1.619,0,0,0,2.4-.089s.71-6.926,1.154-9.945,1.687-4.44,1.066-5.772S256.243,505.933,255.977,506.466Z" fill="#7f8488"/>
          </g>
          <g id="Grupo_148530" data-name="Grupo 148530">
            <path id="Trazado_210464" data-name="Trazado 210464" d="M263.057,545.448a2.9,2.9,0,0,1-.866,2c-.932,1-1.532,2.131-1.066,3s2.531.6,3.33-.067.666-1.332,1.4-2.264a2.353,2.353,0,0,0,.6-2.464C266.188,544.649,264.256,544.916,263.057,545.448Z" fill="#555b5e"/>
            <path id="Trazado_210465" data-name="Trazado 210465" d="M256.064,543.451a2.814,2.814,0,0,1-1.132,1.732,2.663,2.663,0,0,0-1.4,2.6c.133,1.132,2,1,2.93.533s.733-.932,1.4-1.665,1.132-.8,1.265-1.6-.067-1.665-.466-1.8A2.305,2.305,0,0,0,256.064,543.451Z" fill="#555b5e"/>
            <path id="Trazado_210466" data-name="Trazado 210466" d="M255.532,522.006s.222,18.515.488,21.8a1.726,1.726,0,0,0,2.842.444c.8-1.51.311-17.005,1.288-19.847C259.883,522.361,256.508,521.65,255.532,522.006Z" fill="#0c98bb"/>
            <path id="Trazado_210467" data-name="Trazado 210467" d="M255.709,522.716a9.14,9.14,0,0,0,4,4.618c2.4,1.243,2.753,3.374,2.93,5.239s.178,12.965.355,13.32,1.687,1.776,3.552,0c.178-5.15.266-21.844-.089-23.976S255.443,521.739,255.709,522.716Z" fill="#0fa4d7"/>
          </g>
          <g id="Grupo_148531" data-name="Grupo 148531">
            <path id="Trazado_210468" data-name="Trazado 210468" d="M267.454,526.024a12.907,12.907,0,0,0-.222,1.82c0,.666.666.044.666.044s.178,1.732.533,2,1.2-.311,1.376-1.687-.266-2.93-.888-3.241S267.454,526.024,267.454,526.024Z" fill="#f5b697"/>
            <path id="Trazado_210469" data-name="Trazado 210469" d="M262.813,505.045s4.262,2.842,4.706,3.818a8.7,8.7,0,0,1-.178,5.594c-.8,1.865-.266,8.614-.533,9.945s-3.818,1.865-6.038,1.51-5.594-1.865-5.594-4.44.444-7.37.266-8.525a19.573,19.573,0,0,1,.355-6.038c.222-.888,1.294-1.012,1.294-1.012S258.7,505,262.813,505.045Z" fill="#8d959c"/>
            <path id="Trazado_210470" data-name="Trazado 210470" d="M266.72,507.975s3.1,1.679,3.2,11.81c0,5.594-.089,6.3-.089,6.3s-1.687,1.6-2.575-.089c0-2.042.355-7.637-.533-11.189s-1.6-3.907-1.6-3.907S264.589,508.242,266.72,507.975Z" fill="#8e959c"/>
          </g>
          <g id="Grupo_148532" data-name="Grupo 148532">
            <path id="Trazado_210471" data-name="Trazado 210471" d="M259.172,504.6a.415.415,0,0,1,0,.134c-.036.307-.163,1.093-.18,1.42s.355.844,1.2.8a3.207,3.207,0,0,0,2.708-1.465,23.342,23.342,0,0,1,.044-2.975Z" fill="#e0a082"/>
            <path id="Trazado_210472" data-name="Trazado 210472" d="M264.056,502.359a4.947,4.947,0,0,1-3.463,3,2.89,2.89,0,0,1-2.864-.466c-.666-.666-1.265-3.663-.866-6.26s2.4-4.129,4.728-3.663S265.854,496.9,264.056,502.359Z" fill="#f5b697"/>
            <path id="Trazado_210473" data-name="Trazado 210473" d="M257.509,497.849s.6,1.789,3.339,2.147a2.924,2.924,0,0,1,2.027,1.55s.477-1.193.835-.954.358.954,0,1.55l-.358.6a4.327,4.327,0,0,1-.417,1.312c.388-.03,1.58-1.55,1.938-3.13s.626-4.084-.566-4.86a2.169,2.169,0,0,0-1.521-1.491,3.918,3.918,0,0,0-4.293.477,5.19,5.19,0,0,0-1.759,5.038A4.1,4.1,0,0,0,257.509,497.849Z" fill="#555a5d"/>
          </g>
        </g>
      </g>
      <g id="Grupo_148540" data-name="Grupo 148540">
        <g id="Grupo_148535" data-name="Grupo 148535" opacity="0.16">
          <ellipse id="Elipse_4732" data-name="Elipse 4732" cx="5.709" cy="9.856" rx="5.709" ry="9.856" transform="translate(227.624 566.465) rotate(-89.84)" fill="#555b5e"/>
        </g>
        <g id="Grupo_148539" data-name="Grupo 148539">
          <g id="Grupo_148536" data-name="Grupo 148536">
            <path id="Trazado_210474" data-name="Trazado 210474" d="M237.045,561.092a10.787,10.787,0,0,1-.084,2.234,2.625,2.625,0,0,1-2.7.716,3.967,3.967,0,0,1-2.023-1.433c-.337-.506-1.526-1.116-1.812-1.686-.443-.881.421-1.6,1.18-1.77a2.7,2.7,0,0,1,2.4.716A9.6,9.6,0,0,0,237.045,561.092Z" fill="#ac5b22"/>
            <path id="Trazado_210475" data-name="Trazado 210475" d="M245.12,558.711a10.787,10.787,0,0,1-.084,2.234,2.625,2.625,0,0,1-2.7.716,3.967,3.967,0,0,1-2.023-1.433c-.337-.506-1.526-1.116-1.812-1.686-.443-.881.421-1.6,1.18-1.77a2.7,2.7,0,0,1,2.4.716A9.6,9.6,0,0,0,245.12,558.711Z" fill="#ac5b22"/>
            <path id="Trazado_210476" data-name="Trazado 210476" d="M245.258,536.244a20.578,20.578,0,0,1-.289,5.261c-.533,2.731-.022,15.651.155,17.338,0,0-1.51,1.865-3.641,0,0-4.973-1.243-13.586-.622-19S245.258,536.244,245.258,536.244Z" fill="#44494c"/>
            <path id="Trazado_210477" data-name="Trazado 210477" d="M245.1,537.043c-.084.309-.4,3.2-4.773,4.928-2.4,1.243-2.753,3.374-2.93,5.239s-.178,13.853-.355,14.208-1.687,1.776-3.552,0c-.178-5.15-.266-22.732.089-24.864S245.369,536.067,245.1,537.043Z" fill="#555b5e"/>
          </g>
          <g id="Grupo_148538" data-name="Grupo 148538">
            <path id="Trazado_210478" data-name="Trazado 210478" d="M232.715,541.372s.6,1.665.133,2.2c-.266.133-.466-.333-.466-.333a5.8,5.8,0,0,1-.533,1.865c-.333.4-1.332-.666-1.332-2.065S231.583,540.24,232.715,541.372Z" fill="#f5b697"/>
            <path id="Trazado_210479" data-name="Trazado 210479" d="M238.109,520.216s-3.73,1.066-5.195,3.419c-.567.911-.622,3.73.178,5.594s.022,8.48.288,9.812,4.063,2,6.283,1.643,5.673-1.866,5.594-4.44c-.224-7.3-.224-10.886-.533-12.609a5.724,5.724,0,0,0-1.465-2.8S242.016,519.417,238.109,520.216Z" fill="#128078"/>
            <path id="Trazado_210480" data-name="Trazado 210480" d="M232.915,523.635s-1.2.488-1.376,4.573-.888,12.7-.888,13.409a1.309,1.309,0,0,0,2.4.355c.937-1.562,1.066-7.9,1.243-8.7s.977-5.861.444-7.459A3.763,3.763,0,0,0,232.915,523.635Z" fill="#555b5e"/>
            <g id="Grupo_148537" data-name="Grupo 148537">
              <path id="Trazado_210481" data-name="Trazado 210481" d="M240.263,509.36a5.208,5.208,0,0,0-3.8.466,3.749,3.749,0,0,0-1.931,3.929c.067,1.665-.067,4.129.8,5.994s4.6.333,5.727-.4,2.331-3.663,2.2-5.927S242.327,509.76,240.263,509.36Z" fill="#e0a082"/>
              <path id="Trazado_210482" data-name="Trazado 210482" d="M241.839,518.38a9.526,9.526,0,0,0-.871,2.376c0,.634-1.346,1.426-3.089,1.109s-1.9-.713-1.9-.713a8.48,8.48,0,0,0,1.109-2.3C237.324,517.826,241.839,518.38,241.839,518.38Z" fill="#e0a082"/>
              <path id="Trazado_210483" data-name="Trazado 210483" d="M236.009,509.33a3.338,3.338,0,0,0-2.146,2.862,2.562,2.562,0,0,0,2.981,2.5c.119.119.119.835.119.835s.835-.835,1.312,0-.358,2.266-1.193,2.027a2.854,2.854,0,0,0,.477,1.55c.477.6,2.027,1.431,2.981,1.073s3.458-2.862,3.7-6.44-1.312-2.981-1.312-2.981a3.616,3.616,0,0,0-2.5-2.147A6.756,6.756,0,0,0,236.009,509.33Z" fill="#555a5d"/>
            </g>
          </g>
        </g>
      </g>
      <g id="Grupo_148546" data-name="Grupo 148546">
        <g id="Grupo_148541" data-name="Grupo 148541">
          <ellipse id="Elipse_4733" data-name="Elipse 4733" cx="5.709" cy="9.856" rx="5.709" ry="9.856" transform="translate(169.24 598.866) rotate(-89.84)" fill="#555b5e" opacity="0.16"/>
        </g>
        <g id="Grupo_148545" data-name="Grupo 148545">
          <g id="Grupo_148542" data-name="Grupo 148542">
            <path id="Trazado_210484" data-name="Trazado 210484" d="M180.794,593.3a10.787,10.787,0,0,0,.084,2.234,2.625,2.625,0,0,0,2.7.716,3.967,3.967,0,0,0,2.023-1.433c.337-.506,1.526-1.116,1.812-1.686.443-.881-.421-1.6-1.18-1.77a2.7,2.7,0,0,0-2.4.716A9.6,9.6,0,0,1,180.794,593.3Z" fill="#555b5e"/>
            <path id="Trazado_210485" data-name="Trazado 210485" d="M172.719,590.915a10.787,10.787,0,0,0,.084,2.234,2.625,2.625,0,0,0,2.7.716,3.967,3.967,0,0,0,2.023-1.433c.337-.506,1.526-1.116,1.812-1.686.443-.881-.421-1.6-1.18-1.77a2.7,2.7,0,0,0-2.4.716A9.6,9.6,0,0,1,172.719,590.915Z" fill="#555b5e"/>
            <path id="Trazado_210486" data-name="Trazado 210486" d="M172.581,568.448a20.578,20.578,0,0,0,.289,5.261c.533,2.731.022,15.651-.155,17.338,0,0,.876,2.04,3.008.176,0-4.973,1.876-13.762,1.255-19.179S172.581,568.448,172.581,568.448Z" fill="#a7735f"/>
            <path id="Trazado_210487" data-name="Trazado 210487" d="M172.737,569.247c.084.309.4,3.2,4.773,4.928,2.4,1.243,2.753,3.374,2.93,5.239s.178,13.853.355,14.208.933,1.761,2.8-.015c.178-5.15,1.021-22.718.665-24.849S172.471,568.27,172.737,569.247Z" fill="#a7735f"/>
            <path id="Trazado_210488" data-name="Trazado 210488" d="M172.581,568.448l-.436,11.327s3.578,2.385,5.843.239c-.119-.716.119-4.889.119-4.889l.6,5.724s3.816,2.5,6.32-.239c-.238-3.458-.566-9.364-.566-9.364S174.33,573.1,172.581,568.448Z" fill="#128078"/>
          </g>
          <g id="Grupo_148544" data-name="Grupo 148544">
            <path id="Trazado_210489" data-name="Trazado 210489" d="M174.45,553.857A2.378,2.378,0,0,0,172.144,556c-.159,2.067,1.749,3.18,3.975,2.862S174.45,553.857,174.45,553.857Z" fill="#a7735f"/>
            <path id="Trazado_210490" data-name="Trazado 210490" d="M179.73,552.42s3.73,1.066,5.195,3.419c.567.911.622,3.73-.178,5.594s-.022,8.48-.288,9.812-4.063,2-6.283,1.643-5.673-1.866-5.594-4.44c.224-7.3.224-10.886.533-12.609a5.724,5.724,0,0,1,1.465-2.8S175.823,551.62,179.73,552.42Z" fill="#f2dd5f"/>
            <g id="Grupo_148543" data-name="Grupo 148543">
              <path id="Trazado_210491" data-name="Trazado 210491" d="M177.576,541.564a5.208,5.208,0,0,1,3.8.466,3.749,3.749,0,0,1,1.931,3.929c-.067,1.665.067,4.129-.8,5.994s-4.6.333-5.727-.4-2.331-3.663-2.2-5.927S175.512,541.963,177.576,541.564Z" fill="#a7735f"/>
              <path id="Trazado_210492" data-name="Trazado 210492" d="M176,550.584a9.526,9.526,0,0,1,.871,2.376c0,.634,1.346,1.426,3.089,1.109s1.9-.713,1.9-.713a8.48,8.48,0,0,1-1.109-2.3C180.514,550.03,176,550.584,176,550.584Z" fill="#a7735f"/>
              <path id="Trazado_210493" data-name="Trazado 210493" d="M183.2,544.714a15.181,15.181,0,0,0-1.033-3.975c-1.749-.636-5.406-.318-6.758,1.034-.954.875-1.431,3.419-1.431,3.419a7.723,7.723,0,0,0,1.352,4.532,8.033,8.033,0,0,1,1.033,1.828c.318-.08,1.988.954,3.578,0l.715-2.146s-1.352-2.067-.477-2.782,1.193.716,1.193.716l.318-.716-.557-1.987Z" fill="#555a5d"/>
            </g>
            <path id="Trazado_210494" data-name="Trazado 210494" d="M184.706,556.48s-1.113-1.113-2.544.318-.318,3.657,1.59,4.293,6.042.159,7.791-1.272-.636-7.791-2.385-9.063a19.749,19.749,0,0,0-1.033-2.305c-.4-.636-1.749-1.352-1.829-.954a6.514,6.514,0,0,0,.238,2.464c-.238-.08-1.193-.08-1.193.159s.477.636,1.272.716a1.746,1.746,0,0,1,1.193.636s1.988,4.293,1.59,5.724C188.761,557.832,187.091,557.991,184.706,556.48Z" fill="#a7735f"/>
          </g>
        </g>
      </g>
      <g id="Grupo_148552" data-name="Grupo 148552">
        <g id="Grupo_148547" data-name="Grupo 148547">
          <ellipse id="Elipse_4734" data-name="Elipse 4734" cx="5.709" cy="9.856" rx="5.709" ry="9.856" transform="translate(214.44 617.276) rotate(-89.84)" fill="#555b5e" opacity="0.16"/>
        </g>
        <g id="Grupo_148551" data-name="Grupo 148551">
          <g id="Grupo_148548" data-name="Grupo 148548">
            <path id="Trazado_210495" data-name="Trazado 210495" d="M222.158,609.174a2.9,2.9,0,0,0,.866,2c.932,1,1.532,2.131,1.066,3s-2.531.6-3.33-.067-.666-1.332-1.4-2.264a2.354,2.354,0,0,1-.6-2.464C219.027,608.375,220.959,608.641,222.158,609.174Z" fill="#6e4739"/>
            <path id="Trazado_210496" data-name="Trazado 210496" d="M229.15,607.176a2.814,2.814,0,0,0,1.132,1.732,2.663,2.663,0,0,1,1.4,2.6c-.133,1.132-2,1-2.93.533s-.733-.932-1.4-1.665-1.132-.8-1.265-1.6.067-1.665.466-1.8A2.307,2.307,0,0,1,229.15,607.176Z" fill="#6e4739"/>
            <path id="Trazado_210497" data-name="Trazado 210497" d="M229.683,585.731s-.222,18.515-.488,21.8a1.726,1.726,0,0,1-2.842.444c-.8-1.51-.311-17.005-1.288-19.847C225.332,586.086,228.706,585.376,229.683,585.731Z" fill="#0c98bb"/>
            <path id="Trazado_210498" data-name="Trazado 210498" d="M229.506,586.442a9.14,9.14,0,0,1-4,4.618c-2.4,1.243-2.753,3.374-2.93,5.239s-.178,12.965-.355,13.32-1.687,1.776-3.552,0c-.178-5.15-.266-21.844.089-23.976S229.772,585.465,229.506,586.442Z" fill="#0fa4d7"/>
          </g>
          <g id="Grupo_148550" data-name="Grupo 148550">
            <path id="Trazado_210499" data-name="Trazado 210499" d="M228.542,570.739s1.789.6,2.5,3.578.954,3.816.954,3.816a9.044,9.044,0,0,1,2.862-1.431,3.279,3.279,0,0,0,2.147-1.55s-.358-.954,0-1.312-.238-2.027.238-1.789a2.331,2.331,0,0,1,.835,1.789v.6s1.193-.954,1.908-.477,0,1.073,0,1.073a1.846,1.846,0,0,1,.238,1.312c-.119.835-1.312,1.073-1.908,1.073s-2.981,2.266-4.532,2.981-1.908,1.908-2.5,1.55a12.632,12.632,0,0,1-3.816-4.055C226.753,576.224,225.322,573.005,228.542,570.739Z" fill="#e0a082"/>
            <path id="Trazado_210500" data-name="Trazado 210500" d="M222.4,568.771s-4.262,2.842-4.706,3.818a8.7,8.7,0,0,0,.178,5.594c.8,1.865.266,8.614.533,9.945s3.818,1.865,6.038,1.51,5.594-1.865,5.594-4.44-.444-7.37-.266-8.525a15.042,15.042,0,0,0-.336-5.279c-.222-.888-1.491-1.491-1.491-1.491S226.633,569.189,222.4,568.771Z" fill="#cdd8e7"/>
            <path id="Trazado_210501" data-name="Trazado 210501" d="M219.916,577.934c.4-3.18,0-4.85-.874-5.247a1.467,1.467,0,0,0-1.346-.1,7.241,7.241,0,0,0-1.755,5.345c0,1.431-.795,4.85-.636,6.281.153,1.375.16,3.848.584,4.885a4.729,4.729,0,0,0-.48,2.825c.178,1.376,1.021,1.954,1.376,1.687s.533-2,.533-2,.666.622.666-.044a12.905,12.905,0,0,0-.222-1.82,4.36,4.36,0,0,0-.592-.742c.376-.6.6-3.407.6-4.872C217.769,582.625,219.518,581.114,219.916,577.934Z" fill="#e0a082"/>
            <g id="Grupo_148549" data-name="Grupo 148549">
              <path id="Trazado_210502" data-name="Trazado 210502" d="M221.158,566.084a4.947,4.947,0,0,0,3.463,3,2.89,2.89,0,0,0,2.864-.466c.666-.666,1.265-3.663.866-6.26s-2.4-4.129-4.729-3.663S219.36,560.623,221.158,566.084Z" fill="#e0a082"/>
              <path id="Trazado_210503" data-name="Trazado 210503" d="M226.042,568.327a.418.418,0,0,0,0,.134c.036.307.163,1.093.18,1.42s-.355.844-1.2.8a3.207,3.207,0,0,1-2.708-1.465,23.34,23.34,0,0,0-.044-2.975Z" fill="#e0a082"/>
              <path id="Trazado_210504" data-name="Trazado 210504" d="M226.753,566.625a3.257,3.257,0,0,0-.715-.119c-.3,0-1.014.716-1.014.716l-1.014-.119a3.137,3.137,0,0,0,1.252.537,3.237,3.237,0,0,0,1.491-.477,3.844,3.844,0,0,0,.835.358c.179,0,.954-.835.954-.835l-.715.239-.715-.656Z" fill="#915f4a"/>
              <path id="Trazado_210505" data-name="Trazado 210505" d="M220.075,562.63s6.042,1.471,8.666.2a18.04,18.04,0,0,0-.238-1.908,41.958,41.958,0,0,1-7.155-.358Z" fill="#cdd8e7"/>
              <path id="Trazado_210506" data-name="Trazado 210506" d="M225.918,561.2s-.537,2.623-1.371,3.458a5.7,5.7,0,0,1-2.087.835,9.086,9.086,0,0,0,.954-1.371c-.656.716-1.073,1.193-1.729,1.312a5.56,5.56,0,0,1-1.491,0l.417-.537-1.133.417a1.815,1.815,0,0,0,.537-1.431,13.794,13.794,0,0,1,.775-4.114,3.381,3.381,0,0,1,1.968-1.729l2.325.3a6.953,6.953,0,0,1,2.087,0,3.48,3.48,0,0,1,2.286,2.345c.079.715-.079,2.942,0,3.26a1.55,1.55,0,0,0,.477.636s-1.272-.239-1.51-.557a31.981,31.981,0,0,1-1.113-3.26l-.715.238-.557-.557Z" fill="#915f4a"/>
            </g>
          </g>
        </g>
      </g>
      <g id="Grupo_148558" data-name="Grupo 148558">
        <g id="Grupo_148553" data-name="Grupo 148553" opacity="0.16">
          <ellipse id="Elipse_4735" data-name="Elipse 4735" cx="5.709" cy="9.856" rx="5.709" ry="9.856" transform="translate(236.881 627.021) rotate(-89.84)" fill="#555b5e"/>
        </g>
        <g id="Grupo_148557" data-name="Grupo 148557">
          <g id="Grupo_148554" data-name="Grupo 148554">
            <path id="Trazado_210507" data-name="Trazado 210507" d="M243.438,621.467a3.807,3.807,0,0,1-1.749.159c-.874-.159-1.829-.4-2.226,0s-.079.875,1.033,1.352a14.729,14.729,0,0,0,2.306.716,3.208,3.208,0,0,0,1.829.239c.557-.239.557-1.113.477-1.352a7.666,7.666,0,0,1-.159-.954Z" fill="#0fa4d7"/>
            <path id="Trazado_210508" data-name="Trazado 210508" d="M252.382,618.486a3.807,3.807,0,0,1-1.749.159c-.874-.159-1.829-.4-2.226,0s-.079.875,1.033,1.352a14.732,14.732,0,0,0,2.305.716,3.208,3.208,0,0,0,1.829.239c.557-.239.557-1.113.477-1.352a7.666,7.666,0,0,1-.159-.954Z" fill="#0fa4d7"/>
            <path id="Trazado_210509" data-name="Trazado 210509" d="M254.516,596.8a20.578,20.578,0,0,1-.289,5.261c-.533,2.731-.472,15.49-.295,17.177,0,0-.557,1.511-2.306-.08,0-4.973-2.128-13.346-1.507-18.763S254.516,596.8,254.516,596.8Z" fill="#444a4c"/>
            <path id="Trazado_210510" data-name="Trazado 210510" d="M254.36,597.6c-.084.309-.4,3.2-4.773,4.928-2.333,1.367-2.394,3.319-2.572,5.183s-1.889,13.558-2.067,13.913-.334,2.127-2.2.351c-.178-5.15-.266-22.732.089-24.864S254.627,596.625,254.36,597.6Z" fill="#555b5e"/>
          </g>
          <g id="Grupo_148556" data-name="Grupo 148556">
            <path id="Trazado_210511" data-name="Trazado 210511" d="M251.468,581.08a8.632,8.632,0,0,1,3.578,2.147,26.8,26.8,0,0,1,4.055,5.724c.6,1.431-4.174,6.2-5.128,6.8-1.073.477-1.431-.954-.835-1.55a24.137,24.137,0,0,0,2.743-4.532c0-.358-4.532-3.578-5.128-4.77S250.156,581.677,251.468,581.08Z" fill="#e0a082"/>
            <path id="Trazado_210512" data-name="Trazado 210512" d="M247.367,580.774s-3.73,1.066-5.195,3.419a7.083,7.083,0,0,0,.178,5.594c1.962,3.576-.423,6.438.288,9.812.28,1.329,4.063,2,6.283,1.643s6.154-1.926,5.594-4.44c-2.173-9.759-.224-10.886-.533-12.609a5.724,5.724,0,0,0-1.465-2.8S251.274,579.975,247.367,580.774Z" fill="#9180b8"/>
            <g id="Grupo_148555" data-name="Grupo 148555">
              <path id="Trazado_210513" data-name="Trazado 210513" d="M249.521,569.919a5.208,5.208,0,0,0-3.8.466,3.749,3.749,0,0,0-1.931,3.929c.067,1.665-.067,4.129.8,5.994s4.6.333,5.727-.4,2.331-3.663,2.2-5.927S251.585,570.318,249.521,569.919Z" fill="#e0a082"/>
              <path id="Trazado_210514" data-name="Trazado 210514" d="M251.1,578.938a9.526,9.526,0,0,0-.871,2.376c0,.634-1.346,1.426-3.089,1.109s-1.9-.713-1.9-.713a8.48,8.48,0,0,0,1.109-2.3C246.583,578.384,251.1,578.938,251.1,578.938Z" fill="#e0a082"/>
              <path id="Trazado_210515" data-name="Trazado 210515" d="M244.909,570.467a4.222,4.222,0,0,0-1.312,3.339c.119,2.147,2.146,1.789,2.624,2.862.358-.477,0-1.55,0-1.55a4.051,4.051,0,0,1,.954,1.431,4.943,4.943,0,0,0,.715,2.385c.6.716,2.763.994,2.763.994a9.4,9.4,0,0,0,2.6-5.168c.238-2.862-.84-5.443-2.862-5.724C246.1,568.44,244.909,570.467,244.909,570.467Z" fill="#915f4a"/>
              <path id="Trazado_210516" data-name="Trazado 210516" d="M251.349,571.659s.835-2.027,2.385-1.431,2.624,1.431,2.624,3.935-.238,4.412,1.312,5.963c-.477.477-2.862.119-3.7-1.67a8.1,8.1,0,0,1-.835-3.1v2.027s-1.64-.775-1.073-4.412C252.158,572.37,250.514,573.21,251.349,571.659Z" fill="#83533b"/>
            </g>
            <path id="Trazado_210517" data-name="Trazado 210517" d="M244.67,584.3s-3.816-3.22-5.128-5.724c-1.277-2.438.493-7.129.7-9.246a4.749,4.749,0,0,0,1.131-.97c.318-.477,1.352-.954,1.033-1.113s-1.352.239-1.352.239a13.514,13.514,0,0,0,1.749-2.623c.079-.557-1.352-.239-2.226.4a6.69,6.69,0,0,0-1.63,4.134,15.646,15.646,0,0,0-2.743,6.8c-.238,3.1.6,4.174.6,4.174s2.862,6.8,5.486,8.348S245.863,585.97,244.67,584.3Z" fill="#e0a082"/>
          </g>
        </g>
      </g>
      <g id="Grupo_148563" data-name="Grupo 148563">
        <g id="Grupo_148559" data-name="Grupo 148559" opacity="0.16">
          <ellipse id="Elipse_4736" data-name="Elipse 4736" cx="5.709" cy="9.856" rx="5.709" ry="9.856" transform="translate(256.858 668.334) rotate(-89.84)" fill="#555b5e"/>
        </g>
        <g id="Grupo_148562" data-name="Grupo 148562">
          <path id="Trazado_210518" data-name="Trazado 210518" d="M266.28,662.965a10.789,10.789,0,0,1-.084,2.234,2.625,2.625,0,0,1-2.7.716,3.967,3.967,0,0,1-2.023-1.433c-.337-.506-1.526-1.116-1.812-1.686-.444-.881.422-1.6,1.18-1.77a2.7,2.7,0,0,1,2.4.716A9.606,9.606,0,0,0,266.28,662.965Z" fill="#0ba4fd"/>
          <path id="Trazado_210519" data-name="Trazado 210519" d="M274.356,660.584a10.789,10.789,0,0,1-.084,2.234,2.625,2.625,0,0,1-2.7.716,3.967,3.967,0,0,1-2.023-1.433c-.337-.506-1.526-1.116-1.812-1.686-.444-.881.422-1.6,1.18-1.77a2.7,2.7,0,0,1,2.4.716A9.6,9.6,0,0,0,274.356,660.584Z" fill="#0ba4fd"/>
          <path id="Trazado_210520" data-name="Trazado 210520" d="M274.493,638.117a20.576,20.576,0,0,1-.289,5.261c-.533,2.731-.022,15.651.155,17.338,0,0-1.51,1.865-3.641,0,0-4.973-1.243-13.586-.622-19S274.493,638.117,274.493,638.117Z" fill="#42494c"/>
          <path id="Trazado_210521" data-name="Trazado 210521" d="M274.338,638.917c-.084.309-.4,3.2-4.773,4.928-2.4,1.243-2.753,3.374-2.93,5.239s-.178,13.853-.355,14.208-1.687,1.776-3.552,0c-.178-5.15-.266-22.732.089-24.864S274.6,637.94,274.338,638.917Z" fill="#555b5e"/>
          <g id="Grupo_148561" data-name="Grupo 148561">
            <path id="Trazado_210522" data-name="Trazado 210522" d="M261.95,643.245s.6,1.665.133,2.2c-.266.133-.466-.333-.466-.333a5.8,5.8,0,0,1-.533,1.865c-.333.4-1.332-.666-1.332-2.065S260.818,642.113,261.95,643.245Z" fill="#896659"/>
            <path id="Trazado_210523" data-name="Trazado 210523" d="M267.345,622.089s-3.73,1.066-5.195,3.419c-.567.911-.622,3.73.178,5.594s.022,8.48.289,9.812,4.063,2,6.283,1.643,5.673-1.866,5.594-4.44c-.224-7.3-.224-10.886-.533-12.609a5.724,5.724,0,0,0-1.465-2.8S271.252,621.29,267.345,622.089Z" fill="#0ba4fd"/>
            <path id="Trazado_210524" data-name="Trazado 210524" d="M262.15,625.508s-1.2.488-1.376,4.573-.888,12.7-.888,13.409a1.309,1.309,0,0,0,2.4.355c.937-1.562,1.066-7.9,1.243-8.7s.977-5.861.444-7.459A3.762,3.762,0,0,0,262.15,625.508Z" fill="#0c98bb"/>
            <g id="Grupo_148560" data-name="Grupo 148560">
              <path id="Trazado_210525" data-name="Trazado 210525" d="M269.5,611.234a5.208,5.208,0,0,0-3.8.466,3.749,3.749,0,0,0-1.931,3.929c.067,1.665-.067,4.129.8,5.994s4.6.333,5.728-.4,2.331-3.663,2.2-5.927S271.563,611.633,269.5,611.234Z" fill="#896659"/>
              <path id="Trazado_210526" data-name="Trazado 210526" d="M271.074,620.253a9.526,9.526,0,0,0-.871,2.376c0,.633-1.346,1.425-3.089,1.109s-1.9-.713-1.9-.713a8.481,8.481,0,0,0,1.109-2.3C266.56,619.7,271.074,620.253,271.074,620.253Z" fill="#896659"/>
              <path id="Trazado_210527" data-name="Trazado 210527" d="M263.734,614.454a1.8,1.8,0,0,0,2.385.795c1.829-.557,2.2.008,1.987,1.193a5.989,5.989,0,0,1-.477,1.113s1.193-.954,1.511-.159.159,1.352-.636,1.669a1.546,1.546,0,0,0-.954.954,2.744,2.744,0,0,0,1.67,1.034,3.234,3.234,0,0,0,1.59-.239,7.478,7.478,0,0,0,1.908-5.009c.079-3.26-1.987-4.611-3.18-4.85S263.654,610.4,263.734,614.454Z" fill="#42494c"/>
            </g>
          </g>
        </g>
      </g>
      <g id="Grupo_148570" data-name="Grupo 148570">
        <g id="Grupo_148564" data-name="Grupo 148564">
          <ellipse id="Elipse_4737" data-name="Elipse 4737" cx="5.709" cy="9.856" rx="5.709" ry="9.856" transform="translate(204.188 555.427) rotate(-89.84)" fill="#555b5e" opacity="0.16"/>
        </g>
        <g id="Grupo_148569" data-name="Grupo 148569">
          <g id="Grupo_148565" data-name="Grupo 148565">
            <path id="Trazado_210528" data-name="Trazado 210528" d="M211.906,547.323a2.9,2.9,0,0,0,.866,2c.932,1,1.532,2.131,1.066,3s-2.531.6-3.33-.067-.666-1.332-1.4-2.264a2.353,2.353,0,0,1-.6-2.464C208.775,546.524,210.707,546.79,211.906,547.323Z" fill="#555b5e"/>
            <path id="Trazado_210529" data-name="Trazado 210529" d="M218.9,545.325a2.814,2.814,0,0,0,1.132,1.732,2.663,2.663,0,0,1,1.4,2.6c-.133,1.132-2,1-2.93.533s-.733-.932-1.4-1.665-1.132-.8-1.265-1.6.067-1.665.466-1.8A2.307,2.307,0,0,1,218.9,545.325Z" fill="#555b5e"/>
            <path id="Trazado_210530" data-name="Trazado 210530" d="M219.431,523.88s-.222,18.515-.488,21.8a1.726,1.726,0,0,1-2.842.444c-.8-1.51-.311-17.005-1.288-19.847C215.08,524.235,218.455,523.525,219.431,523.88Z" fill="#ac5b22"/>
            <path id="Trazado_210531" data-name="Trazado 210531" d="M219.254,524.59a9.14,9.14,0,0,1-4,4.618c-2.4,1.243-2.753,3.374-2.93,5.239s-.178,12.965-.355,13.32-1.687,1.776-3.552,0c-.178-5.15-.266-21.844.089-23.976S219.52,523.614,219.254,524.59Z" fill="#c26531"/>
          </g>
          <g id="Grupo_148568" data-name="Grupo 148568">
            <path id="Trazado_210532" data-name="Trazado 210532" d="M218.409,509.223s1.51.716,1.829,3.339a39.668,39.668,0,0,0,.954,5.406s1.749.716,3.1,1.352a4,4,0,0,0,1.908.557,5.071,5.071,0,0,1,1.431-1.113l.477-.239a1.5,1.5,0,0,1-.238.954l-.318.557a7.914,7.914,0,0,1,2.146.239c.4.239-.795.954-.795.954a4.853,4.853,0,0,1-1.431.795c-.636.159-2.067-.636-2.067-.636s-3.578-.318-4.691-1.034a5.58,5.58,0,0,1-2.465-3.1C217.932,515.981,215.308,510.018,218.409,509.223Z" fill="#e0a082"/>
            <g id="Grupo_148566" data-name="Grupo 148566">
              <path id="Trazado_210533" data-name="Trazado 210533" d="M218.807,508.667s1.352,0,2.226,3.9a31.164,31.164,0,0,1,.477,3.419s-1.193,1.749-3.657.636a21.074,21.074,0,0,1-.715-4.055A5.52,5.52,0,0,1,218.807,508.667Z" fill="#555b5e"/>
              <path id="Trazado_210534" data-name="Trazado 210534" d="M212.15,506.919s-4.262,2.842-4.706,3.818a8.7,8.7,0,0,0,.178,5.594c.8,1.865.266,8.614.533,9.945s3.818,1.865,6.038,1.51,5.594-1.865,5.594-4.44-.444-7.37-.266-8.525a20.1,20.1,0,0,0-.355-6.038c-.1-.415-1.472-.892-1.472-.892S216.262,506.878,212.15,506.919Z" fill="#cf1e50"/>
              <path id="Trazado_210535" data-name="Trazado 210535" d="M207.438,512.423s-2.564,5.009-1.729,9c.715,1.431,4.114.835,5.665-.239a1.38,1.38,0,0,0,1.55-.716l.179-.179s1.073-.179,1.312-.6c.179-.417-.775-1.312-1.431-1.252s-1.789,1.371-1.789,1.371a12.021,12.021,0,0,1-3.458.119,38.152,38.152,0,0,1,2.027-6.141c.656-1.133.894-2.087-.06-2.564S207.974,511.35,207.438,512.423Z" fill="#e0a082"/>
              <path id="Trazado_210536" data-name="Trazado 210536" d="M208.243,509.85s-2.793,1.6-3.19,8.357c0,.4,2.624,1.829,4.293.239a29.644,29.644,0,0,1,1.272-4.691c.477-1.034.715-1.908-.318-2.942S208.65,509.522,208.243,509.85Z" fill="#555b5e"/>
            </g>
            <g id="Grupo_148567" data-name="Grupo 148567">
              <path id="Trazado_210537" data-name="Trazado 210537" d="M215.791,506.475a.418.418,0,0,0,0,.134c.036.307.163,1.093.18,1.42s-.355.844-1.2.8a3.207,3.207,0,0,1-2.708-1.465,23.342,23.342,0,0,0-.044-2.975Z" fill="#e0a082"/>
              <path id="Trazado_210538" data-name="Trazado 210538" d="M210.907,504.233a4.947,4.947,0,0,0,3.463,3,2.89,2.89,0,0,0,2.864-.466c.666-.666,1.265-3.663.866-6.26s-2.4-4.129-4.729-3.663S209.109,498.772,210.907,504.233Z" fill="#f5b697"/>
              <path id="Trazado_210539" data-name="Trazado 210539" d="M211.79,497.1a3,3,0,0,1,3.935-.775c2.564,1.252,2.8,2.325,3.935,2.147-.06.417-.179,1.908-2.683,2.206a8.176,8.176,0,0,1-4.412-.716,3,3,0,0,1,.477,1.789c0,1.193-.3,1.193-.3,1.193s-.358-1.61-.954-1.491-.6,1.61-.119,2.147.775.3.775.3a.63.63,0,0,1-.43.492.449.449,0,0,1-.584-.134,2.465,2.465,0,0,0,.715.775c0,.179-.6.179-.6.179a3.921,3.921,0,0,0,.715.716c-.119.119-.954.238-1.789-.954a5.9,5.9,0,0,1-1.073-4.233c.179-1.729.835-2.206.835-2.206A1.854,1.854,0,0,1,211.79,497.1Z" fill="#915f4a"/>
            </g>
          </g>
        </g>
      </g>
      <g id="Grupo_148575" data-name="Grupo 148575">
        <g id="Grupo_148571" data-name="Grupo 148571">
          <ellipse id="Elipse_4738" data-name="Elipse 4738" cx="5.709" cy="9.856" rx="5.709" ry="9.856" transform="translate(291.922 575.175) rotate(-89.84)" fill="#555b5e" opacity="0.16"/>
        </g>
        <path id="Trazado_210540" data-name="Trazado 210540" d="M305.542,567.072a2.9,2.9,0,0,1-.866,2c-.932,1-1.532,2.131-1.066,3s2.531.6,3.33-.067.666-1.332,1.4-2.264a2.353,2.353,0,0,0,.6-2.464C308.672,566.273,306.741,566.539,305.542,567.072Z" fill="#555b5e"/>
        <path id="Trazado_210541" data-name="Trazado 210541" d="M298.549,565.074a2.814,2.814,0,0,1-1.132,1.732,2.663,2.663,0,0,0-1.4,2.6c.133,1.132,2,1,2.93.533s.733-.932,1.4-1.665,1.132-.8,1.265-1.6-.067-1.665-.466-1.8A2.307,2.307,0,0,0,298.549,565.074Z" fill="#555b5e"/>
        <g id="Grupo_148572" data-name="Grupo 148572">
          <path id="Trazado_210542" data-name="Trazado 210542" d="M298.017,543.629s.222,18.515.488,21.8a1.726,1.726,0,0,0,2.842.444c.8-1.51.311-17.005,1.288-19.847C302.368,543.984,298.993,543.274,298.017,543.629Z" fill="#5f6568"/>
          <path id="Trazado_210543" data-name="Trazado 210543" d="M298.194,544.34a9.14,9.14,0,0,0,4,4.618c2.4,1.243,2.753,3.374,2.93,5.239s.178,12.965.355,13.32,1.687,1.776,3.552,0c.178-5.15.266-21.844-.089-23.976S297.928,543.363,298.194,544.34Z" fill="#6d7377"/>
        </g>
        <g id="Grupo_148573" data-name="Grupo 148573">
          <path id="Trazado_210544" data-name="Trazado 210544" d="M298.5,528.416a55.377,55.377,0,0,0-2.743,8.109c-.358.6-3.339-.239-5.128-.954a1.856,1.856,0,0,0-.716,2.624,25,25,0,0,0,6.917,2.146,21.7,21.7,0,0,0,3.935-8.825C301.246,528.536,299.934,527.581,298.5,528.416Z" fill="#6d7377"/>
          <path id="Trazado_210545" data-name="Trazado 210545" d="M309.939,547.648a12.907,12.907,0,0,0-.222,1.82c0,.666.666.044.666.044s.178,1.732.533,2,1.2-.311,1.376-1.687-.266-2.93-.888-3.241S309.939,547.648,309.939,547.648Z" fill="#f5b697"/>
          <path id="Trazado_210546" data-name="Trazado 210546" d="M305.3,526.669s4.262,2.842,4.706,3.818a8.7,8.7,0,0,1-.178,5.594c-.8,1.865-.266,8.614-.533,9.945s-3.818,1.865-6.038,1.51-5.229-.724-5.229-3.3.079-8.511-.1-9.665a17.936,17.936,0,0,1,.4-5.738C298.546,527.946,301.186,526.508,305.3,526.669Z" fill="#6d7377"/>
          <path id="Trazado_210547" data-name="Trazado 210547" d="M309.2,529.6s2.93,2.22,3.2,11.81c0,5.594-.089,6.3-.089,6.3s-1.687,1.6-2.575-.089c0-2.042.355-7.637-.533-11.189s-1.6-3.907-1.6-3.907S307.074,529.865,309.2,529.6Z" fill="#6d7377"/>
          <path id="Trazado_210548" data-name="Trazado 210548" d="M290.553,536.049a10.936,10.936,0,0,0-1.59-2.226c-.4,0-.159,1.59-.159,1.59s-2.7-1.51-2.783-1.193,1.67,1.51,1.67,1.51-2.306-.557-2.147-.239a8.67,8.67,0,0,0,2.147,1.034s-1.59-.239-1.67.159,2.067.477,2.067.477-1.51.557-1.193.795,1.352-.159,1.352-.159a3.775,3.775,0,0,0,1.987.239C291.03,537.8,291.03,536.764,290.553,536.049Z" fill="#e0a082"/>
          <path id="Trazado_210549" data-name="Trazado 210549" d="M300.65,527.283s-.636,6.459,1.113,10.912c0,0,3.9-8.666,5.009-10.494a8.253,8.253,0,0,0-2.564-1.59C303.333,525.872,300.65,527.283,300.65,527.283Z" fill="#cdd8e7"/>
          <path id="Trazado_210550" data-name="Trazado 210550" d="M302.121,529.35l-.477.835.715.716.656-.776-.358-.715Z" fill="#cf1e50"/>
          <path id="Trazado_210551" data-name="Trazado 210551" d="M302.021,530.5l-.954,5.247a6.609,6.609,0,0,0,.7,2.445c.616-.477,1.63-3.279,1.63-3.279l-.894-4.532Z" fill="#cf1e50"/>
          <path id="Trazado_210552" data-name="Trazado 210552" d="M301.763,538.2s3.915-9.182,5.009-10.494c.437.835.437,5.545.437,5.545l-2.8,1.014.537,1.193Z" fill="#555a5d"/>
          <path id="Trazado_210553" data-name="Trazado 210553" d="M300.65,527.283a18,18,0,0,0-1.848,5.486l1.312.835-.537,1.073s.914,2.564,2.186,3.518C301.186,535.989,300.352,529.43,300.65,527.283Z" fill="#555a5d"/>
          <path id="Trazado_210554" data-name="Trazado 210554" d="M301.9,539.894a.268.268,0,1,1-.268-.268A.268.268,0,0,1,301.9,539.894Z" fill="#555b5e"/>
          <path id="Trazado_210555" data-name="Trazado 210555" d="M301.723,543.442a.268.268,0,1,1-.268-.268A.268.268,0,0,1,301.723,543.442Z" fill="#555b5e"/>
        </g>
        <g id="Grupo_148574" data-name="Grupo 148574">
          <path id="Trazado_210556" data-name="Trazado 210556" d="M301.657,526.225a.417.417,0,0,1,0,.134c-.036.307-.163,1.093-.18,1.42s.355.844,1.2.8a3.207,3.207,0,0,0,2.708-1.465,23.342,23.342,0,0,1,.044-2.975Z" fill="#e0a082"/>
          <path id="Trazado_210557" data-name="Trazado 210557" d="M306.541,523.982a4.947,4.947,0,0,1-3.463,3,2.89,2.89,0,0,1-2.864-.466c-.666-.666-1.265-3.663-.866-6.26s2.4-4.129,4.728-3.663S308.339,518.521,306.541,523.982Z" fill="#f5b697"/>
          <path id="Trazado_210558" data-name="Trazado 210558" d="M304.883,519.651a6.65,6.65,0,0,1-5.664,1.431s-.238-6.559,6.618-4.234a3.493,3.493,0,0,1,1.908,2.266,8.362,8.362,0,0,1-1.521,5.545,6.639,6.639,0,0,1-.268-1.431,1.806,1.806,0,0,0,.626-1.7c-.209-1.044-.865-.328-.894.447a1.827,1.827,0,0,0-.209.447l-.119-.775S304.555,521.142,304.883,519.651Z" fill="#555a5d"/>
        </g>
        <path id="Trazado_210559" data-name="Trazado 210559" d="M298.821,546.145s2.544,2.226,10.256,1.034c0-.239.079-.795.079-.795S302.8,547.815,298.821,546.145Z" fill="#5f6568"/>
      </g>
      <g id="Grupo_148581" data-name="Grupo 148581">
        <g id="Grupo_148576" data-name="Grupo 148576" opacity="0.16">
          <ellipse id="Elipse_4739" data-name="Elipse 4739" cx="5.709" cy="9.856" rx="5.709" ry="9.856" transform="translate(265.848 575.999) rotate(-89.84)" fill="#555b5e"/>
        </g>
        <g id="Grupo_148580" data-name="Grupo 148580">
          <g id="Grupo_148577" data-name="Grupo 148577">
            <path id="Trazado_210560" data-name="Trazado 210560" d="M279.132,566.958a1.872,1.872,0,0,0,.748,1.417c.763.579,3.227,1.5,2.575,2.352.116.469-1.481.434-2.561-.12s-1.617-1.31-2.013-1.279-.555.043-.738-.262a9.971,9.971,0,0,1,.206-2.488S278.915,567.254,279.132,566.958Z" fill="#555b5e"/>
            <path id="Trazado_210561" data-name="Trazado 210561" d="M280.668,543.74c0,.358-.119,5.009-.358,9.9s-.477,6.8-.477,6.8-.477,5.724-.716,6.559-1.312.477-1.669,0c-.238-.716.358-7.036-.238-11.091s-1.55-7.513-1.789-9.182S280.668,543.74,280.668,543.74Z" fill="#e0a082"/>
            <path id="Trazado_210562" data-name="Trazado 210562" d="M272.32,567.829a2.384,2.384,0,0,0,.954,2.146c1.193,1.073,2.385,1.55,2.624,2.266s-1.67,1.073-2.981.239-1.789-1.908-2.147-1.908,0,.119-.358,0c0,0-.556-.159-.676-.557a15.344,15.344,0,0,1,.4-2.385A12.789,12.789,0,0,0,272.32,567.829Z" fill="#555b5e"/>
            <path id="Trazado_210563" data-name="Trazado 210563" d="M280.31,545.529a6.592,6.592,0,0,1-3.39,4.252c-2.4,1.243-2.563,3.4-2.93,5.239-.276,1.38-2.594,7.526-1.71,13.127.062.392-.333,1.969-2.2.193-.178-5.15-.266-21.845.089-23.976S280.576,544.552,280.31,545.529Z" fill="#e0a082"/>
            <path id="Trazado_210564" data-name="Trazado 210564" d="M269.935,543.621a13.311,13.311,0,0,0-.835,6.32,16.137,16.137,0,0,1,.119,5.009s3.339,2.146,6.082.835,5.247-1.55,5.6-2.862c.358-2.623.716-8.109-.6-10.017S278.759,545.768,269.935,543.621Z" fill="#555b5e"/>
          </g>
          <g id="Grupo_148578" data-name="Grupo 148578">
            <path id="Trazado_210565" data-name="Trazado 210565" d="M279.992,528.317a4.257,4.257,0,0,1,2.306,2.305c.716,1.749-.079,5.168-.079,5.168a10.837,10.837,0,0,1,2.544-3.578c1.51-1.193,1.67-1.67,1.67-1.67s0-1.272.4-1.669c.238.08.318,1.193.318,1.193s1.034-1.034,1.749-1.034c.636.159-.079,1.829-.716,2.385a2.389,2.389,0,0,1-1.431.557s-2.226,3.419-2.7,4.293a4.428,4.428,0,0,1-2.783,1.749C280.469,538.1,279.356,531.1,279.992,528.317Z" fill="#e0a082"/>
            <path id="Trazado_210566" data-name="Trazado 210566" d="M273.812,527.493s-4.262,2.842-4.706,3.818-.677,3.794.71,5.274c3.275,3.5-1.432,5.2-.477,10.1.26,1.333,4.3,2.034,6.516,1.679s4.932-1.449,4.932-4.024-1.783-4.98.477-8.109c1.55-2.146-.6-4.055-.436-6.87.052-.914-1.51-1.51-1.51-1.51S277.719,526.693,273.812,527.493Z" fill="#cf1e50"/>
            <path id="Trazado_210567" data-name="Trazado 210567" d="M276.494,529.907a21.8,21.8,0,0,0,.238,5.247c.477.358,1.073-.358,1.193-.835l.119-.6s1.55.954,1.55.358-2.5-4.174-2.5-4.174h-.6Z" fill="#cdd8e7"/>
            <path id="Trazado_210568" data-name="Trazado 210568" d="M269.106,531.311a4.008,4.008,0,0,0,.113,4.678,13.163,13.163,0,0,0,5.128,4.174c.835.239,5.247-.477,6.559-2.146a1.382,1.382,0,0,0,1.312-.716c.119-.477-.954-1.073-1.67-.835a1.6,1.6,0,0,0-.954.835s-3.7.358-4.532.358-3.1-3.339-3.339-4.412S270.3,530.926,269.106,531.311Z" fill="#e0a082"/>
          </g>
          <g id="Grupo_148579" data-name="Grupo 148579">
            <path id="Trazado_210569" data-name="Trazado 210569" d="M277.453,527.049a.415.415,0,0,0,0,.134c.036.307.163,1.093.18,1.42s-.355.844-1.2.8a3.207,3.207,0,0,1-2.708-1.465,23.34,23.34,0,0,0-.044-2.975Z" fill="#c08770"/>
            <path id="Trazado_210570" data-name="Trazado 210570" d="M272.569,524.807a4.947,4.947,0,0,0,3.463,3,2.89,2.89,0,0,0,2.864-.466c.666-.666,1.265-3.663.866-6.26s-2.4-4.129-4.728-3.663S270.771,519.345,272.569,524.807Z" fill="#e0a082"/>
            <path id="Trazado_210571" data-name="Trazado 210571" d="M274.109,519.651a3.294,3.294,0,0,0,2.266,1.789c1.669.358,2.981.119,3.7,1.193-.119-1.193.238-4.174-2.5-5.247s-4.055.358-4.055.358-2.027.358-2.147,2.027-.358,3.458.477,5.247.119,2.743-.477,3.1c0,.358,1.789,1.67,2.981.477s.6-4.055.238-4.77A21.107,21.107,0,0,1,274.109,519.651Z" fill="#915f4a"/>
          </g>
        </g>
      </g>
      <g id="Grupo_148586" data-name="Grupo 148586">
        <path id="Trazado_210572" data-name="Trazado 210572" d="M196.15,557.54s-.6,1.665-.133,2.2c.266.133.466-.333.466-.333a5.8,5.8,0,0,0,.533,1.865c.333.4,1.332-.666,1.332-2.065S197.282,556.408,196.15,557.54Z" fill="#e0a082"/>
        <path id="Trazado_210573" data-name="Trazado 210573" d="M197.993,540.469a21.141,21.141,0,0,0-1.421,5.861c-.355,3.463-.888,11.189-.888,11.189a1.619,1.619,0,0,0,2.4-.089s.71-6.926,1.154-9.945,1.687-4.44,1.066-5.772S198.259,539.936,197.993,540.469Z" fill="#047cfc"/>
        <g id="Grupo_148583" data-name="Grupo 148583">
          <g id="Grupo_148582" data-name="Grupo 148582" opacity="0.16">
            <ellipse id="Elipse_4740" data-name="Elipse 4740" cx="5.709" cy="9.856" rx="5.709" ry="9.856" transform="translate(191.457 587.555) rotate(-89.84)" fill="#555b5e"/>
          </g>
          <path id="Trazado_210574" data-name="Trazado 210574" d="M205.073,579.451a2.9,2.9,0,0,1-.866,2c-.932,1-1.532,2.131-1.066,3s2.531.6,3.33-.067.666-1.332,1.4-2.264a2.353,2.353,0,0,0,.6-2.464C208.2,578.652,206.272,578.919,205.073,579.451Z" fill="#8e969d"/>
          <path id="Trazado_210575" data-name="Trazado 210575" d="M198.08,577.453a2.814,2.814,0,0,1-1.132,1.732,2.663,2.663,0,0,0-1.4,2.6c.133,1.132,2,1,2.93.533s.733-.932,1.4-1.665,1.132-.8,1.265-1.6-.067-1.665-.466-1.8A2.307,2.307,0,0,0,198.08,577.453Z" fill="#8e969d"/>
          <path id="Trazado_210576" data-name="Trazado 210576" d="M197.548,556.008s.222,18.515.488,21.8a1.726,1.726,0,0,0,2.842.444c.8-1.51.311-17.005,1.288-19.847C201.9,556.364,198.524,555.653,197.548,556.008Z" fill="#42494c"/>
          <path id="Trazado_210577" data-name="Trazado 210577" d="M197.725,556.719a9.14,9.14,0,0,0,4,4.617c2.4,1.243,2.753,3.374,2.93,5.239s.178,12.965.355,13.32,1.687,1.776,3.552,0c.178-5.15.266-21.844-.089-23.976S197.459,555.742,197.725,556.719Z" fill="#555b5e"/>
        </g>
        <g id="Grupo_148585" data-name="Grupo 148585">
          <path id="Trazado_210578" data-name="Trazado 210578" d="M209.47,560.026a12.906,12.906,0,0,0-.222,1.82c0,.666.666.044.666.044s.178,1.732.533,2,1.2-.311,1.376-1.687-.266-2.93-.888-3.241S209.47,560.026,209.47,560.026Z" fill="#f5b697"/>
          <path id="Trazado_210579" data-name="Trazado 210579" d="M204.829,539.048s4.262,2.842,4.706,3.818a8.7,8.7,0,0,1-.178,5.594c-.8,1.865-.266,8.614-.533,9.945s-3.818,1.865-6.038,1.51-5.594-1.865-5.594-4.44.444-7.37.266-8.525a19.573,19.573,0,0,1,.355-6.038c.222-.888,1.51-1.51,1.51-1.51S200.922,538.248,204.829,539.048Z" fill="#9180b8"/>
          <path id="Trazado_210580" data-name="Trazado 210580" d="M208.736,541.978s2.93,2.22,3.2,11.81c0,5.594-.089,6.3-.089,6.3s-1.687,1.6-2.575-.089c0-2.042.355-7.637-.533-11.189s-1.6-3.907-1.6-3.907S206.6,542.244,208.736,541.978Z" fill="#047cfc"/>
          <g id="Grupo_148584" data-name="Grupo 148584">
            <path id="Trazado_210581" data-name="Trazado 210581" d="M201.188,538.6a.418.418,0,0,1,0,.134c-.036.307-.163,1.093-.18,1.42s.355.844,1.2.8a3.207,3.207,0,0,0,2.708-1.465,23.342,23.342,0,0,1,.044-2.975Z" fill="#e0a082"/>
            <path id="Trazado_210582" data-name="Trazado 210582" d="M206.072,536.362a4.947,4.947,0,0,1-3.463,3,2.89,2.89,0,0,1-2.864-.466c-.666-.666-1.265-3.663-.866-6.26s2.4-4.129,4.729-3.663S207.87,530.9,206.072,536.362Z" fill="#f5b697"/>
            <path id="Trazado_210583" data-name="Trazado 210583" d="M200.419,532.668a1.561,1.561,0,0,1-2.266-.954c-.715-1.789.835-1.789.835-1.789a1.96,1.96,0,0,1,.6-2.146c1.073-.835,2.624,0,2.624,0a1.791,1.791,0,0,1,2.624-.6c1.669,1.073,1.55,2.147,1.55,2.147s1.312-.358,1.789,1.312a2.03,2.03,0,0,1-.715,2.385s.715,0,.477,1.312a3.246,3.246,0,0,1-2.027,2.385c-.477,0-.6-1.073-.6-1.073a1.386,1.386,0,0,0,.954-1.431c0-1.193-1.312-.119-1.312-.119s-1.431.716-1.55-.6-.119-1.312-.119-1.312S202.327,534.815,200.419,532.668Z" fill="#915f4a"/>
          </g>
        </g>
      </g>
      <g id="Grupo_148592" data-name="Grupo 148592">
        <g id="Grupo_148587" data-name="Grupo 148587" opacity="0.16">
          <ellipse id="Elipse_4741" data-name="Elipse 4741" cx="5.709" cy="9.856" rx="5.709" ry="9.856" transform="translate(193.533 636.664) rotate(-89.84)" fill="#555b5e"/>
        </g>
        <g id="Grupo_148591" data-name="Grupo 148591">
          <g id="Grupo_148588" data-name="Grupo 148588">
            <path id="Trazado_210584" data-name="Trazado 210584" d="M190.389,625.792a5.729,5.729,0,0,1-1.51-1.193c-.715-.795-1.988-2.067-2.942-1.511a2.022,2.022,0,0,0-.557,2.624c.4.716,1.988,1.51,2.7,2.385s1.59,1.908,2.544,1.749,1.59-1.352,1.988-2.146S190.389,625.792,190.389,625.792Z" fill="#555b5e"/>
            <path id="Trazado_210585" data-name="Trazado 210585" d="M210.583,608.143s.318,8.268,1.272,10.653c0,0,7-2.7,7.473-2.226s1.749,1.59.636,3.18c0,0-8.586,4.611-10.812,3.816s-4.134-12.879-4.452-13.833S208.834,606.871,210.583,608.143Z" fill="#cdd8e7"/>
            <path id="Trazado_210586" data-name="Trazado 210586" d="M199.289,609.243s-7.548,13.529-9.3,16.709a2.147,2.147,0,0,0,1.749,2.226c1.908.477,10.574-13.356,12-14.151s5.724-1.908,6.519-6.519C208.516,605.917,199.289,609.243,199.289,609.243Z" fill="#cdd8e7"/>
            <path id="Trazado_210587" data-name="Trazado 210587" d="M219.149,616.391s-1.391,0-1.272,2.146,1.193,2.027,1.55,2.862.6,2.743,2.385,3.578,2.5-.358,2.624-1.312-1.789-3.458-2.266-4.77S220.779,615.676,219.149,616.391Z" fill="#555b5e"/>
            <path id="Trazado_210588" data-name="Trazado 210588" d="M219.726,616.153a1.22,1.22,0,0,0-.656,1.371,5.7,5.7,0,0,0,1.491,3.22c.954.894.894,2.683,1.789,3.339s1.669.6,2.027-.3-1.014-2.683-1.61-3.637S221.634,616.212,219.726,616.153Z" fill="#727777"/>
          </g>
          <g id="Grupo_148590" data-name="Grupo 148590">
            <path id="Trazado_210589" data-name="Trazado 210589" d="M209.168,591.039a7.309,7.309,0,0,1,2.329,6.244c-.477,3.935-5.366.358-5.486-2.266S208.389,590.519,209.168,591.039Z" fill="#e0a082"/>
            <path id="Trazado_210590" data-name="Trazado 210590" d="M204.018,590.417s-3.73,1.066-5.195,3.419c-.567.911-.622,3.73.178,5.594s.022,8.48.288,9.812,4.063,2,6.283,1.643,5.673-1.866,5.594-4.44c-.224-7.3-.224-10.886-.533-12.609a5.724,5.724,0,0,0-1.465-2.8S207.925,589.618,204.018,590.417Z" fill="#047cfa"/>
            <path id="Trazado_210591" data-name="Trazado 210591" d="M208.039,610.051c.636-2.7-.954-9.54-1.431-10.494s-4.757-6.512-7.785-5.721c0,0-1.915,2.7-.165,4.608,1.431,1.272,3.975,2.862,4.77,3.975s2.221,7.234,2.144,8.944c0,0,.028.021.078.054-.268.425-.771,1.263-.712,1.5.079.318,0,1.431.557,1.908s1.272-.318,1.352-.954.159-1.113.159-1.113,1.272-.795,1.193-1.59A9.094,9.094,0,0,0,208.039,610.051Z" fill="#e0a082"/>
            <g id="Grupo_148589" data-name="Grupo 148589">
              <path id="Trazado_210592" data-name="Trazado 210592" d="M206.171,579.562a5.208,5.208,0,0,0-3.8.466,3.749,3.749,0,0,0-1.931,3.929c.067,1.665-.067,4.129.8,5.994s4.6.333,5.727-.4,2.331-3.663,2.2-5.927S208.236,579.961,206.171,579.562Z" fill="#e0a082"/>
              <path id="Trazado_210593" data-name="Trazado 210593" d="M207.747,588.581a9.526,9.526,0,0,0-.871,2.376c0,.634-1.346,1.426-3.089,1.109s-1.9-.713-1.9-.713a8.48,8.48,0,0,0,1.109-2.3C203.233,588.027,207.747,588.581,207.747,588.581Z" fill="#e0a082"/>
              <path id="Trazado_210594" data-name="Trazado 210594" d="M200.444,583.957s-.753-4.952,2.825-5.429,5.843.239,6.678,2.981-.954,5.724-1.789,6.8a5.089,5.089,0,0,1-4.055-2.147,27.442,27.442,0,0,1-1.789-2.981Z" fill="#444a4c"/>
              <path id="Trazado_210595" data-name="Trazado 210595" d="M200.248,582.464s4.452,3.26,9.62,2.464c.159-.795.318-1.352.318-1.352s-8.03-1.193-9.461-2.7A3.035,3.035,0,0,0,200.248,582.464Z" fill="#047cfa"/>
            </g>
          </g>
        </g>
      </g>
      <g id="Grupo_148600" data-name="Grupo 148600">
        <g id="Grupo_148593" data-name="Grupo 148593" opacity="0.16">
          <ellipse id="Elipse_4742" data-name="Elipse 4742" cx="5.709" cy="9.856" rx="5.709" ry="9.856" transform="translate(299.114 614.204) rotate(-89.84)" fill="#555b5e"/>
        </g>
        <g id="Grupo_148594" data-name="Grupo 148594">
          <path id="Trazado_210596" data-name="Trazado 210596" d="M312.735,606.1a2.9,2.9,0,0,1-.866,2c-.932,1-1.532,2.131-1.066,3s2.531.6,3.33-.067.666-1.332,1.4-2.264a2.353,2.353,0,0,0,.6-2.464C315.865,605.3,313.934,605.57,312.735,606.1Z" fill="#6d473a"/>
          <path id="Trazado_210597" data-name="Trazado 210597" d="M305.742,604.1a2.814,2.814,0,0,1-1.132,1.732,2.663,2.663,0,0,0-1.4,2.6c.133,1.132,2,1,2.93.533s.733-.932,1.4-1.665,1.132-.8,1.265-1.6-.067-1.665-.466-1.8A2.305,2.305,0,0,0,305.742,604.1Z" fill="#6d473a"/>
          <path id="Trazado_210598" data-name="Trazado 210598" d="M305.209,582.66s.222,18.515.488,21.8a1.726,1.726,0,0,0,2.842.444c.8-1.51.311-17.005,1.288-19.847C309.56,583.015,306.186,582.3,305.209,582.66Z" fill="#42494c"/>
          <path id="Trazado_210599" data-name="Trazado 210599" d="M305.387,583.37a9.14,9.14,0,0,0,4,4.618c2.4,1.243,2.753,3.374,2.93,5.239s.178,12.965.355,13.32,1.687,1.776,3.552,0c.178-5.15.266-21.844-.089-23.976S305.12,582.393,305.387,583.37Z" fill="#555b5e"/>
        </g>
        <g id="Grupo_148599" data-name="Grupo 148599">
          <g id="Grupo_148597" data-name="Grupo 148597">
            <g id="Grupo_148595" data-name="Grupo 148595">
              <path id="Trazado_210600" data-name="Trazado 210600" d="M305.636,567.159a68.849,68.849,0,0,0-2.743,8.467c-.358.6-3.339-.239-5.128-.954a1.856,1.856,0,0,0-.716,2.623,24.991,24.991,0,0,0,6.917,2.146,21.7,21.7,0,0,0,3.935-8.825C308.379,567.636,307.067,566.325,305.636,567.159Z" fill="#157064"/>
              <path id="Trazado_210601" data-name="Trazado 210601" d="M297.825,575.348s-.8-1.749-1.431-1.908-.238,1.034-.238,1.034-2.385.795-2.465,1.67,1.59,1.113,2.147,1.193S298.3,576.938,297.825,575.348Z" fill="#f5b697"/>
            </g>
            <g id="Grupo_148596" data-name="Grupo 148596">
              <path id="Trazado_210602" data-name="Trazado 210602" d="M312.491,565.7s4.262,2.842,4.706,3.818a8.7,8.7,0,0,1-.178,5.594c-.8,1.865-.266,8.614-.533,9.945s-3.818,1.865-6.038,1.51-5.594-1.865-5.594-4.44.444-7.37.266-8.525a19.573,19.573,0,0,1,.355-6.038c.222-.888,1.51-1.51,1.51-1.51S308.583,564.9,312.491,565.7Z" fill="#128078"/>
              <path id="Trazado_210603" data-name="Trazado 210603" d="M317.2,569.517s-3.392,2.054-2.08,4.678c.238.119,3.22,2.385,3.458,4.055-.119,1.193-3.578,1.908-3.578,1.908a1.721,1.721,0,0,0,.716,2.385c1.55.716,5.486-1.55,6.44-3.339S318.085,570.087,317.2,569.517Z" fill="#128078"/>
              <path id="Trazado_210604" data-name="Trazado 210604" d="M315.474,581.072s-.636-1.113-1.034-1.272-.159.875-.159.875l-.954-.557s-1.193.08-1.113.4a3.963,3.963,0,0,0,1.272,2.067c.716.4,2.465.557,2.7,0S315.474,581.072,315.474,581.072Z" fill="#f5b697"/>
            </g>
          </g>
          <g id="Grupo_148598" data-name="Grupo 148598">
            <path id="Trazado_210605" data-name="Trazado 210605" d="M308.85,565.255a.417.417,0,0,1,0,.134c-.036.307-.163,1.093-.18,1.42s.355.844,1.2.8a3.207,3.207,0,0,0,2.708-1.465,23.34,23.34,0,0,1,.044-2.975Z" fill="#e0a082"/>
            <path id="Trazado_210606" data-name="Trazado 210606" d="M313.734,563.013a4.947,4.947,0,0,1-3.463,3,2.89,2.89,0,0,1-2.864-.466c-.666-.666-1.265-3.663-.866-6.26s2.4-4.129,4.728-3.663S315.532,557.552,313.734,563.013Z" fill="#f5b697"/>
            <path id="Trazado_210607" data-name="Trazado 210607" d="M312.493,555.95c-2.981-1.153-5.048-.159-5.6,2.067a2.819,2.819,0,0,0,2.862.557c1.431-.715,2.7-1.034,3.1-.4s-.358,2.842-.358,2.842a4.023,4.023,0,0,1-.954,2.445c-.894.835-1.789-.894-2.862-1.014s-2.027.179-2.027.835a5.025,5.025,0,0,0,.477,2.385c.417.715,1.577.921,3.323.4a4.9,4.9,0,0,0,3.057-2.488c-.238-.119-.872-.35-.823-.711a14.461,14.461,0,0,1,.406-1.852s.159-.537.8-.3l.358.278S315.474,557.1,312.493,555.95Zm-4.591,8.943c-.716,0-.775-.417-.775-.417a2.75,2.75,0,0,0,.3-.835,1.61,1.61,0,0,1,1.133.119,2.328,2.328,0,0,1,.835.954A7.732,7.732,0,0,1,307.9,564.893Z" fill="#915f4a"/>
          </g>
        </g>
      </g>
      <g id="Grupo_148605" data-name="Grupo 148605">
        <g id="Grupo_148602" data-name="Grupo 148602">
          <g id="Grupo_148601" data-name="Grupo 148601">
            <ellipse id="Elipse_4743" data-name="Elipse 4743" cx="5.709" cy="9.856" rx="5.709" ry="9.856" transform="translate(273.023 629.457) rotate(-89.84)" fill="#555b5e" opacity="0.16"/>
          </g>
          <path id="Trazado_210608" data-name="Trazado 210608" d="M284.581,623.888a10.789,10.789,0,0,0,.084,2.234,2.625,2.625,0,0,0,2.7.716,3.967,3.967,0,0,0,2.023-1.433c.337-.506,1.526-1.116,1.812-1.686.444-.881-.421-1.6-1.18-1.77a2.7,2.7,0,0,0-2.4.716A9.6,9.6,0,0,1,284.581,623.888Z" fill="#6e4739"/>
          <path id="Trazado_210609" data-name="Trazado 210609" d="M276.506,621.507a10.789,10.789,0,0,0,.084,2.234,2.625,2.625,0,0,0,2.7.716,3.967,3.967,0,0,0,2.023-1.433c.337-.506,1.526-1.116,1.812-1.686.444-.881-.421-1.6-1.18-1.77a2.7,2.7,0,0,0-2.4.716A9.6,9.6,0,0,1,276.506,621.507Z" fill="#6e4739"/>
          <path id="Trazado_210610" data-name="Trazado 210610" d="M276.368,599.04a20.577,20.577,0,0,0,.289,5.261c.533,2.731.022,15.651-.155,17.338,0,0,1.51,1.865,3.641,0,0-4.973,1.243-13.586.622-19S276.368,599.04,276.368,599.04Z" fill="#0c98bb"/>
          <path id="Trazado_210611" data-name="Trazado 210611" d="M276.523,599.839c.084.309.4,3.2,4.773,4.928,2.4,1.243,2.753,3.374,2.93,5.239s.178,13.853.355,14.208,1.687,1.776,3.552,0c.178-5.15.266-22.732-.089-24.864S276.257,598.862,276.523,599.839Z" fill="#0fa4d7"/>
        </g>
        <g id="Grupo_148604" data-name="Grupo 148604">
          <path id="Trazado_210612" data-name="Trazado 210612" d="M295.071,589.658a7.677,7.677,0,0,1,.835-1.073c.238-.179,1.968-.537,2.027-.239s-.894.716-.894.716,1.848.417,2.206.954-1.729.835-2.266.835a2.645,2.645,0,0,0-1.133.358S294.475,590.851,295.071,589.658Z" fill="#f5b697"/>
          <path id="Trazado_210613" data-name="Trazado 210613" d="M283.516,583.011s3.73,1.066,5.195,3.419c.567.911.622,3.73-.178,5.594s-.022,8.48-.289,9.812-4.063,2-6.283,1.643-5.673-1.866-5.594-4.44c.224-7.3.224-10.886.533-12.609a5.724,5.724,0,0,1,1.465-2.8S279.609,582.212,283.516,583.011Z" fill="#cf1e50"/>
          <path id="Trazado_210614" data-name="Trazado 210614" d="M288.07,586.187a3.33,3.33,0,0,1,1.611,2.459,25.452,25.452,0,0,0,1.7,4.748l3.328-4.07a2.127,2.127,0,0,1,1.526,1.971s-3.476,5.723-5.087,6.232-4.685-6.338-5.193-7.779S286.543,585.508,288.07,586.187Z" fill="#e89d54"/>
          <g id="Grupo_148603" data-name="Grupo 148603">
            <path id="Trazado_210615" data-name="Trazado 210615" d="M281.363,572.156a5.208,5.208,0,0,1,3.8.466,3.749,3.749,0,0,1,1.931,3.929c-.083,2.084-.067,4.417-.8,5.994-.866,1.865-4.6.333-5.728-.4s-2.331-3.663-2.2-5.927S279.3,572.555,281.363,572.156Z" fill="#fad3c3"/>
            <path id="Trazado_210616" data-name="Trazado 210616" d="M279.787,581.176a9.526,9.526,0,0,1,.871,2.376c0,.634,1.346,1.426,3.089,1.109s1.9-.713,1.9-.713a8.481,8.481,0,0,1-1.109-2.3C284.3,580.622,279.787,581.176,279.787,581.176Z" fill="#fad3c3"/>
            <path id="Trazado_210617" data-name="Trazado 210617" d="M284.995,571.234s.6.239,1.789.835l1.193.6-.954.835a2.515,2.515,0,0,1,1.193,1.312c.119.477-.835.239-.835.239a4.764,4.764,0,0,1,.119,1.312c0,.954-.835,0-2.027-.239.358.239.477,1.193.477,1.193a26.167,26.167,0,0,1-2.624-.477,11.421,11.421,0,0,1,.6,2.027s-1.073-1.312-1.312-.477.358,2.266,1.073,2.146l.477-.119a2.615,2.615,0,0,1-1.073,1.55,8.815,8.815,0,0,1-2.385.716,35.46,35.46,0,0,1-2.5-2.862A9.2,9.2,0,0,1,277.124,576a4.967,4.967,0,0,1,1.193-2.981,4.07,4.07,0,0,1,.6-1.312c.477-.716,2.624-.477,2.981-.6a13.861,13.861,0,0,0,1.67-1.073l.119,1.193,1.789-.716Z" fill="#e89d54"/>
          </g>
        </g>
      </g>
      <g id="Grupo_148611" data-name="Grupo 148611">
        <g id="Grupo_148606" data-name="Grupo 148606">
          <ellipse id="Elipse_4744" data-name="Elipse 4744" cx="5.709" cy="9.856" rx="5.709" ry="9.856" transform="translate(311.934 633.842) rotate(-89.84)" fill="#555b5e" opacity="0.16"/>
        </g>
        <g id="Grupo_148607" data-name="Grupo 148607">
          <path id="Trazado_210618" data-name="Trazado 210618" d="M321.358,628.472a10.789,10.789,0,0,1-.084,2.234,2.625,2.625,0,0,1-2.7.716,3.967,3.967,0,0,1-2.023-1.433c-.337-.506-1.526-1.116-1.812-1.686-.444-.881.422-1.6,1.18-1.77a2.7,2.7,0,0,1,2.4.716A9.6,9.6,0,0,0,321.358,628.472Z" fill="#444a4c"/>
          <path id="Trazado_210619" data-name="Trazado 210619" d="M329.433,626.091a10.789,10.789,0,0,1-.084,2.234,2.625,2.625,0,0,1-2.7.717,3.967,3.967,0,0,1-2.023-1.433c-.337-.506-1.526-1.116-1.812-1.686-.444-.881.422-1.6,1.18-1.77a2.7,2.7,0,0,1,2.4.716A9.606,9.606,0,0,0,329.433,626.091Z" fill="#444a4c"/>
          <path id="Trazado_210620" data-name="Trazado 210620" d="M329.571,603.624a20.577,20.577,0,0,1-.289,5.261c-.533,2.731-.022,15.651.155,17.338,0,0-1.51,1.865-3.641,0,0-4.973-1.243-13.586-.622-19S329.571,603.624,329.571,603.624Z" fill="#444a4c"/>
          <path id="Trazado_210621" data-name="Trazado 210621" d="M329.415,604.423c-.084.309-.4,3.2-4.773,4.928-2.4,1.243-2.753,3.374-2.93,5.239s-.178,13.853-.355,14.208-1.687,1.776-3.552,0c-.178-5.15-.266-22.732.089-24.864S329.681,603.447,329.415,604.423Z" fill="#444a4c"/>
        </g>
        <g id="Grupo_148610" data-name="Grupo 148610">
          <g id="Grupo_148608" data-name="Grupo 148608">
            <path id="Trazado_210622" data-name="Trazado 210622" d="M327.573,588.218a7.309,7.309,0,0,1,2.329,6.244c-.477,3.935-5.366.358-5.486-2.266S326.794,587.7,327.573,588.218Z" fill="#e0a082"/>
            <path id="Trazado_210623" data-name="Trazado 210623" d="M322.422,587.6s-3.73,1.066-5.195,3.419c-.567.911-.622,3.73.178,5.594s.022,8.48.289,9.812,4.063,2,6.283,1.643,5.673-1.866,5.594-4.44c-.224-7.3-.224-10.886-.533-12.609a5.724,5.724,0,0,0-1.465-2.8S326.329,586.8,322.422,587.6Z" fill="#cdd8e7"/>
            <path id="Trazado_210624" data-name="Trazado 210624" d="M317.261,591s-4.889,6.678-3.1,9.3,4.293-1.908,5.247-3.7,1.669-4.532.119-5.247S317.261,591,317.261,591Z" fill="#e0a082"/>
          </g>
          <g id="Grupo_148609" data-name="Grupo 148609">
            <path id="Trazado_210625" data-name="Trazado 210625" d="M324.576,576.74a5.208,5.208,0,0,0-3.8.466,3.749,3.749,0,0,0-1.931,3.929c.067,1.665-.067,4.129.8,5.994s4.6.333,5.728-.4,2.331-3.663,2.2-5.927S326.64,577.14,324.576,576.74Z" fill="#e0a082"/>
            <path id="Trazado_210626" data-name="Trazado 210626" d="M326.152,585.76a9.526,9.526,0,0,0-.871,2.376c0,.634-1.346,1.426-3.089,1.109s-1.9-.713-1.9-.713a8.481,8.481,0,0,0,1.109-2.3C321.638,585.206,326.152,585.76,326.152,585.76Z" fill="#e0a082"/>
            <path id="Trazado_210627" data-name="Trazado 210627" d="M318.811,580.27s.477.954,2.027,0c1.193.358,1.193.954,1.073,1.908s.716-.477,1.312.239a1.332,1.332,0,0,1-.477,2.146c-.954.6.119,1.789.119,1.789s1.789,1.312,2.981,0,3.1-4.293,1.669-7.752S319.288,574.546,318.811,580.27Z" fill="#cdd8e7"/>
          </g>
        </g>
      </g>
      <g id="Grupo_148618" data-name="Grupo 148618">
        <g id="Grupo_148612" data-name="Grupo 148612" opacity="0.16">
          <ellipse id="Elipse_4745" data-name="Elipse 4745" cx="5.709" cy="9.856" rx="5.709" ry="9.856" transform="translate(231.608 666.873) rotate(-89.84)" fill="#555b5e"/>
        </g>
        <g id="Grupo_148617" data-name="Grupo 148617">
          <g id="Grupo_148613" data-name="Grupo 148613">
            <path id="Trazado_210628" data-name="Trazado 210628" d="M243.164,661.3a10.787,10.787,0,0,0,.084,2.234,2.625,2.625,0,0,0,2.7.716,3.967,3.967,0,0,0,2.023-1.433c.337-.506,1.526-1.116,1.812-1.686.443-.881-.421-1.6-1.18-1.77a2.7,2.7,0,0,0-2.4.716A9.6,9.6,0,0,1,243.164,661.3Z" fill="#555b5e"/>
            <path id="Trazado_210629" data-name="Trazado 210629" d="M235.089,658.924a10.787,10.787,0,0,0,.084,2.234,2.625,2.625,0,0,0,2.7.716,3.967,3.967,0,0,0,2.023-1.433c.337-.506,1.526-1.116,1.812-1.686.443-.881-.421-1.6-1.18-1.77a2.7,2.7,0,0,0-2.4.716A9.6,9.6,0,0,1,235.089,658.924Z" fill="#555b5e"/>
            <path id="Trazado_210630" data-name="Trazado 210630" d="M234.951,636.456a20.578,20.578,0,0,0,.289,5.261c.533,2.731.022,15.651-.155,17.338,0,0,1.51,1.865,3.641,0,0-4.973,1.243-13.586.622-19S234.951,636.456,234.951,636.456Z" fill="#0c98bb"/>
            <path id="Trazado_210631" data-name="Trazado 210631" d="M235.106,637.256c.084.309.4,3.2,4.773,4.928,2.4,1.243,2.753,3.374,2.93,5.239s.178,13.853.355,14.208,1.687,1.776,3.552,0c.178-5.15.266-22.732-.089-24.864S234.84,636.279,235.106,637.256Z" fill="#0fa4d7"/>
          </g>
          <g id="Grupo_148616" data-name="Grupo 148616">
            <g id="Grupo_148614" data-name="Grupo 148614">
              <path id="Trazado_210632" data-name="Trazado 210632" d="M254.867,622.612s-1.272-1.829-.795-1.829.954.6.954.6-.835-2.743-.477-2.623a4.72,4.72,0,0,1,2.385,1.193c.954.954.119,3.935-.477,4.174S254.867,622.612,254.867,622.612Z" fill="#e0a082"/>
              <path id="Trazado_210633" data-name="Trazado 210633" d="M242.1,620.428s3.73,1.066,5.195,3.419c.567.911.622,3.73-.178,5.594s-.022,8.48-.288,9.812-4.063,2-6.283,1.643-5.673-1.866-5.594-4.44c.224-7.3.224-10.886.533-12.609a5.724,5.724,0,0,1,1.465-2.8S238.192,619.629,242.1,620.428Z" fill="#0fd8a8"/>
              <path id="Trazado_210634" data-name="Trazado 210634" d="M246.439,623.248s-3.18.954-2.226,3.816,9.063,2.226,9.063,2.226,3.021-3.5,3.339-5.565c.318-.159-1.113-1.431-1.749-1.113S252,626.587,252,626.587,247.076,622.93,246.439,623.248Z" fill="#0fa4d7"/>
            </g>
            <g id="Grupo_148615" data-name="Grupo 148615">
              <path id="Trazado_210635" data-name="Trazado 210635" d="M239.946,609.573a5.208,5.208,0,0,1,3.8.466,3.749,3.749,0,0,1,1.931,3.929c-.067,1.665.067,4.129-.8,5.994s-4.6.333-5.728-.4-2.331-3.663-2.2-5.927S237.881,609.972,239.946,609.573Z" fill="#e0a082"/>
              <path id="Trazado_210636" data-name="Trazado 210636" d="M238.37,618.592a9.526,9.526,0,0,1,.871,2.376c0,.634,1.346,1.426,3.089,1.109s1.9-.713,1.9-.713a8.48,8.48,0,0,1-1.109-2.3C242.884,618.038,238.37,618.592,238.37,618.592Z" fill="#e0a082"/>
              <path id="Trazado_210637" data-name="Trazado 210637" d="M245.843,611.362s.835.954-.715,2.623l-1.55,1.67s-.358-1.312-1.073-.835-.477,2.5.238,2.862c.6.358.715-.239.715-.239a4.348,4.348,0,0,1-1.431,2.027c-.954.6-1.229.54-2.88.091s-2.724-3.311-2.844-6.173,1.789-5.009,4.293-4.651a10.483,10.483,0,0,1,4.293,1.67l-.358-1.193S245.366,609.454,245.843,611.362Z" fill="#915f4a"/>
            </g>
          </g>
        </g>
      </g>
    </g>
  </g>
</svg>
