<svg xmlns="http://www.w3.org/2000/svg" xmlns:xlink="http://www.w3.org/1999/xlink" width="265.888" height="265.888" viewBox="0 0 265.888 265.888">
  <defs>
    <clipPath id="clip-path">
      <path id="Trazado_210708" data-name="Trazado 210708" d="M1065.58,540.566l-.074,38.6c0,1.41-.931,2.818-2.782,3.894a14.919,14.919,0,0,1-13.538,0c-1.888-1.09-2.83-2.52-2.826-3.948l.075-38.6c0,1.428.938,2.859,2.826,3.948a14.919,14.919,0,0,0,13.538,0C1064.65,543.384,1065.58,541.976,1065.58,540.566Z"/>
    </clipPath>
    <clipPath id="clip-path-2">
      <path id="Trazado_210725" data-name="Trazado 210725" d="M1053.74,540.87l.017,1.262a1.1,1.1,0,0,0,.645.9,3.457,3.457,0,0,0,3.138,0,1.11,1.11,0,0,0,.655-.915l-.017-1.262a1.111,1.111,0,0,1-.655.915,3.458,3.458,0,0,1-3.138,0A1.132,1.132,0,0,1,1053.74,540.87Z"/>
    </clipPath>
    <clipPath id="clip-path-3">
      <path id="Trazado_210746" data-name="Trazado 210746" d="M1080.48,548.936l-.075,38.6c0,1.41-.931,2.818-2.782,3.894a14.919,14.919,0,0,1-13.538,0c-1.888-1.09-2.83-2.52-2.826-3.948l.075-38.6c0,1.428.938,2.859,2.826,3.948a14.919,14.919,0,0,0,13.538,0C1079.55,551.754,1080.48,550.346,1080.48,548.936Z"/>
    </clipPath>
    <clipPath id="clip-path-4">
      <path id="Trazado_210772" data-name="Trazado 210772" d="M1095.99,557.177l-.075,38.6c0,1.41-.931,2.818-2.782,3.894a14.918,14.918,0,0,1-13.538,0c-1.888-1.09-2.83-2.52-2.826-3.948l.075-38.6c0,1.428.939,2.859,2.826,3.948a14.919,14.919,0,0,0,13.538,0C1095.06,559.995,1095.99,558.587,1095.99,557.177Z"/>
    </clipPath>
    <clipPath id="clip-path-5">
      <path id="Trazado_210789" data-name="Trazado 210789" d="M1068.65,549.7l.017,1.262a1.1,1.1,0,0,0,.645.9,3.458,3.458,0,0,0,3.138,0,1.11,1.11,0,0,0,.655-.915l-.017-1.262a1.111,1.111,0,0,1-.655.915,3.459,3.459,0,0,1-3.138,0A1.089,1.089,0,0,1,1068.65,549.7Z"/>
    </clipPath>
    <clipPath id="clip-path-6">
      <path id="Trazado_210801" data-name="Trazado 210801" d="M1084.15,558.373l.017,1.262a1.1,1.1,0,0,0,.645.9,3.459,3.459,0,0,0,3.138,0,1.11,1.11,0,0,0,.655-.915l-.017-1.262a1.11,1.11,0,0,1-.655.915,3.458,3.458,0,0,1-3.138,0A1.13,1.13,0,0,1,1084.15,558.373Z"/>
    </clipPath>
    <clipPath id="clip-path-7">
      <path id="Trazado_210813" data-name="Trazado 210813" d="M1043.6,606.161l.017,1.262a1.1,1.1,0,0,0,.645.9,3.458,3.458,0,0,0,3.138,0,1.11,1.11,0,0,0,.655-.915l-.017-1.262a1.11,1.11,0,0,1-.655.915,3.459,3.459,0,0,1-3.138,0A1.09,1.09,0,0,1,1043.6,606.161Z"/>
    </clipPath>
    <clipPath id="clip-path-8">
      <path id="Trazado_210821" data-name="Trazado 210821" d="M1048.81,576.938l.568-.33a1.178,1.178,0,0,1,1.188.117l-.568.33A1.181,1.181,0,0,0,1048.81,576.938Z"/>
    </clipPath>
    <clipPath id="clip-path-9">
      <path id="Trazado_210825" data-name="Trazado 210825" d="M1051.74,580.679l-.568.33a1.169,1.169,0,0,0,.487-1.071,3.668,3.668,0,0,0-1.664-2.883l.568-.33a3.668,3.668,0,0,1,1.664,2.883A1.159,1.159,0,0,1,1051.74,580.679Z"/>
    </clipPath>
    <clipPath id="clip-path-10">
      <path id="Trazado_210837" data-name="Trazado 210837" d="M1057.79,614.431l.017,1.262a1.1,1.1,0,0,0,.645.9,3.458,3.458,0,0,0,3.138,0,1.11,1.11,0,0,0,.655-.915l-.017-1.262a1.111,1.111,0,0,1-.655.915,3.458,3.458,0,0,1-3.138,0A1.089,1.089,0,0,1,1057.79,614.431Z"/>
    </clipPath>
    <clipPath id="clip-path-11">
      <path id="Trazado_210845" data-name="Trazado 210845" d="M1063,585.209l.568-.33a1.179,1.179,0,0,1,1.188.117l-.568.33A1.175,1.175,0,0,0,1063,585.209Z"/>
    </clipPath>
    <clipPath id="clip-path-12">
      <path id="Trazado_210849" data-name="Trazado 210849" d="M1065.93,588.949l-.568.33a1.168,1.168,0,0,0,.487-1.071,3.667,3.667,0,0,0-1.664-2.883l.568-.33a3.668,3.668,0,0,1,1.664,2.883A1.159,1.159,0,0,1,1065.93,588.949Z"/>
    </clipPath>
    <clipPath id="clip-path-13">
      <path id="Trazado_210861" data-name="Trazado 210861" d="M1098.78,620.265l-.017,1.262a1.1,1.1,0,0,1-.645.9,3.458,3.458,0,0,1-3.138,0,1.11,1.11,0,0,1-.655-.915l.017-1.262a1.111,1.111,0,0,0,.655.915,3.458,3.458,0,0,0,3.138,0A1.109,1.109,0,0,0,1098.78,620.265Z"/>
    </clipPath>
    <clipPath id="clip-path-14">
      <path id="Trazado_210869" data-name="Trazado 210869" d="M1093.56,574.421l-.568-.33a1.178,1.178,0,0,0-1.188.117l.568.33A1.179,1.179,0,0,1,1093.56,574.421Z"/>
    </clipPath>
    <clipPath id="clip-path-15">
      <path id="Trazado_210873" data-name="Trazado 210873" d="M1090.63,578.162l.568.33a1.169,1.169,0,0,1-.487-1.071,3.668,3.668,0,0,1,1.664-2.883l-.568-.33a3.668,3.668,0,0,0-1.664,2.883A1.159,1.159,0,0,0,1090.63,578.162Z"/>
    </clipPath>
    <clipPath id="clip-path-16">
      <path id="Trazado_210885" data-name="Trazado 210885" d="M1035.29,580.753l.019,1.352a1.18,1.18,0,0,0,.691.967,3.7,3.7,0,0,0,3.361,0,1.19,1.19,0,0,0,.7-.98l-.019-1.352a1.189,1.189,0,0,1-.7.98,3.7,3.7,0,0,1-3.361,0A1.219,1.219,0,0,1,1035.29,580.753Z"/>
    </clipPath>
  </defs>
  <g id="Grupo_154380" data-name="Grupo 154380" transform="translate(-1080.586 -2836.002)">
    <circle id="Elipse_4725_00000018210125287001806240000016870778625544915610_" cx="132.944" cy="132.944" r="132.944" transform="translate(1080.586 2836.002)" fill="#60bfef"/>
    <circle id="Elipse_4726_00000116209903817280508790000015497127279624318381_" cx="111.551" cy="111.551" r="111.551" transform="translate(1101.979 2857.396)" fill="#fff"/>
    <g id="Grupo_148890" data-name="Grupo 148890" transform="translate(136 2389.027)">
      <g id="Grupo_148657" data-name="Grupo 148657">
        <g id="Grupo_148656" data-name="Grupo 148656">
          <g id="Grupo_148652" data-name="Grupo 148652">
            <g id="Grupo_148651" data-name="Grupo 148651">
              <path id="Trazado_210680" data-name="Trazado 210680" d="M974.231,588.848l.005,3.137,118.724,68.964-.01-3.136Z" fill="#3d2d4a"/>
            </g>
          </g>
          <g id="Grupo_148653" data-name="Grupo 148653">
            <path id="Trazado_210681" data-name="Trazado 210681" d="M1092.95,657.813l.01,3.136,87.88-50.736-.01-3.136Z" fill="#25192e"/>
          </g>
          <g id="Grupo_148655" data-name="Grupo 148655">
            <g id="Grupo_148654" data-name="Grupo 148654">
              <path id="Trazado_210682" data-name="Trazado 210682" d="M974.231,588.848l118.719,68.965,87.88-50.736-118.72-68.965Z" fill="#483558"/>
            </g>
          </g>
        </g>
      </g>
      <g id="Grupo_148889" data-name="Grupo 148889">
        <g id="Grupo_148663" data-name="Grupo 148663">
          <g id="Grupo_148662" data-name="Grupo 148662">
            <g id="Grupo_148659" data-name="Grupo 148659">
              <g id="Grupo_148658" data-name="Grupo 148658">
                <path id="Trazado_210683" data-name="Trazado 210683" d="M1164.75,606.185l-.02,3.936-70.14,40.761.02-3.936Z" fill="#afbbe8"/>
              </g>
            </g>
            <g id="Grupo_148660" data-name="Grupo 148660">
              <path id="Trazado_210684" data-name="Trazado 210684" d="M1094.61,646.946l-.02,3.936L988.311,589.521l.022-3.935Z" fill="#dae0f4"/>
            </g>
            <g id="Grupo_148661" data-name="Grupo 148661">
              <path id="Trazado_210685" data-name="Trazado 210685" d="M1164.75,606.185l-70.14,40.761-106.277-61.36,70.137-40.762Z" fill="#f2f4fe"/>
              <path id="Trazado_210686" data-name="Trazado 210686" d="M1058.47,544.824l-70.141,40.761,7.994,4.615q3.2-.974,6.418-1.854l-5.967-3.445,60.543-35.184,98.987,57.15-60.543,35.184-1.018-.588q-2.119,1.55-4.23,3.117l4.1,2.364,70.141-40.761Z" fill="#f2f4fe"/>
              <path id="Trazado_210687" data-name="Trazado 210687" d="M1156.31,606.871l-5.18,3-1.6.931-.25.142-5.21,3.035-1.86,1.074-46.33,26.928-.12.065-84.82-48.981-.88-.5-6.19-3.571-.88-.5-6.207-3.582,60.537-35.189Z" fill="#1b3b58"/>
              <path id="Trazado_210688" data-name="Trazado 210688" d="M1156.31,606.869l-7.07,4.1L1057.32,557.9l-53.48,31.079-7.062-4.079,60.542-35.183Z" fill="#afbbe8"/>
              <path id="Trazado_210689" data-name="Trazado 210689" d="M1149.28,610.946l-5.21,3.035-1.86,1.074-84.82-48.982-46.45,26.994-.88-.5-6.19-3.571,53.52-31.1Z" fill="#1b3b58" opacity="0.2"/>
            </g>
          </g>
        </g>
        <g id="Grupo_148664" data-name="Grupo 148664">
          <path id="Trazado_210690" data-name="Trazado 210690" d="M1034.54,588.441l27.32-15.162,49.52,27.47-27.32,15.162Z" fill="#f2f4fe"/>
          <path id="Trazado_210691" data-name="Trazado 210691" d="M1034.54,588.441l49.52,27.47V622.2l-49.52-27.6Z" fill="#dae0f4"/>
          <path id="Trazado_210692" data-name="Trazado 210692" d="M1111.38,600.749v6.284L1084.06,622.2v-6.284Z" fill="#bdc4df"/>
        </g>
        <path id="Trazado_210693" data-name="Trazado 210693" d="M1094.94,608.087l-.182.1c-5.471,3.159-14.424,3.159-19.9,0l-26.623-15.371c-5.471-3.159-5.471-8.328,0-11.487l.182-.1c5.471-3.159,14.424-3.159,19.9,0L1094.94,596.6C1100.41,599.759,1100.41,604.929,1094.94,608.087Z" fill="#bdc4df" opacity="0.3"/>
        <g id="Grupo_148764" data-name="Grupo 148764">
          <g id="Grupo_148689" data-name="Grupo 148689">
            <g id="Grupo_148667" data-name="Grupo 148667">
              <g id="Grupo_148665" data-name="Grupo 148665">
                <path id="Trazado_210694" data-name="Trazado 210694" d="M1065.13,588.524a.61.61,0,0,1-.551,0,.168.168,0,0,1,0-.318.609.609,0,0,1,.551,0A.168.168,0,0,1,1065.13,588.524Z" fill="#d1d1d1"/>
              </g>
              <g id="Grupo_148666" data-name="Grupo 148666">
                <path id="Trazado_210695" data-name="Trazado 210695" d="M1065.57,588.365v-9.994h-1.409v10.02a.357.357,0,0,0,.208.281,1.1,1.1,0,0,0,1,0A.341.341,0,0,0,1065.57,588.365Z" fill="#bdc4df"/>
                <path id="Trazado_210696" data-name="Trazado 210696" d="M1065.36,578.643a1.1,1.1,0,0,1-1,0,.3.3,0,0,1,0-.575,1.1,1.1,0,0,1,1,0C1065.64,578.227,1065.64,578.484,1065.36,578.643Z" fill="#d1d1d1"/>
              </g>
            </g>
            <g id="Grupo_148670" data-name="Grupo 148670">
              <g id="Grupo_148668" data-name="Grupo 148668">
                <path id="Trazado_210697" data-name="Trazado 210697" d="M1056.24,593.633a.61.61,0,0,1-.552,0,.168.168,0,0,1,0-.318.609.609,0,0,1,.551,0A.168.168,0,0,1,1056.24,593.633Z" fill="#d1d1d1"/>
              </g>
              <g id="Grupo_148669" data-name="Grupo 148669">
                <path id="Trazado_210698" data-name="Trazado 210698" d="M1056.68,593.474V583.48h-1.409V593.5a.357.357,0,0,0,.208.281,1.1,1.1,0,0,0,1,0A.325.325,0,0,0,1056.68,593.474Z" fill="#bdc4df"/>
                <path id="Trazado_210699" data-name="Trazado 210699" d="M1056.48,583.752a1.1,1.1,0,0,1-1,0,.3.3,0,0,1,0-.575,1.1,1.1,0,0,1,1,0A.3.3,0,0,1,1056.48,583.752Z" fill="#d1d1d1"/>
              </g>
            </g>
            <g id="Grupo_148673" data-name="Grupo 148673">
              <g id="Grupo_148671" data-name="Grupo 148671">
                <path id="Trazado_210700" data-name="Trazado 210700" d="M1047.34,588.524a.61.61,0,0,1-.551,0,.168.168,0,0,1,0-.318.609.609,0,0,1,.551,0C1047.49,588.293,1047.5,588.436,1047.34,588.524Z" fill="#d1d1d1"/>
              </g>
              <g id="Grupo_148672" data-name="Grupo 148672">
                <path id="Trazado_210701" data-name="Trazado 210701" d="M1047.78,588.365v-9.994h-1.408v10.02a.358.358,0,0,0,.208.281,1.1,1.1,0,0,0,1,0C1047.73,588.589,1047.8,588.477,1047.78,588.365Z" fill="#bdc4df"/>
                <path id="Trazado_210702" data-name="Trazado 210702" d="M1047.58,578.643a1.1,1.1,0,0,1-1,0,.3.3,0,0,1,0-.575,1.1,1.1,0,0,1,1,0C1047.85,578.227,1047.86,578.484,1047.58,578.643Z" fill="#d1d1d1"/>
              </g>
            </g>
            <g id="Grupo_148680" data-name="Grupo 148680">
              <g id="Grupo_148679" data-name="Grupo 148679">
                <g id="Grupo_148678" data-name="Grupo 148678">
                  <g id="Grupo_148675" data-name="Grupo 148675">
                    <path id="Trazado_210703" data-name="Trazado 210703" d="M1065.58,540.566l-.074,38.6c0,1.41-.931,2.818-2.782,3.894a14.919,14.919,0,0,1-13.538,0c-1.888-1.09-2.83-2.52-2.826-3.948l.075-38.6c0,1.428.938,2.859,2.826,3.948a14.919,14.919,0,0,0,13.538,0C1064.65,543.384,1065.58,541.976,1065.58,540.566Z" fill="#1a4b6c"/>
                    <g id="Grupo_148674" data-name="Grupo 148674" clip-path="url(#clip-path)">
                      <path id="Trazado_210704" data-name="Trazado 210704" d="M1065.58,540.566l-.074,38.6c0,1.41-.931,2.818-2.782,3.894a12.375,12.375,0,0,1-4.33,1.443l.074-38.6a12.375,12.375,0,0,0,4.33-1.443c1.852-1.076,2.782-2.484,2.782-3.894Z" fill="#bdc4df"/>
                      <path id="Trazado_210705" data-name="Trazado 210705" d="M1058.47,545.9l-.074,38.6a16.435,16.435,0,0,1-4.816.007l.075-38.6a16.47,16.47,0,0,0,4.816-.007Z" fill="#c8d0ec"/>
                      <path id="Trazado_210706" data-name="Trazado 210706" d="M1053.66,545.911l-.075,38.6a12.527,12.527,0,0,1-4.393-1.45,8.435,8.435,0,0,1-.716-.462l.075-38.6a8.495,8.495,0,0,0,.716.461,12.474,12.474,0,0,0,4.393,1.45Z" fill="#dae0f4"/>
                      <path id="Trazado_210707" data-name="Trazado 210707" d="M1046.56,541.412a3.3,3.3,0,0,1-.123-.9l-.075,38.6a3.3,3.3,0,0,0,.124.9,4.925,4.925,0,0,0,1.986,2.587l.075-38.6A4.929,4.929,0,0,1,1046.56,541.412Z" fill="#bdc4df"/>
                    </g>
                  </g>
                  <g id="Grupo_148676" data-name="Grupo 148676">
                    <path id="Trazado_210709" data-name="Trazado 210709" d="M1061.2,543.538c-.139.081-.284.159-.431.231s-.285.135-.432.2a11.84,11.84,0,0,1-8.642-.009c-.147-.062-.292-.128-.432-.2s-.281-.146-.417-.223c-2.594-1.5-2.854-3.838-.772-5.5.107-.086.219-.169.34-.25s.259-.17.4-.252a11.411,11.411,0,0,1,10.355,0c.147.085.287.172.418.262s.233.165.341.25C1064.01,539.711,1063.77,542.044,1061.2,543.538Z" fill="#c8d0ec"/>
                  </g>
                  <g id="Grupo_148677" data-name="Grupo 148677">
                    <path id="Trazado_210710" data-name="Trazado 210710" d="M1062.68,538.8a6.169,6.169,0,0,0-.776-.527,11.409,11.409,0,0,0-10.355,0c-2.2,1.279-2.694,3.172-1.482,4.731-2.063-1.656-1.815-3.977.746-5.467a11.412,11.412,0,0,1,10.355,0A5.055,5.055,0,0,1,1062.68,538.8Z" fill="#bdc4df"/>
                  </g>
                </g>
              </g>
            </g>
            <g id="Grupo_148688" data-name="Grupo 148688">
              <g id="Grupo_148683" data-name="Grupo 148683">
                <g id="Grupo_148682" data-name="Grupo 148682">
                  <g id="Grupo_148681" data-name="Grupo 148681">
                    <path id="Trazado_210711" data-name="Trazado 210711" d="M1062.79,545.525a15.012,15.012,0,0,1-13.584-.024c-3.763-2.172-3.782-5.684-.042-7.843a15.011,15.011,0,0,1,13.583.024C1066.51,539.855,1066.53,543.366,1062.79,545.525Z" fill="#f2f4fe"/>
                    <path id="Trazado_210712" data-name="Trazado 210712" d="M1065.14,541.626a3.864,3.864,0,0,1-1.819,3.021,8.374,8.374,0,0,1-.753.494,13.285,13.285,0,0,1-6.53,1.554,13.442,13.442,0,0,1-6.609-1.579,7.476,7.476,0,0,1-.905-.608,3.832,3.832,0,0,1-1.707-2.95c0-1.312.913-2.558,2.571-3.515a13.257,13.257,0,0,1,6.53-1.554,13.439,13.439,0,0,1,6.609,1.579C1064.21,539.039,1065.14,540.3,1065.14,541.626Z" fill="#c8d0ec"/>
                    <path id="Trazado_210713" data-name="Trazado 210713" d="M1049.39,538.816a13.256,13.256,0,0,1,6.53-1.554,13.44,13.44,0,0,1,6.609,1.579,4.629,4.629,0,0,1,2.581,3.2,2.816,2.816,0,0,0,.031-.416c0-1.323-.927-2.588-2.612-3.558a13.438,13.438,0,0,0-6.609-1.579,13.257,13.257,0,0,0-6.53,1.554c-1.658.957-2.571,2.2-2.571,3.515a2.862,2.862,0,0,0,.031.412A4.547,4.547,0,0,1,1049.39,538.816Z" fill="#bdc4df"/>
                  </g>
                </g>
              </g>
              <g id="Grupo_148687" data-name="Grupo 148687">
                <g id="Grupo_148686" data-name="Grupo 148686">
                  <g id="Grupo_148685" data-name="Grupo 148685">
                    <g id="Grupo_148684" data-name="Grupo 148684">
                      <path id="Trazado_210714" data-name="Trazado 210714" d="M1062.79,549.084a15.025,15.025,0,0,1-13.582-.024c-1.837-1.065-2.782-2.447-2.83-3.829l-.018-1.256h.024a4.97,4.97,0,0,0,2.824,3.668,15.008,15.008,0,0,0,13.582.03,4.925,4.925,0,0,0,2.776-3.584v.784C1065.72,546.386,1064.8,547.929,1062.79,549.084Z" fill="#5a4b66"/>
                      <path id="Trazado_210715" data-name="Trazado 210715" d="M1062.79,563.2a15.025,15.025,0,0,1-13.582-.024c-1.837-1.065-2.782-2.447-2.83-3.829l-.018-1.256h.024a4.97,4.97,0,0,0,2.824,3.667,15.007,15.007,0,0,0,13.582.03,4.924,4.924,0,0,0,2.776-3.584v.784C1065.72,560.5,1064.8,562.046,1062.79,563.2Z" fill="#5a4b66"/>
                      <path id="Trazado_210716" data-name="Trazado 210716" d="M1062.79,556.311a15.026,15.026,0,0,1-13.582-.024c-1.837-1.065-2.782-2.447-2.83-3.829l-.018-1.256h.024a4.97,4.97,0,0,0,2.824,3.667,15.007,15.007,0,0,0,13.582.03,4.924,4.924,0,0,0,2.776-3.584v.784C1065.72,553.613,1064.8,555.156,1062.79,556.311Z" fill="#5a4b66"/>
                      <path id="Trazado_210717" data-name="Trazado 210717" d="M1062.79,569.465a15.026,15.026,0,0,1-13.582-.024c-1.837-1.065-2.782-2.447-2.83-3.829l-.018-1.257h.024a4.97,4.97,0,0,0,2.824,3.668,15.006,15.006,0,0,0,13.582.03,4.924,4.924,0,0,0,2.776-3.584v.784C1065.72,566.766,1064.8,568.31,1062.79,569.465Z" fill="#5a4b66"/>
                      <path id="Trazado_210718" data-name="Trazado 210718" d="M1062.79,575.728a15.025,15.025,0,0,1-13.582-.024c-1.837-1.065-2.782-2.447-2.83-3.829l-.018-1.256h.024a4.97,4.97,0,0,0,2.824,3.668,15.007,15.007,0,0,0,13.582.03,4.924,4.924,0,0,0,2.776-3.584v.784C1065.72,573.03,1064.8,574.573,1062.79,575.728Z" fill="#5a4b66"/>
                      <path id="Trazado_210719" data-name="Trazado 210719" d="M1062.79,581.992a15.025,15.025,0,0,1-13.582-.024c-1.837-1.065-2.782-2.447-2.83-3.829l-.018-1.256h.024a4.97,4.97,0,0,0,2.824,3.668,15.007,15.007,0,0,0,13.582.03,4.924,4.924,0,0,0,2.776-3.584v.784C1065.72,579.293,1064.8,580.837,1062.79,581.992Z" fill="#5a4b66"/>
                    </g>
                  </g>
                </g>
              </g>
            </g>
          </g>
          <g id="Grupo_148697" data-name="Grupo 148697">
            <g id="Grupo_148696" data-name="Grupo 148696">
              <g id="Grupo_148695" data-name="Grupo 148695">
                <g id="Grupo_148691" data-name="Grupo 148691">
                  <path id="Trazado_210720" data-name="Trazado 210720" d="M1053.74,540.87l.017,1.262a1.1,1.1,0,0,0,.645.9,3.457,3.457,0,0,0,3.138,0,1.11,1.11,0,0,0,.655-.915l-.017-1.262a1.111,1.111,0,0,1-.655.915,3.458,3.458,0,0,1-3.138,0A1.132,1.132,0,0,1,1053.74,540.87Z" fill="#1a4b6c"/>
                  <g id="Grupo_148690" data-name="Grupo 148690" clip-path="url(#clip-path-2)">
                    <path id="Trazado_210721" data-name="Trazado 210721" d="M1053.74,540.87l.017,1.262a1.1,1.1,0,0,0,.645.9,2.871,2.871,0,0,0,1,.335l-.017-1.262a2.866,2.866,0,0,1-1-.334,1.132,1.132,0,0,1-.645-.9Z" fill="#bdc4df"/>
                    <path id="Trazado_210722" data-name="Trazado 210722" d="M1055.39,542.107l.017,1.262a3.8,3.8,0,0,0,1.116,0l-.017-1.262a3.824,3.824,0,0,1-1.116,0Z" fill="#c8d0ec"/>
                    <path id="Trazado_210723" data-name="Trazado 210723" d="M1056.51,542.109l.017,1.262a2.9,2.9,0,0,0,1.018-.336,1.9,1.9,0,0,0,.166-.107l-.017-1.262q-.077.055-.166.107a2.922,2.922,0,0,1-1.018.336Z" fill="#dae0f4"/>
                    <path id="Trazado_210724" data-name="Trazado 210724" d="M1058.15,541.066a.755.755,0,0,0,.029-.209l.017,1.262a.762.762,0,0,1-.029.208,1.141,1.141,0,0,1-.46.6l-.017-1.262A1.129,1.129,0,0,0,1058.15,541.066Z" fill="#bdc4df"/>
                  </g>
                </g>
                <g id="Grupo_148692" data-name="Grupo 148692">
                  <path id="Trazado_210726" data-name="Trazado 210726" d="M1054.4,539.955a.96.96,0,0,0-.01,1.818,3.458,3.458,0,0,0,3.138,0,.96.96,0,0,0,.01-1.818A3.458,3.458,0,0,0,1054.4,539.955Z" fill="#f2f4fe"/>
                </g>
                <g id="Grupo_148693" data-name="Grupo 148693">
                  <path id="Trazado_210727" data-name="Trazado 210727" d="M1054.48,541.348a1.282,1.282,0,0,0,.275.21c.032.018.066.036.1.054s.066.031.1.046a2.743,2.743,0,0,0,2,0c.034-.014.067-.029.1-.046s.065-.034.1-.052a1.255,1.255,0,0,0,.309-.244.66.66,0,0,0-.13-1.029c-.025-.02-.051-.039-.079-.059s-.06-.039-.092-.058a2.643,2.643,0,0,0-2.4,0c-.034.019-.066.039-.1.061s-.054.038-.079.058A.67.67,0,0,0,1054.48,541.348Z" fill="#c8d0ec"/>
                </g>
                <g id="Grupo_148694" data-name="Grupo 148694">
                  <path id="Trazado_210728" data-name="Trazado 210728" d="M1054.42,540.461a1.4,1.4,0,0,1,.18-.122,2.644,2.644,0,0,1,2.4,0c.51.3.624.735.344,1.1.478-.384.421-.922-.173-1.267a2.645,2.645,0,0,0-2.4,0A1.163,1.163,0,0,0,1054.42,540.461Z" fill="#bdc4df"/>
                </g>
              </g>
            </g>
            <path id="Trazado_210729" data-name="Trazado 210729" d="M1054.46,532.72v8.474h0a.52.52,0,0,0,.024.155,1.28,1.28,0,0,0,.275.21c.032.019.066.037.1.054s.066.031.1.046a2.743,2.743,0,0,0,2,0c.034-.014.067-.029.1-.046s.065-.034.1-.052a1.252,1.252,0,0,0,.309-.244.511.511,0,0,0,.014-.121h0V532.72h-3.023Z" fill="#f27013"/>
            <path id="Trazado_210730" data-name="Trazado 210730" d="M1054.46,532.72v8.473a.521.521,0,0,0,.024.155,1.288,1.288,0,0,0,.275.211l.1.054c.033.015.066.031.1.045a2.29,2.29,0,0,0,.476.141V532.72h-.976Z" fill="#ffa13d" opacity="0.2"/>
            <path id="Trazado_210731" data-name="Trazado 210731" d="M1056.36,532.72v9.1a2.411,2.411,0,0,0,.606-.163c.034-.014.067-.029.1-.046s.065-.033.1-.051a1.273,1.273,0,0,0,.309-.244.543.543,0,0,0,.014-.122h0V532.72h-1.126Z" fill="#c57339" opacity="0.2"/>
          </g>
          <g id="Grupo_148722" data-name="Grupo 148722">
            <g id="Grupo_148700" data-name="Grupo 148700">
              <g id="Grupo_148698" data-name="Grupo 148698">
                <path id="Trazado_210732" data-name="Trazado 210732" d="M1080.03,596.894a.61.61,0,0,1-.551,0,.168.168,0,0,1,0-.318.609.609,0,0,1,.551,0A.169.169,0,0,1,1080.03,596.894Z" fill="#d1d1d1"/>
              </g>
              <g id="Grupo_148699" data-name="Grupo 148699">
                <path id="Trazado_210733" data-name="Trazado 210733" d="M1080.47,596.735v-9.994h-1.409v10.02a.358.358,0,0,0,.208.281,1.1,1.1,0,0,0,1,0A.341.341,0,0,0,1080.47,596.735Z" fill="#bdc4df"/>
                <path id="Trazado_210734" data-name="Trazado 210734" d="M1080.26,587.013a1.1,1.1,0,0,1-1,0,.3.3,0,0,1,0-.575,1.1,1.1,0,0,1,1,0C1080.54,586.6,1080.54,586.855,1080.26,587.013Z" fill="#d1d1d1"/>
              </g>
            </g>
            <g id="Grupo_148703" data-name="Grupo 148703">
              <g id="Grupo_148701" data-name="Grupo 148701">
                <path id="Trazado_210735" data-name="Trazado 210735" d="M1071.14,602a.61.61,0,0,1-.552,0,.168.168,0,0,1,0-.318.61.61,0,0,1,.551,0C1071.29,601.772,1071.3,601.915,1071.14,602Z" fill="#d1d1d1"/>
              </g>
              <g id="Grupo_148702" data-name="Grupo 148702">
                <path id="Trazado_210736" data-name="Trazado 210736" d="M1071.58,601.844v-9.993h-1.409v10.02a.357.357,0,0,0,.208.281,1.1,1.1,0,0,0,1,0C1071.53,602.068,1071.6,601.955,1071.58,601.844Z" fill="#bdc4df"/>
                <path id="Trazado_210737" data-name="Trazado 210737" d="M1071.38,592.122a1.1,1.1,0,0,1-1,0,.3.3,0,0,1,0-.575,1.1,1.1,0,0,1,1,0C1071.65,591.706,1071.66,591.963,1071.38,592.122Z" fill="#d1d1d1"/>
              </g>
            </g>
            <g id="Grupo_148706" data-name="Grupo 148706">
              <g id="Grupo_148704" data-name="Grupo 148704">
                <path id="Trazado_210738" data-name="Trazado 210738" d="M1062.24,596.894a.61.61,0,0,1-.552,0,.168.168,0,0,1,0-.318.609.609,0,0,1,.551,0C1062.4,596.663,1062.4,596.806,1062.24,596.894Z" fill="#d1d1d1"/>
              </g>
              <g id="Grupo_148705" data-name="Grupo 148705">
                <path id="Trazado_210739" data-name="Trazado 210739" d="M1062.69,596.735v-9.994h-1.409v10.02a.357.357,0,0,0,.208.281,1.1,1.1,0,0,0,1,0A.341.341,0,0,0,1062.69,596.735Z" fill="#bdc4df"/>
                <path id="Trazado_210740" data-name="Trazado 210740" d="M1062.48,587.013a1.1,1.1,0,0,1-1,0,.3.3,0,0,1,0-.575,1.1,1.1,0,0,1,1,0C1062.76,586.6,1062.76,586.855,1062.48,587.013Z" fill="#d1d1d1"/>
              </g>
            </g>
            <g id="Grupo_148713" data-name="Grupo 148713">
              <g id="Grupo_148712" data-name="Grupo 148712">
                <g id="Grupo_148711" data-name="Grupo 148711">
                  <g id="Grupo_148708" data-name="Grupo 148708">
                    <path id="Trazado_210741" data-name="Trazado 210741" d="M1080.48,548.936l-.075,38.6c0,1.41-.931,2.818-2.782,3.894a14.919,14.919,0,0,1-13.538,0c-1.888-1.09-2.83-2.52-2.826-3.948l.075-38.6c0,1.428.938,2.859,2.826,3.948a14.919,14.919,0,0,0,13.538,0C1079.55,551.754,1080.48,550.346,1080.48,548.936Z" fill="#1a4b6c"/>
                    <g id="Grupo_148707" data-name="Grupo 148707" clip-path="url(#clip-path-3)">
                      <path id="Trazado_210742" data-name="Trazado 210742" d="M1080.48,548.936l-.075,38.6c0,1.41-.931,2.818-2.782,3.894a12.374,12.374,0,0,1-4.33,1.443l.075-38.6a12.373,12.373,0,0,0,4.33-1.443c1.852-1.076,2.782-2.484,2.782-3.894Z" fill="#bdc4df"/>
                      <path id="Trazado_210743" data-name="Trazado 210743" d="M1073.37,554.273l-.075,38.6a16.426,16.426,0,0,1-4.816.007l.074-38.6a16.406,16.406,0,0,0,4.816-.007Z" fill="#c8d0ec"/>
                      <path id="Trazado_210744" data-name="Trazado 210744" d="M1068.56,554.281l-.074,38.6a12.528,12.528,0,0,1-4.393-1.45,8.445,8.445,0,0,1-.716-.462l.075-38.6a8.473,8.473,0,0,0,.716.461,12.541,12.541,0,0,0,4.393,1.45Z" fill="#dae0f4"/>
                      <path id="Trazado_210745" data-name="Trazado 210745" d="M1061.46,549.782a3.3,3.3,0,0,1-.124-.9l-.075,38.6a3.3,3.3,0,0,0,.124.9,4.925,4.925,0,0,0,1.986,2.586l.075-38.6A4.93,4.93,0,0,1,1061.46,549.782Z" fill="#bdc4df"/>
                    </g>
                  </g>
                  <g id="Grupo_148709" data-name="Grupo 148709">
                    <path id="Trazado_210747" data-name="Trazado 210747" d="M1076.11,551.908c-.14.081-.284.159-.431.231s-.286.135-.432.2a11.84,11.84,0,0,1-8.642-.009c-.147-.062-.292-.128-.432-.2s-.281-.146-.417-.223c-2.594-1.5-2.854-3.838-.772-5.5.107-.086.22-.169.34-.25s.259-.17.4-.252a11.411,11.411,0,0,1,10.354,0c.147.085.287.172.418.262s.234.165.341.25C1078.92,548.081,1078.68,550.414,1076.11,551.908Z" fill="#c8d0ec"/>
                  </g>
                  <g id="Grupo_148710" data-name="Grupo 148710">
                    <path id="Trazado_210748" data-name="Trazado 210748" d="M1077.58,547.173a6.16,6.16,0,0,0-.776-.527,11.407,11.407,0,0,0-10.355,0c-2.2,1.279-2.694,3.172-1.482,4.731-2.063-1.656-1.815-3.977.746-5.467a11.412,11.412,0,0,1,10.355,0A5.05,5.05,0,0,1,1077.58,547.173Z" fill="#bdc4df"/>
                  </g>
                </g>
              </g>
            </g>
            <g id="Grupo_148721" data-name="Grupo 148721">
              <g id="Grupo_148716" data-name="Grupo 148716">
                <g id="Grupo_148715" data-name="Grupo 148715">
                  <g id="Grupo_148714" data-name="Grupo 148714">
                    <path id="Trazado_210749" data-name="Trazado 210749" d="M1077.69,553.9a15.013,15.013,0,0,1-13.584-.024c-3.763-2.173-3.782-5.684-.042-7.843a15.012,15.012,0,0,1,13.584.024C1081.41,548.225,1081.43,551.737,1077.69,553.9Z" fill="#f2f4fe"/>
                    <path id="Trazado_210750" data-name="Trazado 210750" d="M1080.04,550a3.865,3.865,0,0,1-1.819,3.021,8.385,8.385,0,0,1-.753.494,13.286,13.286,0,0,1-6.53,1.554,13.441,13.441,0,0,1-6.609-1.579,7.443,7.443,0,0,1-.905-.608,3.832,3.832,0,0,1-1.707-2.95c0-1.312.913-2.558,2.571-3.515a13.255,13.255,0,0,1,6.53-1.554,13.441,13.441,0,0,1,6.609,1.579C1079.11,547.409,1080.04,548.674,1080.04,550Z" fill="#c8d0ec"/>
                    <path id="Trazado_210751" data-name="Trazado 210751" d="M1064.29,547.186a13.255,13.255,0,0,1,6.53-1.554,13.44,13.44,0,0,1,6.609,1.579,4.629,4.629,0,0,1,2.581,3.2,2.8,2.8,0,0,0,.031-.416c0-1.323-.927-2.588-2.612-3.558a13.44,13.44,0,0,0-6.609-1.579,13.255,13.255,0,0,0-6.53,1.554c-1.658.957-2.571,2.2-2.571,3.515a2.844,2.844,0,0,0,.031.412A4.547,4.547,0,0,1,1064.29,547.186Z" fill="#bdc4df"/>
                  </g>
                </g>
              </g>
              <g id="Grupo_148720" data-name="Grupo 148720">
                <g id="Grupo_148719" data-name="Grupo 148719">
                  <g id="Grupo_148718" data-name="Grupo 148718">
                    <g id="Grupo_148717" data-name="Grupo 148717">
                      <path id="Trazado_210752" data-name="Trazado 210752" d="M1077.69,557.454a15.025,15.025,0,0,1-13.582-.024c-1.837-1.065-2.782-2.447-2.83-3.829l-.018-1.256h.024a4.97,4.97,0,0,0,2.824,3.668,15.008,15.008,0,0,0,13.582.03,4.924,4.924,0,0,0,2.776-3.584v.784C1080.62,554.756,1079.7,556.3,1077.69,557.454Z" fill="#5a4b66"/>
                      <path id="Trazado_210753" data-name="Trazado 210753" d="M1077.69,571.571a15.025,15.025,0,0,1-13.582-.024c-1.837-1.065-2.782-2.447-2.83-3.829l-.018-1.256h.024a4.97,4.97,0,0,0,2.824,3.667,15.007,15.007,0,0,0,13.582.03,4.924,4.924,0,0,0,2.776-3.584v.784C1080.62,568.873,1079.7,570.416,1077.69,571.571Z" fill="#5a4b66"/>
                      <path id="Trazado_210754" data-name="Trazado 210754" d="M1077.69,564.681a15.025,15.025,0,0,1-13.582-.024c-1.837-1.065-2.782-2.447-2.83-3.829l-.018-1.256h.024a4.97,4.97,0,0,0,2.824,3.667,15.007,15.007,0,0,0,13.582.03,4.924,4.924,0,0,0,2.776-3.584v.784C1080.62,561.983,1079.7,563.526,1077.69,564.681Z" fill="#5a4b66"/>
                      <path id="Trazado_210755" data-name="Trazado 210755" d="M1077.69,577.835a15.026,15.026,0,0,1-13.582-.024c-1.837-1.065-2.782-2.447-2.83-3.829l-.018-1.256h.024a4.97,4.97,0,0,0,2.824,3.668,15.007,15.007,0,0,0,13.582.03,4.923,4.923,0,0,0,2.776-3.584v.784C1080.62,575.136,1079.7,576.68,1077.69,577.835Z" fill="#5a4b66"/>
                      <path id="Trazado_210756" data-name="Trazado 210756" d="M1077.69,584.1a15.026,15.026,0,0,1-13.582-.024c-1.837-1.065-2.782-2.447-2.83-3.829l-.018-1.256h.024a4.97,4.97,0,0,0,2.824,3.668,15.007,15.007,0,0,0,13.582.03,4.923,4.923,0,0,0,2.776-3.584v.784C1080.62,581.4,1079.7,582.943,1077.69,584.1Z" fill="#5a4b66"/>
                      <path id="Trazado_210757" data-name="Trazado 210757" d="M1077.69,590.362a15.025,15.025,0,0,1-13.582-.024c-1.837-1.065-2.782-2.447-2.83-3.829l-.018-1.256h.024a4.97,4.97,0,0,0,2.824,3.668,15.008,15.008,0,0,0,13.582.03,4.924,4.924,0,0,0,2.776-3.584v.784C1080.62,587.663,1079.7,589.207,1077.69,590.362Z" fill="#5a4b66"/>
                    </g>
                  </g>
                </g>
              </g>
            </g>
          </g>
          <g id="Grupo_148747" data-name="Grupo 148747">
            <g id="Grupo_148725" data-name="Grupo 148725">
              <g id="Grupo_148723" data-name="Grupo 148723">
                <path id="Trazado_210758" data-name="Trazado 210758" d="M1095.54,605.134a.61.61,0,0,1-.551,0c-.153-.088-.154-.231,0-.318a.609.609,0,0,1,.552,0A.169.169,0,0,1,1095.54,605.134Z" fill="#d1d1d1"/>
              </g>
              <g id="Grupo_148724" data-name="Grupo 148724">
                <path id="Trazado_210759" data-name="Trazado 210759" d="M1095.98,604.976v-9.993h-1.409V605a.358.358,0,0,0,.208.281,1.1,1.1,0,0,0,1,0A.342.342,0,0,0,1095.98,604.976Z" fill="#bdc4df"/>
                <path id="Trazado_210760" data-name="Trazado 210760" d="M1095.77,595.253a1.1,1.1,0,0,1-1,0,.3.3,0,0,1,0-.575,1.1,1.1,0,0,1,1,0C1096.05,594.838,1096.05,595.095,1095.77,595.253Z" fill="#d1d1d1"/>
              </g>
            </g>
            <g id="Grupo_148728" data-name="Grupo 148728">
              <g id="Grupo_148726" data-name="Grupo 148726">
                <path id="Trazado_210761" data-name="Trazado 210761" d="M1086.65,610.243a.61.61,0,0,1-.551,0,.168.168,0,0,1,0-.318.609.609,0,0,1,.552,0A.168.168,0,0,1,1086.65,610.243Z" fill="#d1d1d1"/>
              </g>
              <g id="Grupo_148727" data-name="Grupo 148727">
                <path id="Trazado_210762" data-name="Trazado 210762" d="M1087.09,610.085v-9.993h-1.409v10.02a.358.358,0,0,0,.208.281,1.1,1.1,0,0,0,1,0A.326.326,0,0,0,1087.09,610.085Z" fill="#bdc4df"/>
                <path id="Trazado_210763" data-name="Trazado 210763" d="M1086.89,600.362a1.1,1.1,0,0,1-1,0,.3.3,0,0,1,0-.575,1.1,1.1,0,0,1,1,0A.3.3,0,0,1,1086.89,600.362Z" fill="#d1d1d1"/>
              </g>
            </g>
            <g id="Grupo_148731" data-name="Grupo 148731">
              <g id="Grupo_148729" data-name="Grupo 148729">
                <path id="Trazado_210764" data-name="Trazado 210764" d="M1077.75,605.134a.609.609,0,0,1-.551,0c-.153-.088-.154-.231,0-.318a.609.609,0,0,1,.551,0C1077.9,604.9,1077.91,605.047,1077.75,605.134Z" fill="#d1d1d1"/>
              </g>
              <g id="Grupo_148730" data-name="Grupo 148730">
                <path id="Trazado_210765" data-name="Trazado 210765" d="M1078.19,604.976v-9.993h-1.409V605a.357.357,0,0,0,.208.281,1.1,1.1,0,0,0,1,0C1078.14,605.2,1078.21,605.087,1078.19,604.976Z" fill="#bdc4df"/>
                <path id="Trazado_210766" data-name="Trazado 210766" d="M1077.99,595.253a1.1,1.1,0,0,1-1,0,.3.3,0,0,1,0-.575,1.1,1.1,0,0,1,1,0C1078.26,594.838,1078.27,595.095,1077.99,595.253Z" fill="#d1d1d1"/>
              </g>
            </g>
            <g id="Grupo_148738" data-name="Grupo 148738">
              <g id="Grupo_148737" data-name="Grupo 148737">
                <g id="Grupo_148736" data-name="Grupo 148736">
                  <g id="Grupo_148733" data-name="Grupo 148733">
                    <path id="Trazado_210767" data-name="Trazado 210767" d="M1095.99,557.177l-.075,38.6c0,1.41-.931,2.818-2.782,3.894a14.918,14.918,0,0,1-13.538,0c-1.888-1.09-2.83-2.52-2.826-3.948l.075-38.6c0,1.428.939,2.859,2.826,3.948a14.919,14.919,0,0,0,13.538,0C1095.06,559.995,1095.99,558.587,1095.99,557.177Z" fill="#1a4b6c"/>
                    <g id="Grupo_148732" data-name="Grupo 148732" clip-path="url(#clip-path-4)">
                      <path id="Trazado_210768" data-name="Trazado 210768" d="M1095.99,557.177l-.075,38.6c0,1.41-.931,2.818-2.782,3.894a12.376,12.376,0,0,1-4.33,1.443l.075-38.6a12.376,12.376,0,0,0,4.33-1.443c1.852-1.076,2.782-2.484,2.782-3.894Z" fill="#bdc4df"/>
                      <path id="Trazado_210769" data-name="Trazado 210769" d="M1088.88,562.514l-.075,38.6a16.443,16.443,0,0,1-4.816.007l.075-38.6a16.437,16.437,0,0,0,4.816-.007Z" fill="#c8d0ec"/>
                      <path id="Trazado_210770" data-name="Trazado 210770" d="M1084.07,562.521l-.075,38.6a12.526,12.526,0,0,1-4.393-1.45,8.43,8.43,0,0,1-.716-.461l.074-38.6a8.392,8.392,0,0,0,.716.462,12.435,12.435,0,0,0,4.393,1.45Z" fill="#dae0f4"/>
                      <path id="Trazado_210771" data-name="Trazado 210771" d="M1076.97,558.023a3.3,3.3,0,0,1-.124-.9l-.075,38.6a3.312,3.312,0,0,0,.124.9,4.927,4.927,0,0,0,1.987,2.587l.074-38.6A4.934,4.934,0,0,1,1076.97,558.023Z" fill="#bdc4df"/>
                    </g>
                  </g>
                  <g id="Grupo_148734" data-name="Grupo 148734">
                    <path id="Trazado_210773" data-name="Trazado 210773" d="M1091.61,560.149c-.14.081-.284.159-.431.231s-.285.136-.432.2a11.84,11.84,0,0,1-8.642-.009c-.147-.062-.292-.128-.432-.2s-.281-.146-.417-.223c-2.594-1.5-2.854-3.838-.772-5.5.107-.086.219-.169.339-.25s.26-.17.4-.252a11.411,11.411,0,0,1,10.355,0c.147.085.287.172.418.262s.234.165.341.25C1094.42,556.322,1094.18,558.654,1091.61,560.149Z" fill="#c8d0ec"/>
                  </g>
                  <g id="Grupo_148735" data-name="Grupo 148735">
                    <path id="Trazado_210774" data-name="Trazado 210774" d="M1093.09,555.414a6.149,6.149,0,0,0-.776-.527,11.408,11.408,0,0,0-10.355,0c-2.2,1.279-2.694,3.172-1.482,4.731-2.063-1.656-1.815-3.977.746-5.466a11.413,11.413,0,0,1,10.355,0A5.05,5.05,0,0,1,1093.09,555.414Z" fill="#bdc4df"/>
                  </g>
                </g>
              </g>
            </g>
            <g id="Grupo_148746" data-name="Grupo 148746">
              <g id="Grupo_148741" data-name="Grupo 148741">
                <g id="Grupo_148740" data-name="Grupo 148740">
                  <g id="Grupo_148739" data-name="Grupo 148739">
                    <path id="Trazado_210775" data-name="Trazado 210775" d="M1093.2,562.136a15.012,15.012,0,0,1-13.584-.025c-3.763-2.172-3.782-5.684-.043-7.842a15.012,15.012,0,0,1,13.584.024C1096.92,556.466,1096.94,559.977,1093.2,562.136Z" fill="#f2f4fe"/>
                    <path id="Trazado_210776" data-name="Trazado 210776" d="M1095.55,558.237a3.863,3.863,0,0,1-1.819,3.021,8.352,8.352,0,0,1-.753.494,13.287,13.287,0,0,1-6.53,1.554,13.442,13.442,0,0,1-6.609-1.579,7.461,7.461,0,0,1-.905-.608,3.832,3.832,0,0,1-1.707-2.95c0-1.311.913-2.558,2.571-3.515a13.256,13.256,0,0,1,6.53-1.554,13.44,13.44,0,0,1,6.61,1.579C1094.62,555.649,1095.55,556.914,1095.55,558.237Z" fill="#c8d0ec"/>
                    <path id="Trazado_210777" data-name="Trazado 210777" d="M1079.79,555.427a13.256,13.256,0,0,1,6.53-1.554,13.439,13.439,0,0,1,6.61,1.579,4.627,4.627,0,0,1,2.581,3.2,2.816,2.816,0,0,0,.031-.416c0-1.322-.927-2.588-2.612-3.558a13.44,13.44,0,0,0-6.61-1.579,13.256,13.256,0,0,0-6.53,1.554c-1.658.957-2.571,2.2-2.571,3.515a2.847,2.847,0,0,0,.031.412A4.6,4.6,0,0,1,1079.79,555.427Z" fill="#bdc4df"/>
                  </g>
                </g>
              </g>
              <g id="Grupo_148745" data-name="Grupo 148745">
                <g id="Grupo_148744" data-name="Grupo 148744">
                  <g id="Grupo_148743" data-name="Grupo 148743">
                    <g id="Grupo_148742" data-name="Grupo 148742">
                      <path id="Trazado_210778" data-name="Trazado 210778" d="M1093.2,565.7a15.024,15.024,0,0,1-13.581-.024c-1.837-1.065-2.782-2.447-2.83-3.829l-.018-1.256h.024a4.97,4.97,0,0,0,2.824,3.668,15.008,15.008,0,0,0,13.581.03,4.924,4.924,0,0,0,2.776-3.584v.784C1096.13,563,1095.21,564.54,1093.2,565.7Z" fill="#5a4b66"/>
                      <path id="Trazado_210779" data-name="Trazado 210779" d="M1093.2,579.812a15.025,15.025,0,0,1-13.581-.024c-1.837-1.065-2.782-2.447-2.83-3.829l-.018-1.256h.024a4.97,4.97,0,0,0,2.824,3.667,15.007,15.007,0,0,0,13.581.03,4.924,4.924,0,0,0,2.776-3.584v.784C1096.13,577.114,1095.21,578.657,1093.2,579.812Z" fill="#5a4b66"/>
                      <path id="Trazado_210780" data-name="Trazado 210780" d="M1093.2,572.921a15.025,15.025,0,0,1-13.581-.024c-1.837-1.065-2.782-2.447-2.83-3.829l-.018-1.256h.024a4.97,4.97,0,0,0,2.824,3.667,15.007,15.007,0,0,0,13.581.03,4.924,4.924,0,0,0,2.776-3.584v.784C1096.13,570.223,1095.21,571.767,1093.2,572.921Z" fill="#5a4b66"/>
                      <path id="Trazado_210781" data-name="Trazado 210781" d="M1093.2,586.075a15.025,15.025,0,0,1-13.581-.024c-1.837-1.065-2.782-2.447-2.83-3.829l-.018-1.257h.024a4.969,4.969,0,0,0,2.824,3.668,15.005,15.005,0,0,0,13.581.03,4.924,4.924,0,0,0,2.776-3.584v.784C1096.13,583.377,1095.21,584.921,1093.2,586.075Z" fill="#5a4b66"/>
                      <path id="Trazado_210782" data-name="Trazado 210782" d="M1093.2,592.339a15.025,15.025,0,0,1-13.581-.024c-1.837-1.065-2.782-2.447-2.83-3.829l-.018-1.256h.024a4.97,4.97,0,0,0,2.824,3.668,15.007,15.007,0,0,0,13.581.03,4.924,4.924,0,0,0,2.776-3.584v.784C1096.13,589.64,1095.21,591.184,1093.2,592.339Z" fill="#5a4b66"/>
                      <path id="Trazado_210783" data-name="Trazado 210783" d="M1093.2,598.6a15.025,15.025,0,0,1-13.581-.024c-1.837-1.065-2.782-2.447-2.83-3.829l-.018-1.257h.024a4.97,4.97,0,0,0,2.824,3.668,15.007,15.007,0,0,0,13.581.03,4.924,4.924,0,0,0,2.776-3.584v.784C1096.13,595.9,1095.21,597.448,1093.2,598.6Z" fill="#5a4b66"/>
                    </g>
                  </g>
                </g>
              </g>
            </g>
          </g>
          <g id="Grupo_148755" data-name="Grupo 148755">
            <g id="Grupo_148754" data-name="Grupo 148754">
              <g id="Grupo_148753" data-name="Grupo 148753">
                <g id="Grupo_148749" data-name="Grupo 148749">
                  <path id="Trazado_210784" data-name="Trazado 210784" d="M1068.65,549.7l.017,1.262a1.1,1.1,0,0,0,.645.9,3.458,3.458,0,0,0,3.138,0,1.11,1.11,0,0,0,.655-.915l-.017-1.262a1.111,1.111,0,0,1-.655.915,3.459,3.459,0,0,1-3.138,0A1.089,1.089,0,0,1,1068.65,549.7Z" fill="#1a4b6c"/>
                  <g id="Grupo_148748" data-name="Grupo 148748" clip-path="url(#clip-path-5)">
                    <path id="Trazado_210785" data-name="Trazado 210785" d="M1068.65,549.7l.017,1.262a1.1,1.1,0,0,0,.645.9,2.87,2.87,0,0,0,1,.334l-.017-1.262a2.863,2.863,0,0,1-1-.335,1.088,1.088,0,0,1-.645-.9Z" fill="#bdc4df"/>
                    <path id="Trazado_210786" data-name="Trazado 210786" d="M1070.29,550.933l.017,1.262a3.808,3.808,0,0,0,1.116,0l-.017-1.262a3.784,3.784,0,0,1-1.116,0Z" fill="#c8d0ec"/>
                    <path id="Trazado_210787" data-name="Trazado 210787" d="M1071.41,550.935l.017,1.262a2.9,2.9,0,0,0,1.018-.336q.089-.052.166-.107l-.017-1.262a1.965,1.965,0,0,1-.166.107,2.887,2.887,0,0,1-1.018.336Z" fill="#dae0f4"/>
                    <path id="Trazado_210788" data-name="Trazado 210788" d="M1073.06,549.892a.757.757,0,0,0,.029-.208l.017,1.262a.764.764,0,0,1-.029.209,1.141,1.141,0,0,1-.46.6l-.017-1.262A1.173,1.173,0,0,0,1073.06,549.892Z" fill="#bdc4df"/>
                  </g>
                </g>
                <g id="Grupo_148750" data-name="Grupo 148750">
                  <path id="Trazado_210790" data-name="Trazado 210790" d="M1069.3,548.781a.96.96,0,0,0-.01,1.818,3.458,3.458,0,0,0,3.138,0,.96.96,0,0,0,.01-1.818A3.458,3.458,0,0,0,1069.3,548.781Z" fill="#f2f4fe"/>
                </g>
                <g id="Grupo_148751" data-name="Grupo 148751">
                  <path id="Trazado_210791" data-name="Trazado 210791" d="M1069.39,550.175a1.29,1.29,0,0,0,.275.21c.032.019.066.036.1.054s.066.031.1.046a2.744,2.744,0,0,0,2,0c.034-.014.067-.029.1-.046s.065-.034.1-.052a1.249,1.249,0,0,0,.309-.244.66.66,0,0,0-.13-1.03c-.025-.02-.051-.039-.079-.059s-.06-.039-.092-.058a2.644,2.644,0,0,0-2.4,0c-.034.019-.066.039-.1.061s-.054.038-.079.058A.659.659,0,0,0,1069.39,550.175Z" fill="#c8d0ec"/>
                </g>
                <g id="Grupo_148752" data-name="Grupo 148752">
                  <path id="Trazado_210792" data-name="Trazado 210792" d="M1069.32,549.287a1.456,1.456,0,0,1,.18-.122,2.645,2.645,0,0,1,2.4,0c.51.3.624.735.344,1.1.478-.384.421-.922-.173-1.267a2.645,2.645,0,0,0-2.4,0A1.183,1.183,0,0,0,1069.32,549.287Z" fill="#bdc4df"/>
                </g>
              </g>
            </g>
            <path id="Trazado_210793" data-name="Trazado 210793" d="M1069.36,541.546v8.474h0a.517.517,0,0,0,.024.155,1.29,1.29,0,0,0,.275.21c.032.019.066.036.1.054s.066.031.1.046a2.744,2.744,0,0,0,2,0c.034-.014.067-.029.1-.046s.065-.034.1-.052a1.249,1.249,0,0,0,.309-.244.518.518,0,0,0,.014-.121h0v-8.474h-3.023Z" fill="#f27013"/>
            <path id="Trazado_210794" data-name="Trazado 210794" d="M1069.36,541.546v8.474a.524.524,0,0,0,.024.154,1.287,1.287,0,0,0,.275.211l.1.054c.033.015.066.031.1.045a2.3,2.3,0,0,0,.477.141v-9.079Z" fill="#ffa13d" opacity="0.2"/>
            <path id="Trazado_210795" data-name="Trazado 210795" d="M1071.26,541.546v9.1a2.416,2.416,0,0,0,.606-.163c.034-.014.067-.029.1-.047s.065-.033.1-.051a1.27,1.27,0,0,0,.309-.244.552.552,0,0,0,.014-.122h0v-8.474Z" fill="#c57339" opacity="0.2"/>
          </g>
          <g id="Grupo_148763" data-name="Grupo 148763">
            <g id="Grupo_148762" data-name="Grupo 148762">
              <g id="Grupo_148761" data-name="Grupo 148761">
                <g id="Grupo_148757" data-name="Grupo 148757">
                  <path id="Trazado_210796" data-name="Trazado 210796" d="M1084.15,558.373l.017,1.262a1.1,1.1,0,0,0,.645.9,3.459,3.459,0,0,0,3.138,0,1.11,1.11,0,0,0,.655-.915l-.017-1.262a1.11,1.11,0,0,1-.655.915,3.458,3.458,0,0,1-3.138,0A1.13,1.13,0,0,1,1084.15,558.373Z" fill="#1a4b6c"/>
                  <g id="Grupo_148756" data-name="Grupo 148756" clip-path="url(#clip-path-6)">
                    <path id="Trazado_210797" data-name="Trazado 210797" d="M1084.15,558.373l.017,1.262a1.1,1.1,0,0,0,.645.9,2.866,2.866,0,0,0,1,.334l-.017-1.262a2.869,2.869,0,0,1-1-.335,1.13,1.13,0,0,1-.645-.9Z" fill="#bdc4df"/>
                    <path id="Trazado_210798" data-name="Trazado 210798" d="M1085.8,559.61l.017,1.262a3.807,3.807,0,0,0,1.116,0l-.017-1.262a3.813,3.813,0,0,1-1.116,0Z" fill="#c8d0ec"/>
                    <path id="Trazado_210799" data-name="Trazado 210799" d="M1086.92,559.612l.017,1.262a2.9,2.9,0,0,0,1.018-.336,1.9,1.9,0,0,0,.166-.107l-.017-1.262a1.892,1.892,0,0,1-.166.107,2.918,2.918,0,0,1-1.018.336Z" fill="#dae0f4"/>
                    <path id="Trazado_210800" data-name="Trazado 210800" d="M1088.56,558.569a.764.764,0,0,0,.029-.209l.017,1.262a.773.773,0,0,1-.029.209,1.143,1.143,0,0,1-.461.6l-.017-1.262A1.128,1.128,0,0,0,1088.56,558.569Z" fill="#bdc4df"/>
                  </g>
                </g>
                <g id="Grupo_148758" data-name="Grupo 148758">
                  <path id="Trazado_210802" data-name="Trazado 210802" d="M1084.81,557.458a.96.96,0,0,0-.01,1.818,3.457,3.457,0,0,0,3.138,0,.96.96,0,0,0,.01-1.818A3.457,3.457,0,0,0,1084.81,557.458Z" fill="#f2f4fe"/>
                </g>
                <g id="Grupo_148759" data-name="Grupo 148759">
                  <path id="Trazado_210803" data-name="Trazado 210803" d="M1084.89,558.851a1.289,1.289,0,0,0,.275.21c.032.019.066.036.1.054s.066.031.1.046a2.744,2.744,0,0,0,2,0c.034-.014.067-.029.1-.046s.065-.034.1-.051a1.254,1.254,0,0,0,.309-.244.66.66,0,0,0-.13-1.03c-.025-.02-.051-.039-.079-.058s-.06-.039-.092-.058a2.644,2.644,0,0,0-2.4,0c-.034.019-.067.039-.1.061s-.054.038-.079.058A.67.67,0,0,0,1084.89,558.851Z" fill="#c8d0ec"/>
                </g>
                <g id="Grupo_148760" data-name="Grupo 148760">
                  <path id="Trazado_210804" data-name="Trazado 210804" d="M1084.83,557.964a1.419,1.419,0,0,1,.18-.122,2.644,2.644,0,0,1,2.4,0c.51.3.624.735.343,1.1.478-.384.421-.922-.173-1.267a2.646,2.646,0,0,0-2.4,0A1.165,1.165,0,0,0,1084.83,557.964Z" fill="#bdc4df"/>
                </g>
              </g>
            </g>
            <path id="Trazado_210805" data-name="Trazado 210805" d="M1084.87,550.223V558.7h0a.52.52,0,0,0,.024.155,1.279,1.279,0,0,0,.275.211c.032.019.066.036.1.054s.066.031.1.046a2.744,2.744,0,0,0,2,0c.034-.014.067-.029.1-.046s.065-.034.1-.051a1.254,1.254,0,0,0,.309-.244.518.518,0,0,0,.014-.121h0v-8.474h-3.023Z" fill="#f27013"/>
            <path id="Trazado_210806" data-name="Trazado 210806" d="M1084.87,550.223V558.7a.514.514,0,0,0,.024.154,1.281,1.281,0,0,0,.275.211l.1.054.1.045a2.3,2.3,0,0,0,.477.141v-9.079h-.976Z" fill="#ffa13d" opacity="0.2"/>
            <path id="Trazado_210807" data-name="Trazado 210807" d="M1086.77,550.223v9.1a2.409,2.409,0,0,0,.606-.163c.034-.014.067-.029.1-.046s.065-.033.1-.051a1.27,1.27,0,0,0,.309-.244.537.537,0,0,0,.014-.122h0v-8.473h-1.126Z" fill="#c57339" opacity="0.2"/>
          </g>
        </g>
        <g id="Grupo_148781" data-name="Grupo 148781">
          <g id="Grupo_148771" data-name="Grupo 148771">
            <g id="Grupo_148770" data-name="Grupo 148770">
              <g id="Grupo_148766" data-name="Grupo 148766">
                <path id="Trazado_210808" data-name="Trazado 210808" d="M1043.6,606.161l.017,1.262a1.1,1.1,0,0,0,.645.9,3.458,3.458,0,0,0,3.138,0,1.11,1.11,0,0,0,.655-.915l-.017-1.262a1.11,1.11,0,0,1-.655.915,3.459,3.459,0,0,1-3.138,0A1.09,1.09,0,0,1,1043.6,606.161Z" fill="#1a4b6c"/>
                <g id="Grupo_148765" data-name="Grupo 148765" clip-path="url(#clip-path-7)">
                  <path id="Trazado_210809" data-name="Trazado 210809" d="M1043.6,606.161l.017,1.262a1.1,1.1,0,0,0,.645.9,2.871,2.871,0,0,0,1,.335l-.017-1.262a2.867,2.867,0,0,1-1-.334,1.09,1.09,0,0,1-.645-.9Z" fill="#bdc4df"/>
                  <path id="Trazado_210810" data-name="Trazado 210810" d="M1045.24,607.4l.017,1.262a3.8,3.8,0,0,0,1.116,0l-.017-1.262a3.827,3.827,0,0,1-1.116,0Z" fill="#c8d0ec"/>
                  <path id="Trazado_210811" data-name="Trazado 210811" d="M1046.36,607.4l.017,1.262a2.9,2.9,0,0,0,1.018-.336,1.931,1.931,0,0,0,.166-.107l-.017-1.262a1.962,1.962,0,0,1-.166.107,2.922,2.922,0,0,1-1.018.336Z" fill="#dae0f4"/>
                  <path id="Trazado_210812" data-name="Trazado 210812" d="M1048.01,606.357a.769.769,0,0,0,.029-.209l.017,1.262a.764.764,0,0,1-.029.208,1.142,1.142,0,0,1-.461.6l-.017-1.262A1.18,1.18,0,0,0,1048.01,606.357Z" fill="#bdc4df"/>
                </g>
              </g>
              <g id="Grupo_148767" data-name="Grupo 148767">
                <path id="Trazado_210814" data-name="Trazado 210814" d="M1044.25,605.246a.961.961,0,0,0-.01,1.818,3.459,3.459,0,0,0,3.138,0,.961.961,0,0,0,.01-1.818A3.458,3.458,0,0,0,1044.25,605.246Z" fill="#f2f4fe"/>
              </g>
              <g id="Grupo_148768" data-name="Grupo 148768">
                <path id="Trazado_210815" data-name="Trazado 210815" d="M1044.34,606.639a1.285,1.285,0,0,0,.275.21c.032.018.066.036.1.054s.066.031.1.046a2.743,2.743,0,0,0,2,0c.034-.014.067-.029.1-.046s.065-.034.1-.052a1.255,1.255,0,0,0,.309-.244.66.66,0,0,0-.13-1.029c-.025-.02-.051-.039-.079-.059s-.06-.039-.092-.058a2.643,2.643,0,0,0-2.4,0c-.034.019-.067.039-.1.061s-.054.038-.079.058A.659.659,0,0,0,1044.34,606.639Z" fill="#c8d0ec"/>
              </g>
              <g id="Grupo_148769" data-name="Grupo 148769">
                <path id="Trazado_210816" data-name="Trazado 210816" d="M1044.27,605.752a1.384,1.384,0,0,1,.18-.122,2.644,2.644,0,0,1,2.4,0c.51.3.624.735.344,1.1.478-.384.421-.922-.173-1.267a2.645,2.645,0,0,0-2.4,0A1.163,1.163,0,0,0,1044.27,605.752Z" fill="#bdc4df"/>
              </g>
            </g>
          </g>
          <path id="Trazado_210817" data-name="Trazado 210817" d="M1052,579.8c0,1.018-.714,1.43-1.6.922a3.528,3.528,0,0,1-1.6-2.764c0-1.018.715-1.43,1.6-.921A3.542,3.542,0,0,1,1052,579.8Z" fill="#dae0f4"/>
          <g id="Grupo_148779" data-name="Grupo 148779">
            <g id="Grupo_148778" data-name="Grupo 148778">
              <g id="Grupo_148773" data-name="Grupo 148773">
                <path id="Trazado_210818" data-name="Trazado 210818" d="M1048.81,576.938l.568-.33a1.178,1.178,0,0,1,1.188.117l-.568.33A1.181,1.181,0,0,0,1048.81,576.938Z" fill="#dae0f4"/>
                <g id="Grupo_148772" data-name="Grupo 148772" clip-path="url(#clip-path-8)">
                  <path id="Trazado_210819" data-name="Trazado 210819" d="M1048.81,576.938l.568-.33a.856.856,0,0,1,.418-.112l-.568.33a.844.844,0,0,0-.418.112Z" fill="#f2f4fe"/>
                  <path id="Trazado_210820" data-name="Trazado 210820" d="M1049.23,576.826l.568-.33a1.5,1.5,0,0,1,.77.229l-.568.33a1.512,1.512,0,0,0-.77-.229Z" fill="#f2f4fe"/>
                </g>
              </g>
              <g id="Grupo_148775" data-name="Grupo 148775">
                <g id="Grupo_148774" data-name="Grupo 148774" clip-path="url(#clip-path-9)">
                  <path id="Trazado_210822" data-name="Trazado 210822" d="M1050,577.055l.568-.33a2.976,2.976,0,0,1,.738.623l-.568.33a3.175,3.175,0,0,0-.737-.623Z" fill="#f2f4fe"/>
                  <path id="Trazado_210823" data-name="Trazado 210823" d="M1050.74,577.678l.568-.33a4.013,4.013,0,0,1,.546.814l-.568.33a4.446,4.446,0,0,0-.547-.814Z" fill="#dae0f4"/>
                  <path id="Trazado_210824" data-name="Trazado 210824" d="M1051.28,578.492l.568-.33a3.268,3.268,0,0,1,.38,1.446,1.169,1.169,0,0,1-.487,1.071l-.568.33a1.169,1.169,0,0,0,.487-1.071,3.273,3.273,0,0,0-.38-1.446Z" fill="#dae0f4"/>
                </g>
              </g>
              <g id="Grupo_148776" data-name="Grupo 148776">
                <path id="Trazado_210826" data-name="Trazado 210826" d="M1050,577.055a3.668,3.668,0,0,1,1.664,2.883c0,1.06-.753,1.487-1.675.955a3.669,3.669,0,0,1-1.665-2.883C1048.33,576.95,1049.08,576.522,1050,577.055Z" fill="#b7bedb"/>
              </g>
              <g id="Grupo_148777" data-name="Grupo 148777">
                <path id="Trazado_210827" data-name="Trazado 210827" d="M1050,577.513a2.793,2.793,0,0,1,1.267,2.2c0,.807-.573,1.133-1.276.727a2.793,2.793,0,0,1-1.267-2.2C1048.72,577.433,1049.29,577.107,1050,577.513Z" fill="#aab1cb"/>
              </g>
            </g>
          </g>
          <path id="Trazado_210828" data-name="Trazado 210828" d="M1044.31,606.484V581.435a1.512,1.512,0,0,1,.756-1.309l4.4-2.541a.484.484,0,0,1,.058-.033l.008,0h0a.675.675,0,0,1,.518,0h0a2.109,2.109,0,0,1,.348.276l.03.029a2.843,2.843,0,0,1,.381.474c.028.042.054.086.079.129s.065.117.1.177c.02.04.039.081.057.122s.029.068.043.1.03.078.044.117a2.419,2.419,0,0,1,.118.5,1.875,1.875,0,0,1,.015.237c0,.015,0,.03,0,.045a.038.038,0,0,1,0,.013c0,.014,0,.028,0,.042a.018.018,0,0,1,0,.01c0,.015,0,.03,0,.044a.367.367,0,0,1-.006.049v0a.576.576,0,0,1-.23.273.52.52,0,0,1-.077.038h0l-3.609,2.084v24.177h0a.519.519,0,0,1-.014.121,1.254,1.254,0,0,1-.309.244c-.031.018-.064.035-.1.052s-.067.031-.1.046a2.744,2.744,0,0,1-2,0c-.034-.014-.067-.03-.1-.046s-.068-.035-.1-.054a1.287,1.287,0,0,1-.275-.21.591.591,0,0,1-.024-.155Z" fill="#f27013"/>
          <path id="Trazado_210829" data-name="Trazado 210829" d="M1044.31,581.435v25.049a.518.518,0,0,0,.024.155,1.294,1.294,0,0,0,.275.211l.1.054c.033.015.066.031.1.045a2.294,2.294,0,0,0,.477.141V581.977a1.719,1.719,0,0,1,.86-1.489l4.384-2.531c-.031-.036-.064-.07-.1-.1l-.03-.029a2.134,2.134,0,0,0-.348-.277h0a.676.676,0,0,0-.52,0h0l-.008.005a.537.537,0,0,0-.058.033l-4.4,2.542A1.514,1.514,0,0,0,1044.31,581.435Z" fill="#ffa13d" opacity="0.2"/>
          <path id="Trazado_210830" data-name="Trazado 210830" d="M1046.21,581.843v25.268a2.416,2.416,0,0,0,.606-.163c.034-.014.067-.029.1-.046s.065-.033.1-.051a1.271,1.271,0,0,0,.309-.244.543.543,0,0,0,.014-.122h0V582.308l3.609-2.084a.579.579,0,0,0,.077-.039.571.571,0,0,0,.23-.273v0a.361.361,0,0,0,.006-.049c0-.014,0-.029,0-.044a.018.018,0,0,0,0-.011c0-.013,0-.027,0-.042a.034.034,0,0,0,0-.012c0-.015,0-.03,0-.045a1.918,1.918,0,0,0-.015-.238,2.451,2.451,0,0,0-.118-.5c-.014-.039-.028-.077-.044-.117s-.028-.068-.043-.1l-.038-.082a.38.38,0,0,1,0,.05.057.057,0,0,1,0,.016c0,.016,0,.034,0,.051a.016.016,0,0,1,0,.012c0,.018,0,.036,0,.054a.4.4,0,0,1-.007.06h0a.7.7,0,0,1-.28.335.649.649,0,0,1-.094.046Z" fill="#c57339" opacity="0.2"/>
          <g id="Grupo_148780" data-name="Grupo 148780" opacity="0.6">
            <path id="Trazado_210831" data-name="Trazado 210831" d="M1048.87,577.647a.894.894,0,0,1,.909.086,2.791,2.791,0,0,1,1.267,2.2,1.122,1.122,0,0,1-.145.592.894.894,0,0,0,.366-.813,2.794,2.794,0,0,0-1.267-2.2C1049.51,577.229,1049.08,577.3,1048.87,577.647Z" fill="#97a2cb"/>
          </g>
        </g>
        <g id="Grupo_148798" data-name="Grupo 148798">
          <g id="Grupo_148788" data-name="Grupo 148788">
            <g id="Grupo_148787" data-name="Grupo 148787">
              <g id="Grupo_148783" data-name="Grupo 148783">
                <path id="Trazado_210832" data-name="Trazado 210832" d="M1057.79,614.431l.017,1.262a1.1,1.1,0,0,0,.645.9,3.458,3.458,0,0,0,3.138,0,1.11,1.11,0,0,0,.655-.915l-.017-1.262a1.111,1.111,0,0,1-.655.915,3.458,3.458,0,0,1-3.138,0A1.089,1.089,0,0,1,1057.79,614.431Z" fill="#1a4b6c"/>
                <g id="Grupo_148782" data-name="Grupo 148782" clip-path="url(#clip-path-10)">
                  <path id="Trazado_210833" data-name="Trazado 210833" d="M1057.79,614.431l.017,1.262a1.1,1.1,0,0,0,.645.9,2.874,2.874,0,0,0,1,.335l-.017-1.262a2.866,2.866,0,0,1-1-.335,1.088,1.088,0,0,1-.645-.9Z" fill="#bdc4df"/>
                  <path id="Trazado_210834" data-name="Trazado 210834" d="M1059.44,615.668l.017,1.262a3.81,3.81,0,0,0,1.116,0l-.017-1.262a3.792,3.792,0,0,1-1.116,0Z" fill="#c8d0ec"/>
                  <path id="Trazado_210835" data-name="Trazado 210835" d="M1060.55,615.67l.017,1.262a2.9,2.9,0,0,0,1.018-.336,1.946,1.946,0,0,0,.166-.107l-.017-1.262a1.962,1.962,0,0,1-.166.107,2.876,2.876,0,0,1-1.018.336Z" fill="#dae0f4"/>
                  <path id="Trazado_210836" data-name="Trazado 210836" d="M1062.2,614.627a.769.769,0,0,0,.029-.209l.017,1.262a.764.764,0,0,1-.029.208,1.142,1.142,0,0,1-.46.6l-.017-1.262A1.176,1.176,0,0,0,1062.2,614.627Z" fill="#bdc4df"/>
                </g>
              </g>
              <g id="Grupo_148784" data-name="Grupo 148784">
                <path id="Trazado_210838" data-name="Trazado 210838" d="M1058.44,613.516a.96.96,0,0,0-.01,1.818,3.457,3.457,0,0,0,3.138,0,.96.96,0,0,0,.01-1.818A3.458,3.458,0,0,0,1058.44,613.516Z" fill="#f2f4fe"/>
              </g>
              <g id="Grupo_148785" data-name="Grupo 148785">
                <path id="Trazado_210839" data-name="Trazado 210839" d="M1058.53,614.909a1.286,1.286,0,0,0,.275.21c.032.018.066.036.1.054s.066.031.1.046a2.743,2.743,0,0,0,2,0c.034-.014.067-.029.1-.046s.065-.034.1-.052a1.251,1.251,0,0,0,.309-.244.66.66,0,0,0-.13-1.03c-.025-.02-.051-.039-.079-.059s-.06-.039-.092-.058a2.644,2.644,0,0,0-2.4,0c-.034.019-.067.039-.1.061s-.054.038-.079.058A.659.659,0,0,0,1058.53,614.909Z" fill="#c8d0ec"/>
              </g>
              <g id="Grupo_148786" data-name="Grupo 148786">
                <path id="Trazado_210840" data-name="Trazado 210840" d="M1058.46,614.022a1.42,1.42,0,0,1,.18-.122,2.644,2.644,0,0,1,2.4,0c.51.3.624.735.343,1.1.478-.384.421-.922-.173-1.267a2.645,2.645,0,0,0-2.4,0A1.182,1.182,0,0,0,1058.46,614.022Z" fill="#bdc4df"/>
              </g>
            </g>
          </g>
          <path id="Trazado_210841" data-name="Trazado 210841" d="M1066.19,588.071c0,1.018-.714,1.43-1.6.921a3.527,3.527,0,0,1-1.6-2.764c0-1.018.714-1.43,1.6-.921A3.514,3.514,0,0,1,1066.19,588.071Z" fill="#dae0f4"/>
          <g id="Grupo_148796" data-name="Grupo 148796">
            <g id="Grupo_148795" data-name="Grupo 148795">
              <g id="Grupo_148790" data-name="Grupo 148790">
                <path id="Trazado_210842" data-name="Trazado 210842" d="M1063,585.209l.568-.33a1.179,1.179,0,0,1,1.188.117l-.568.33A1.175,1.175,0,0,0,1063,585.209Z" fill="#dae0f4"/>
                <g id="Grupo_148789" data-name="Grupo 148789" clip-path="url(#clip-path-11)">
                  <path id="Trazado_210843" data-name="Trazado 210843" d="M1063,585.209l.568-.33a.857.857,0,0,1,.418-.112l-.568.33a.835.835,0,0,0-.418.112Z" fill="#f2f4fe"/>
                  <path id="Trazado_210844" data-name="Trazado 210844" d="M1063.42,585.1l.568-.33a1.5,1.5,0,0,1,.77.229l-.568.33a1.513,1.513,0,0,0-.77-.229Z" fill="#f2f4fe"/>
                </g>
              </g>
              <g id="Grupo_148792" data-name="Grupo 148792">
                <g id="Grupo_148791" data-name="Grupo 148791" clip-path="url(#clip-path-12)">
                  <path id="Trazado_210846" data-name="Trazado 210846" d="M1064.19,585.325l.568-.33a2.972,2.972,0,0,1,.738.623l-.568.33a2.81,2.81,0,0,0-.737-.623Z" fill="#f2f4fe"/>
                  <path id="Trazado_210847" data-name="Trazado 210847" d="M1064.93,585.948l.568-.33a4.005,4.005,0,0,1,.546.814l-.568.33a4,4,0,0,0-.547-.814Z" fill="#dae0f4"/>
                  <path id="Trazado_210848" data-name="Trazado 210848" d="M1065.47,586.763l.568-.33a3.269,3.269,0,0,1,.38,1.446,1.169,1.169,0,0,1-.487,1.071l-.568.33a1.168,1.168,0,0,0,.487-1.071,3.139,3.139,0,0,0-.38-1.446Z" fill="#dae0f4"/>
                </g>
              </g>
              <g id="Grupo_148793" data-name="Grupo 148793">
                <path id="Trazado_210850" data-name="Trazado 210850" d="M1064.19,585.325a3.667,3.667,0,0,1,1.664,2.883c0,1.06-.753,1.487-1.675.955a3.668,3.668,0,0,1-1.665-2.883C1062.52,585.22,1063.27,584.792,1064.19,585.325Z" fill="#b7bedb"/>
              </g>
              <g id="Grupo_148794" data-name="Grupo 148794">
                <path id="Trazado_210851" data-name="Trazado 210851" d="M1064.19,585.783a2.792,2.792,0,0,1,1.267,2.2c0,.807-.573,1.132-1.275.727a2.793,2.793,0,0,1-1.267-2.2C1062.92,585.7,1063.49,585.378,1064.19,585.783Z" fill="#aab1cb"/>
              </g>
            </g>
          </g>
          <path id="Trazado_210852" data-name="Trazado 210852" d="M1058.5,614.755V589.706a1.512,1.512,0,0,1,.756-1.309l4.4-2.541a.5.5,0,0,1,.058-.033l.008,0h0a.675.675,0,0,1,.519,0h0a2.119,2.119,0,0,1,.348.276l.03.029a2.833,2.833,0,0,1,.381.474c.028.042.054.086.079.13s.065.117.1.177c.02.04.039.081.057.122s.029.068.043.1.03.078.044.117a2.419,2.419,0,0,1,.118.5,1.9,1.9,0,0,1,.015.237c0,.015,0,.03,0,.045a.038.038,0,0,1,0,.013c0,.013,0,.028,0,.042a.016.016,0,0,1,0,.01c0,.015,0,.03,0,.044a.367.367,0,0,1-.006.049v0a.575.575,0,0,1-.23.273.509.509,0,0,1-.077.038h0l-3.609,2.084v24.177h0a.513.513,0,0,1-.014.121,1.251,1.251,0,0,1-.309.244c-.031.018-.064.035-.1.052s-.067.031-.1.046a2.743,2.743,0,0,1-2,0c-.034-.014-.067-.03-.1-.046s-.068-.035-.1-.054a1.28,1.28,0,0,1-.275-.21.6.6,0,0,1-.024-.155Z" fill="#f27013"/>
          <path id="Trazado_210853" data-name="Trazado 210853" d="M1058.5,589.705v25.049a.521.521,0,0,0,.024.155,1.3,1.3,0,0,0,.275.211l.1.054c.033.015.066.031.1.045a2.293,2.293,0,0,0,.477.141V590.247a1.719,1.719,0,0,1,.86-1.489l4.384-2.531c-.031-.036-.064-.07-.1-.1l-.03-.029a2.133,2.133,0,0,0-.348-.277h0a.677.677,0,0,0-.52,0h0l-.008.005a.541.541,0,0,0-.058.033l-4.4,2.542A1.515,1.515,0,0,0,1058.5,589.705Z" fill="#ffa13d" opacity="0.2"/>
          <path id="Trazado_210854" data-name="Trazado 210854" d="M1060.4,590.113v25.268a2.414,2.414,0,0,0,.606-.163c.034-.014.067-.029.1-.046s.065-.033.1-.051a1.272,1.272,0,0,0,.309-.244.543.543,0,0,0,.014-.122h0V590.578l3.609-2.083a.6.6,0,0,0,.077-.039.571.571,0,0,0,.229-.273v0a.342.342,0,0,0,.006-.049c0-.014,0-.029,0-.044a.018.018,0,0,0,0-.011c0-.013,0-.027,0-.042a.04.04,0,0,0,0-.012c0-.015,0-.03,0-.045a1.92,1.92,0,0,0-.015-.238,2.451,2.451,0,0,0-.118-.5c-.014-.039-.028-.077-.044-.117s-.028-.069-.043-.1l-.038-.082a.381.381,0,0,1,0,.05.049.049,0,0,1,0,.016c0,.016,0,.034,0,.051a.015.015,0,0,1,0,.012c0,.019,0,.037,0,.055a.43.43,0,0,1-.007.06h0a.7.7,0,0,1-.28.335.662.662,0,0,1-.094.046Z" fill="#c57339" opacity="0.2"/>
          <g id="Grupo_148797" data-name="Grupo 148797" opacity="0.6">
            <path id="Trazado_210855" data-name="Trazado 210855" d="M1063.06,585.917a.894.894,0,0,1,.909.086,2.79,2.79,0,0,1,1.267,2.2,1.122,1.122,0,0,1-.145.592.894.894,0,0,0,.366-.813,2.794,2.794,0,0,0-1.267-2.2C1063.7,585.5,1063.27,585.573,1063.06,585.917Z" fill="#97a2cb"/>
          </g>
        </g>
        <g id="Grupo_148815" data-name="Grupo 148815">
          <g id="Grupo_148805" data-name="Grupo 148805">
            <g id="Grupo_148804" data-name="Grupo 148804">
              <g id="Grupo_148800" data-name="Grupo 148800">
                <path id="Trazado_210856" data-name="Trazado 210856" d="M1098.78,620.265l-.017,1.262a1.1,1.1,0,0,1-.645.9,3.458,3.458,0,0,1-3.138,0,1.11,1.11,0,0,1-.655-.915l.017-1.262a1.111,1.111,0,0,0,.655.915,3.458,3.458,0,0,0,3.138,0A1.109,1.109,0,0,0,1098.78,620.265Z" fill="#1a4b6c"/>
                <g id="Grupo_148799" data-name="Grupo 148799" clip-path="url(#clip-path-13)">
                  <path id="Trazado_210857" data-name="Trazado 210857" d="M1098.78,620.265l-.017,1.262a1.1,1.1,0,0,1-.645.9,2.868,2.868,0,0,1-1,.334l.017-1.262a2.87,2.87,0,0,0,1-.334,1.109,1.109,0,0,0,.645-.9Z" fill="#bdc4df"/>
                  <path id="Trazado_210858" data-name="Trazado 210858" d="M1097.13,621.5l-.017,1.262a3.807,3.807,0,0,1-1.116,0l.017-1.262a3.823,3.823,0,0,0,1.116,0Z" fill="#c8d0ec"/>
                  <path id="Trazado_210859" data-name="Trazado 210859" d="M1096.01,621.5l-.017,1.262a2.9,2.9,0,0,1-1.018-.336,1.917,1.917,0,0,1-.166-.107l.017-1.262a1.968,1.968,0,0,0,.166.107,3,3,0,0,0,1.018.336Z" fill="#dae0f4"/>
                  <path id="Trazado_210860" data-name="Trazado 210860" d="M1094.37,620.461a.765.765,0,0,1-.029-.209l-.017,1.262a.763.763,0,0,0,.029.209,1.143,1.143,0,0,0,.46.6l.017-1.262A1.129,1.129,0,0,1,1094.37,620.461Z" fill="#bdc4df"/>
                </g>
              </g>
              <g id="Grupo_148801" data-name="Grupo 148801">
                <path id="Trazado_210862" data-name="Trazado 210862" d="M1098.12,619.35a.96.96,0,0,1,.01,1.818,3.458,3.458,0,0,1-3.138,0,.961.961,0,0,1-.01-1.818A3.458,3.458,0,0,1,1098.12,619.35Z" fill="#f2f4fe"/>
              </g>
              <g id="Grupo_148802" data-name="Grupo 148802">
                <path id="Trazado_210863" data-name="Trazado 210863" d="M1098.04,620.744a1.284,1.284,0,0,1-.275.21c-.032.019-.066.036-.1.054s-.066.031-.1.046a2.744,2.744,0,0,1-2,0c-.033-.014-.067-.029-.1-.046s-.065-.034-.1-.052a1.255,1.255,0,0,1-.309-.244.66.66,0,0,1,.13-1.03c.025-.02.051-.039.079-.059s.06-.039.092-.058a2.643,2.643,0,0,1,2.4,0,1.142,1.142,0,0,1,.1.061q.042.028.079.058A.67.67,0,0,1,1098.04,620.744Z" fill="#c8d0ec"/>
              </g>
              <g id="Grupo_148803" data-name="Grupo 148803">
                <path id="Trazado_210864" data-name="Trazado 210864" d="M1098.1,619.856a1.458,1.458,0,0,0-.18-.122,2.644,2.644,0,0,0-2.4,0c-.51.3-.625.735-.344,1.1-.478-.384-.421-.922.173-1.267a2.645,2.645,0,0,1,2.4,0A1.177,1.177,0,0,1,1098.1,619.856Z" fill="#bdc4df"/>
              </g>
            </g>
          </g>
          <path id="Trazado_210865" data-name="Trazado 210865" d="M1090.37,577.283c0,1.018.714,1.43,1.6.921a3.528,3.528,0,0,0,1.6-2.764c0-1.018-.715-1.43-1.6-.922A3.543,3.543,0,0,0,1090.37,577.283Z" fill="#dae0f4"/>
          <g id="Grupo_148813" data-name="Grupo 148813">
            <g id="Grupo_148812" data-name="Grupo 148812">
              <g id="Grupo_148807" data-name="Grupo 148807">
                <path id="Trazado_210866" data-name="Trazado 210866" d="M1093.56,574.421l-.568-.33a1.178,1.178,0,0,0-1.188.117l.568.33A1.179,1.179,0,0,1,1093.56,574.421Z" fill="#dae0f4"/>
                <g id="Grupo_148806" data-name="Grupo 148806" clip-path="url(#clip-path-14)">
                  <path id="Trazado_210867" data-name="Trazado 210867" d="M1093.56,574.421l-.568-.33a.858.858,0,0,0-.418-.112l.568.33a.845.845,0,0,1,.418.112Z" fill="#f2f4fe"/>
                  <path id="Trazado_210868" data-name="Trazado 210868" d="M1093.14,574.309l-.568-.33a1.5,1.5,0,0,0-.77.229l.568.33a1.5,1.5,0,0,1,.77-.229Z" fill="#f2f4fe"/>
                </g>
              </g>
              <g id="Grupo_148809" data-name="Grupo 148809">
                <g id="Grupo_148808" data-name="Grupo 148808" clip-path="url(#clip-path-15)">
                  <path id="Trazado_210870" data-name="Trazado 210870" d="M1092.37,574.538l-.568-.33a2.977,2.977,0,0,0-.738.623l.568.33a3.124,3.124,0,0,1,.737-.623Z" fill="#f2f4fe"/>
                  <path id="Trazado_210871" data-name="Trazado 210871" d="M1091.64,575.161l-.568-.33a4.006,4.006,0,0,0-.547.814l.568.33a3.6,3.6,0,0,1,.546-.814Z" fill="#dae0f4"/>
                  <path id="Trazado_210872" data-name="Trazado 210872" d="M1091.09,575.975l-.568-.33a3.269,3.269,0,0,0-.38,1.446,1.169,1.169,0,0,0,.487,1.071l.568.33a1.169,1.169,0,0,1-.487-1.071,3.27,3.27,0,0,1,.38-1.446Z" fill="#dae0f4"/>
                </g>
              </g>
              <g id="Grupo_148810" data-name="Grupo 148810">
                <path id="Trazado_210874" data-name="Trazado 210874" d="M1092.37,574.538a3.668,3.668,0,0,0-1.664,2.883c0,1.06.753,1.487,1.675.955a3.669,3.669,0,0,0,1.665-2.883C1094.05,574.432,1093.3,574.005,1092.37,574.538Z" fill="#b7bedb"/>
              </g>
              <g id="Grupo_148811" data-name="Grupo 148811">
                <path id="Trazado_210875" data-name="Trazado 210875" d="M1092.38,574.995a2.793,2.793,0,0,0-1.267,2.2c0,.807.573,1.133,1.275.727a2.793,2.793,0,0,0,1.267-2.2C1093.65,574.915,1093.08,574.59,1092.38,574.995Z" fill="#aab1cb"/>
              </g>
            </g>
          </g>
          <path id="Trazado_210876" data-name="Trazado 210876" d="M1098.06,620.589V578.918a1.512,1.512,0,0,0-.756-1.309l-4.4-2.541a.523.523,0,0,0-.058-.033l-.008,0h0a.674.674,0,0,0-.519,0h0a2.13,2.13,0,0,0-.348.276l-.03.029a2.854,2.854,0,0,0-.38.474c-.028.042-.054.086-.079.13s-.065.117-.1.177c-.02.04-.039.081-.057.122s-.029.068-.043.1-.03.078-.044.117a2.412,2.412,0,0,0-.118.5,1.923,1.923,0,0,0-.015.237c0,.015,0,.03,0,.045a.046.046,0,0,0,0,.013c0,.013,0,.028,0,.041a.019.019,0,0,0,0,.01c0,.015,0,.03,0,.044a.335.335,0,0,0,.006.049h0a.576.576,0,0,0,.23.273.509.509,0,0,0,.077.038h0l3.609,2.083v40.8h0a.506.506,0,0,0,.014.121,1.253,1.253,0,0,0,.309.244q.047.027.1.052c.033.016.067.032.1.046a2.743,2.743,0,0,0,2,0c.034-.014.067-.03.1-.046s.068-.035.1-.054a1.275,1.275,0,0,0,.275-.21.6.6,0,0,0,.024-.155Z" fill="#f27013"/>
          <path id="Trazado_210877" data-name="Trazado 210877" d="M1098.06,578.918v41.671a.519.519,0,0,1-.024.154,1.279,1.279,0,0,1-.275.211l-.1.054c-.033.015-.066.031-.1.045a2.28,2.28,0,0,1-.477.141V579.46a1.719,1.719,0,0,0-.86-1.489l-4.384-2.531c.031-.036.064-.07.1-.1l.03-.029a2.122,2.122,0,0,1,.348-.277h0a.674.674,0,0,1,.519,0h0l.008.005a.541.541,0,0,1,.058.033l4.4,2.541A1.516,1.516,0,0,1,1098.06,578.918Z" fill="#ffa13d" opacity="0.2"/>
          <path id="Trazado_210878" data-name="Trazado 210878" d="M1096.16,579.325v41.889a2.413,2.413,0,0,1-.606-.163c-.034-.014-.067-.029-.1-.046s-.065-.033-.1-.051a1.266,1.266,0,0,1-.309-.244.535.535,0,0,1-.014-.122h0v-40.8l-3.609-2.083a.565.565,0,0,1-.077-.039.571.571,0,0,1-.23-.273v0a.363.363,0,0,1-.006-.049c0-.015,0-.029,0-.044a.022.022,0,0,1,0-.011c0-.013,0-.027,0-.042a.041.041,0,0,1,0-.012c0-.015,0-.03,0-.045a1.946,1.946,0,0,1,.015-.238,2.45,2.45,0,0,1,.118-.5c.014-.039.028-.077.044-.117s.028-.069.043-.1l.038-.082a.381.381,0,0,0,0,.05.049.049,0,0,0,0,.016c0,.016,0,.034,0,.051a.014.014,0,0,0,0,.012c0,.019,0,.037,0,.054a.4.4,0,0,0,.007.06v0a.7.7,0,0,0,.28.334.682.682,0,0,0,.094.047Z" fill="#c57339" opacity="0.2"/>
          <g id="Grupo_148814" data-name="Grupo 148814" opacity="0.6">
            <path id="Trazado_210879" data-name="Trazado 210879" d="M1093.51,575.13a.894.894,0,0,0-.909.086,2.791,2.791,0,0,0-1.267,2.2,1.124,1.124,0,0,0,.145.592.894.894,0,0,1-.366-.813,2.794,2.794,0,0,1,1.267-2.2C1092.87,574.712,1093.29,574.785,1093.51,575.13Z" fill="#97a2cb"/>
          </g>
        </g>
        <g id="Grupo_148822" data-name="Grupo 148822">
          <g id="Grupo_148821" data-name="Grupo 148821">
            <g id="Grupo_148817" data-name="Grupo 148817">
              <path id="Trazado_210880" data-name="Trazado 210880" d="M1035.29,580.753l.019,1.352a1.18,1.18,0,0,0,.691.967,3.7,3.7,0,0,0,3.361,0,1.19,1.19,0,0,0,.7-.98l-.019-1.352a1.189,1.189,0,0,1-.7.98,3.7,3.7,0,0,1-3.361,0A1.219,1.219,0,0,1,1035.29,580.753Z" fill="#1a4b6c"/>
              <g id="Grupo_148816" data-name="Grupo 148816" clip-path="url(#clip-path-16)">
                <path id="Trazado_210881" data-name="Trazado 210881" d="M1035.29,580.753l.019,1.352a1.18,1.18,0,0,0,.691.967,3.074,3.074,0,0,0,1.075.358l-.019-1.352a3.072,3.072,0,0,1-1.075-.358,1.218,1.218,0,0,1-.691-.967Z" fill="#bdc4df"/>
                <path id="Trazado_210882" data-name="Trazado 210882" d="M1037.06,582.078l.019,1.352a4.08,4.08,0,0,0,1.2,0l-.019-1.352a4.09,4.09,0,0,1-1.2,0Z" fill="#c8d0ec"/>
                <path id="Trazado_210883" data-name="Trazado 210883" d="M1038.26,582.08l.019,1.352a3.108,3.108,0,0,0,1.091-.36,2.109,2.109,0,0,0,.178-.115l-.019-1.352q-.083.059-.178.115a3.153,3.153,0,0,1-1.091.36Z" fill="#dae0f4"/>
                <path id="Trazado_210884" data-name="Trazado 210884" d="M1040.02,580.963a.815.815,0,0,0,.031-.224l.019,1.352a.824.824,0,0,1-.031.223,1.223,1.223,0,0,1-.493.642l-.019-1.352A1.265,1.265,0,0,0,1040.02,580.963Z" fill="#bdc4df"/>
              </g>
            </g>
            <g id="Grupo_148818" data-name="Grupo 148818">
              <path id="Trazado_210886" data-name="Trazado 210886" d="M1036,579.773a1.029,1.029,0,0,0-.011,1.947,3.7,3.7,0,0,0,3.361,0,1.029,1.029,0,0,0,.011-1.947A3.7,3.7,0,0,0,1036,579.773Z" fill="#f2f4fe"/>
            </g>
            <g id="Grupo_148819" data-name="Grupo 148819">
              <path id="Trazado_210887" data-name="Trazado 210887" d="M1039.48,580.821a.76.76,0,0,1-.2.408,1.352,1.352,0,0,1-.331.262c-.033.019-.068.037-.1.055s-.072.034-.108.049a2.939,2.939,0,0,1-2.146,0c-.037-.015-.072-.032-.107-.049s-.073-.038-.108-.057a1.374,1.374,0,0,1-.294-.226.813.813,0,0,1-.211-.35.621.621,0,0,1,0-.335.9.9,0,0,1,.325-.452c.027-.022.055-.042.085-.062a1.026,1.026,0,0,1,.1-.065,2.83,2.83,0,0,1,2.571,0c.035.02.067.04.1.062s.058.041.085.063a.842.842,0,0,1,.34.535A.431.431,0,0,1,1039.48,580.821Z" fill="#c8d0ec"/>
            </g>
            <g id="Grupo_148820" data-name="Grupo 148820">
              <path id="Trazado_210888" data-name="Trazado 210888" d="M1036.02,580.315a1.549,1.549,0,0,1,.193-.131,2.833,2.833,0,0,1,2.571,0c.547.318.669.787.368,1.175.512-.411.451-.987-.185-1.357a2.834,2.834,0,0,0-2.571,0A1.137,1.137,0,0,0,1036.02,580.315Z" fill="#bdc4df"/>
            </g>
          </g>
        </g>
        <path id="Trazado_210889" data-name="Trazado 210889" d="M1104.18,559.525l-65.593-37.869-.006,0-.072-.039-.007,0-.076-.036-.007,0-.075-.032-.01,0-.072-.026-.015,0-.067-.02-.022-.006-.06-.015-.03-.007-.053-.011-.038-.007-.047-.007-.044-.006-.042,0-.048,0-.041,0h-.133l-.055,0-.024,0-.07.007h0a1.793,1.793,0,0,0-.728.253l-.011.007-.059.038-.045.032-.023.017-.06.047-.007.005-.06.052-.005,0-.054.051-.01.01-.044.046-.018.02-.033.037-.028.033-.021.027-.036.048-.011.016c-.015.021-.029.042-.043.063l0,.006a1.8,1.8,0,0,0-.2.405l0,.006c-.008.025-.016.05-.023.075l0,.014q-.009.033-.017.067l-.005.023c0,.019-.008.039-.012.059s0,.021-.006.032-.005.034-.008.051,0,.027-.005.041,0,.03,0,.045,0,.031,0,.047,0,.028,0,.042,0,.032,0,.048,0,.015,0,.023v57.7a.814.814,0,0,0,.211.35,1.374,1.374,0,0,0,.294.226c.035.019.071.039.108.057s.071.034.107.049a2.939,2.939,0,0,0,2.146,0c.036-.015.072-.031.108-.049s.07-.036.1-.055a1.35,1.35,0,0,0,.331-.262.76.76,0,0,0,.2-.408V526.342l62.888,36.308a1.8,1.8,0,0,0,1.8-3.125Z" fill="#f27013"/>
        <path id="Trazado_210890" data-name="Trazado 210890" d="M1036.91,524.908c0-.016,0-.032,0-.048s0-.028,0-.042,0-.031,0-.046,0-.03,0-.045,0-.027.005-.04,0-.034.008-.051l.006-.032c0-.02.008-.039.012-.059l.005-.023c.005-.023.011-.045.017-.067l0-.014q.011-.038.023-.075l0-.006a1.8,1.8,0,0,1,.2-.405l0-.006c.014-.021.028-.042.043-.063l.011-.016.036-.048.021-.027.028-.033.033-.037.018-.02.044-.046.01-.01.053-.051.005,0,.06-.052.007-.005.06-.047.023-.017.045-.032.059-.038.011-.007a1.79,1.79,0,0,1,.728-.253h0l.07-.007.024,0,.055,0h.133l.041,0,.048,0,.042,0,.044.006.047.007.038.007.053.011.03.007.06.015.022.006.067.02.015.005.072.026.01,0,.075.032.007,0,.076.036.007,0,.072.039.006,0,65.462,37.793a1.8,1.8,0,0,0-.9-1.638l-65.593-37.869-.006,0-.072-.039-.007,0-.076-.036-.007,0-.075-.032-.01,0-.072-.026-.015,0-.067-.02-.022-.006-.06-.015-.03-.007-.053-.011-.038-.007-.047-.007-.044-.006-.042,0-.048,0-.041,0h-.133l-.055,0-.024,0-.07.007h0a1.793,1.793,0,0,0-.728.253l-.011.007-.059.038-.045.032-.023.017-.06.047-.007.005-.06.052-.005,0-.054.051-.01.01-.044.046-.018.02-.033.037-.028.033-.021.027-.036.048-.011.016c-.015.021-.029.042-.043.063l0,.006a1.8,1.8,0,0,0-.2.405l0,.006c-.008.025-.016.05-.023.075l0,.014q-.009.033-.017.067l-.005.023c0,.019-.008.039-.012.059s0,.021-.006.032-.005.034-.008.051,0,.027-.005.041,0,.03,0,.045,0,.031,0,.047,0,.028,0,.042,0,.032,0,.048,0,.015,0,.023v57.7a.814.814,0,0,0,.211.35,1.374,1.374,0,0,0,.294.226c.035.019.071.039.108.057s.071.034.107.049a2.364,2.364,0,0,0,.313.106V524.931C1036.91,524.924,1036.91,524.916,1036.91,524.908Z" fill="#ffa13d" opacity="0.2"/>
        <path id="Trazado_210891" data-name="Trazado 210891" d="M1038.17,581.756a2.536,2.536,0,0,0,.567-.161c.036-.015.072-.031.108-.049s.07-.036.1-.055a1.35,1.35,0,0,0,.331-.262.76.76,0,0,0,.2-.408v-54.48l62.888,36.308a1.8,1.8,0,0,0,2.446-.632l-66.644-38.373Z" fill="#c57339" opacity="0.2"/>
        <g id="Grupo_148887" data-name="Grupo 148887">
          <g id="Grupo_148827" data-name="Grupo 148827">
            <g id="Grupo_148826" data-name="Grupo 148826">
              <g id="Grupo_148823" data-name="Grupo 148823">
                <path id="Trazado_210892" data-name="Trazado 210892" d="M1149.45,602.809l-.01,1.029L1088.55,639v-1.029Z" fill="#d69617"/>
              </g>
              <g id="Grupo_148824" data-name="Grupo 148824">
                <path id="Trazado_210893" data-name="Trazado 210893" d="M1088.55,637.967V639l-6.91-3.989v-1.029Z" fill="#d3891a"/>
              </g>
              <g id="Grupo_148825" data-name="Grupo 148825">
                <path id="Trazado_210894" data-name="Trazado 210894" d="M1149.45,602.809l-60.9,35.158-6.91-3.989,60.9-35.158Z" fill="#ffb806"/>
              </g>
            </g>
          </g>
          <g id="Grupo_148856" data-name="Grupo 148856">
            <g id="Grupo_148855" data-name="Grupo 148855">
              <g id="Grupo_148828" data-name="Grupo 148828">
                <path id="Trazado_210895" data-name="Trazado 210895" d="M1142.45,595.739l-.32-.187.01,3.506.32.187Z" fill="#3d2d4a"/>
              </g>
              <g id="Grupo_148829" data-name="Grupo 148829">
                <path id="Trazado_210896" data-name="Trazado 210896" d="M1139.86,597.235l-.32-.187.01,3.507.32.187Z" fill="#3d2d4a"/>
              </g>
              <g id="Grupo_148830" data-name="Grupo 148830">
                <path id="Trazado_210897" data-name="Trazado 210897" d="M1137.27,598.732l-.32-.187.01,3.507.32.186Z" fill="#3d2d4a"/>
              </g>
              <g id="Grupo_148831" data-name="Grupo 148831">
                <path id="Trazado_210898" data-name="Trazado 210898" d="M1134.68,600.228l-.33-.186.01,3.506.33.187Z" fill="#3d2d4a"/>
              </g>
              <g id="Grupo_148832" data-name="Grupo 148832">
                <path id="Trazado_210899" data-name="Trazado 210899" d="M1132.08,601.724l-.32-.186.01,3.506.32.187Z" fill="#3d2d4a"/>
              </g>
              <g id="Grupo_148833" data-name="Grupo 148833">
                <path id="Trazado_210900" data-name="Trazado 210900" d="M1129.49,603.221l-.32-.186.01,3.506.32.187Z" fill="#3d2d4a"/>
              </g>
              <g id="Grupo_148834" data-name="Grupo 148834">
                <path id="Trazado_210901" data-name="Trazado 210901" d="M1126.9,604.718l-.32-.187.01,3.506.32.187Z" fill="#3d2d4a"/>
              </g>
              <g id="Grupo_148835" data-name="Grupo 148835">
                <path id="Trazado_210902" data-name="Trazado 210902" d="M1124.31,606.214l-.32-.187.01,3.507.32.186Z" fill="#3d2d4a"/>
              </g>
              <g id="Grupo_148836" data-name="Grupo 148836">
                <path id="Trazado_210903" data-name="Trazado 210903" d="M1121.72,607.711l-.33-.187.01,3.507.33.186Z" fill="#3d2d4a"/>
              </g>
              <g id="Grupo_148837" data-name="Grupo 148837">
                <path id="Trazado_210904" data-name="Trazado 210904" d="M1119.12,609.207l-.32-.186.01,3.506.32.187Z" fill="#3d2d4a"/>
              </g>
              <g id="Grupo_148838" data-name="Grupo 148838">
                <path id="Trazado_210905" data-name="Trazado 210905" d="M1116.53,610.7l-.32-.187.01,3.506.32.187Z" fill="#3d2d4a"/>
              </g>
              <g id="Grupo_148839" data-name="Grupo 148839">
                <path id="Trazado_210906" data-name="Trazado 210906" d="M1113.94,612.2l-.32-.186.01,3.506.32.187Z" fill="#3d2d4a"/>
              </g>
              <g id="Grupo_148840" data-name="Grupo 148840">
                <path id="Trazado_210907" data-name="Trazado 210907" d="M1111.35,613.7l-.32-.187.01,3.506.32.187Z" fill="#3d2d4a"/>
              </g>
              <g id="Grupo_148841" data-name="Grupo 148841">
                <path id="Trazado_210908" data-name="Trazado 210908" d="M1108.75,615.193l-.32-.186.01,3.506.32.187Z" fill="#3d2d4a"/>
              </g>
              <g id="Grupo_148842" data-name="Grupo 148842">
                <path id="Trazado_210909" data-name="Trazado 210909" d="M1106.16,616.69l-.32-.187.01,3.507.32.186Z" fill="#3d2d4a"/>
              </g>
              <g id="Grupo_148843" data-name="Grupo 148843">
                <path id="Trazado_210910" data-name="Trazado 210910" d="M1103.57,618.186l-.32-.186.01,3.506.32.187Z" fill="#3d2d4a"/>
              </g>
              <g id="Grupo_148844" data-name="Grupo 148844">
                <path id="Trazado_210911" data-name="Trazado 210911" d="M1100.98,619.683l-.32-.187.01,3.507.32.186Z" fill="#3d2d4a"/>
              </g>
              <g id="Grupo_148845" data-name="Grupo 148845">
                <path id="Trazado_210912" data-name="Trazado 210912" d="M1098.39,621.179l-.32-.186.01,3.506.32.187Z" fill="#3d2d4a"/>
              </g>
              <g id="Grupo_148846" data-name="Grupo 148846">
                <path id="Trazado_210913" data-name="Trazado 210913" d="M1095.8,622.676l-.33-.187.01,3.506.32.187Z" fill="#3d2d4a"/>
              </g>
              <g id="Grupo_148847" data-name="Grupo 148847">
                <path id="Trazado_210914" data-name="Trazado 210914" d="M1093.2,624.172l-.32-.186.01,3.506.32.187Z" fill="#3d2d4a"/>
              </g>
              <g id="Grupo_148848" data-name="Grupo 148848">
                <path id="Trazado_210915" data-name="Trazado 210915" d="M1090.61,625.669l-.32-.187.01,3.507.32.186Z" fill="#3d2d4a"/>
              </g>
              <g id="Grupo_148849" data-name="Grupo 148849">
                <path id="Trazado_210916" data-name="Trazado 210916" d="M1088.02,627.165l-.32-.186.01,3.506.32.187Z" fill="#3d2d4a"/>
              </g>
              <g id="Grupo_148850" data-name="Grupo 148850">
                <path id="Trazado_210917" data-name="Trazado 210917" d="M1085.43,628.662l-.32-.186.01,3.506.32.187Z" fill="#3d2d4a"/>
              </g>
              <g id="Grupo_148851" data-name="Grupo 148851">
                <path id="Trazado_210918" data-name="Trazado 210918" d="M1081.96,630.662l-.32-.186.01,3.506.32.187Z" fill="#3d2d4a"/>
              </g>
              <g id="Grupo_148852" data-name="Grupo 148852">
                <path id="Trazado_210919" data-name="Trazado 210919" d="M1081.96,630.046v.616l.01,3.507.39-.224-.01-3.507,3.08-1.776.01,3.507.39-.225-.01-3.507,2.2-1.272.01,3.507.39-.225-.01-3.506,2.2-1.272.01,3.506.39-.224-.01-3.506,2.2-1.273.01,3.507.39-.225-.01-3.506,2.21-1.272v3.506l.39-.224-.01-3.507,2.21-1.272.01,3.507.39-.225-.01-3.506,2.2-1.272.01,3.506.39-.224-.01-3.507,2.2-1.272.01,3.507.39-.225-.01-3.506,2.2-1.272.01,3.506.39-.224-.01-3.506,2.02-1.167.18-.106.01,3.507.39-.225-.01-3.506,2.21-1.272.01,3.506.39-.224-.01-3.507,2.2-1.272.01,3.507.39-.225-.01-3.506,2.2-1.272.01,3.506.39-.224-.01-3.507,2.2-1.272.01,3.507.39-.225-.01-3.506,2.21-1.272.01,3.506.38-.224-.01-3.506,2.21-1.273.01,3.506.39-.224-.01-3.506,2.2-1.272.01,3.506.39-.224-.01-3.507,2.2-1.272.01,3.507.39-.225-.01-3.506,2.2-1.273.01,3.507.39-.224-.01-3.507,2.21-1.272.01,3.507.38-.225-.01-3.506,2.21-1.272.01,3.506.39-.224-.01-3.506,2.2-1.273.01,3.507.39-.225-.01-3.506,2.2-1.272.01,3.506.39-.224-.01-3.507V594.9Z" fill="#5a4b66"/>
              </g>
              <g id="Grupo_148853" data-name="Grupo 148853">
                <path id="Trazado_210920" data-name="Trazado 210920" d="M1081.96,630.046l-.32-.187v.617l.32.186Z" fill="#3d2d4a"/>
              </g>
              <g id="Grupo_148854" data-name="Grupo 148854">
                <path id="Trazado_210921" data-name="Trazado 210921" d="M1142.84,594.9l-.32-.187-60.88,35.148.32.187Z" fill="#715f7f"/>
              </g>
            </g>
          </g>
          <g id="Grupo_148886" data-name="Grupo 148886">
            <g id="Grupo_148885" data-name="Grupo 148885">
              <g id="Grupo_148857" data-name="Grupo 148857">
                <path id="Trazado_210922" data-name="Trazado 210922" d="M1149.05,599.52l-.32-.187.01,3.508.32.187Z" fill="#3d2d4a"/>
              </g>
              <g id="Grupo_148858" data-name="Grupo 148858">
                <path id="Trazado_210923" data-name="Trazado 210923" d="M1149.06,603.028l-.01-3.508Z" fill="#3d2d4a"/>
              </g>
              <g id="Grupo_148859" data-name="Grupo 148859">
                <path id="Trazado_210924" data-name="Trazado 210924" d="M1146.46,601.017l-.32-.187.01,3.508.32.187Z" fill="#3d2d4a"/>
              </g>
              <g id="Grupo_148860" data-name="Grupo 148860">
                <path id="Trazado_210925" data-name="Trazado 210925" d="M1143.86,602.514l-.32-.186.01,3.508.32.186Z" fill="#3d2d4a"/>
              </g>
              <g id="Grupo_148861" data-name="Grupo 148861">
                <path id="Trazado_210926" data-name="Trazado 210926" d="M1141.27,604.011l-.32-.186.01,3.508.32.186Z" fill="#3d2d4a"/>
              </g>
              <g id="Grupo_148862" data-name="Grupo 148862">
                <path id="Trazado_210927" data-name="Trazado 210927" d="M1138.68,605.508l-.32-.186.01,3.508.32.186Z" fill="#3d2d4a"/>
              </g>
              <g id="Grupo_148863" data-name="Grupo 148863">
                <path id="Trazado_210928" data-name="Trazado 210928" d="M1136.08,607.006l-.32-.187.01,3.508.32.187Z" fill="#3d2d4a"/>
              </g>
              <g id="Grupo_148864" data-name="Grupo 148864">
                <path id="Trazado_210929" data-name="Trazado 210929" d="M1133.49,608.5l-.32-.187.01,3.508.32.187Z" fill="#3d2d4a"/>
              </g>
              <g id="Grupo_148865" data-name="Grupo 148865">
                <path id="Trazado_210930" data-name="Trazado 210930" d="M1130.9,610l-.32-.187.01,3.508.32.187Z" fill="#3d2d4a"/>
              </g>
              <g id="Grupo_148866" data-name="Grupo 148866">
                <path id="Trazado_210931" data-name="Trazado 210931" d="M1128.3,611.5l-.32-.186.01,3.508.32.186Z" fill="#3d2d4a"/>
              </g>
              <g id="Grupo_148867" data-name="Grupo 148867">
                <path id="Trazado_210932" data-name="Trazado 210932" d="M1125.71,612.994l-.32-.186.01,3.508.32.186Z" fill="#3d2d4a"/>
              </g>
              <g id="Grupo_148868" data-name="Grupo 148868">
                <path id="Trazado_210933" data-name="Trazado 210933" d="M1123.12,614.491l-.32-.186.01,3.508.32.186Z" fill="#3d2d4a"/>
              </g>
              <g id="Grupo_148869" data-name="Grupo 148869">
                <path id="Trazado_210934" data-name="Trazado 210934" d="M1120.52,615.989l-.32-.187.01,3.508.32.187Z" fill="#3d2d4a"/>
              </g>
              <g id="Grupo_148870" data-name="Grupo 148870">
                <path id="Trazado_210935" data-name="Trazado 210935" d="M1117.93,617.486l-.32-.187.01,3.508.32.187Z" fill="#3d2d4a"/>
              </g>
              <g id="Grupo_148871" data-name="Grupo 148871">
                <path id="Trazado_210936" data-name="Trazado 210936" d="M1115.34,618.983l-.32-.186.01,3.508.32.186Z" fill="#3d2d4a"/>
              </g>
              <g id="Grupo_148872" data-name="Grupo 148872">
                <path id="Trazado_210937" data-name="Trazado 210937" d="M1112.75,620.48l-.33-.186.01,3.508.33.186Z" fill="#3d2d4a"/>
              </g>
              <g id="Grupo_148873" data-name="Grupo 148873">
                <path id="Trazado_210938" data-name="Trazado 210938" d="M1110.15,621.977l-.32-.186.01,3.508.32.186Z" fill="#3d2d4a"/>
              </g>
              <g id="Grupo_148874" data-name="Grupo 148874">
                <path id="Trazado_210939" data-name="Trazado 210939" d="M1107.56,623.475l-.32-.187.01,3.508.32.187Z" fill="#3d2d4a"/>
              </g>
              <g id="Grupo_148875" data-name="Grupo 148875">
                <path id="Trazado_210940" data-name="Trazado 210940" d="M1104.97,624.972l-.33-.187.01,3.508.33.187Z" fill="#3d2d4a"/>
              </g>
              <g id="Grupo_148876" data-name="Grupo 148876">
                <path id="Trazado_210941" data-name="Trazado 210941" d="M1102.37,626.469l-.32-.187.01,3.508.32.187Z" fill="#3d2d4a"/>
              </g>
              <g id="Grupo_148877" data-name="Grupo 148877">
                <path id="Trazado_210942" data-name="Trazado 210942" d="M1099.78,627.966l-.32-.186.01,3.508.32.186Z" fill="#3d2d4a"/>
              </g>
              <g id="Grupo_148878" data-name="Grupo 148878">
                <path id="Trazado_210943" data-name="Trazado 210943" d="M1097.19,629.463l-.33-.186.01,3.507.33.187Z" fill="#3d2d4a"/>
              </g>
              <g id="Grupo_148879" data-name="Grupo 148879">
                <path id="Trazado_210944" data-name="Trazado 210944" d="M1094.59,630.96l-.32-.186.01,3.508.32.186Z" fill="#3d2d4a"/>
              </g>
              <g id="Grupo_148880" data-name="Grupo 148880">
                <path id="Trazado_210945" data-name="Trazado 210945" d="M1092,632.458l-.32-.187.01,3.508.32.187Z" fill="#3d2d4a"/>
              </g>
              <g id="Grupo_148881" data-name="Grupo 148881">
                <path id="Trazado_210946" data-name="Trazado 210946" d="M1088.53,634.459l-.32-.187.01,3.508.32.187Z" fill="#3d2d4a"/>
              </g>
              <g id="Grupo_148882" data-name="Grupo 148882">
                <path id="Trazado_210947" data-name="Trazado 210947" d="M1088.53,633.842v.617l.01,3.508.39-.224-.01-3.508,3.08-1.777.01,3.508.39-.225-.01-3.508,2.2-1.273.01,3.508.39-.224-.01-3.508,2.21-1.273.01,3.508.38-.224-.01-3.508,2.21-1.273.01,3.508.39-.224-.01-3.508,2.2-1.273.01,3.508.39-.224-.01-3.508,2.21-1.273.01,3.508.38-.225-.01-3.508,2.21-1.272.01,3.508.39-.225-.01-3.508,2.2-1.273.01,3.508.39-.224-.01-3.508,2.21-1.273.01,3.508.38-.224-.01-3.508,2.02-1.167.19-.106.01,3.508.39-.224-.01-3.508,2.2-1.273.01,3.508.39-.225-.01-3.508,2.2-1.272.01,3.508.39-.224-.01-3.508,2.21-1.274.01,3.508.39-.224-.01-3.508,2.2-1.273.01,3.508.39-.224-.01-3.508,2.2-1.273.01,3.508.39-.224-.01-3.508L1130.9,610l.01,3.508.39-.224-.01-3.508,2.2-1.273.01,3.508.39-.225-.01-3.508,2.2-1.272.01,3.508.39-.225-.01-3.508,2.21-1.273.01,3.508.39-.224-.01-3.508,2.2-1.273.01,3.508.39-.224-.01-3.508,2.2-1.273.01,3.508.39-.224-.01-3.508,2.21-1.273.01,3.508.39-.225-.01-3.508,2.2-1.272.01,3.508.39-.224-.01-3.509v-.617Z" fill="#5a4b66"/>
              </g>
              <g id="Grupo_148883" data-name="Grupo 148883">
                <path id="Trazado_210948" data-name="Trazado 210948" d="M1088.53,633.842l-.32-.187v.617l.32.187Z" fill="#3d2d4a"/>
              </g>
              <g id="Grupo_148884" data-name="Grupo 148884">
                <path id="Trazado_210949" data-name="Trazado 210949" d="M1149.44,598.678l-.32-.186-60.91,35.163.32.187Z" fill="#715f7f"/>
              </g>
            </g>
          </g>
        </g>
        <path id="Trazado_210950" data-name="Trazado 210950" d="M1002.74,588.347q-3.222.877-6.418,1.854l94.191,54.381q2.107-1.572,4.23-3.117Z" fill="#f2f4fe"/>
        <g id="Grupo_148888" data-name="Grupo 148888" opacity="0.3">
          <path id="Trazado_210951" data-name="Trazado 210951" d="M1149.54,610.8l-53.65,31.176-5.32-3.071,53.82-31.074Z" fill="#1b3b58"/>
        </g>
      </g>
    </g>
  </g>
</svg>
