<svg xmlns="http://www.w3.org/2000/svg" xmlns:xlink="http://www.w3.org/1999/xlink" width="265.888" height="265.888" viewBox="0 0 265.888 265.888">
  <defs>
    <clipPath id="clip-path">
      <path id="Trazado_211013" data-name="Trazado 211013" d="M224.945,954.6l.842-.489a1.748,1.748,0,0,1,1.762.173l-.842.489A1.745,1.745,0,0,0,224.945,954.6Z"/>
    </clipPath>
    <clipPath id="clip-path-2">
      <path id="Trazado_211017" data-name="Trazado 211017" d="M229.295,960.146l-.842.489a1.733,1.733,0,0,0,.723-1.589,5.44,5.44,0,0,0-2.468-4.276l.842-.489a5.44,5.44,0,0,1,2.468,4.276A1.735,1.735,0,0,1,229.295,960.146Z"/>
    </clipPath>
  </defs>
  <g id="Grupo_154381" data-name="Grupo 154381" transform="translate(-253.522 -3232.358)">
    <circle id="Elipse_4725_00000072279253784933277560000011544140811143935143_" cx="132.944" cy="132.944" r="132.944" transform="translate(253.522 3232.358)" fill="#ffbc42"/>
    <circle id="Elipse_4726_00000055698402241360780020000007381611172996871343_" cx="111.551" cy="111.551" r="111.551" transform="translate(274.915 3253.752)" fill="#fff"/>
    <g id="Grupo_148929" data-name="Grupo 148929" transform="translate(136 2389.027)">
      <g id="Grupo_148895" data-name="Grupo 148895">
        <g id="Grupo_148894" data-name="Grupo 148894">
          <g id="Grupo_148891" data-name="Grupo 148891">
            <path id="Trazado_210952" data-name="Trazado 210952" d="M338.771,997.764l-.009,6.346-98.455,57.22.009-6.35Z" fill="#25192e"/>
          </g>
          <g id="Grupo_148892" data-name="Grupo 148892">
            <path id="Trazado_210953" data-name="Trazado 210953" d="M240.316,1054.98l-.009,6.35-79.945-46.16.008-6.35Z" fill="#3d2d4a"/>
          </g>
          <g id="Grupo_148893" data-name="Grupo 148893">
            <path id="Trazado_210954" data-name="Trazado 210954" d="M338.771,997.764l-98.455,57.216-79.946-46.16,98.455-57.213Z" fill="#483558"/>
          </g>
        </g>
      </g>
      <g id="Grupo_148928" data-name="Grupo 148928">
        <rect id="Rectángulo_39272" data-name="Rectángulo 39272" width="13.873" height="3.008" transform="translate(203.685 1012.44)" fill="#bdc4df" opacity="0.7"/>
        <g id="Grupo_148896" data-name="Grupo 148896">
          <path id="Trazado_210955" data-name="Trazado 210955" d="M297.781,976.56c20.153,11.635,20.254,30.5.233,42.136s-52.591,11.638-72.745,0-20.259-30.5-.237-42.139S277.623,964.922,297.781,976.56Z" fill="#bdc4df"/>
        </g>
        <g id="Grupo_148897" data-name="Grupo 148897">
          <path id="Trazado_210956" data-name="Trazado 210956" d="M181.79,999.763c-.022-.014-.045-.027-.068-.039l-.033-.019,0,0a1.515,1.515,0,0,0-1.413.18,4.633,4.633,0,0,0-2.1,3.631,1.463,1.463,0,0,0,.628,1.364l0,0,57.112,33.121,2.953-5.115Z" fill="#ffb806"/>
          <path id="Trazado_210957" data-name="Trazado 210957" d="M236.9,1036.3l-.985,1.7-57.112-33.12v0a1.463,1.463,0,0,1-.627-1.363,3.7,3.7,0,0,1,.2-1.156Z" fill="#d8a118" opacity="0.3"/>
          <path id="Trazado_210958" data-name="Trazado 210958" d="M238.869,1032.89l-1.275,2.208-58.58-34a4.055,4.055,0,0,1,1.26-1.214,1.516,1.516,0,0,1,1.413-.18v0l.034.019.067.04Z" fill="#efbb35" opacity="0.3"/>
          <path id="Trazado_210959" data-name="Trazado 210959" d="M235.273,1036.64c0,1.337.939,1.879,2.1,1.21a4.633,4.633,0,0,0,2.1-3.631c0-1.337-.939-1.879-2.1-1.21A4.634,4.634,0,0,0,235.273,1036.64Z" fill="#cf8c0f"/>
          <path id="Trazado_210960" data-name="Trazado 210960" d="M235.6,1036.45a1.653,1.653,0,0,0,.15.734c.273.567.9.712,1.624.29a3.919,3.919,0,0,0,1.776-3.072c0-1.131-.8-1.589-1.776-1.024A3.917,3.917,0,0,0,235.6,1036.45Z" fill="#ffb806"/>
          <path id="Trazado_210961" data-name="Trazado 210961" d="M235.6,1036.45a1.653,1.653,0,0,0,.15.734c.73.3,1.343.453,1.624.29.98-.565,1.776-3.072,1.776-3.072l-1.776-1.024A3.917,3.917,0,0,0,235.6,1036.45Z" fill="#3477b9"/>
          <path id="Trazado_210962" data-name="Trazado 210962" d="M235.6,1036.45c0,1.131.794,1.59,1.774,1.024a3.921,3.921,0,0,0,1.774-3.073Z" fill="#1f5d9c"/>
        </g>
        <g id="Grupo_148900" data-name="Grupo 148900">
          <g id="Grupo_148898" data-name="Grupo 148898">
            <path id="Trazado_210963" data-name="Trazado 210963" d="M304.026,989.825v8.922c-.02,7.093-4.682,14.176-14,19.588a62.242,62.242,0,0,1-21.779,7.26v-8.922a62.24,62.24,0,0,0,21.779-7.26c9.313-5.413,13.975-12.494,13.995-19.588Z" fill="#bdc4df"/>
            <path id="Trazado_210964" data-name="Trazado 210964" d="M268.251,1016.67v8.922a82.656,82.656,0,0,1-24.223.037v-8.922a82.172,82.172,0,0,0,24.224-.037Z" fill="#c8d0ec"/>
            <path id="Trazado_210965" data-name="Trazado 210965" d="M244.028,1016.71v8.922a63,63,0,0,1-22.1-7.294,42.519,42.519,0,0,1-3.6-2.322v-8.922a42.441,42.441,0,0,0,3.6,2.322,63.031,63.031,0,0,0,22.1,7.294Z" fill="#dae0f4"/>
            <path id="Trazado_210966" data-name="Trazado 210966" d="M218.328,1007.09v8.923c-.261-.189-.518-.378-.77-.571a32.912,32.912,0,0,1-3.5-3.055,21.868,21.868,0,0,1-5.725-9.386,16.662,16.662,0,0,1-.622-4.528v-8.881a16.62,16.62,0,0,0,.622,4.487,21.863,21.863,0,0,0,5.725,9.385,32.9,32.9,0,0,0,3.5,3.055Q217.936,1006.82,218.328,1007.09Z" fill="#bdc4df"/>
          </g>
          <g id="Grupo_148899" data-name="Grupo 148899">
            <path id="Trazado_210967" data-name="Trazado 210967" d="M289.813,969.967c18.866,10.892,18.961,28.554.218,39.446s-49.234,10.9-68.1,0-18.965-28.556-.222-39.449S270.943,959.072,289.813,969.967Z" fill="#f2f4fe"/>
          </g>
        </g>
        <g id="Grupo_148907" data-name="Grupo 148907">
          <path id="Trazado_210968" data-name="Trazado 210968" d="M301.658,931.745l-.356,56.768c-.013,4.555-2.046,9.1-6.1,13.16a34.776,34.776,0,0,1-7.151,5.392c-.056.033-.113.065-.169.1a59.108,59.108,0,0,1-20.458,6.779l.356-56.767a59.439,59.439,0,0,0,20.1-6.577c.177-.1.352-.2.526-.3l.172-.1a35.97,35.97,0,0,0,5.924-4.288c.24-.216.471-.433.7-.652C299.491,941.112,301.645,936.431,301.658,931.745Z" fill="#bdc4df"/>
          <path id="Trazado_210969" data-name="Trazado 210969" d="M267.774,957.174l-.355,56.767a78.291,78.291,0,0,1-22.943.035l.355-56.767a78.291,78.291,0,0,0,22.943-.035Z" fill="#dae0f4"/>
          <path id="Trazado_210970" data-name="Trazado 210970" d="M244.832,957.208l-.355,56.767a59.668,59.668,0,0,1-20.928-6.909,40.2,40.2,0,0,1-3.412-2.2l.355-56.767a40.276,40.276,0,0,0,3.412,2.2,59.647,59.647,0,0,0,20.929,6.908Z" fill="#dae0f4"/>
          <path id="Trazado_210971" data-name="Trazado 210971" d="M211.027,935.778a15.723,15.723,0,0,1-.589-4.288l-.355,56.767a15.748,15.748,0,0,0,.589,4.289c1.23,4.4,4.385,8.662,9.464,12.323l.355-56.767C215.412,944.44,212.257,940.18,211.027,935.778Z" fill="#bdc4df"/>
          <g id="Grupo_148901" data-name="Grupo 148901">
            <path id="Trazado_210972" data-name="Trazado 210972" d="M288.911,949.995q-.252.153-.51.3a48.128,48.128,0,0,1-5.629,2.782c-17.781,7.433-42.785,6.507-58.87-2.779-17.872-10.319-17.962-27.046-.209-37.362q1.7-.99,3.536-1.851a54.811,54.811,0,0,1,6.5-2.558c17.325-5.6,39.666-4.136,54.464,4.408C305.891,923.155,306.151,939.658,288.911,949.995Z" fill="#f2f4fe"/>
          </g>
          <path id="Trazado_210973" data-name="Trazado 210973" d="M288.911,949.995l0-.006c-10.116,4.744-22.754,6.571-34.814,5.579v0h-.045c-9.419-.781-18.483-3.281-25.715-7.456a32.333,32.333,0,0,1-9.139-7.533v-.027h-.022a17.4,17.4,0,0,1-4.145-10.91c-.01-6.914,4.64-13.428,13.1-18.341a47.737,47.737,0,0,1,5.607-2.769,54.818,54.818,0,0,0-6.5,2.558,34.614,34.614,0,0,0-6.738,5.192V916.2h-2.052v.637h1.509a20.284,20.284,0,0,0-5.025,8.688h-3.07v.637h2.917a15.889,15.889,0,0,0-.1,6.427h-3.855v.637h3.989a18.761,18.761,0,0,0,3.015,6.568c.178.252.364.5.554.751h-4.543v.637h5.048a30.779,30.779,0,0,0,6.662,5.933H220.33v.637h6.19q.728.461,1.5.905a47.974,47.974,0,0,0,4.427,2.248h-5.572v.637h6.922v-.056a59.4,59.4,0,0,0,6.357,2.2h-6.828v.637h9.224c2.022.5,4.105.911,6.236,1.235h-8.918v.637h14.231v-.021q2.017.163,4.069.224,1.156.034,2.307.033a73.089,73.089,0,0,0,22.3-3.358,55,55,0,0,0,6.407-2.514Z" fill="#bdc4df"/>
          <g id="Grupo_148902" data-name="Grupo 148902">
            <path id="Trazado_210974" data-name="Trazado 210974" d="M280.8,945.906c-.664.387-1.353.756-2.054,1.1-.671.332-1.359.646-2.06.947-12.2,5.172-28.934,5.159-41.172-.043-.7-.3-1.39-.609-2.06-.941s-1.34-.695-1.986-1.064c-12.36-7.133-13.6-18.283-3.677-26.185.51-.412,1.046-.805,1.617-1.193q.9-.618,1.9-1.2c13.578-7.89,35.661-7.89,49.332,0,.7.406,1.366.818,1.993,1.248.572.387,1.113.787,1.624,1.193C294.182,927.673,293.039,938.785,280.8,945.906Z" fill="#1f5d9c"/>
          </g>
          <g id="Grupo_148903" data-name="Grupo 148903" opacity="0.2">
            <path id="Trazado_210975" data-name="Trazado 210975" d="M287.918,928.455q-.254-.783-.535-1.558-.133-.366-.275-.73c-.035-.09-.073-.179-.108-.269h0l0-.009a16.666,16.666,0,0,0-1.362-2.477c-.071-.1-.145-.2-.22-.3l-.016-.017c-.155-.166-.294-.346-.448-.512q-.272-.292-.564-.565c-.075-.07-.151-.138-.227-.206-.025-.022-.26-.221-.234-.2-.213-.169-.468-.352-.747-.539a2.172,2.172,0,0,1-.447,1.256,2.122,2.122,0,0,1-2.247.766c-2.85-1.089-5.248-2.876-7.858-4.41a21.378,21.378,0,0,0-7.032-2.718q-.553-.112-1.11-.2l-.447-.07-.179-.028c-.656-.089-1.315-.153-1.974-.209-1.339-.114-2.68-.171-4.022-.231l-.617-.025c-2.926.206-5.861.287-8.788.458a60.967,60.967,0,0,0-9.895,1.187,28.591,28.591,0,0,0-9.245,3.611,16.26,16.26,0,0,0-3.266,2.774,17.032,17.032,0,0,0-2.379,3.54,22.419,22.419,0,0,0-1.68,4.3,16.528,16.528,0,0,1-.727,2.011,15.388,15.388,0,0,0,5.193,9.2c.646-3.4,2.781-6.723,6.406-9.612.511-.412,1.046-.805,1.618-1.193q.9-.619,1.9-1.2c13.579-7.89,35.662-7.89,49.333,0,.7.405,1.365.818,1.993,1.247.491.332.957.674,1.4,1.022C288.7,931.185,288.356,929.809,287.918,928.455Z" fill="#15508c"/>
          </g>
          <g id="Grupo_148904" data-name="Grupo 148904">
            <path id="Trazado_210976" data-name="Trazado 210976" d="M290.007,936.3a18.224,18.224,0,0,0-5.756-7.283c-.511-.406-1.051-.807-1.623-1.194-.628-.429-1.292-.842-1.993-1.247-13.671-7.891-35.753-7.891-49.331,0q-1,.581-1.9,1.2c-.572.387-1.107.781-1.617,1.193a22.445,22.445,0,0,0-2.506,2.314,16.182,16.182,0,0,0-3.189,4.9.005.005,0,0,0,0,0c-.1-.252-.2-.5-.279-.759-.044-.127-.084-.256-.122-.383-.02-.069-.04-.136-.059-.2s-.034-.121-.05-.181c-.034-.128-.066-.257-.1-.386-.014-.06-.027-.119-.04-.178,0-.013-.006-.027-.009-.04-.025-.121-.049-.241-.071-.362-.012-.061-.023-.122-.033-.183q-.082-.491-.121-.981c-.005-.06-.01-.119-.014-.178s-.01-.148-.013-.221c-.005-.09-.008-.181-.01-.271v-.013c0-.1,0-.19,0-.284v-.009c0-.079,0-.158,0-.237s0-.162.008-.242c0-.06.005-.121.009-.181,0-.034,0-.07.006-.1q.015-.243.042-.485c0-.052.011-.106.018-.159s.013-.114.022-.169.015-.112.024-.168c.019-.13.041-.259.064-.389,0-.01,0-.019.005-.029.022-.114.045-.228.069-.342a.14.14,0,0,1,.008-.033c.013-.06.027-.119.041-.177.018-.084.038-.169.061-.252.028-.11.057-.219.088-.328.056-.192.115-.386.18-.577.087-.256.181-.512.284-.766.077-.191.161-.381.247-.571.029-.062.059-.126.089-.19l.092-.189a18.828,18.828,0,0,1,5.259-6.239q.191-.155.387-.305c.131-.1.263-.2.4-.3q.4-.3.832-.587.566-.386,1.166-.758c.161-.1.322-.2.487-.3l.248-.145q.635-.369,1.295-.716h0q.493-.258,1-.5,1.049-.51,2.151-.964.635-.262,1.284-.506c1.121-.422,2.275-.8,3.455-1.14q.3-.086.6-.168l.554-.148c.257-.068.517-.133.777-.2l.4-.1c.232-.055.465-.108.7-.158l.173-.038q.713-.157,1.434-.291l.167-.032a59.517,59.517,0,0,1,21.386.017q.8.149,1.6.324,1.19.259,2.354.572.583.155,1.155.325.765.225,1.514.474.936.31,1.845.657.365.14.723.283,1.613.65,3.124,1.418h0q.839.426,1.64.888l.261.153a.171.171,0,0,0,.026.015q.894.526,1.706,1.079c.572.387,1.112.787,1.623,1.194.481.383.934.774,1.363,1.172l.07.064.192.182c.122.116.242.233.36.35C290.749,926.051,292.006,931.355,290.007,936.3Z" fill="#c8d0ec"/>
          </g>
          <g id="Grupo_148905" data-name="Grupo 148905">
            <path id="Trazado_210977" data-name="Trazado 210977" d="M263.74,911.922a59.656,59.656,0,0,0-18.448.45l-.167.032q-.722.134-1.434.291l-.173.038c-.234.05-.468.1-.7.158l-.4.1c-.26.063-.52.127-.777.2l-.554.148q-.3.082-.6.168c-1.18.339-2.334.719-3.455,1.14q-.65.242-1.284.506-1.1.455-2.151.964-.5.247-1,.5h0q-.66.347-1.295.716l-.248.145q-.246.147-.487.3-.6.371-1.166.758-.428.291-.832.587c-.135.1-.266.2-.4.3s-.26.2-.387.305a18.828,18.828,0,0,0-5.259,6.239l-.092.189c-.031.064-.06.128-.089.19-.086.19-.169.38-.247.571-.1.253-.2.509-.284.766-.065.191-.124.385-.18.577-.031.108-.06.218-.088.328-.023.083-.043.168-.061.252-.014.058-.028.117-.041.177a.134.134,0,0,0-.008.033c-.024.114-.047.228-.069.342,0,.01,0,.019-.005.029-.023.13-.045.259-.064.389-.009.056-.017.112-.024.168s-.015.113-.022.169-.013.107-.018.159q-.027.243-.042.485c0,.034-.005.07-.006.1,0,.06-.006.121-.009.181,0,.08-.006.16-.008.242s0,.158,0,.237v.009c0,.094,0,.189,0,.284v.013c0,.09,0,.181.01.271,0,.073.008.147.013.221s.009.118.014.178q.038.489.121.981c.01.061.022.122.033.183.022.121.046.241.071.362,0,.013.005.027.009.04.013.06.025.118.04.178.031.128.062.257.1.386.015.06.032.12.05.181s.038.135.059.2c.038.128.078.256.122.383.084.255.177.507.279.759a0,0,0,0,1,0,0,16.174,16.174,0,0,1,3.189-4.9,22.431,22.431,0,0,1,2.506-2.314c.509-.412,1.045-.805,1.617-1.193q.9-.619,1.9-1.2c8.781-5.1,21.117-6.9,32.436-5.407v-9.249Z" fill="#b2bde8"/>
          </g>
          <g id="Grupo_148906" data-name="Grupo 148906">
            <path id="Trazado_210978" data-name="Trazado 210978" d="M256.2,954.936q-1.152,0-2.308-.033c-11.359-.329-22.066-3.08-30.147-7.745a31.431,31.431,0,0,1-10.192-8.863,17.534,17.534,0,0,1-3.432-10.158c-.01-7.151,4.753-13.86,13.413-18.893,8.634-5.018,20.129-7.781,32.366-7.782s23.765,2.763,32.456,7.781c8.49,4.9,13.323,11.436,13.607,18.4.267,6.521-3.528,12.841-10.686,17.794l-.362-.524c6.972-4.825,10.67-10.948,10.412-17.244-.275-6.737-4.995-13.083-13.289-17.872-17.753-10.25-46.546-10.25-64.183,0-8.455,4.914-13.106,11.427-13.1,18.341.01,6.963,4.735,13.522,13.305,18.47,16.5,9.528,42.543,10.336,60.575,1.881l.271.577C276.778,952.876,266.661,954.936,256.2,954.936Z" fill="#715f7f"/>
          </g>
        </g>
        <path id="Trazado_210979" data-name="Trazado 210979" d="M214.06,964.813v47.577a32.918,32.918,0,0,0,3.5,3.055V964.813Z" fill="#bdc4df"/>
        <path id="Trazado_210980" data-name="Trazado 210980" d="M294.5,955.914v2.151l-5.924,3.42v-2.15Zm-5.924,2.614v-2.151l5.924-3.42v2.151Zm5.924.343v2.151l-5.924,3.42v-2.15Zm0,2.957v2.15l-5.924,3.42v-2.151Zm0,2.957v2.151l-5.924,3.42v-2.151Zm0,2.957v2.151l-5.924,3.42v-2.151Zm0,2.957v2.15l-5.924,3.42v-2.15Zm0,2.957v2.15l-5.924,3.42v-2.151Zm0,2.957v2.15l-5.924,3.42v-2.15Zm0,2.957v2.151l-5.924,3.42V982.99Zm0,2.957v2.15l-5.924,3.42v-2.15Zm0,2.957v2.151l-5.924,3.42V988.9Zm0,2.956v2.15l-5.924,3.42v-2.15Zm0,2.957v2.151l-5.924,3.42v-2.151Zm0,2.957v2.15l-5.924,3.42v-2.151Zm0,2.957v2.151l-5.924,3.42v-2.151Zm0,2.959v2.151l-5.924,3.42v-2.15Zm0,2.96v2.15l-5.924,3.42v-2.151Zm0,2.95v2.15l-5.924,3.42V1009.6Zm0-56.18v2.15l-5.924,3.42v-2.15Zm-5.923,64.71v-2.15l5.924-3.42v2.151Zm6.622-69.456c-.227.219-.459.437-.7.652v3.287l-5.924,3.421v-2.42l-.172.1c-.175.1-.349.2-.526.3v68.3l.7-.4v-2.98l5.924-3.42v2.98l.7-.4V945.254Z" fill="#bdc4df" opacity="0.7"/>
        <g id="Grupo_148911" data-name="Grupo 148911">
          <g id="Grupo_148908" data-name="Grupo 148908">
            <path id="Trazado_210981" data-name="Trazado 210981" d="M278.774,954.475a.318.318,0,0,1-.318-.319v-3a.318.318,0,0,1,.637,0v3A.319.319,0,0,1,278.774,954.475Z" fill="#715f7f"/>
            <path id="Trazado_210982" data-name="Trazado 210982" d="M272.279,956.266a.318.318,0,0,1-.318-.318v-3a.318.318,0,1,1,.637,0v3A.319.319,0,0,1,272.279,956.266Z" fill="#715f7f"/>
          </g>
          <g id="Grupo_148909" data-name="Grupo 148909">
            <path id="Trazado_210983" data-name="Trazado 210983" d="M213.835,941.185a.319.319,0,0,1-.319-.318v-2.575a.319.319,0,1,1,.637,0v2.575A.319.319,0,0,1,213.835,941.185Z" fill="#715f7f"/>
          </g>
          <path id="Trazado_210984" data-name="Trazado 210984" d="M265.783,957.388a.319.319,0,0,1-.319-.318v-2.786a.318.318,0,1,1,.637,0v2.786A.319.319,0,0,1,265.783,957.388Z" fill="#715f7f"/>
          <g id="Grupo_148910" data-name="Grupo 148910">
            <path id="Trazado_210985" data-name="Trazado 210985" d="M300.771,936.054a.318.318,0,0,1-.318-.318v-2.148a.318.318,0,1,1,.637,0v2.148A.318.318,0,0,1,300.771,936.054Z" fill="#715f7f"/>
          </g>
          <path id="Trazado_210986" data-name="Trazado 210986" d="M297.24,942.79a.319.319,0,0,1-.319-.318v-2.786a.318.318,0,0,1,.637,0v2.786A.318.318,0,0,1,297.24,942.79Z" fill="#715f7f"/>
          <path id="Trazado_210987" data-name="Trazado 210987" d="M259.287,957.914a.318.318,0,0,1-.318-.318V954.81a.318.318,0,0,1,.637,0V957.6A.319.319,0,0,1,259.287,957.914Z" fill="#715f7f"/>
          <path id="Trazado_210988" data-name="Trazado 210988" d="M252.81,957.893a.319.319,0,0,1-.319-.318v-2.786a.319.319,0,1,1,.637,0v2.786A.319.319,0,0,1,252.81,957.893Z" fill="#715f7f"/>
          <path id="Trazado_210989" data-name="Trazado 210989" d="M246.314,957.388a.319.319,0,0,1-.319-.318v-2.786a.319.319,0,1,1,.637,0v2.786A.319.319,0,0,1,246.314,957.388Z" fill="#715f7f"/>
          <path id="Trazado_210990" data-name="Trazado 210990" d="M239.818,956.2a.319.319,0,0,1-.319-.318V953.1a.319.319,0,0,1,.637,0v2.786A.318.318,0,0,1,239.818,956.2Z" fill="#715f7f"/>
          <path id="Trazado_210991" data-name="Trazado 210991" d="M233.322,954.33a.319.319,0,0,1-.319-.319v-2.785a.319.319,0,1,1,.637,0v2.785A.318.318,0,0,1,233.322,954.33Z" fill="#715f7f"/>
          <path id="Trazado_210992" data-name="Trazado 210992" d="M226.826,951.545a.318.318,0,0,1-.318-.318v-2.786a.319.319,0,0,1,.637,0v2.786A.319.319,0,0,1,226.826,951.545Z" fill="#715f7f"/>
          <path id="Trazado_210993" data-name="Trazado 210993" d="M220.33,947.755a.318.318,0,0,1-.318-.318v-2.786a.319.319,0,0,1,.637,0v2.786A.319.319,0,0,1,220.33,947.755Z" fill="#715f7f"/>
          <path id="Trazado_210994" data-name="Trazado 210994" d="M210.82,933.23a.318.318,0,0,1-.318-.318v-1.319a.319.319,0,0,1,.637,0v1.319A.319.319,0,0,1,210.82,933.23Z" fill="#715f7f"/>
        </g>
        <g id="Grupo_148915" data-name="Grupo 148915">
          <g id="Grupo_148912" data-name="Grupo 148912">
            <path id="Trazado_210995" data-name="Trazado 210995" d="M211.943,926.166a.318.318,0,0,1-.318-.318v-4.525a.319.319,0,0,1,.637,0v4.525A.319.319,0,0,1,211.943,926.166Z" fill="#715f7f"/>
            <path id="Trazado_210996" data-name="Trazado 210996" d="M218.439,916.66a.319.319,0,0,1-.319-.319v-3a.319.319,0,1,1,.637,0v3A.318.318,0,0,1,218.439,916.66Z" fill="#715f7f"/>
          </g>
          <g id="Grupo_148913" data-name="Grupo 148913">
            <path id="Trazado_210997" data-name="Trazado 210997" d="M276.883,908.728a.319.319,0,0,1-.319-.319v-3.495a.319.319,0,0,1,.637,0v3.495A.319.319,0,0,1,276.883,908.728Z" fill="#715f7f"/>
          </g>
          <path id="Trazado_210998" data-name="Trazado 210998" d="M224.935,912.812a.318.318,0,0,1-.318-.318v-3.248a.319.319,0,1,1,.637,0v3.248A.319.319,0,0,1,224.935,912.812Z" fill="#715f7f"/>
          <path id="Trazado_210999" data-name="Trazado 210999" d="M231.431,909.929a.319.319,0,0,1-.319-.318v-3.585a.319.319,0,0,1,.637,0v3.585A.319.319,0,0,1,231.431,909.929Z" fill="#715f7f"/>
          <path id="Trazado_211000" data-name="Trazado 211000" d="M237.908,907.859a.318.318,0,0,1-.318-.318v-3.585a.319.319,0,0,1,.637,0v3.585A.318.318,0,0,1,237.908,907.859Z" fill="#715f7f"/>
          <path id="Trazado_211001" data-name="Trazado 211001" d="M244.4,906.7a.318.318,0,0,1-.318-.318V902.8a.319.319,0,0,1,.637,0v3.585A.318.318,0,0,1,244.4,906.7Z" fill="#715f7f"/>
          <path id="Trazado_211002" data-name="Trazado 211002" d="M250.9,905.976a.319.319,0,0,1-.319-.318v-3.585a.319.319,0,0,1,.637,0v3.585A.319.319,0,0,1,250.9,905.976Z" fill="#715f7f"/>
          <path id="Trazado_211003" data-name="Trazado 211003" d="M257.4,905.794a.318.318,0,0,1-.318-.318V901.89a.319.319,0,1,1,.637,0v3.585A.32.32,0,0,1,257.4,905.794Z" fill="#715f7f"/>
          <path id="Trazado_211004" data-name="Trazado 211004" d="M263.892,906.437a.319.319,0,0,1-.319-.319v-3.705a.319.319,0,0,1,.637,0v3.705A.319.319,0,0,1,263.892,906.437Z" fill="#715f7f"/>
          <path id="Trazado_211005" data-name="Trazado 211005" d="M270.387,907.306a.319.319,0,0,1-.319-.318v-3.705a.319.319,0,0,1,.637,0v3.705A.318.318,0,0,1,270.387,907.306Z" fill="#715f7f"/>
          <g id="Grupo_148914" data-name="Grupo 148914">
            <path id="Trazado_211006" data-name="Trazado 211006" d="M300.982,927.884a.318.318,0,0,1-.318-.319v-3.883a.318.318,0,0,1,.637,0v3.883A.319.319,0,0,1,300.982,927.884Z" fill="#715f7f"/>
          </g>
          <path id="Trazado_211007" data-name="Trazado 211007" d="M283.379,911.3a.319.319,0,0,1-.319-.318V907.4a.319.319,0,0,1,.637,0v3.585A.318.318,0,0,1,283.379,911.3Z" fill="#715f7f"/>
          <path id="Trazado_211008" data-name="Trazado 211008" d="M289.875,914.765a.319.319,0,0,1-.319-.318v-3.705a.319.319,0,0,1,.637,0v3.705A.319.319,0,0,1,289.875,914.765Z" fill="#715f7f"/>
          <path id="Trazado_211009" data-name="Trazado 211009" d="M296.371,920.037a.319.319,0,0,1-.319-.318v-3.705a.319.319,0,0,1,.637,0v3.705A.319.319,0,0,1,296.371,920.037Z" fill="#715f7f"/>
        </g>
        <g id="Grupo_148923" data-name="Grupo 148923">
          <g id="Grupo_148922" data-name="Grupo 148922">
            <g id="Grupo_148917" data-name="Grupo 148917">
              <path id="Trazado_211010" data-name="Trazado 211010" d="M224.945,954.6l.842-.489a1.748,1.748,0,0,1,1.762.173l-.842.489A1.745,1.745,0,0,0,224.945,954.6Z" fill="#dae0f4"/>
              <g id="Grupo_148916" data-name="Grupo 148916" clip-path="url(#clip-path)">
                <path id="Trazado_211011" data-name="Trazado 211011" d="M224.945,954.6l.842-.489a1.271,1.271,0,0,1,.62-.167l-.842.489a1.273,1.273,0,0,0-.62.167Z" fill="#f2f4fe"/>
                <path id="Trazado_211012" data-name="Trazado 211012" d="M225.565,954.431l.842-.489a2.231,2.231,0,0,1,1.142.34l-.842.489a2.229,2.229,0,0,0-1.142-.34Z" fill="#f2f4fe"/>
              </g>
            </g>
            <g id="Grupo_148919" data-name="Grupo 148919">
              <g id="Grupo_148918" data-name="Grupo 148918" clip-path="url(#clip-path-2)">
                <path id="Trazado_211014" data-name="Trazado 211014" d="M226.707,954.771l.842-.489a4.4,4.4,0,0,1,1.094.924l-.842.489a4.378,4.378,0,0,0-1.094-.924Z" fill="#f2f4fe"/>
                <path id="Trazado_211015" data-name="Trazado 211015" d="M227.8,955.7l.842-.489a5.932,5.932,0,0,1,.81,1.207l-.842.489a5.913,5.913,0,0,0-.81-1.207Z" fill="#dae0f4"/>
                <path id="Trazado_211016" data-name="Trazado 211016" d="M228.611,956.9l.842-.489a4.846,4.846,0,0,1,.564,2.144,1.734,1.734,0,0,1-.723,1.589l-.842.489a1.733,1.733,0,0,0,.723-1.589,4.846,4.846,0,0,0-.564-2.144Z" fill="#dae0f4"/>
              </g>
            </g>
            <g id="Grupo_148920" data-name="Grupo 148920">
              <path id="Trazado_211018" data-name="Trazado 211018" d="M226.707,954.771a5.44,5.44,0,0,1,2.468,4.276c0,1.572-1.117,2.206-2.484,1.416a5.441,5.441,0,0,1-2.469-4.276C224.227,954.615,225.339,953.981,226.707,954.771Z" fill="#b7bedb"/>
            </g>
            <g id="Grupo_148921" data-name="Grupo 148921">
              <path id="Trazado_211019" data-name="Trazado 211019" d="M226.705,955.45a4.141,4.141,0,0,1,1.879,3.255c0,1.2-.85,1.679-1.892,1.078a4.144,4.144,0,0,1-1.88-3.256C224.816,955.331,225.663,954.848,226.705,955.45Z" fill="#aab1cb"/>
            </g>
          </g>
        </g>
        <g id="Grupo_148926" data-name="Grupo 148926">
          <g id="Grupo_148924" data-name="Grupo 148924">
            <path id="Trazado_211020" data-name="Trazado 211020" d="M206.11,1014.6V974.465a4.832,4.832,0,0,1,2.183-3.781L227.7,958.8l-1.636-2.877-17.77,10.248c-3.029,1.748-5.493,3.126-5.493,9.514V1014.6Z" fill="#ffb806"/>
          </g>
          <path id="Trazado_211021" data-name="Trazado 211021" d="M228.036,958.048a1.113,1.113,0,0,1-.091.468.642.642,0,0,1-.246.285h0l-.007,0-19.4,11.88a4.836,4.836,0,0,0-2.183,3.782V1014.6a.821.821,0,0,1-.485.673,2.289,2.289,0,0,1-.966.27v-40.81c0-1.39,0-3.175,2.182-4.483l21.1-12.791A2.036,2.036,0,0,1,228.036,958.048Z" fill="#d8a118" opacity="0.3"/>
          <path id="Trazado_211022" data-name="Trazado 211022" d="M206.11,1014.56v.046a.821.821,0,0,1-.485.673,2.289,2.289,0,0,1-.966.27,2.748,2.748,0,0,1-.974-.1,1.932,1.932,0,0,1-.408-.171.882.882,0,0,1-.478-.581.558.558,0,0,1,0-.183.879.879,0,0,1,.478-.581,1.95,1.95,0,0,1,.408-.171,2.744,2.744,0,0,1,.974-.1,2.292,2.292,0,0,1,.966.271A.833.833,0,0,1,206.11,1014.56Z" fill="#ffb806"/>
          <g id="Grupo_148925" data-name="Grupo 148925" opacity="0.2">
            <path id="Trazado_211023" data-name="Trazado 211023" d="M226.621,956.907l-.807.455-16.637,9.383c-3.029,1.75-5.493,3.127-5.493,9.515v39.186a1.932,1.932,0,0,1-.408-.171.882.882,0,0,1-.478-.581V975.685c0-6.388,2.464-7.766,5.493-9.513L226,955.96l.061-.036Z" fill="#efbb35"/>
          </g>
          <path id="Trazado_211024" data-name="Trazado 211024" d="M225.694,956.7a2.588,2.588,0,0,0,1.171,2.028c.647.373,1.171.071,1.171-.676a2.588,2.588,0,0,0-1.171-2.028C226.218,955.647,225.694,955.949,225.694,956.7Z" fill="#ffb806"/>
        </g>
        <g id="Grupo_148927" data-name="Grupo 148927">
          <path id="Trazado_211025" data-name="Trazado 211025" d="M290.838,1016.07l.7-.4V944.556l-.7.4Z" fill="#715f7f"/>
          <path id="Trazado_211026" data-name="Trazado 211026" d="M284.216,1019.9l.7-.41V948.33l-.7.4Z" fill="#715f7f"/>
          <path id="Trazado_211027" data-name="Trazado 211027" d="M291.187,950.794v-.806l-6.623,3.823v.807Z" fill="#715f7f"/>
          <path id="Trazado_211028" data-name="Trazado 211028" d="M291.187,953.751v-.806l-6.623,3.823v.807Z" fill="#715f7f"/>
          <path id="Trazado_211029" data-name="Trazado 211029" d="M291.187,956.708V955.9l-6.623,3.823v.806Z" fill="#715f7f"/>
          <path id="Trazado_211030" data-name="Trazado 211030" d="M291.187,959.665v-.807l-6.623,3.824v.807Z" fill="#715f7f"/>
          <path id="Trazado_211031" data-name="Trazado 211031" d="M291.187,962.622v-.807l-6.623,3.824v.806Z" fill="#715f7f"/>
          <path id="Trazado_211032" data-name="Trazado 211032" d="M291.187,965.579v-.807l-6.623,3.824v.806Z" fill="#715f7f"/>
          <path id="Trazado_211033" data-name="Trazado 211033" d="M291.187,971.493v-.807l-6.623,3.824v.806Z" fill="#715f7f"/>
          <path id="Trazado_211034" data-name="Trazado 211034" d="M291.187,977.406V976.6l-6.623,3.824v.806Z" fill="#715f7f"/>
          <path id="Trazado_211035" data-name="Trazado 211035" d="M291.187,968.536v-.807l-6.623,3.824v.806Z" fill="#715f7f"/>
          <path id="Trazado_211036" data-name="Trazado 211036" d="M291.187,974.45v-.807l-6.623,3.824v.806Z" fill="#715f7f"/>
          <path id="Trazado_211037" data-name="Trazado 211037" d="M291.187,980.364v-.807l-6.622,3.824v.806Z" fill="#715f7f"/>
          <path id="Trazado_211038" data-name="Trazado 211038" d="M291.187,986.277v-.806l-6.622,3.823v.807Z" fill="#715f7f"/>
          <path id="Trazado_211039" data-name="Trazado 211039" d="M291.187,992.191v-.806l-6.622,3.823v.807Z" fill="#715f7f"/>
          <path id="Trazado_211040" data-name="Trazado 211040" d="M291.187,998.1V997.3l-6.622,3.821v.81Z" fill="#715f7f"/>
          <path id="Trazado_211041" data-name="Trazado 211041" d="M291.187,1004.02v-.81l-6.622,3.83v.8Z" fill="#715f7f"/>
          <path id="Trazado_211042" data-name="Trazado 211042" d="M291.187,983.32v-.806l-6.622,3.823v.807Z" fill="#715f7f"/>
          <path id="Trazado_211043" data-name="Trazado 211043" d="M291.187,989.234v-.806l-6.622,3.823v.807Z" fill="#715f7f"/>
          <path id="Trazado_211044" data-name="Trazado 211044" d="M291.187,995.148v-.806l-6.622,3.823v.807Z" fill="#715f7f"/>
          <path id="Trazado_211045" data-name="Trazado 211045" d="M291.187,1001.06v-.8l-6.622,3.82v.81Z" fill="#715f7f"/>
          <path id="Trazado_211046" data-name="Trazado 211046" d="M291.187,1006.98v-.81l-6.622,3.82v.81Z" fill="#715f7f"/>
          <path id="Trazado_211047" data-name="Trazado 211047" d="M291.187,1009.93v-.8l-6.622,3.82v.81Z" fill="#715f7f"/>
          <path id="Trazado_211048" data-name="Trazado 211048" d="M291.187,1012.89v-.81l-6.622,3.83v.8Z" fill="#715f7f"/>
        </g>
      </g>
    </g>
  </g>
</svg>
