<svg xmlns="http://www.w3.org/2000/svg" width="265.888" height="265.888" viewBox="0 0 265.888 265.888">
  <g id="Grupo_154379" data-name="Grupo 154379" transform="translate(-672.116 -2836.003)">
    <g id="Grupo_148267_00000016784700769009540300000016352044430261779896_" transform="translate(-357 -2298.973)">
      <g id="Grupo_148241_00000142892284717309693280000013930983572486630069_" transform="translate(12 12)">
        <circle id="Elipse_4725_00000015329995415522609970000004676598994828435584_" cx="132.944" cy="132.944" r="132.944" transform="translate(1017.116 5122.976)" fill="#ffbc42"/>
        <circle id="Elipse_4726_00000017491563766067374060000015632689665505473446_" cx="111.551" cy="111.551" r="111.551" transform="translate(1038.509 5144.369)" fill="#fff"/>
      </g>
    </g>
    <g id="Grupo_148650" data-name="Grupo 148650" transform="translate(136 2389.027)">
      <g id="Grupo_148624" data-name="Grupo 148624">
        <g id="Grupo_148623" data-name="Grupo 148623">
          <g id="Grupo_148620" data-name="Grupo 148620">
            <path id="Trazado_210638" data-name="Trazado 210638" d="M761.306,592.7l-.013,4.334-91.939,53.43.012-4.334Z" fill="#07792c"/>
          </g>
          <g id="Grupo_148621" data-name="Grupo 148621">
            <path id="Trazado_210639" data-name="Trazado 210639" d="M669.366,646.125l-.012,4.334L576.812,597.03l.012-4.335Z" fill="#04541b"/>
          </g>
          <g id="Grupo_148622" data-name="Grupo 148622">
            <path id="Trazado_210640" data-name="Trazado 210640" d="M761.306,592.7l-91.94,53.43L576.824,592.7l91.939-53.429Z" fill="#09a13b"/>
          </g>
        </g>
      </g>
      <path id="Trazado_210641" data-name="Trazado 210641" d="M715.182,603.6c0,12.3-21,22.265-46.911,22.265s-46.91-9.969-46.91-22.265,21-22.265,46.91-22.265S715.182,591.3,715.182,603.6Z" fill="#bdc4df" opacity="0.5"/>
      <g id="Grupo_148649" data-name="Grupo 148649">
        <g id="Grupo_148636" data-name="Grupo 148636">
          <g id="Grupo_148635" data-name="Grupo 148635">
            <path id="Trazado_210642" data-name="Trazado 210642" d="M681.1,547.756v44.41H621.84v-44.41a28.233,28.233,0,0,1,.423-4.875,27.826,27.826,0,0,1,27.419-22.969h3.573A27.818,27.818,0,0,1,681.1,547.756Z" fill="#82bcca"/>
            <g id="Grupo_148625" data-name="Grupo 148625">
              <path id="Trazado_210643" data-name="Trazado 210643" d="M672.352,579.935c11.608,6.753,11.671,17.7.136,24.463s-30.294,6.755-41.9,0-11.671-17.709-.138-24.463S660.744,573.18,672.352,579.935Z" fill="#82bcca"/>
            </g>
            <path id="Trazado_210644" data-name="Trazado 210644" d="M681.1,592.166v-44.41a27.826,27.826,0,0,0-27.846-27.844h-3.573a27.826,27.826,0,0,0-27.419,22.969,28.222,28.222,0,0,0-.423,4.875v44.355c0,4.443,2.916,8.895,8.747,12.287,11.609,6.755,30.37,6.755,41.9,0C678.258,601.021,681.124,596.59,681.1,592.166Z" fill="#a7d6e7"/>
            <path id="Trazado_210645" data-name="Trazado 210645" d="M678.819,547.756v44.422c.021,3.773-2.636,7.411-7.482,10.252-5.235,3.064-12.255,4.752-19.769,4.752h0c-7.52,0-14.563-1.688-19.833-4.755a17.979,17.979,0,0,1-5.836-5.082,9.106,9.106,0,0,1-1.777-5.233V547.756a26,26,0,0,1,.388-4.478q.16-.894.382-1.776a25.437,25.437,0,0,1,1.266-3.754,15.969,15.969,0,0,1,6.453-5.276c10.348-5.19,27.182-5.19,37.6,0A15.9,15.9,0,0,1,676.885,538a25.12,25.12,0,0,1,1.159,3.489c.154.618.29,1.238.4,1.867A25.82,25.82,0,0,1,678.819,547.756Z" fill="#1b8ff0"/>
            <g id="Grupo_148626" data-name="Grupo 148626">
              <path id="Trazado_210646" data-name="Trazado 210646" d="M678.039,542.406c-.244,3.215-2.81,6.392-7.71,8.847-10.348,5.19-27.182,5.19-37.6,0-4.973-2.476-7.583-5.686-7.829-8.931a6.807,6.807,0,0,1-.012-.822c0-.058,0-.121.012-.184a7.613,7.613,0,0,1,1.255-3.57,15.969,15.969,0,0,1,6.453-5.276c10.348-5.19,27.182-5.19,37.6,0A15.9,15.9,0,0,1,676.885,538a7.576,7.576,0,0,1,1.154,3.4.666.666,0,0,0,0,.085A7.387,7.387,0,0,1,678.039,542.406Z" fill="#1c99ff"/>
            </g>
            <g id="Grupo_148630" data-name="Grupo 148630">
              <g id="Grupo_148629" data-name="Grupo 148629">
                <g id="Grupo_148627" data-name="Grupo 148627">
                  <path id="Trazado_210647" data-name="Trazado 210647" d="M659.282,513.915l-.03,8.056a3.868,3.868,0,0,1-2.264,3.17,12.153,12.153,0,0,1-11.029,0,3.9,3.9,0,0,1-2.3-3.215l.028-8.053a3.906,3.906,0,0,0,2.3,3.215,12.147,12.147,0,0,0,11.027,0A3.876,3.876,0,0,0,659.282,513.915Z" fill="#5a97a7"/>
                </g>
                <g id="Grupo_148628" data-name="Grupo 148628">
                  <path id="Trazado_210648" data-name="Trazado 210648" d="M656.98,510.7c3.056,1.764,3.071,4.624.035,6.388a12.147,12.147,0,0,1-11.027,0c-3.056-1.764-3.073-4.624-.037-6.388A12.173,12.173,0,0,1,656.98,510.7Z" fill="#66a2b1"/>
                </g>
              </g>
            </g>
            <g id="Grupo_148634" data-name="Grupo 148634">
              <g id="Grupo_148633" data-name="Grupo 148633">
                <g id="Grupo_148631" data-name="Grupo 148631">
                  <path id="Trazado_210649" data-name="Trazado 210649" d="M660.178,514.438l-.032,3.943c0,1.281-.846,2.56-2.524,3.537a13.559,13.559,0,0,1-12.3,0c-1.716-.993-2.571-2.291-2.568-3.585l.031-3.944c0,1.3.855,2.6,2.568,3.585a13.564,13.564,0,0,0,12.292,0C659.335,517,660.175,515.719,660.178,514.438Z" fill="#26323e"/>
                </g>
                <g id="Grupo_148632" data-name="Grupo 148632">
                  <path id="Trazado_210650" data-name="Trazado 210650" d="M657.61,510.853c3.409,1.967,3.427,5.157.04,7.122a13.564,13.564,0,0,1-12.292,0c-3.406-1.965-3.424-5.155-.04-7.122A13.553,13.553,0,0,1,657.61,510.853Z" fill="#333f4a"/>
                </g>
              </g>
            </g>
            <path id="Trazado_210651" data-name="Trazado 210651" d="M654.339,582.589a1.829,1.829,0,1,0-1.828,1.828A1.829,1.829,0,0,0,654.339,582.589Z" fill="#1c99ff"/>
            <path id="Trazado_210652" data-name="Trazado 210652" d="M657.32,601.273a1.026,1.026,0,1,0-1.026,1.026A1.024,1.024,0,0,0,657.32,601.273Z" fill="#1c99ff"/>
            <path id="Trazado_210653" data-name="Trazado 210653" d="M652.512,567.306a1.027,1.027,0,1,0-1.026,1.026A1.027,1.027,0,0,0,652.512,567.306Z" fill="#1c99ff"/>
            <path id="Trazado_210654" data-name="Trazado 210654" d="M669.85,595.9a2.522,2.522,0,1,0-2.521,2.526A2.52,2.52,0,0,0,669.85,595.9Z" fill="#1c99ff"/>
            <path id="Trazado_210655" data-name="Trazado 210655" d="M634.663,580.428a2.521,2.521,0,1,0-2.521,2.524A2.52,2.52,0,0,0,634.663,580.428Z" fill="#1c99ff"/>
            <path id="Trazado_210656" data-name="Trazado 210656" d="M674.406,576.357a1.489,1.489,0,1,0-1.489,1.49A1.488,1.488,0,0,0,674.406,576.357Z" fill="#1c99ff"/>
            <path id="Trazado_210657" data-name="Trazado 210657" d="M637.466,557.616a1.535,1.535,0,1,0-1.534,1.537A1.534,1.534,0,0,0,637.466,557.616Z" fill="#1c99ff"/>
            <path id="Trazado_210658" data-name="Trazado 210658" d="M636.48,597.261a1.535,1.535,0,1,0-1.535,1.537A1.535,1.535,0,0,0,636.48,597.261Z" fill="#1c99ff"/>
            <path id="Trazado_210659" data-name="Trazado 210659" d="M671.428,557.616a1.578,1.578,0,1,0-1.578,1.578A1.576,1.576,0,0,0,671.428,557.616Z" fill="#1c99ff"/>
          </g>
          <path id="Trazado_210660" data-name="Trazado 210660" d="M630.96,593.448a1.9,1.9,0,0,1-1.9,1.9h0a1.9,1.9,0,0,1-1.9-1.9V553.31a1.9,1.9,0,0,1,1.9-1.9h0a1.9,1.9,0,0,1,1.9,1.9Z" fill="#a1d3ff"/>
        </g>
        <g id="Grupo_148648" data-name="Grupo 148648">
          <g id="Grupo_148647" data-name="Grupo 148647">
            <g id="Grupo_148639" data-name="Grupo 148639">
              <path id="Trazado_210661" data-name="Trazado 210661" d="M701.849,562.093c-.011-.131-.037-.31-.058-.44-.029-.167-.078-.392-.119-.558-.031-.124-.081-.292-.123-.416-.048-.159-.13-.367-.191-.523-.048-.119-.123-.279-.179-.4-.075-.156-.184-.36-.269-.511-.068-.12-.163-.276-.239-.387-.1-.161-.253-.368-.367-.526-.088-.116-.211-.269-.3-.377-.153-.18-.362-.407-.528-.574-.113-.116-.274-.264-.394-.375a8.433,8.433,0,0,0-.738-.611c-.324-.241-.772-.536-1.112-.752-.291-.171-.684-.39-.984-.541-.259-.13-.608-.3-.878-.4-.491-.2-1.153-.431-1.656-.6-.286-.094-.674-.191-.964-.266s-.657-.152-.941-.206-.664-.126-.951-.163-.677-.1-.969-.116c-.587-.047-1.372-.1-1.963-.108-.3,0-.692,0-.988.011s-.691.04-.986.056-.694.068-.99.1-.674.093-.964.141-.694.131-.988.2c-.317.071-.739.168-1.047.264-.516.159-1.2.393-1.706.582-.312.116-.715.3-1.016.446-.224.108-.516.267-.733.383s-.508.29-.712.43a11.824,11.824,0,0,0-1.092.784c-.148.128-.349.289-.488.423-.176.161-.4.38-.565.554a8.868,8.868,0,0,0-.75.911c-.083.116-.194.272-.27.4-.093.151-.219.347-.3.506s-.188.355-.256.511c-.1.237-.229.563-.316.808-.053.162-.109.387-.149.553-.031.125-.063.3-.086.423-.027.181-.053.425-.07.607-.01.133-.01.312-.013.443,0,2.048,1.319,4.093,3.958,5.682,5.439,3.276,14.442,3.366,20.108.2,2.92-1.628,4.383-3.8,4.377-5.968C701.878,562.519,701.866,562.277,701.849,562.093Z" fill="#82c7d9"/>
              <path id="Trazado_210662" data-name="Trazado 210662" d="M701.906,571.254q-.012-4.28-.025-8.554c.007,2.171-1.457,4.34-4.377,5.968-5.667,3.162-14.669,3.072-20.108-.2-2.639-1.589-3.953-3.633-3.958-5.682q.012,4.278.023,8.553a4.5,4.5,0,0,0,.033.541c.008.116.018.227.03.325.015.135.053.31.076.442.032.164.091.383.138.542.037.125.1.289.138.415.053.157.145.363.214.516.05.12.128.279.189.4.083.156.2.363.292.514.073.116.18.267.254.38.109.168.275.378.4.534.095.116.227.264.323.379.166.189.4.425.583.592.249.226.586.521.855.719.327.244.779.551,1.129.765.287.176.684.385.986.539.212.112.5.241.727.339.284.124.674.276.964.383.252.088.586.2.842.277.286.088.674.191.964.262.272.068.642.148.918.2.867.168,1.565.244,1.94.282.292.03.687.06.983.076s.689.028.984.031c.948.008,1.706-.043,1.99-.068s1.079-.091,1.992-.254c.279-.052.654-.121.933-.184.316-.073.737-.173,1.047-.267.519-.156,1.2-.375,1.706-.579.307-.128.717-.307,1.014-.451.226-.106.521-.259.734-.382.367-.206.84-.511,1.187-.747.174-.113.385-.284.549-.408.216-.166.483-.41.682-.594.126-.116.284-.279.4-.4.148-.151.329-.364.463-.526s.28-.355.388-.516c.156-.224.352-.539.488-.779a4.964,4.964,0,0,0,.259-.508c.066-.159.161-.365.218-.523.084-.246.194-.574.252-.83.042-.188.1-.443.118-.637.015-.118.027-.256.035-.392A4.731,4.731,0,0,0,701.906,571.254Z" fill="#a7d6e7"/>
              <g id="Grupo_148638" data-name="Grupo 148638">
                <g id="Grupo_148637" data-name="Grupo 148637">
                  <path id="Trazado_210663" data-name="Trazado 210663" d="M675.8,585.271q-.015-5.741-.032-11.482c.005,1.715,1.106,3.429,3.32,4.76,4.556,2.742,12.1,2.818,16.848.171,2.443-1.364,3.673-3.182,3.668-5l.031,11.484c.005,1.818-1.221,3.636-3.664,5-4.75,2.648-12.294,2.571-16.852-.17C676.914,588.7,675.811,586.987,675.8,585.271Z" fill="#a7d6e7"/>
                </g>
              </g>
              <path id="Trazado_210664" data-name="Trazado 210664" d="M701.793,588.761c-.015-.144-.043-.337-.068-.483-.03-.185-.085-.425-.131-.608-.033-.139-.091-.323-.133-.46-.055-.176-.144-.4-.211-.574-.055-.133-.136-.31-.2-.44-.08-.171-.2-.392-.292-.558-.075-.13-.178-.3-.257-.42-.113-.176-.274-.4-.4-.568-.093-.126-.224-.287-.327-.407a10.782,10.782,0,0,0-1.725-1.628c-.328-.241-.781-.539-1.127-.762-.287-.166-.676-.383-.973-.531-.254-.13-.6-.289-.86-.4-.474-.189-1.117-.416-1.6-.576-.272-.092-.646-.181-.923-.256s-.629-.143-.9-.2-.634-.119-.9-.154-.641-.09-.92-.11c-.556-.043-1.3-.1-1.86-.1-.282,0-.654,0-.936.012s-.652.037-.933.055-.657.064-.938.093-.639.088-.914.136-.661.119-.941.188c-.3.071-.7.163-1,.252-.5.155-1.159.382-1.647.563-.3.115-.7.3-.992.438-.221.1-.508.259-.721.375s-.508.3-.719.432c-.174.111-.4.267-.568.387a12.992,12.992,0,0,0-1.037.839c-.184.168-.418.407-.591.586-.116.123-.263.292-.372.42-.136.159-.305.383-.428.551-.093.128-.206.3-.292.426-.106.159-.232.383-.325.552s-.2.39-.279.559c-.061.131-.136.307-.188.443-.065.175-.146.41-.2.591-.043.135-.093.322-.123.461-.043.193-.091.448-.12.644a9.546,9.546,0,0,0-.066.969c0,2.028,1.306,4.053,3.922,5.627,5.386,3.245,14.3,3.333,19.917.2,2.888-1.608,4.341-3.761,4.332-5.912C701.821,589.228,701.808,588.961,701.793,588.761Zm-21.641,1.33c-4.015-2.417-3.877-6.268.307-8.6s10.833-2.267,14.848.149,3.879,6.267-.307,8.6S684.167,592.509,680.152,590.091Z" fill="#82c7d9"/>
              <path id="Trazado_210665" data-name="Trazado 210665" d="M701.825,589.424c-.007-2.025-1.306-4.052-3.921-5.625-5.386-3.242-14.3-3.331-19.917-.2-2.889,1.61-4.34,3.761-4.333,5.909q.033,11.893.068,23.779c0,2.03,1.306,4.055,3.919,5.628,5.388,3.238,14.307,3.329,19.92.2,2.888-1.612,4.337-3.76,4.332-5.909Q701.86,601.312,701.825,589.424Z" fill="#a7d6e7"/>
              <path id="Trazado_210666" data-name="Trazado 210666" d="M698.024,574.864l-.69.711.025,9.369.563.642c.037.045.08.09.124.144.071.083.169.2.227.284.118.159.244.335.314.443s.145.231.184.3c.085.151.176.323.227.432s.1.231.134.3c.081.2.133.342.155.407.061.2.086.294.094.323.042.166.08.335.093.427.028.171.042.279.045.315.007.091.015.208.021.327v.02c0,.025,0,.051,0,.08l0,.065.066,23.761c0,1.361-1.15,2.783-3.165,3.909a18.126,18.126,0,0,1-8.685,2h0a17.922,17.922,0,0,1-8.943-2.162c-1.786-1.075-2.813-2.417-2.816-3.678l-.068-23.781c0-.068,0-.141.008-.212l0-.037,0-.035c.01-.216.023-.312.026-.344.021-.133.06-.34.091-.491.017-.071.048-.2.073-.275.043-.133.108-.327.159-.463.03-.076.081-.2.119-.284.067-.146.156-.324.214-.43a3.883,3.883,0,0,1,.216-.364c.025-.042.053-.085.083-.13.049-.075.117-.174.151-.222.13-.176.254-.338.332-.426l.113-.131.559-.649-.028-9.361-.639-.666a1.947,1.947,0,0,1-.148-.161l-.078-.085c-.061-.071-.148-.17-.184-.214-.073-.091-.227-.284-.281-.368-.028-.038-.055-.083-.086-.128s-.1-.146-.121-.182c-.08-.131-.169-.289-.221-.389s-.1-.2-.128-.259-.113-.251-.134-.322c-.013-.04-.028-.085-.045-.129s-.053-.151-.061-.188c-.048-.168-.078-.276-.088-.324s-.016-.095-.028-.146-.022-.108-.025-.14c-.008-.076-.017-.165-.023-.252l0-.037-.005-.043a2.458,2.458,0,0,1-.016-.284l-.02-6.772v-.011c0-.075,0-.148.01-.224.108-1.469,1.26-2.918,3.461-4.038,4.647-2.372,12.211-2.372,16.888,0,1.987,1,3.132,2.274,3.441,3.583a2.283,2.283,0,0,0,.066.4c.005.02.012.037.017.056v.312l.02,6.619a2.362,2.362,0,0,1-.013.259l0,.037,0,.035c-.01.141-.018.229-.023.277,0,.018-.016.123-.08.4a5.8,5.8,0,0,1-.181.583c-.018.048-.075.179-.108.255l-.048.111c-.033.07-.094.2-.139.272-.123.212-.284.475-.4.634-.062.09-.176.241-.272.357C698.239,574.629,698.1,574.783,698.024,574.864Z" fill="#1b8ff0"/>
            </g>
            <g id="Grupo_148640" data-name="Grupo 148640">
              <path id="Trazado_210667" data-name="Trazado 210667" d="M699.606,564.516v.124c0,.063,0,.119-.007.179-.108,1.469-1.263,2.921-3.462,4.04-4.647,2.372-12.209,2.372-16.888,0-2.232-1.13-3.407-2.6-3.515-4.076q-.01-.115-.01-.224v-.011c0-.075,0-.148.01-.224.108-1.469,1.26-2.918,3.461-4.038,4.647-2.372,12.211-2.372,16.888,0,1.987,1,3.132,2.274,3.441,3.583a2.9,2.9,0,0,1,.066.4.752.752,0,0,1,.01.09C699.6,564.413,699.606,564.461,699.606,564.516Z" fill="#1c99ff"/>
            </g>
            <path id="Trazado_210668" data-name="Trazado 210668" d="M701.849,562.093c-.011-.131-.037-.31-.058-.44-.029-.167-.078-.392-.119-.558-.031-.124-.081-.292-.123-.416-.048-.159-.13-.367-.191-.523-.048-.119-.123-.279-.179-.4-.075-.156-.184-.36-.269-.511-.068-.12-.163-.276-.239-.387-.1-.161-.253-.368-.367-.526-.088-.116-.211-.269-.3-.377-.153-.18-.362-.407-.528-.574-.113-.116-.274-.264-.394-.375a8.433,8.433,0,0,0-.738-.611c-.324-.241-.772-.536-1.112-.752-.291-.171-.684-.39-.984-.541-.259-.13-.608-.3-.878-.4-.491-.2-1.153-.431-1.656-.6-.286-.094-.674-.191-.964-.266s-.657-.152-.941-.206-.664-.126-.951-.163-.677-.1-.969-.116c-.587-.047-1.372-.1-1.963-.108-.3,0-.692,0-.988.011s-.691.04-.986.056-.694.068-.99.1-.674.093-.964.141-.694.131-.988.2c-.317.071-.739.168-1.047.264-.516.159-1.2.393-1.706.582-.312.116-.715.3-1.016.446-.224.108-.516.267-.733.383s-.508.29-.712.43a11.824,11.824,0,0,0-1.092.784c-.148.128-.349.289-.488.423-.176.161-.4.38-.565.554a8.868,8.868,0,0,0-.75.911c-.083.116-.194.272-.27.4-.093.151-.219.347-.3.506s-.188.355-.256.511c-.1.237-.229.563-.316.808-.053.162-.109.387-.149.553-.031.125-.063.3-.086.423-.027.181-.053.425-.07.607-.01.133-.01.312-.013.443,0,2.048,1.319,4.093,3.958,5.682,5.439,3.276,14.442,3.366,20.108.2,2.92-1.628,4.383-3.8,4.377-5.968C701.878,562.519,701.866,562.277,701.849,562.093Z" fill="#82c7d9" opacity="0.2"/>
            <g id="Grupo_148641" data-name="Grupo 148641">
              <path id="Trazado_210669" data-name="Trazado 210669" d="M682.575,555.147q-.007-2.906-.017-5.806a2.481,2.481,0,0,0,1.413,2.022,7.9,7.9,0,0,0,7.169.075,2.579,2.579,0,0,0,1.558-2.128h0q.012,2.9.018,5.809a2.582,2.582,0,0,1-1.562,2.128,7.908,7.908,0,0,1-7.167-.076A2.482,2.482,0,0,1,682.575,555.147Z" fill="#82c7d9"/>
            </g>
            <g id="Grupo_148642" data-name="Grupo 148642">
              <path id="Trazado_210670" data-name="Trazado 210670" d="M691.287,547.282c1.938,1.169,1.87,3.026-.148,4.154a7.9,7.9,0,0,1-7.169-.075c-1.939-1.164-1.872-3.024.146-4.149A7.907,7.907,0,0,1,691.287,547.282Z" fill="#f5da7a"/>
            </g>
            <g id="Grupo_148646" data-name="Grupo 148646">
              <g id="Grupo_148645" data-name="Grupo 148645">
                <g id="Grupo_148643" data-name="Grupo 148643">
                  <path id="Trazado_210671" data-name="Trazado 210671" d="M693.685,547.973l-.023,2.706a2.956,2.956,0,0,1-1.733,2.427,9.318,9.318,0,0,1-8.44,0,2.989,2.989,0,0,1-1.761-2.463l.023-2.707a2.986,2.986,0,0,0,1.761,2.463,9.3,9.3,0,0,0,8.438,0A2.97,2.97,0,0,0,693.685,547.973Z" fill="#31404f"/>
                </g>
                <g id="Grupo_148644" data-name="Grupo 148644">
                  <path id="Trazado_210672" data-name="Trazado 210672" d="M691.924,545.51c2.337,1.351,2.349,3.54.026,4.89a9.3,9.3,0,0,1-8.438,0c-2.339-1.35-2.35-3.539-.028-4.89A9.312,9.312,0,0,1,691.924,545.51Z" fill="#3f4e5c"/>
                </g>
              </g>
            </g>
            <path id="Trazado_210673" data-name="Trazado 210673" d="M681.728,609.8a1.827,1.827,0,1,0-1.827,1.829A1.828,1.828,0,0,0,681.728,609.8Z" fill="#1c99ff"/>
            <path id="Trazado_210674" data-name="Trazado 210674" d="M687.061,601.356a1.026,1.026,0,1,0-1.026,1.026A1.024,1.024,0,0,0,687.061,601.356Z" fill="#1c99ff"/>
            <path id="Trazado_210675" data-name="Trazado 210675" d="M695.22,614.151a2.522,2.522,0,1,0-2.523,2.523A2.521,2.521,0,0,0,695.22,614.151Z" fill="#1c99ff"/>
            <path id="Trazado_210676" data-name="Trazado 210676" d="M693.267,584.418a1.49,1.49,0,1,0-1.49,1.489A1.49,1.49,0,0,0,693.267,584.418Z" fill="#1c99ff"/>
            <path id="Trazado_210677" data-name="Trazado 210677" d="M695.22,597.626a1.536,1.536,0,1,0-1.535,1.534A1.535,1.535,0,0,0,695.22,597.626Z" fill="#1c99ff"/>
            <path id="Trazado_210678" data-name="Trazado 210678" d="M681.728,590.091a1.578,1.578,0,1,0-1.577,1.577A1.579,1.579,0,0,0,681.728,590.091Z" fill="#1c99ff"/>
          </g>
          <path id="Trazado_210679" data-name="Trazado 210679" d="M680.759,614.258a1.1,1.1,0,0,1-1.094,1.094h0a1.094,1.094,0,0,1-1.092-1.094V591.183a1.092,1.092,0,0,1,1.092-1.092h0a1.1,1.1,0,0,1,1.094,1.092Z" fill="#a1d3ff"/>
        </g>
      </g>
    </g>
  </g>
</svg>
