<svg xmlns="http://www.w3.org/2000/svg" xmlns:xlink="http://www.w3.org/1999/xlink" width="265.888" height="265.888" viewBox="0 0 265.888 265.888">
  <defs>
    <clipPath id="clip-path">
      <path id="Trazado_211057" data-name="Trazado 211057" d="M726.882,969.208l-.025,4.382c-.026,9.3-6.136,18.578-18.34,25.67-24.568,14.278-64.531,14.278-89.26,0-12.444-7.185-18.659-16.615-18.632-26.032l.025-4.382c-.027,9.416,6.188,18.847,18.632,26.031,24.729,14.277,64.692,14.277,89.26,0C720.746,987.786,726.855,978.5,726.882,969.208Z"/>
    </clipPath>
    <clipPath id="clip-path-2">
      <path id="Trazado_211073" data-name="Trazado 211073" d="M693.708,988.129l0,9.891a.271.271,0,0,1-.158.222.849.849,0,0,1-.771,0,.273.273,0,0,1-.161-.225l0-9.891a.273.273,0,0,0,.161.225.85.85,0,0,0,.771,0A.271.271,0,0,0,693.708,988.129Z"/>
    </clipPath>
    <clipPath id="clip-path-4">
      <path id="Trazado_211086" data-name="Trazado 211086" d="M688.858,970.341l-.01,1.743c-.01,3.7-2.44,10.109-7.294,12.93-9.77,5.678-25.663,5.678-35.5,0-4.948-2.857-7.42-6.608-7.41-10.352l.01-4.464c-.011,3.745,2.461,7.495,7.41,10.352,9.834,5.678,25.727,5.678,35.5,0C686.418,977.729,688.848,974.038,688.858,970.341Z"/>
    </clipPath>
    <clipPath id="clip-path-6">
      <path id="Trazado_211102" data-name="Trazado 211102" d="M667.474,965.654l-.012,7.155a1.846,1.846,0,0,1-1.08,1.511,5.79,5.79,0,0,1-5.254,0,1.859,1.859,0,0,1-1.1-1.532l.012-7.156a1.86,1.86,0,0,0,1.1,1.532,5.789,5.789,0,0,0,5.254,0A1.847,1.847,0,0,0,667.474,965.654Z"/>
    </clipPath>
    <clipPath id="clip-path-7">
      <path id="Trazado_211109" data-name="Trazado 211109" d="M623.743,947.511l0,9.891a.271.271,0,0,1-.159.222.849.849,0,0,1-.771,0,.273.273,0,0,1-.161-.225l0-9.891a.273.273,0,0,0,.161.225.85.85,0,0,0,.771,0A.271.271,0,0,0,623.743,947.511Z"/>
    </clipPath>
    <clipPath id="clip-path-8">
      <path id="Trazado_211116" data-name="Trazado 211116" d="M638.948,956.416l0,9.891a.271.271,0,0,1-.158.222.849.849,0,0,1-.771,0,.273.273,0,0,1-.161-.225l0-9.891a.273.273,0,0,0,.161.225.85.85,0,0,0,.771,0A.271.271,0,0,0,638.948,956.416Z"/>
    </clipPath>
    <clipPath id="clip-path-9">
      <path id="Trazado_211123" data-name="Trazado 211123" d="M631.505,952.041l0,9.891a.271.271,0,0,1-.158.222.851.851,0,0,1-.771,0,.273.273,0,0,1-.161-.225l0-9.891a.273.273,0,0,0,.161.225.849.849,0,0,0,.771,0A.272.272,0,0,0,631.505,952.041Z"/>
    </clipPath>
    <clipPath id="clip-path-10">
      <path id="Trazado_211130" data-name="Trazado 211130" d="M678.5,979.224l0,9.891a.271.271,0,0,1-.158.222.85.85,0,0,1-.771,0,.273.273,0,0,1-.161-.225l0-9.891a.273.273,0,0,0,.161.225.849.849,0,0,0,.771,0A.272.272,0,0,0,678.5,979.224Z"/>
    </clipPath>
    <clipPath id="clip-path-11">
      <path id="Trazado_211137" data-name="Trazado 211137" d="M686.265,983.754l0,9.891a.27.27,0,0,1-.158.222.849.849,0,0,1-.771,0,.273.273,0,0,1-.161-.225l0-9.891a.273.273,0,0,0,.161.225.85.85,0,0,0,.771,0A.272.272,0,0,0,686.265,983.754Z"/>
    </clipPath>
  </defs>
  <g id="Grupo_154382" data-name="Grupo 154382" transform="translate(-672.115 -3232.358)">
    <circle id="Elipse_4725_00000009570309141479303020000013219169873840781964_" cx="132.944" cy="132.944" r="132.944" transform="translate(672.115 3232.358)" fill="#60bfef"/>
    <circle id="Elipse_4726_00000088814902205255763760000005474190606066823810_" cx="111.551" cy="111.551" r="111.551" transform="translate(693.508 3253.752)" fill="#fff"/>
    <g id="Grupo_149091" data-name="Grupo 149091" transform="translate(136 2389.027)">
      <g id="Grupo_148934" data-name="Grupo 148934">
        <g id="Grupo_148933" data-name="Grupo 148933">
          <g id="Grupo_148930" data-name="Grupo 148930">
            <path id="Trazado_211049" data-name="Trazado 211049" d="M769.4,974.521l-.01,3.507L669.38,1036.14l.01-3.5Z" fill="#07792c"/>
          </g>
          <g id="Grupo_148931" data-name="Grupo 148931">
            <path id="Trazado_211050" data-name="Trazado 211050" d="M669.39,1032.64l-.01,3.5L568.723,978.029l.01-3.506Z" fill="#04541b"/>
          </g>
          <g id="Grupo_148932" data-name="Grupo 148932">
            <path id="Trazado_211051" data-name="Trazado 211051" d="M769.4,974.521,669.39,1032.64,568.733,974.523l100-58.116Z" fill="#09a13b"/>
          </g>
        </g>
      </g>
      <path id="Trazado_211052" data-name="Trazado 211052" d="M714.571,945.84c-26.187-15.12-68.507-15.12-94.523,0s-25.88,39.634.308,54.752,68.507,15.12,94.525,0S740.759,960.959,714.571,945.84Z" fill="#bdc4df"/>
      <g id="Grupo_149090" data-name="Grupo 149090">
        <g id="Grupo_148948" data-name="Grupo 148948">
          <g id="Grupo_148947" data-name="Grupo 148947">
            <g id="Grupo_148936" data-name="Grupo 148936">
              <path id="Trazado_211053" data-name="Trazado 211053" d="M726.882,969.208l-.025,4.382c-.026,9.3-6.136,18.578-18.34,25.67-24.568,14.278-64.531,14.278-89.26,0-12.444-7.185-18.659-16.615-18.632-26.032l.025-4.382c-.027,9.416,6.188,18.847,18.632,26.031,24.729,14.277,64.692,14.277,89.26,0C720.746,987.786,726.855,978.5,726.882,969.208Z" fill="#ded8d1"/>
              <g id="Grupo_148935" data-name="Grupo 148935" clip-path="url(#clip-path)">
                <path id="Trazado_211054" data-name="Trazado 211054" d="M726.882,969.208l-.025,4.382c-.016,5.619-2.255,11.233-6.718,16.361l.025-4.382c4.463-5.128,6.7-10.742,6.718-16.361Z" fill="#afbbe8"/>
                <path id="Trazado_211055" data-name="Trazado 211055" d="M720.164,985.569l-.025,4.382a45.739,45.739,0,0,1-11.622,9.309c-8.916,5.181-19.859,8.482-31.366,9.9l.025-4.382c11.507-1.421,22.45-4.722,31.366-9.9a45.738,45.738,0,0,0,11.622-9.309Z" fill="#ded8d1"/>
                <path id="Trazado_211056" data-name="Trazado 211056" d="M677.175,1004.78l-.025,4.382c-20.2,2.494-42.139-.807-57.894-9.9-12.444-7.185-18.659-16.615-18.632-26.032l.025-4.382c-.027,9.416,6.188,18.847,18.632,26.031,15.755,9.093,37.693,12.4,57.894,9.9Z" fill="#afbbe8"/>
              </g>
            </g>
            <g id="Grupo_148946" data-name="Grupo 148946">
              <path id="Trazado_211058" data-name="Trazado 211058" d="M708.249,943.177c24.729,14.277,24.859,37.425.292,51.7s-64.531,14.278-89.26,0-24.859-37.425-.291-51.7S683.521,928.9,708.249,943.177Z" fill="#f2f4fe"/>
              <path id="Trazado_211059" data-name="Trazado 211059" d="M663.952,1000.78a93.254,93.254,0,0,1-21.264-2.394,68.405,68.405,0,0,1-18.6-7.132,37.514,37.514,0,0,1-12.166-10.549,19.006,19.006,0,0,1-.083-23.049,36.967,36.967,0,0,1,11.988-10.469,67.62,67.62,0,0,1,18.51-7.129,95.513,95.513,0,0,1,42.5,0,68.408,68.408,0,0,1,18.6,7.132A37.517,37.517,0,0,1,715.6,957.739a19.006,19.006,0,0,1,.083,23.049A36.961,36.961,0,0,1,703.7,991.257a67.617,67.617,0,0,1-18.511,7.13A92.977,92.977,0,0,1,663.952,1000.78Z" fill="#1b3b58"/>
              <path id="Trazado_211060" data-name="Trazado 211060" d="M686.768,962.655c10.726,6.192,10.782,16.232.127,22.424s-27.989,6.193-38.714,0-10.782-16.232-.126-22.424S676.042,956.463,686.768,962.655Z" fill="#1b3b58" opacity="0.2"/>
              <path id="Trazado_211061" data-name="Trazado 211061" d="M677.606,988.995l.67.387,11.35-6.553-.67-.387Z" fill="#1b3b58" opacity="0.2"/>
              <path id="Trazado_211062" data-name="Trazado 211062" d="M685.427,993.476l.671.387,11.35-6.553-.671-.387Z" fill="#1b3b58" opacity="0.2"/>
              <path id="Trazado_211063" data-name="Trazado 211063" d="M692.872,997.848l.671.387,11.349-6.552-.67-.388Z" fill="#1b3b58" opacity="0.2"/>
              <path id="Trazado_211064" data-name="Trazado 211064" d="M717.964,961.916a43.694,43.694,0,0,0-8.08-5.889,68.435,68.435,0,0,0-18.6-7.132,95.523,95.523,0,0,0-42.5,0,67.58,67.58,0,0,0-18.511,7.13,36.975,36.975,0,0,0-11.989,10.468,19.86,19.86,0,0,0-3.851,11.482,18.567,18.567,0,0,0,1.574,7.39,30.337,30.337,0,0,1-4.087-4.659,19,19,0,0,1-.083-23.05,36.963,36.963,0,0,1,11.988-10.469,67.616,67.616,0,0,1,18.511-7.128,95.477,95.477,0,0,1,42.5,0,68.364,68.364,0,0,1,18.6,7.132A37.5,37.5,0,0,1,715.6,957.739,23.3,23.3,0,0,1,717.964,961.916Z" fill="#1b3b58" opacity="0.2"/>
              <path id="Trazado_211065" data-name="Trazado 211065" d="M622.715,957.329l.67.387,11.35-6.554-.67-.386Z" fill="#1b3b58" opacity="0.2"/>
              <path id="Trazado_211066" data-name="Trazado 211066" d="M630.536,961.81l.671.387,11.35-6.553-.671-.387Z" fill="#1b3b58" opacity="0.2"/>
              <path id="Trazado_211067" data-name="Trazado 211067" d="M637.981,966.182l.671.387L650,960.016l-.67-.387Z" fill="#1b3b58" opacity="0.2"/>
              <g id="Grupo_148941" data-name="Grupo 148941">
                <g id="Grupo_148940" data-name="Grupo 148940">
                  <g id="Grupo_148938" data-name="Grupo 148938">
                    <g id="Grupo_148937" data-name="Grupo 148937" clip-path="url(#clip-path-2)">
                      <path id="Trazado_211068" data-name="Trazado 211068" d="M693.708,988.129l0,9.89v.009l0-9.891Z" fill="#5a4b66"/>
                      <path id="Trazado_211069" data-name="Trazado 211069" d="M693.708,988.137l0,9.891a.215.215,0,0,1-.05.124l0-9.891a.22.22,0,0,0,.05-.124Z" fill="#3d2d4a"/>
                      <path id="Trazado_211070" data-name="Trazado 211070" d="M693.657,988.261l0,9.891a.388.388,0,0,1-.108.09.745.745,0,0,1-.3.089l0-9.891a.738.738,0,0,0,.3-.089.365.365,0,0,0,.108-.09Z" fill="#3d2d4a"/>
                      <path id="Trazado_211071" data-name="Trazado 211071" d="M693.245,988.44l0,9.891a.935.935,0,0,1-.22-.007l0-9.891a1.02,1.02,0,0,0,.22.007Z" fill="#3d2d4a"/>
                      <path id="Trazado_211072" data-name="Trazado 211072" d="M693.025,988.433l0,9.891a.71.71,0,0,1-.246-.082.273.273,0,0,1-.161-.225l0-9.891a.273.273,0,0,0,.161.225.708.708,0,0,0,.246.082Z" fill="#5a4b66"/>
                    </g>
                  </g>
                  <g id="Grupo_148939" data-name="Grupo 148939">
                    <path id="Trazado_211074" data-name="Trazado 211074" d="M693.547,987.9a.236.236,0,0,1,0,.446.85.85,0,0,1-.771,0,.236.236,0,0,1,0-.446A.851.851,0,0,1,693.547,987.9Z" fill="#9b9895"/>
                  </g>
                </g>
              </g>
              <path id="Trazado_211075" data-name="Trazado 211075" d="M719.538,969.3a17.767,17.767,0,0,1-.206,2.726,20.911,20.911,0,0,0-3.729-8.9,37.52,37.52,0,0,0-12.166-10.55,68.445,68.445,0,0,0-18.6-7.131,95.519,95.519,0,0,0-42.5,0,67.613,67.613,0,0,0-18.51,7.13,36.967,36.967,0,0,0-11.989,10.469,20.742,20.742,0,0,0-3.646,8.76,17.89,17.89,0,0,1-.206-2.676,19.857,19.857,0,0,1,3.852-11.482,36.972,36.972,0,0,1,11.989-10.469,67.617,67.617,0,0,1,18.51-7.129,95.523,95.523,0,0,1,42.5,0,68.434,68.434,0,0,1,18.6,7.132,37.518,37.518,0,0,1,12.166,10.55A20,20,0,0,1,719.538,969.3Z" fill="#afbbe8"/>
              <g id="Grupo_148945" data-name="Grupo 148945">
                <g id="Grupo_148944" data-name="Grupo 148944">
                  <g id="Grupo_148943" data-name="Grupo 148943">
                    <path id="Trazado_211076" data-name="Trazado 211076" d="M726.882,969.208l-.025,4.382c-.026,9.3-6.136,18.578-18.34,25.67-24.568,14.278-64.531,14.278-89.26,0-12.444-7.185-18.659-16.615-18.632-26.032l.025-4.382c-.027,9.416,6.188,18.847,18.632,26.031,24.729,14.277,64.692,14.277,89.26,0C720.746,987.786,726.855,978.5,726.882,969.208Z" fill="#ded8d1"/>
                    <g id="Grupo_148942" data-name="Grupo 148942" clip-path="url(#clip-path)">
                      <path id="Trazado_211077" data-name="Trazado 211077" d="M726.882,969.208l-.025,4.382c-.016,5.619-2.255,11.233-6.718,16.361l.025-4.382c4.463-5.128,6.7-10.742,6.718-16.361Z" fill="#afbbe8"/>
                      <path id="Trazado_211078" data-name="Trazado 211078" d="M720.164,985.569l-.025,4.382a45.739,45.739,0,0,1-11.622,9.309c-8.916,5.181-19.859,8.482-31.366,9.9l.025-4.382c11.507-1.421,22.45-4.722,31.366-9.9a45.738,45.738,0,0,0,11.622-9.309Z" fill="#bdc4df"/>
                      <path id="Trazado_211079" data-name="Trazado 211079" d="M677.175,1004.78l-.025,4.382c-20.2,2.494-42.139-.807-57.894-9.9-12.444-7.185-18.659-16.615-18.632-26.032l.025-4.382c-.027,9.416,6.188,18.847,18.632,26.031,15.755,9.093,37.693,12.4,57.894,9.9Z" fill="#dae0f4"/>
                    </g>
                  </g>
                </g>
              </g>
              <path id="Trazado_211081" data-name="Trazado 211081" d="M708.25,943.177c-24.729-14.278-64.692-14.278-89.259,0s-24.439,37.426.291,51.7,64.691,14.278,89.26,0S732.978,957.454,708.25,943.177Zm7.437,37.609A36.952,36.952,0,0,1,703.7,991.255a67.6,67.6,0,0,1-18.511,7.13,95.479,95.479,0,0,1-42.5,0,68.369,68.369,0,0,1-18.6-7.132A37.506,37.506,0,0,1,611.926,980.7a19.005,19.005,0,0,1-.083-23.049,36.972,36.972,0,0,1,11.989-10.469,67.624,67.624,0,0,1,18.51-7.129,95.523,95.523,0,0,1,42.5,0,68.436,68.436,0,0,1,18.6,7.132,37.518,37.518,0,0,1,12.166,10.55,19,19,0,0,1,.083,23.048Z" fill="#f2f4fe"/>
            </g>
          </g>
        </g>
        <g id="Grupo_148957" data-name="Grupo 148957">
          <g id="Grupo_148956" data-name="Grupo 148956">
            <g id="Grupo_148950" data-name="Grupo 148950">
              <path id="Trazado_211082" data-name="Trazado 211082" d="M688.858,970.341l-.01,1.743c-.01,3.7-2.44,10.109-7.294,12.93-9.77,5.678-25.663,5.678-35.5,0-4.948-2.857-7.42-6.608-7.41-10.352l.01-4.464c-.011,3.745,2.461,7.495,7.41,10.352,9.834,5.678,25.727,5.678,35.5,0C686.418,977.729,688.848,974.038,688.858,970.341Z" fill="#ded8d1"/>
              <g id="Grupo_148949" data-name="Grupo 148949" clip-path="url(#clip-path-4)">
                <path id="Trazado_211083" data-name="Trazado 211083" d="M688.858,970.341l-.01,1.743c-.006,2.235-.9,7.188-2.672,9.228l.01-4.464a9.932,9.932,0,0,0,2.672-6.506Z" fill="#afbbe8"/>
                <path id="Trazado_211084" data-name="Trazado 211084" d="M686.187,976.847l-.01,4.464a18.19,18.19,0,0,1-4.622,3.7,33.141,33.141,0,0,1-12.474,3.938l.01-4.464a33.143,33.143,0,0,0,12.474-3.938,18.193,18.193,0,0,0,4.622-3.7Z" fill="#ded8d1"/>
                <path id="Trazado_211085" data-name="Trazado 211085" d="M669.091,984.488l-.01,4.464c-8.034.992-16.758-.321-23.023-3.938-4.948-2.857-7.42-6.608-7.41-10.352l.01-4.464c-.011,3.745,2.461,7.495,7.41,10.352,6.265,3.617,14.989,4.93,23.023,3.938Z" fill="#afbbe8"/>
              </g>
            </g>
            <g id="Grupo_148955" data-name="Grupo 148955">
              <path id="Trazado_211087" data-name="Trazado 211087" d="M681.448,959.989c9.834,5.678,9.886,14.883.116,20.561s-25.663,5.678-35.5,0-9.886-14.883-.116-20.561S671.614,954.311,681.448,959.989Z" fill="#f2f4fe"/>
              <path id="Trazado_211088" data-name="Trazado 211088" d="M680.583,960.491c9.354,5.4,9.4,14.156.11,19.555s-24.408,5.4-33.761,0-9.4-14.156-.11-19.556S671.23,955.091,680.583,960.491Z" fill="#bdc4df"/>
              <path id="Trazado_211089" data-name="Trazado 211089" d="M687.508,971.719c-.538-3.074-2.848-6.065-6.925-8.419-9.353-5.4-24.469-5.4-33.76,0-4.011,2.331-6.282,5.287-6.815,8.328-.7-3.977,1.572-8.091,6.815-11.138,9.292-5.4,24.407-5.4,33.76,0C685.9,963.56,688.21,967.714,687.508,971.719Z" fill="#a1acd4"/>
              <path id="Trazado_211090" data-name="Trazado 211090" d="M672.4,965.247c4.8,2.774,4.83,7.271.057,10.045s-12.537,2.774-17.342,0-4.83-7.271-.056-10.045S667.6,962.473,672.4,965.247Z" fill="#1b3b58"/>
              <path id="Trazado_211091" data-name="Trazado 211091" d="M675.547,972.25a7.618,7.618,0,0,0-3.147-3.087c-4.8-2.774-12.568-2.774-17.341,0a7.524,7.524,0,0,0-3.089,3.042c-1.181-2.395-.153-5.073,3.089-6.959,4.774-2.773,12.538-2.773,17.341,0C675.685,967.143,676.735,969.845,675.547,972.25Z" fill="#a1acd4"/>
              <g id="Grupo_148954" data-name="Grupo 148954">
                <g id="Grupo_148953" data-name="Grupo 148953">
                  <g id="Grupo_148952" data-name="Grupo 148952">
                    <path id="Trazado_211092" data-name="Trazado 211092" d="M688.858,970.341l-.01,1.743c-.01,3.7-2.44,10.109-7.294,12.93-9.77,5.678-25.663,5.678-35.5,0-4.948-2.857-7.42-6.608-7.41-10.352l.01-4.464c-.011,3.745,2.461,7.495,7.41,10.352,9.834,5.678,25.727,5.678,35.5,0C686.418,977.729,688.848,974.038,688.858,970.341Z" fill="#ded8d1"/>
                    <g id="Grupo_148951" data-name="Grupo 148951" clip-path="url(#clip-path-4)">
                      <path id="Trazado_211093" data-name="Trazado 211093" d="M688.858,970.341l-.01,4.464a9.937,9.937,0,0,1-2.672,6.506l.01-4.464a9.933,9.933,0,0,0,2.672-6.506Z" fill="#afbbe8"/>
                      <path id="Trazado_211094" data-name="Trazado 211094" d="M686.187,976.847l-.01,4.464a18.19,18.19,0,0,1-4.622,3.7,33.141,33.141,0,0,1-12.474,3.938l.01-4.464a33.143,33.143,0,0,0,12.474-3.938,18.193,18.193,0,0,0,4.622-3.7Z" fill="#bdc4df"/>
                      <path id="Trazado_211095" data-name="Trazado 211095" d="M669.091,984.488l-.01,4.464c-8.034.992-16.758-.321-23.023-3.938-4.948-2.857-7.42-6.608-7.41-10.352l.01-4.464c-.011,3.745,2.461,7.495,7.41,10.352,6.265,3.617,14.989,4.93,23.023,3.938Z" fill="#dae0f4"/>
                    </g>
                  </g>
                </g>
              </g>
            </g>
          </g>
        </g>
        <g id="Grupo_148962" data-name="Grupo 148962">
          <g id="Grupo_148961" data-name="Grupo 148961">
            <g id="Grupo_148959" data-name="Grupo 148959">
              <g id="Grupo_148958" data-name="Grupo 148958" clip-path="url(#clip-path-6)">
                <path id="Trazado_211097" data-name="Trazado 211097" d="M667.474,965.654l-.012,7.155c0,.018,0,.037,0,.055l.012-7.156c0-.019,0-.037,0-.055Z" fill="#5a4b66"/>
                <path id="Trazado_211098" data-name="Trazado 211098" d="M667.473,965.708l-.012,7.156a1.458,1.458,0,0,1-.34.843l.012-7.155a1.465,1.465,0,0,0,.34-.843Z" fill="#3d2d4a"/>
                <path id="Trazado_211099" data-name="Trazado 211099" d="M667.133,966.552l-.012,7.155a2.617,2.617,0,0,1-.739.613,5.046,5.046,0,0,1-2.077.607l.012-7.156a5.044,5.044,0,0,0,2.077-.607,2.607,2.607,0,0,0,.738-.613Z" fill="#3d2d4a"/>
                <path id="Trazado_211100" data-name="Trazado 211100" d="M664.317,967.772l-.012,7.156a6.406,6.406,0,0,1-1.5-.048l.012-7.155a6.41,6.41,0,0,0,1.5.048Z" fill="#3d2d4a"/>
                <path id="Trazado_211101" data-name="Trazado 211101" d="M662.819,967.724l-.012,7.155a4.849,4.849,0,0,1-1.678-.559,1.859,1.859,0,0,1-1.1-1.532l.012-7.156a1.86,1.86,0,0,0,1.1,1.532,4.862,4.862,0,0,0,1.678.559Z" fill="#5a4b66"/>
              </g>
            </g>
            <g id="Grupo_148960" data-name="Grupo 148960">
              <path id="Trazado_211103" data-name="Trazado 211103" d="M666.377,964.122c1.456.84,1.463,2.2.017,3.043a5.789,5.789,0,0,1-5.254,0c-1.455-.84-1.463-2.2-.017-3.043A5.785,5.785,0,0,1,666.377,964.122Z" fill="#9b9895"/>
            </g>
          </g>
        </g>
        <g id="Grupo_148967" data-name="Grupo 148967">
          <g id="Grupo_148966" data-name="Grupo 148966">
            <g id="Grupo_148964" data-name="Grupo 148964">
              <g id="Grupo_148963" data-name="Grupo 148963" clip-path="url(#clip-path-7)">
                <path id="Trazado_211104" data-name="Trazado 211104" d="M623.743,947.511v0Z" fill="#5a4b66"/>
                <path id="Trazado_211105" data-name="Trazado 211105" d="M623.743,947.519l0,9.891a.214.214,0,0,1-.05.124l0-9.891a.211.211,0,0,0,.05-.123Z" fill="#3d2d4a"/>
                <path id="Trazado_211106" data-name="Trazado 211106" d="M623.693,947.642l0,9.891a.383.383,0,0,1-.108.09.737.737,0,0,1-.3.089l0-9.891a.738.738,0,0,0,.3-.089.365.365,0,0,0,.108-.09Z" fill="#3d2d4a"/>
                <path id="Trazado_211107" data-name="Trazado 211107" d="M623.28,947.821l0,9.891a.945.945,0,0,1-.22-.007l0-9.891a.889.889,0,0,0,.22.007Z" fill="#3d2d4a"/>
                <path id="Trazado_211108" data-name="Trazado 211108" d="M623.06,947.814l0,9.891a.708.708,0,0,1-.246-.082.273.273,0,0,1-.161-.225l0-9.891a.273.273,0,0,0,.161.225.7.7,0,0,0,.246.082Z" fill="#5a4b66"/>
              </g>
            </g>
            <g id="Grupo_148965" data-name="Grupo 148965">
              <path id="Trazado_211110" data-name="Trazado 211110" d="M623.583,947.286a.236.236,0,0,1,0,.447.85.85,0,0,1-.771,0,.236.236,0,0,1,0-.447A.851.851,0,0,1,623.583,947.286Z" fill="#9b9895"/>
            </g>
          </g>
        </g>
        <g id="Grupo_148972" data-name="Grupo 148972">
          <g id="Grupo_148971" data-name="Grupo 148971">
            <g id="Grupo_148969" data-name="Grupo 148969">
              <g id="Grupo_148968" data-name="Grupo 148968" clip-path="url(#clip-path-8)">
                <path id="Trazado_211111" data-name="Trazado 211111" d="M638.948,956.416l0,9.891v.008l0-9.891Z" fill="#5a4b66"/>
                <path id="Trazado_211112" data-name="Trazado 211112" d="M638.948,956.424l0,9.891a.214.214,0,0,1-.05.124l0-9.891a.218.218,0,0,0,.05-.124Z" fill="#3d2d4a"/>
                <path id="Trazado_211113" data-name="Trazado 211113" d="M638.9,956.548l0,9.891a.378.378,0,0,1-.108.09.74.74,0,0,1-.3.089l0-9.891a.738.738,0,0,0,.3-.089.409.409,0,0,0,.108-.09Z" fill="#3d2d4a"/>
                <path id="Trazado_211114" data-name="Trazado 211114" d="M638.485,956.727l0,9.891a.934.934,0,0,1-.22-.007l0-9.891a1.02,1.02,0,0,0,.22.007Z" fill="#3d2d4a"/>
                <path id="Trazado_211115" data-name="Trazado 211115" d="M638.265,956.72l0,9.891a.711.711,0,0,1-.246-.082.273.273,0,0,1-.161-.225l0-9.891a.273.273,0,0,0,.161.225.706.706,0,0,0,.246.082Z" fill="#5a4b66"/>
              </g>
            </g>
            <g id="Grupo_148970" data-name="Grupo 148970">
              <path id="Trazado_211117" data-name="Trazado 211117" d="M638.787,956.191a.236.236,0,0,1,0,.447.85.85,0,0,1-.771,0,.236.236,0,0,1,0-.447A.852.852,0,0,1,638.787,956.191Z" fill="#9b9895"/>
            </g>
          </g>
        </g>
        <g id="Grupo_148977" data-name="Grupo 148977">
          <g id="Grupo_148976" data-name="Grupo 148976">
            <g id="Grupo_148974" data-name="Grupo 148974">
              <g id="Grupo_148973" data-name="Grupo 148973" clip-path="url(#clip-path-9)">
                <path id="Trazado_211118" data-name="Trazado 211118" d="M631.505,952.041l0,9.891v.008l0-9.891Z" fill="#5a4b66"/>
                <path id="Trazado_211119" data-name="Trazado 211119" d="M631.505,952.049l0,9.891a.213.213,0,0,1-.05.124l0-9.891a.219.219,0,0,0,.05-.124Z" fill="#3d2d4a"/>
                <path id="Trazado_211120" data-name="Trazado 211120" d="M631.455,952.173l0,9.891a.384.384,0,0,1-.108.09.742.742,0,0,1-.3.089l0-9.891a.738.738,0,0,0,.3-.089.39.39,0,0,0,.108-.09Z" fill="#3d2d4a"/>
                <path id="Trazado_211121" data-name="Trazado 211121" d="M631.042,952.352l0,9.891a.942.942,0,0,1-.22-.007l0-9.891a1,1,0,0,0,.22.007Z" fill="#3d2d4a"/>
                <path id="Trazado_211122" data-name="Trazado 211122" d="M630.822,952.344l0,9.891a.719.719,0,0,1-.246-.082.273.273,0,0,1-.161-.225l0-9.891a.273.273,0,0,0,.161.225.68.68,0,0,0,.246.082Z" fill="#5a4b66"/>
              </g>
            </g>
            <g id="Grupo_148975" data-name="Grupo 148975">
              <path id="Trazado_211124" data-name="Trazado 211124" d="M631.344,951.816a.236.236,0,0,1,0,.446.849.849,0,0,1-.771,0,.236.236,0,0,1,0-.446A.852.852,0,0,1,631.344,951.816Z" fill="#9b9895"/>
            </g>
          </g>
        </g>
        <g id="Grupo_148982" data-name="Grupo 148982">
          <g id="Grupo_148981" data-name="Grupo 148981">
            <g id="Grupo_148979" data-name="Grupo 148979">
              <g id="Grupo_148978" data-name="Grupo 148978" clip-path="url(#clip-path-10)">
                <path id="Trazado_211125" data-name="Trazado 211125" d="M678.5,979.224v0Z" fill="#5a4b66"/>
                <path id="Trazado_211126" data-name="Trazado 211126" d="M678.5,979.232l0,9.891a.214.214,0,0,1-.05.124l0-9.891a.213.213,0,0,0,.05-.124Z" fill="#3d2d4a"/>
                <path id="Trazado_211127" data-name="Trazado 211127" d="M678.453,979.356l0,9.891a.381.381,0,0,1-.108.09.744.744,0,0,1-.3.089l0-9.891a.741.741,0,0,0,.3-.089.393.393,0,0,0,.108-.09Z" fill="#3d2d4a"/>
                <path id="Trazado_211128" data-name="Trazado 211128" d="M678.04,979.534l0,9.891a.943.943,0,0,1-.22-.007l0-9.891a.885.885,0,0,0,.22.007Z" fill="#3d2d4a"/>
                <path id="Trazado_211129" data-name="Trazado 211129" d="M677.82,979.527l0,9.891a.72.72,0,0,1-.246-.082.273.273,0,0,1-.161-.225l0-9.891a.273.273,0,0,0,.161.225.7.7,0,0,0,.246.082Z" fill="#5a4b66"/>
              </g>
            </g>
            <g id="Grupo_148980" data-name="Grupo 148980">
              <path id="Trazado_211131" data-name="Trazado 211131" d="M678.343,979a.236.236,0,0,1,0,.446.849.849,0,0,1-.771,0,.236.236,0,0,1,0-.446A.845.845,0,0,1,678.343,979Z" fill="#9b9895"/>
            </g>
          </g>
        </g>
        <g id="Grupo_148987" data-name="Grupo 148987">
          <g id="Grupo_148986" data-name="Grupo 148986">
            <g id="Grupo_148984" data-name="Grupo 148984">
              <g id="Grupo_148983" data-name="Grupo 148983" clip-path="url(#clip-path-11)">
                <path id="Trazado_211132" data-name="Trazado 211132" d="M686.265,983.754l0,9.891v.008l0-9.891Z" fill="#5a4b66"/>
                <path id="Trazado_211133" data-name="Trazado 211133" d="M686.265,983.762l0,9.891a.216.216,0,0,1-.05.124l0-9.891a.22.22,0,0,0,.05-.124Z" fill="#3d2d4a"/>
                <path id="Trazado_211134" data-name="Trazado 211134" d="M686.215,983.886l0,9.891a.379.379,0,0,1-.109.09.74.74,0,0,1-.3.089l0-9.891a.739.739,0,0,0,.3-.089.4.4,0,0,0,.108-.09Z" fill="#3d2d4a"/>
                <path id="Trazado_211135" data-name="Trazado 211135" d="M685.8,984.065l0,9.891a.934.934,0,0,1-.22-.007l0-9.891a1.009,1.009,0,0,0,.22.007Z" fill="#3d2d4a"/>
                <path id="Trazado_211136" data-name="Trazado 211136" d="M685.582,984.058l0,9.891a.708.708,0,0,1-.246-.082.273.273,0,0,1-.161-.225l0-9.891a.273.273,0,0,0,.161.225.725.725,0,0,0,.246.082Z" fill="#5a4b66"/>
              </g>
            </g>
            <g id="Grupo_148985" data-name="Grupo 148985">
              <path id="Trazado_211138" data-name="Trazado 211138" d="M686.1,983.529a.236.236,0,0,1,0,.446.85.85,0,0,1-.771,0,.236.236,0,0,1,0-.446A.852.852,0,0,1,686.1,983.529Z" fill="#9b9895"/>
            </g>
          </g>
        </g>
        <path id="Trazado_211139" data-name="Trazado 211139" d="M665.9,971.829l-.441-.255-11.036,6.414h0l-3.175-1.833,10.645-6.186v-.453l-.441-.255-11.036,6.414-.867-.5-.438.255v.453l.477.275-1.873,1.089-.867-.5-.438.255v.453l.477.275-1.483.929v.453l.441.255,1.875-1.156,3.175,1.833-1.325.77v.453l.441.255,1.717-1,1.271.734.438-.254v-.453l-.881-.509,1.873-1.089h0l1.271.734.438-.255v-.453l-.881-.509,10.645-6.186Zm-17.355,5.9,1.873-1.089,3.175,1.833-1.873,1.089Z" fill="#1b3b58" opacity="0.2"/>
        <g id="Grupo_149024" data-name="Grupo 149024">
          <g id="Grupo_149001" data-name="Grupo 149001">
            <g id="Grupo_148988" data-name="Grupo 148988">
              <path id="Trazado_211140" data-name="Trazado 211140" d="M659.641,969.077v.452L648.6,975.943v-.453Z" fill="#4b4048"/>
            </g>
            <g id="Grupo_148989" data-name="Grupo 148989">
              <path id="Trazado_211141" data-name="Trazado 211141" d="M648.6,975.49v.453l-.441-.255v-.453Z" fill="#312a2f"/>
            </g>
            <g id="Grupo_148990" data-name="Grupo 148990">
              <path id="Trazado_211142" data-name="Trazado 211142" d="M659.2,968.822l.441.255L648.6,975.49l-.441-.255Z" fill="#4a3f47"/>
            </g>
            <g id="Grupo_148991" data-name="Grupo 148991">
              <path id="Trazado_211143" data-name="Trazado 211143" d="M647.725,975.49v.453l-.867-.5v-.452Z" fill="#312a2f"/>
            </g>
            <g id="Grupo_148992" data-name="Grupo 148992">
              <path id="Trazado_211144" data-name="Trazado 211144" d="M648.167,975.745l0,.453-.441-.255v-.453Z" fill="#312a2f"/>
            </g>
            <g id="Grupo_148993" data-name="Grupo 148993">
              <path id="Trazado_211145" data-name="Trazado 211145" d="M663.206,971.135l.441.255L652.611,977.8l-.442-.254Z" fill="#4a3f47"/>
            </g>
            <g id="Grupo_148994" data-name="Grupo 148994">
              <path id="Trazado_211146" data-name="Trazado 211146" d="M652.611,977.8l0,.453-.441-.254v-.453Z" fill="#312a2f"/>
            </g>
            <g id="Grupo_148995" data-name="Grupo 148995">
              <path id="Trazado_211147" data-name="Trazado 211147" d="M663.647,971.39v.453l-11.037,6.413,0-.453Z" fill="#4b4048"/>
            </g>
            <g id="Grupo_148996" data-name="Grupo 148996">
              <path id="Trazado_211148" data-name="Trazado 211148" d="M651.732,977.8l0,.453-3.565-2.058,0-.453Z" fill="#312a2f"/>
            </g>
            <g id="Grupo_148997" data-name="Grupo 148997">
              <path id="Trazado_211149" data-name="Trazado 211149" d="M652.173,978.058v.453l-.442-.255,0-.453Z" fill="#312a2f"/>
            </g>
            <g id="Grupo_148998" data-name="Grupo 148998">
              <path id="Trazado_211150" data-name="Trazado 211150" d="M653.444,978.792v.453l-1.271-.734v-.453Z" fill="#312a2f"/>
            </g>
            <g id="Grupo_148999" data-name="Grupo 148999">
              <path id="Trazado_211151" data-name="Trazado 211151" d="M653.882,978.537v.453l-.438.255v-.453Z" fill="#4b4048"/>
            </g>
            <g id="Grupo_149000" data-name="Grupo 149000">
              <path id="Trazado_211152" data-name="Trazado 211152" d="M653.882,978.537l-.438.255-1.271-.734-.441-.255-3.565-2.058-.442-.255-.867-.5.438-.255.867.5.441.255,3.565,2.059.442.254Z" fill="#4a3f47"/>
            </g>
          </g>
          <g id="Grupo_149015" data-name="Grupo 149015">
            <g id="Grupo_149002" data-name="Grupo 149002">
              <path id="Trazado_211153" data-name="Trazado 211153" d="M648.167,975.745l0,.453-2.264,1.315v-.452Z" fill="#4b4048"/>
            </g>
            <g id="Grupo_149003" data-name="Grupo 149003">
              <path id="Trazado_211154" data-name="Trazado 211154" d="M645.9,977.061v.452l-.442-.254,0-.453Z" fill="#312a2f"/>
            </g>
            <g id="Grupo_149004" data-name="Grupo 149004">
              <path id="Trazado_211155" data-name="Trazado 211155" d="M645.461,976.806l2.264-1.316.442.255-2.265,1.316Z" fill="#4a3f47"/>
            </g>
            <g id="Grupo_149005" data-name="Grupo 149005">
              <path id="Trazado_211156" data-name="Trazado 211156" d="M645.023,977.06l0,.453-.867-.5,0-.453Z" fill="#312a2f"/>
            </g>
            <g id="Grupo_149006" data-name="Grupo 149006">
              <path id="Trazado_211157" data-name="Trazado 211157" d="M645.464,977.315v.453l-.442-.255,0-.453Z" fill="#312a2f"/>
            </g>
            <g id="Grupo_149007" data-name="Grupo 149007">
              <path id="Trazado_211158" data-name="Trazado 211158" d="M649.467,979.119l2.265-1.316.441.255-2.265,1.316Z" fill="#4a3f47"/>
            </g>
            <g id="Grupo_149008" data-name="Grupo 149008">
              <path id="Trazado_211159" data-name="Trazado 211159" d="M649.908,979.374v.453l-.441-.255v-.453Z" fill="#312a2f"/>
            </g>
            <g id="Grupo_149009" data-name="Grupo 149009">
              <path id="Trazado_211160" data-name="Trazado 211160" d="M652.173,978.058v.453l-2.265,1.316v-.453Z" fill="#4b4048"/>
            </g>
            <g id="Grupo_149010" data-name="Grupo 149010">
              <path id="Trazado_211161" data-name="Trazado 211161" d="M649.029,979.373v.453l-3.565-2.058v-.453Z" fill="#312a2f"/>
            </g>
            <g id="Grupo_149011" data-name="Grupo 149011">
              <path id="Trazado_211162" data-name="Trazado 211162" d="M649.471,979.628l0,.453-.441-.255v-.453Z" fill="#312a2f"/>
            </g>
            <g id="Grupo_149012" data-name="Grupo 149012">
              <path id="Trazado_211163" data-name="Trazado 211163" d="M650.742,980.362v.453l-1.272-.734,0-.453Z" fill="#312a2f"/>
            </g>
            <g id="Grupo_149013" data-name="Grupo 149013">
              <path id="Trazado_211164" data-name="Trazado 211164" d="M651.18,980.108l0,.453-.437.254v-.453Z" fill="#4b4048"/>
            </g>
            <g id="Grupo_149014" data-name="Grupo 149014">
              <path id="Trazado_211165" data-name="Trazado 211165" d="M651.18,980.108l-.438.254-1.271-.734-.442-.255-3.565-2.058-.441-.255-.867-.5.438-.255.867.5.441.255,3.565,2.058.441.255Z" fill="#4a3f47"/>
            </g>
          </g>
          <g id="Grupo_149019" data-name="Grupo 149019">
            <g id="Grupo_149016" data-name="Grupo 149016">
              <path id="Trazado_211166" data-name="Trazado 211166" d="M645.464,977.315v.453l-1.717,1v-.453Z" fill="#4b4048"/>
            </g>
            <g id="Grupo_149017" data-name="Grupo 149017">
              <path id="Trazado_211167" data-name="Trazado 211167" d="M643.747,978.313v.453l-.441-.255v-.453Z" fill="#312a2f"/>
            </g>
            <g id="Grupo_149018" data-name="Grupo 149018">
              <path id="Trazado_211168" data-name="Trazado 211168" d="M643.306,978.058l1.717-1,.441.255-1.717,1Z" fill="#4a3f47"/>
            </g>
          </g>
          <g id="Grupo_149023" data-name="Grupo 149023">
            <g id="Grupo_149020" data-name="Grupo 149020">
              <path id="Trazado_211169" data-name="Trazado 211169" d="M649.471,979.628l0,.453-1.717,1v-.453Z" fill="#4b4048"/>
            </g>
            <g id="Grupo_149021" data-name="Grupo 149021">
              <path id="Trazado_211170" data-name="Trazado 211170" d="M647.753,980.626v.453l-.441-.255v-.453Z" fill="#312a2f"/>
            </g>
            <g id="Grupo_149022" data-name="Grupo 149022">
              <path id="Trazado_211171" data-name="Trazado 211171" d="M647.312,980.371l1.717-1,.442.255-1.718,1Z" fill="#4a3f47"/>
            </g>
          </g>
        </g>
        <path id="Trazado_211172" data-name="Trazado 211172" d="M713.54,985.277l.013-4.52,0-.8-78.687-45.43-.415.241,0,.8-.013,4.506-3.479,2.009-1.249-.721v7.154l74.916,43.252,8.929-5.156,0-1.329Zm-75.751-43.735-2.434-1.405.011-4.041L637.8,937.5Zm3.351,1.935-2.435-1.406.011-4.041,2.435,1.406Zm3.35,1.934-2.434-1.405.011-4.041,2.434,1.405Zm3.35,1.934-2.434-1.405.011-4.041,2.434,1.406Zm3.351,1.935-2.435-1.406.012-4.041,2.435,1.406Zm3.35,1.934-2.434-1.405.011-4.041,2.434,1.405Zm3.35,1.934-2.434-1.405.011-4.041,2.434,1.405Zm3.351,1.935-2.435-1.406.011-4.041,2.435,1.406Zm3.35,1.934-2.434-1.406.011-4.041,2.434,1.405Zm3.35,1.934-2.434-1.405.012-4.041,2.434,1.405Zm3.351,1.934-2.435-1.406.011-4.041,2.435,1.406Zm3.35,1.934-2.434-1.405.011-4.041,2.434,1.405Zm3.35,1.934-2.434-1.405.011-4.041L678,960.712Zm3.35,1.935-2.434-1.405.011-4.041,2.434,1.405Zm3.35,1.934-2.434-1.405.011-4.041,2.434,1.405Zm3.35,1.934-2.434-1.405.011-4.041,2.434,1.405Zm3.351,1.935-2.434-1.406.011-4.041,2.434,1.405Zm3.35,1.934-2.434-1.406.011-4.04,2.434,1.405Zm3.35,1.934-2.434-1.406.011-4.041,2.434,1.405Zm3.351,1.935-2.434-1.405.011-4.041,2.434,1.405Zm3.35,1.934-2.434-1.405.011-4.041,2.434,1.405Zm3.35,1.934-2.434-1.405.011-4.041,2.434,1.405Zm4.479,2.586-3.562-2.057.011-4.04,3.562,2.057Z" fill="#1b3b58" opacity="0.2"/>
        <g id="Grupo_149089" data-name="Grupo 149089">
          <g id="Grupo_149029" data-name="Grupo 149029">
            <g id="Grupo_149028" data-name="Grupo 149028">
              <g id="Grupo_149025" data-name="Grupo 149025">
                <path id="Trazado_211173" data-name="Trazado 211173" d="M620.391,947.209l0,1.346,79.652,45.987,0-1.346Z" fill="#d69617"/>
              </g>
              <g id="Grupo_149026" data-name="Grupo 149026">
                <path id="Trazado_211174" data-name="Trazado 211174" d="M700.043,993.2l0,1.346,9.037-5.217,0-1.346Z" fill="#d3891a"/>
              </g>
              <g id="Grupo_149027" data-name="Grupo 149027">
                <path id="Trazado_211175" data-name="Trazado 211175" d="M620.391,947.209,700.043,993.2l9.037-5.217-79.653-45.987Z" fill="#ffb806"/>
              </g>
            </g>
          </g>
          <g id="Grupo_149058" data-name="Grupo 149058">
            <g id="Grupo_149057" data-name="Grupo 149057">
              <g id="Grupo_149030" data-name="Grupo 149030">
                <path id="Trazado_211176" data-name="Trazado 211176" d="M629.54,937.961l.42-.244-.013,4.586-.42.244Z" fill="#3d2d4a"/>
              </g>
              <g id="Grupo_149031" data-name="Grupo 149031">
                <path id="Trazado_211177" data-name="Trazado 211177" d="M632.93,939.918l.42-.244-.013,4.587-.42.244Z" fill="#3d2d4a"/>
              </g>
              <g id="Grupo_149032" data-name="Grupo 149032">
                <path id="Trazado_211178" data-name="Trazado 211178" d="M636.321,941.876l.42-.244-.013,4.586-.42.245Z" fill="#3d2d4a"/>
              </g>
              <g id="Grupo_149033" data-name="Grupo 149033">
                <path id="Trazado_211179" data-name="Trazado 211179" d="M639.711,943.833l.42-.244-.013,4.587-.42.244Z" fill="#3d2d4a"/>
              </g>
              <g id="Grupo_149034" data-name="Grupo 149034">
                <path id="Trazado_211180" data-name="Trazado 211180" d="M643.1,945.791l.42-.245-.013,4.587-.42.244Z" fill="#3d2d4a"/>
              </g>
              <g id="Grupo_149035" data-name="Grupo 149035">
                <path id="Trazado_211181" data-name="Trazado 211181" d="M646.492,947.748l.42-.244-.013,4.587-.42.244Z" fill="#3d2d4a"/>
              </g>
              <g id="Grupo_149036" data-name="Grupo 149036">
                <path id="Trazado_211182" data-name="Trazado 211182" d="M649.882,949.706l.42-.244-.013,4.586-.42.244Z" fill="#3d2d4a"/>
              </g>
              <g id="Grupo_149037" data-name="Grupo 149037">
                <path id="Trazado_211183" data-name="Trazado 211183" d="M653.272,951.663l.42-.244-.013,4.586-.42.245Z" fill="#3d2d4a"/>
              </g>
              <g id="Grupo_149038" data-name="Grupo 149038">
                <path id="Trazado_211184" data-name="Trazado 211184" d="M656.663,953.621l.42-.244-.013,4.586-.42.244Z" fill="#3d2d4a"/>
              </g>
              <g id="Grupo_149039" data-name="Grupo 149039">
                <path id="Trazado_211185" data-name="Trazado 211185" d="M660.054,955.578l.42-.244-.013,4.586-.421.245Z" fill="#3d2d4a"/>
              </g>
              <g id="Grupo_149040" data-name="Grupo 149040">
                <path id="Trazado_211186" data-name="Trazado 211186" d="M663.443,957.535l.421-.244-.013,4.587-.421.244Z" fill="#3d2d4a"/>
              </g>
              <g id="Grupo_149041" data-name="Grupo 149041">
                <path id="Trazado_211187" data-name="Trazado 211187" d="M666.834,959.493l.421-.244-.013,4.587-.42.244Z" fill="#3d2d4a"/>
              </g>
              <g id="Grupo_149042" data-name="Grupo 149042">
                <path id="Trazado_211188" data-name="Trazado 211188" d="M670.225,961.451l.42-.245-.013,4.587-.42.244Z" fill="#3d2d4a"/>
              </g>
              <g id="Grupo_149043" data-name="Grupo 149043">
                <path id="Trazado_211189" data-name="Trazado 211189" d="M673.616,963.408l.42-.244-.013,4.587-.42.244Z" fill="#3d2d4a"/>
              </g>
              <g id="Grupo_149044" data-name="Grupo 149044">
                <path id="Trazado_211190" data-name="Trazado 211190" d="M677.006,965.366l.42-.244-.013,4.586-.42.244Z" fill="#3d2d4a"/>
              </g>
              <g id="Grupo_149045" data-name="Grupo 149045">
                <path id="Trazado_211191" data-name="Trazado 211191" d="M680.4,967.323l.42-.244-.013,4.586-.42.244Z" fill="#3d2d4a"/>
              </g>
              <g id="Grupo_149046" data-name="Grupo 149046">
                <path id="Trazado_211192" data-name="Trazado 211192" d="M683.787,969.281l.42-.245-.013,4.587-.42.244Z" fill="#3d2d4a"/>
              </g>
              <g id="Grupo_149047" data-name="Grupo 149047">
                <path id="Trazado_211193" data-name="Trazado 211193" d="M687.177,971.238l.42-.244-.013,4.586-.42.244Z" fill="#3d2d4a"/>
              </g>
              <g id="Grupo_149048" data-name="Grupo 149048">
                <path id="Trazado_211194" data-name="Trazado 211194" d="M690.567,973.2l.42-.244-.013,4.586-.42.245Z" fill="#3d2d4a"/>
              </g>
              <g id="Grupo_149049" data-name="Grupo 149049">
                <path id="Trazado_211195" data-name="Trazado 211195" d="M693.958,975.153l.42-.244-.013,4.586-.42.245Z" fill="#3d2d4a"/>
              </g>
              <g id="Grupo_149050" data-name="Grupo 149050">
                <path id="Trazado_211196" data-name="Trazado 211196" d="M697.348,977.11l.42-.244-.013,4.587-.42.244Z" fill="#3d2d4a"/>
              </g>
              <g id="Grupo_149051" data-name="Grupo 149051">
                <path id="Trazado_211197" data-name="Trazado 211197" d="M700.738,979.068l.42-.244-.013,4.586-.42.244Z" fill="#3d2d4a"/>
              </g>
              <g id="Grupo_149052" data-name="Grupo 149052">
                <path id="Trazado_211198" data-name="Trazado 211198" d="M704.129,981.026l.421-.245-.014,4.587-.42.244Z" fill="#3d2d4a"/>
              </g>
              <g id="Grupo_149053" data-name="Grupo 149053">
                <path id="Trazado_211199" data-name="Trazado 211199" d="M708.661,983.642l.42-.244-.013,4.586-.42.244Z" fill="#3d2d4a"/>
              </g>
              <g id="Grupo_149054" data-name="Grupo 149054">
                <path id="Trazado_211200" data-name="Trazado 211200" d="M708.664,982.835l0,.807-.013,4.586-.508-.293.013-4.586-4.024-2.323-.013,4.586-.509-.294.013-4.586-2.882-1.664-.013,4.586-.508-.293.013-4.587-2.882-1.664-.013,4.587-.508-.293.013-4.587-2.882-1.664-.013,4.587-.509-.294.013-4.587-2.882-1.664-.013,4.587-.508-.294.013-4.586-2.882-1.664-.013,4.586-.508-.293.013-4.586-2.882-1.664-.013,4.586-.509-.294.013-4.586-2.882-1.664-.013,4.586-.508-.293.013-4.586-2.882-1.664-.013,4.586-.508-.293.013-4.587-2.642-1.525-.24-.139-.013,4.587-.509-.294.013-4.587-2.882-1.663-.013,4.586-.508-.293.013-4.587-2.883-1.664-.012,4.587-.508-.294.012-4.586-2.883-1.665-.013,4.587-.508-.294.013-4.586-2.881-1.664-.014,4.587-.508-.294.013-4.586-2.882-1.664-.013,4.586-.508-.293.013-4.586-2.883-1.665-.013,4.587-.508-.294.013-4.586-2.882-1.664-.013,4.586-.508-.293.013-4.587-2.882-1.664-.013,4.587-.508-.293.013-4.587-2.883-1.664-.013,4.586-.508-.293.013-4.587-2.882-1.664-.013,4.587-.508-.293.013-4.587-2.882-1.664-.013,4.587-.508-.294.013-4.586-2.883-1.665-.013,4.587-.508-.294.013-4.586-2.882-1.664-.013,4.586-.508-.293.013-4.586,0-.807Z" fill="#5a4b66"/>
              </g>
              <g id="Grupo_149055" data-name="Grupo 149055">
                <path id="Trazado_211201" data-name="Trazado 211201" d="M708.664,982.835l.42-.244,0,.807-.42.244Z" fill="#3d2d4a"/>
              </g>
              <g id="Grupo_149056" data-name="Grupo 149056">
                <path id="Trazado_211202" data-name="Trazado 211202" d="M629.034,936.861l.42-.244,79.63,45.974-.42.244Z" fill="#715f7f"/>
              </g>
            </g>
          </g>
          <g id="Grupo_149088" data-name="Grupo 149088">
            <g id="Grupo_149087" data-name="Grupo 149087">
              <g id="Grupo_149059" data-name="Grupo 149059">
                <path id="Trazado_211203" data-name="Trazado 211203" d="M620.909,942.907l.42-.244-.012,4.588-.421.245Z" fill="#3d2d4a"/>
              </g>
              <g id="Grupo_149060" data-name="Grupo 149060">
                <path id="Trazado_211204" data-name="Trazado 211204" d="M620.9,947.5l.013-4.589Z" fill="#3d2d4a"/>
              </g>
              <g id="Grupo_149061" data-name="Grupo 149061">
                <path id="Trazado_211205" data-name="Trazado 211205" d="M624.3,944.865l.42-.244-.013,4.588-.42.245Z" fill="#3d2d4a"/>
              </g>
              <g id="Grupo_149062" data-name="Grupo 149062">
                <path id="Trazado_211206" data-name="Trazado 211206" d="M627.693,946.824l.421-.244-.014,4.588-.42.244Z" fill="#3d2d4a"/>
              </g>
              <g id="Grupo_149063" data-name="Grupo 149063">
                <path id="Trazado_211207" data-name="Trazado 211207" d="M631.085,948.782l.42-.244-.013,4.588-.42.244Z" fill="#3d2d4a"/>
              </g>
              <g id="Grupo_149064" data-name="Grupo 149064">
                <path id="Trazado_211208" data-name="Trazado 211208" d="M634.477,950.74l.42-.244-.013,4.588-.421.244Z" fill="#3d2d4a"/>
              </g>
              <g id="Grupo_149065" data-name="Grupo 149065">
                <path id="Trazado_211209" data-name="Trazado 211209" d="M637.869,952.7l.42-.244-.013,4.588-.42.244Z" fill="#3d2d4a"/>
              </g>
              <g id="Grupo_149066" data-name="Grupo 149066">
                <path id="Trazado_211210" data-name="Trazado 211210" d="M641.261,954.657l.42-.244L641.668,959l-.42.244Z" fill="#3d2d4a"/>
              </g>
              <g id="Grupo_149067" data-name="Grupo 149067">
                <path id="Trazado_211211" data-name="Trazado 211211" d="M644.652,956.615l.421-.244-.014,4.588-.42.244Z" fill="#3d2d4a"/>
              </g>
              <g id="Grupo_149068" data-name="Grupo 149068">
                <path id="Trazado_211212" data-name="Trazado 211212" d="M648.045,958.574l.42-.245-.013,4.589-.42.244Z" fill="#3d2d4a"/>
              </g>
              <g id="Grupo_149069" data-name="Grupo 149069">
                <path id="Trazado_211213" data-name="Trazado 211213" d="M651.436,960.532l.421-.244-.013,4.588-.421.244Z" fill="#3d2d4a"/>
              </g>
              <g id="Grupo_149070" data-name="Grupo 149070">
                <path id="Trazado_211214" data-name="Trazado 211214" d="M654.828,962.49l.42-.244-.013,4.588-.42.244Z" fill="#3d2d4a"/>
              </g>
              <g id="Grupo_149071" data-name="Grupo 149071">
                <path id="Trazado_211215" data-name="Trazado 211215" d="M658.22,964.448l.421-.244-.013,4.589-.42.244Z" fill="#3d2d4a"/>
              </g>
              <g id="Grupo_149072" data-name="Grupo 149072">
                <path id="Trazado_211216" data-name="Trazado 211216" d="M661.612,966.407l.42-.245-.013,4.589-.42.244Z" fill="#3d2d4a"/>
              </g>
              <g id="Grupo_149073" data-name="Grupo 149073">
                <path id="Trazado_211217" data-name="Trazado 211217" d="M665,968.365l.421-.244-.013,4.589-.421.244Z" fill="#3d2d4a"/>
              </g>
              <g id="Grupo_149074" data-name="Grupo 149074">
                <path id="Trazado_211218" data-name="Trazado 211218" d="M668.4,970.323l.42-.244-.013,4.589-.42.244Z" fill="#3d2d4a"/>
              </g>
              <g id="Grupo_149075" data-name="Grupo 149075">
                <path id="Trazado_211219" data-name="Trazado 211219" d="M671.788,972.282l.42-.245-.013,4.589-.42.244Z" fill="#3d2d4a"/>
              </g>
              <g id="Grupo_149076" data-name="Grupo 149076">
                <path id="Trazado_211220" data-name="Trazado 211220" d="M675.18,974.24,675.6,974l-.013,4.589-.421.244Z" fill="#3d2d4a"/>
              </g>
              <g id="Grupo_149077" data-name="Grupo 149077">
                <path id="Trazado_211221" data-name="Trazado 211221" d="M678.572,976.2l.42-.244-.013,4.589-.42.244Z" fill="#3d2d4a"/>
              </g>
              <g id="Grupo_149078" data-name="Grupo 149078">
                <path id="Trazado_211222" data-name="Trazado 211222" d="M681.963,978.157l.421-.245-.013,4.589-.421.244Z" fill="#3d2d4a"/>
              </g>
              <g id="Grupo_149079" data-name="Grupo 149079">
                <path id="Trazado_211223" data-name="Trazado 211223" d="M685.356,980.115l.42-.244-.013,4.589-.42.244Z" fill="#3d2d4a"/>
              </g>
              <g id="Grupo_149080" data-name="Grupo 149080">
                <path id="Trazado_211224" data-name="Trazado 211224" d="M688.747,982.074l.421-.245-.013,4.589-.421.244Z" fill="#3d2d4a"/>
              </g>
              <g id="Grupo_149081" data-name="Grupo 149081">
                <path id="Trazado_211225" data-name="Trazado 211225" d="M692.139,984.032l.42-.245-.013,4.589-.42.244Z" fill="#3d2d4a"/>
              </g>
              <g id="Grupo_149082" data-name="Grupo 149082">
                <path id="Trazado_211226" data-name="Trazado 211226" d="M695.532,985.99l.42-.244-.013,4.589-.42.244Z" fill="#3d2d4a"/>
              </g>
              <g id="Grupo_149083" data-name="Grupo 149083">
                <path id="Trazado_211227" data-name="Trazado 211227" d="M700.065,988.608l.421-.244-.013,4.588-.421.244Z" fill="#3d2d4a"/>
              </g>
              <g id="Grupo_149084" data-name="Grupo 149084">
                <path id="Trazado_211228" data-name="Trazado 211228" d="M700.068,987.8l0,.807-.013,4.588-.508-.293.013-4.588-4.025-2.325-.013,4.589-.51-.294.013-4.589-2.883-1.664-.013,4.588-.508-.293.013-4.589-2.884-1.664-.013,4.588-.508-.293.013-4.589-2.883-1.665-.013,4.589-.509-.294.013-4.589-2.884-1.664-.013,4.588-.508-.293.013-4.589-2.883-1.665-.013,4.589-.509-.293.013-4.589-2.883-1.665-.013,4.589-.509-.294.013-4.589-2.883-1.664-.013,4.588-.509-.293.013-4.589-2.883-1.665-.013,4.589-.508-.293.013-4.589-2.644-1.526-.24-.139-.013,4.589-.509-.294.013-4.589-2.883-1.664-.013,4.588-.508-.293.013-4.589-2.884-1.665-.012,4.589-.509-.293.013-4.589-2.884-1.665-.013,4.588-.508-.293.013-4.589-2.884-1.664-.013,4.588-.508-.293.013-4.588-2.883-1.665-.013,4.588-.509-.293.013-4.589-2.884-1.665-.013,4.588-.508-.293.013-4.588-2.883-1.665-.013,4.588-.509-.293.013-4.589-2.883-1.664-.013,4.588-.508-.293.013-4.589-2.884-1.665-.014,4.588-.508-.293.013-4.588-2.883-1.665-.013,4.588-.509-.293.013-4.589-2.883-1.664-.013,4.588-.508-.293.013-4.589-2.884-1.665-.013,4.589-.509-.294.013-4.588-2.883-1.665L620.9,947.5l-.508-.294.013-4.589,0-.807Z" fill="#5a4b66"/>
              </g>
              <g id="Grupo_149085" data-name="Grupo 149085">
                <path id="Trazado_211229" data-name="Trazado 211229" d="M700.068,987.8l.42-.244,0,.807-.421.244Z" fill="#3d2d4a"/>
              </g>
              <g id="Grupo_149086" data-name="Grupo 149086">
                <path id="Trazado_211230" data-name="Trazado 211230" d="M620.4,941.806l.42-.244,79.665,45.995-.42.244Z" fill="#715f7f"/>
              </g>
            </g>
          </g>
        </g>
      </g>
    </g>
  </g>
</svg>
