<svg xmlns="http://www.w3.org/2000/svg" xmlns:xlink="http://www.w3.org/1999/xlink" width="803.029" height="705.177" viewBox="0 0 803.029 705.177">
  <defs>
    <linearGradient id="linear-gradient" y1="0.5" x2="1" y2="0.5" gradientUnits="objectBoundingBox">
      <stop offset="0" stop-color="#003e50"/>
      <stop offset="1" stop-color="#007fca"/>
    </linearGradient>
  </defs>
  <g id="Capa_1" transform="translate(8.326 -16.11)">
    <g id="Grupo_152000" data-name="Grupo 152000">
      <g id="Grupo_151955" data-name="Grupo 151955">
        <path id="Trazado_218014" data-name="Trazado 218014" d="M573.684,143.889l-11.167-6.448a323.086,323.086,0,0,0-322.2,0l-11.166,6.448A323.088,323.088,0,0,0,68.06,422.917v12.894a323.092,323.092,0,0,0,161.1,279.03l10.314,5.954,50.075-74.818c-1.453-.8-2.9-1.606-4.34-2.437L274.042,637.1A233.068,233.068,0,0,1,157.831,435.812V422.918A233.067,233.067,0,0,1,274.043,221.634l11.166-6.447a233.067,233.067,0,0,1,232.423,0l11.167,6.449a233.066,233.066,0,0,1,116.21,201.283v12.894A233.065,233.065,0,0,1,528.8,637.094l-11.169,6.448c-1.012.584-2.04,1.132-3.059,1.7l47.593,76.046h.349l11.169-6.448a323.087,323.087,0,0,0,161.1-279.027V422.918A323.088,323.088,0,0,0,573.684,143.889Z" fill="url(#linear-gradient)"/>
        <circle id="Elipse_4798" data-name="Elipse 4798" cx="101.259" cy="101.259" r="101.259" transform="translate(300.741 19.919)" fill="#eaf7ff"/>
        <ellipse id="Elipse_4799" data-name="Elipse 4799" cx="85.073" cy="85.072" rx="85.073" ry="85.072" transform="matrix(0.226, -0.974, 0.974, 0.226, 299.918, 184.865)" fill="none" stroke="#003e50" stroke-miterlimit="10" stroke-width="5"/>
        <circle id="Elipse_4800" data-name="Elipse 4800" cx="101.259" cy="101.259" r="101.259" transform="translate(588.402 484.926)" fill="#eaf7ff"/>
        <ellipse id="Elipse_4801" data-name="Elipse 4801" cx="85.073" cy="85.072" rx="85.073" ry="85.072" transform="matrix(0.226, -0.974, 0.974, 0.226, 587.564, 649.864)" fill="none" stroke="#007fca" stroke-miterlimit="10" stroke-width="5"/>
        <g id="Grupo_151916" data-name="Grupo 151916">
          <g id="Grupo_151915" data-name="Grupo 151915">
            <path id="Trazado_218015" data-name="Trazado 218015" d="M623.422,607.194v5.861h-2.94V598.392h5.075a6.079,6.079,0,0,1,3.923,1.143,3.869,3.869,0,0,1,1.415,3.188,3.215,3.215,0,0,1-.6,1.949A4.176,4.176,0,0,1,628.548,606a3.155,3.155,0,0,1,1.868,1.279,4.05,4.05,0,0,1,.569,2.215v1.078a5.354,5.354,0,0,0,.166,1.284,1.769,1.769,0,0,0,.569.992v.211H628.69a1.628,1.628,0,0,1-.519-1.067,9.272,9.272,0,0,1-.116-1.44V609.51a2.331,2.331,0,0,0-.6-1.707,2.272,2.272,0,0,0-1.7-.609h-2.337Zm0-2.266h2.085a2.754,2.754,0,0,0,1.843-.524,1.938,1.938,0,0,0,.6-1.551,2.133,2.133,0,0,0-.609-1.6,2.459,2.459,0,0,0-1.788-.594h-2.135Z" fill="#002e3c"/>
            <path id="Trazado_218016" data-name="Trazado 218016" d="M638.126,613.267a4.9,4.9,0,0,1-3.807-1.5,5.482,5.482,0,0,1-1.37-3.852v-.4a5.964,5.964,0,0,1,1.33-4.008,4.52,4.52,0,0,1,3.655-1.551A4.231,4.231,0,0,1,641.3,603.3a5.314,5.314,0,0,1,1.173,3.621v1.521h-6.5l-.03.06a2.944,2.944,0,0,0,.681,1.813,2.273,2.273,0,0,0,1.808.695,6.032,6.032,0,0,0,1.677-.2,6.808,6.808,0,0,0,1.425-.614l.8,1.813a5.456,5.456,0,0,1-1.773.9A7.861,7.861,0,0,1,638.126,613.267Zm-.191-9.044a1.632,1.632,0,0,0-1.364.609,3.048,3.048,0,0,0-.579,1.617l.019.05H639.6v-.222a2.549,2.549,0,0,0-.393-1.506A1.455,1.455,0,0,0,637.935,604.223Z" fill="#002e3c"/>
            <path id="Trazado_218017" data-name="Trazado 218017" d="M650.615,613.055a6.171,6.171,0,0,1-.277-.786,5.427,5.427,0,0,1-.166-.846,4.025,4.025,0,0,1-1.2,1.319,3.009,3.009,0,0,1-1.773.523,3.677,3.677,0,0,1-2.639-.881,3.155,3.155,0,0,1-.927-2.4,2.873,2.873,0,0,1,1.233-2.482,6.165,6.165,0,0,1,3.6-.881h1.652v-.866a1.7,1.7,0,0,0-.413-1.218,1.622,1.622,0,0,0-1.229-.433,1.6,1.6,0,0,0-1.1.347,1.215,1.215,0,0,0-.388.952h-2.83l-.019-.06a2.763,2.763,0,0,1,1.2-2.382,5.23,5.23,0,0,1,3.329-1,4.876,4.876,0,0,1,3.177.987,3.436,3.436,0,0,1,1.214,2.83v4.5a8.422,8.422,0,0,0,.116,1.44,7.145,7.145,0,0,0,.367,1.339h-2.931Zm-2.69-1.964a2.5,2.5,0,0,0,1.37-.383,2.067,2.067,0,0,0,.826-.886v-1.541h-1.652a1.96,1.96,0,0,0-1.415.463,1.525,1.525,0,0,0-.479,1.138,1.134,1.134,0,0,0,.358.881A1.412,1.412,0,0,0,647.925,611.091Z" fill="#002e3c"/>
            <path id="Trazado_218018" data-name="Trazado 218018" d="M659.82,611.011a1.638,1.638,0,0,0,1.219-.458,1.664,1.664,0,0,0,.453-1.224h2.679l.021.06a3.409,3.409,0,0,1-1.229,2.765,4.591,4.591,0,0,1-3.142,1.113,4.642,4.642,0,0,1-3.736-1.546,5.874,5.874,0,0,1-1.319-3.953v-.3a5.916,5.916,0,0,1,1.313-3.953,4.605,4.605,0,0,1,3.722-1.556,4.494,4.494,0,0,1,3.213,1.148,3.838,3.838,0,0,1,1.179,3.021l-.021.06h-2.679a2.174,2.174,0,0,0-.448-1.4,1.507,1.507,0,0,0-1.244-.559,1.678,1.678,0,0,0-1.616.912,4.994,4.994,0,0,0-.479,2.331v.3a4.973,4.973,0,0,0,.479,2.347A1.7,1.7,0,0,0,659.82,611.011Z" fill="#002e3c"/>
            <path id="Trazado_218019" data-name="Trazado 218019" d="M669.427,599.489v2.669h1.844v2.065h-1.844v5.549a1.262,1.262,0,0,0,.268.906.935.935,0,0,0,.7.272,2.847,2.847,0,0,0,.4-.025,3.4,3.4,0,0,0,.393-.086l.242,2.125a5.936,5.936,0,0,1-.861.227,5.105,5.105,0,0,1-.912.076,3.131,3.131,0,0,1-2.341-.836,3.661,3.661,0,0,1-.821-2.648v-5.56h-1.591v-2.065H666.5v-2.669h2.931Z" fill="#002e3c"/>
            <path id="Trazado_218020" data-name="Trazado 218020" d="M676.175,599.55h-2.941v-2.206h2.941Zm0,13.505h-2.941v-10.9h2.941Z" fill="#002e3c"/>
            <path id="Trazado_218021" data-name="Trazado 218021" d="M682.53,609l.191,1.007h.06l.2-1.007,1.793-6.838h3.071l-3.706,10.9h-2.81l-3.706-10.9H680.7Z" fill="#002e3c"/>
            <path id="Trazado_218022" data-name="Trazado 218022" d="M688.522,607.506a5.849,5.849,0,0,1,1.359-3.993,5.367,5.367,0,0,1,7.554,0,5.816,5.816,0,0,1,1.37,4v.211a5.824,5.824,0,0,1-1.365,4,5.385,5.385,0,0,1-7.553,0,5.824,5.824,0,0,1-1.365-4v-.211Zm2.931.211a4.734,4.734,0,0,0,.524,2.392,2.012,2.012,0,0,0,3.358,0,4.71,4.71,0,0,0,.528-2.387v-.211a4.665,4.665,0,0,0-.533-2.367,1.808,1.808,0,0,0-1.683-.917,1.783,1.783,0,0,0-1.666.921,4.705,4.705,0,0,0-.529,2.362Z" fill="#002e3c"/>
            <path id="Trazado_218023" data-name="Trazado 218023" d="M706.509,610.034a1.015,1.015,0,0,0-.468-.831,4.761,4.761,0,0,0-1.737-.609,6.925,6.925,0,0,1-2.905-1.158,2.528,2.528,0,0,1-.992-2.1,3,3,0,0,1,1.188-2.387,4.789,4.789,0,0,1,3.162-.987,5.173,5.173,0,0,1,3.309.987,2.885,2.885,0,0,1,1.193,2.457l-.021.06H706.4a1.425,1.425,0,0,0-.423-1.067,1.978,1.978,0,0,0-2.337-.061,1.1,1.1,0,0,0-.413.866.976.976,0,0,0,.429.821,4.755,4.755,0,0,0,1.737.569,7.064,7.064,0,0,1,2.985,1.184,2.6,2.6,0,0,1,.982,2.15,2.877,2.877,0,0,1-1.259,2.407,5.434,5.434,0,0,1-3.323.937,5.051,5.051,0,0,1-3.44-1.1,3.085,3.085,0,0,1-1.2-2.513l.021-.06h2.688a1.531,1.531,0,0,0,.574,1.269,2.372,2.372,0,0,0,1.42.393,2.02,2.02,0,0,0,1.244-.327A1.062,1.062,0,0,0,706.509,610.034Z" fill="#002e3c"/>
            <path id="Trazado_218024" data-name="Trazado 218024" d="M726.219,607.909A6.26,6.26,0,0,1,725.1,611.8a3.7,3.7,0,0,1-3.122,1.47,3.479,3.479,0,0,1-1.521-.317,3.124,3.124,0,0,1-1.139-.931v5.227h-2.931V602.159h2.649l.171,1.289a3.491,3.491,0,0,1,1.163-1.1,3.144,3.144,0,0,1,1.586-.388,3.627,3.627,0,0,1,3.143,1.581,7.058,7.058,0,0,1,1.118,4.159v.211Zm-2.941-.212a5.267,5.267,0,0,0-.514-2.5,1.675,1.675,0,0,0-1.57-.957,2.225,2.225,0,0,0-1.134.272,1.948,1.948,0,0,0-.74.776v4.773a1.808,1.808,0,0,0,.74.705,2.5,2.5,0,0,0,1.153.242,1.692,1.692,0,0,0,1.566-.836,4.416,4.416,0,0,0,.5-2.266V607.7Z" fill="#002e3c"/>
            <path id="Trazado_218025" data-name="Trazado 218025" d="M734.456,613.055a6.188,6.188,0,0,1-.276-.786,5.427,5.427,0,0,1-.166-.846,4.036,4.036,0,0,1-1.2,1.319,3,3,0,0,1-1.773.523,3.679,3.679,0,0,1-2.639-.881,3.158,3.158,0,0,1-.926-2.4,2.873,2.873,0,0,1,1.233-2.482,6.162,6.162,0,0,1,3.6-.881h1.651v-.866a1.7,1.7,0,0,0-.413-1.218,1.621,1.621,0,0,0-1.229-.433,1.6,1.6,0,0,0-1.1.347,1.212,1.212,0,0,0-.388.952H728l-.021-.06a2.764,2.764,0,0,1,1.2-2.382,5.224,5.224,0,0,1,3.328-1,4.878,4.878,0,0,1,3.178.987,3.439,3.439,0,0,1,1.213,2.83v4.5a8.528,8.528,0,0,0,.116,1.44,7.292,7.292,0,0,0,.367,1.339h-2.931Zm-2.688-1.964a2.5,2.5,0,0,0,1.369-.383,2.054,2.054,0,0,0,.826-.886v-1.541h-1.651a1.957,1.957,0,0,0-1.415.463,1.522,1.522,0,0,0-.479,1.138,1.137,1.137,0,0,0,.357.881A1.415,1.415,0,0,0,731.768,611.091Z" fill="#002e3c"/>
            <path id="Trazado_218026" data-name="Trazado 218026" d="M744.84,604.686l-1.078-.03a1.958,1.958,0,0,0-1.077.272,1.719,1.719,0,0,0-.644.766v7.362H739.11v-10.9h2.729l.131,1.611a3.433,3.433,0,0,1,.991-1.334,2.314,2.314,0,0,1,1.813-.443q.186.035.378.085Z" fill="#002e3c"/>
            <path id="Trazado_218027" data-name="Trazado 218027" d="M752.8,613.055a6.188,6.188,0,0,1-.276-.786,5.427,5.427,0,0,1-.166-.846,4.036,4.036,0,0,1-1.2,1.319,3,3,0,0,1-1.773.523,3.679,3.679,0,0,1-2.639-.881,3.158,3.158,0,0,1-.926-2.4,2.873,2.873,0,0,1,1.233-2.482,6.162,6.162,0,0,1,3.6-.881H752.3v-.866a1.7,1.7,0,0,0-.413-1.218,1.621,1.621,0,0,0-1.229-.433,1.6,1.6,0,0,0-1.1.347,1.212,1.212,0,0,0-.388.952h-2.83l-.021-.06a2.764,2.764,0,0,1,1.2-2.382,5.224,5.224,0,0,1,3.328-1,4.878,4.878,0,0,1,3.178.987,3.439,3.439,0,0,1,1.213,2.83v4.5a8.528,8.528,0,0,0,.116,1.44,7.292,7.292,0,0,0,.367,1.339H752.8Zm-2.688-1.964a2.5,2.5,0,0,0,1.369-.383,2.054,2.054,0,0,0,.826-.886v-1.541h-1.651a1.957,1.957,0,0,0-1.415.463,1.522,1.522,0,0,0-.479,1.138,1.137,1.137,0,0,0,.357.881A1.415,1.415,0,0,0,750.108,611.091Z" fill="#002e3c"/>
            <path id="Trazado_218028" data-name="Trazado 218028" d="M643.791,634.663H640.85V618.952h2.941v15.711Z" fill="#002e3c"/>
            <path id="Trazado_218029" data-name="Trazado 218029" d="M652.633,634.663a6.188,6.188,0,0,1-.276-.786,5.427,5.427,0,0,1-.166-.846,4.036,4.036,0,0,1-1.2,1.319,3,3,0,0,1-1.773.523,3.679,3.679,0,0,1-2.639-.881,3.158,3.158,0,0,1-.926-2.4,2.873,2.873,0,0,1,1.233-2.482,6.162,6.162,0,0,1,3.6-.881h1.651v-.866a1.7,1.7,0,0,0-.413-1.218,1.621,1.621,0,0,0-1.229-.433,1.6,1.6,0,0,0-1.1.347,1.212,1.212,0,0,0-.388.952h-2.83l-.021-.06a2.764,2.764,0,0,1,1.2-2.382,5.224,5.224,0,0,1,3.328-1,4.878,4.878,0,0,1,3.178.987,3.439,3.439,0,0,1,1.213,2.83v4.5a8.528,8.528,0,0,0,.116,1.44,7.292,7.292,0,0,0,.367,1.339h-2.931Zm-2.688-1.964a2.5,2.5,0,0,0,1.369-.383,2.054,2.054,0,0,0,.826-.886v-1.541h-1.651a1.957,1.957,0,0,0-1.415.463,1.522,1.522,0,0,0-.479,1.138,1.137,1.137,0,0,0,.357.881A1.415,1.415,0,0,0,649.945,632.7Z" fill="#002e3c"/>
            <path id="Trazado_218030" data-name="Trazado 218030" d="M667.117,629.517a6.376,6.376,0,0,1-1.088,3.9,3.679,3.679,0,0,1-3.143,1.46,3.324,3.324,0,0,1-1.667-.4,3.448,3.448,0,0,1-1.2-1.178l-.241,1.37h-2.488V618.953h2.931v5.972a3.328,3.328,0,0,1,1.134-1.007,3.165,3.165,0,0,1,1.516-.352,3.611,3.611,0,0,1,3.162,1.566,7.193,7.193,0,0,1,1.088,4.174v.211Zm-2.931-.212a5.668,5.668,0,0,0-.469-2.523,1.645,1.645,0,0,0-1.6-.932,2.2,2.2,0,0,0-1.158.287,2,2,0,0,0-.745.821v4.613a1.869,1.869,0,0,0,.751.755,2.411,2.411,0,0,0,1.173.262,1.673,1.673,0,0,0,1.592-.8,4.666,4.666,0,0,0,.453-2.271Z" fill="#002e3c"/>
            <path id="Trazado_218031" data-name="Trazado 218031" d="M668.476,629.114a5.849,5.849,0,0,1,1.359-3.993,4.74,4.74,0,0,1,3.767-1.556,4.79,4.79,0,0,1,3.787,1.551,5.816,5.816,0,0,1,1.369,4v.211a5.828,5.828,0,0,1-1.364,4,5.387,5.387,0,0,1-7.554,0,5.823,5.823,0,0,1-1.364-4v-.211Zm2.931.211a4.735,4.735,0,0,0,.523,2.392,2.012,2.012,0,0,0,3.358,0,4.71,4.71,0,0,0,.529-2.387v-.211a4.655,4.655,0,0,0-.534-2.367,1.805,1.805,0,0,0-1.682-.917,1.784,1.784,0,0,0-1.667.921,4.705,4.705,0,0,0-.528,2.362Z" fill="#002e3c"/>
            <path id="Trazado_218032" data-name="Trazado 218032" d="M686.3,626.294l-1.077-.03a1.962,1.962,0,0,0-1.078.272,1.726,1.726,0,0,0-.644.766v7.362h-2.931v-10.9H683.3l.131,1.611a3.433,3.433,0,0,1,.992-1.334,2.312,2.312,0,0,1,1.813-.443q.186.035.378.085Z" fill="#002e3c"/>
            <path id="Trazado_218033" data-name="Trazado 218033" d="M694.257,634.663a6.188,6.188,0,0,1-.276-.786,5.427,5.427,0,0,1-.166-.846,4.036,4.036,0,0,1-1.2,1.319,3,3,0,0,1-1.773.523,3.679,3.679,0,0,1-2.639-.881,3.158,3.158,0,0,1-.926-2.4,2.873,2.873,0,0,1,1.233-2.482,6.162,6.162,0,0,1,3.6-.881h1.651v-.866a1.7,1.7,0,0,0-.413-1.218,1.621,1.621,0,0,0-1.229-.433,1.6,1.6,0,0,0-1.1.347,1.212,1.212,0,0,0-.388.952H687.8l-.021-.06a2.764,2.764,0,0,1,1.2-2.382,5.224,5.224,0,0,1,3.328-1,4.878,4.878,0,0,1,3.178.987,3.439,3.439,0,0,1,1.213,2.83v4.5a8.528,8.528,0,0,0,.116,1.44,7.292,7.292,0,0,0,.367,1.339h-2.931Zm-2.688-1.964a2.5,2.5,0,0,0,1.369-.383,2.054,2.054,0,0,0,.826-.886v-1.541h-1.651a1.957,1.957,0,0,0-1.415.463,1.522,1.522,0,0,0-.479,1.138,1.137,1.137,0,0,0,.357.881A1.415,1.415,0,0,0,691.569,632.7Z" fill="#002e3c"/>
            <path id="Trazado_218034" data-name="Trazado 218034" d="M702.436,621.1v2.669h1.843v2.065h-1.843v5.549a1.267,1.267,0,0,0,.267.906.935.935,0,0,0,.7.272,2.832,2.832,0,0,0,.4-.025,3.464,3.464,0,0,0,.394-.086l.241,2.125a5.9,5.9,0,0,1-.861.227,5.086,5.086,0,0,1-.911.076,3.135,3.135,0,0,1-2.342-.836,3.666,3.666,0,0,1-.82-2.648v-5.56h-1.592v-2.065h1.592V621.1h2.931Z" fill="#002e3c"/>
            <path id="Trazado_218035" data-name="Trazado 218035" d="M705.638,629.114A5.849,5.849,0,0,1,707,625.121a5.367,5.367,0,0,1,7.554,0,5.816,5.816,0,0,1,1.37,4v.211a5.824,5.824,0,0,1-1.365,4,5.385,5.385,0,0,1-7.553,0,5.824,5.824,0,0,1-1.365-4v-.211Zm2.931.211a4.734,4.734,0,0,0,.524,2.392,2.012,2.012,0,0,0,3.358,0,4.71,4.71,0,0,0,.528-2.387v-.211a4.665,4.665,0,0,0-.533-2.367,1.808,1.808,0,0,0-1.683-.917,1.783,1.783,0,0,0-1.666.921,4.705,4.705,0,0,0-.529,2.362Z" fill="#002e3c"/>
            <path id="Trazado_218036" data-name="Trazado 218036" d="M723.464,626.294l-1.078-.03a1.958,1.958,0,0,0-1.077.272,1.719,1.719,0,0,0-.644.766v7.362h-2.931v-10.9h2.729l.131,1.611a3.433,3.433,0,0,1,.991-1.334,2.314,2.314,0,0,1,1.813-.443q.186.035.378.085Z" fill="#002e3c"/>
            <path id="Trazado_218037" data-name="Trazado 218037" d="M728.087,621.158h-2.941v-2.206h2.941Zm0,13.505h-2.941v-10.9h2.941Z" fill="#002e3c"/>
            <path id="Trazado_218038" data-name="Trazado 218038" d="M730.051,629.114a5.849,5.849,0,0,1,1.359-3.993,4.74,4.74,0,0,1,3.767-1.556,4.79,4.79,0,0,1,3.787,1.551,5.816,5.816,0,0,1,1.369,4v.211a5.828,5.828,0,0,1-1.364,4,5.387,5.387,0,0,1-7.554,0,5.823,5.823,0,0,1-1.364-4v-.211Zm2.931.211a4.735,4.735,0,0,0,.523,2.392,2.012,2.012,0,0,0,3.358,0,4.71,4.71,0,0,0,.529-2.387v-.211a4.655,4.655,0,0,0-.534-2.367,1.805,1.805,0,0,0-1.682-.917,1.784,1.784,0,0,0-1.667.921,4.705,4.705,0,0,0-.528,2.362Z" fill="#002e3c"/>
          </g>
        </g>
        <g id="Grupo_151918" data-name="Grupo 151918">
          <g id="Grupo_151917" data-name="Grupo 151917">
            <path id="Trazado_218039" data-name="Trazado 218039" d="M360.855,155.279a1.715,1.715,0,0,0-.589-1.359,5.91,5.91,0,0,0-2.069-.967,11.759,11.759,0,0,1-3.853-1.8,3.412,3.412,0,0,1-1.315-2.83,3.558,3.558,0,0,1,1.48-2.946,6.844,6.844,0,0,1,7.7.085,3.846,3.846,0,0,1,1.435,3.223l-.021.061h-2.85a2.136,2.136,0,0,0-.665-1.687,2.717,2.717,0,0,0-1.863-.589,2.461,2.461,0,0,0-1.682.523,1.7,1.7,0,0,0-.595,1.339,1.462,1.462,0,0,0,.645,1.224,8.6,8.6,0,0,0,2.227,1.012,9.583,9.583,0,0,1,3.685,1.788,3.664,3.664,0,0,1,1.27,2.906,3.5,3.5,0,0,1-1.471,2.971,6.385,6.385,0,0,1-3.888,1.087,6.943,6.943,0,0,1-4.064-1.178,3.884,3.884,0,0,1-1.647-3.515l.02-.061H355.6a2.306,2.306,0,0,0,.766,1.914,3.219,3.219,0,0,0,2.074.614,2.833,2.833,0,0,0,1.8-.494A1.6,1.6,0,0,0,360.855,155.279Z" fill="#002e3c"/>
            <path id="Trazado_218040" data-name="Trazado 218040" d="M372.416,157.494a3.7,3.7,0,0,1-1.279,1.35,3.389,3.389,0,0,1-1.8.473,3.312,3.312,0,0,1-2.693-1.168,5.6,5.6,0,0,1-.972-3.626v-6.314H368.6v6.335a3.515,3.515,0,0,0,.388,1.958,1.392,1.392,0,0,0,1.2.529,2.937,2.937,0,0,0,1.209-.227,2.035,2.035,0,0,0,.825-.67v-7.926h2.941v10.9h-2.437Z" fill="#002e3c"/>
            <path id="Trazado_218041" data-name="Trazado 218041" d="M380.474,159.106h-2.941V143.4h2.941Z" fill="#002e3c"/>
            <path id="Trazado_218042" data-name="Trazado 218042" d="M383.657,159.106v-8.833h-1.622v-2.064h1.622V147a3.688,3.688,0,0,1,1.057-2.825,4.177,4.177,0,0,1,2.972-.992,5.409,5.409,0,0,1,.76.055c.259.037.542.089.852.156l-.252,2.186q-.242-.04-.469-.071a4.063,4.063,0,0,0-.528-.03,1.412,1.412,0,0,0-1.083.393A1.589,1.589,0,0,0,386.6,147v1.208h2.095v2.064H386.6v8.833h-2.94Z" fill="#002e3c"/>
            <path id="Trazado_218043" data-name="Trazado 218043" d="M396.507,159.106a6.181,6.181,0,0,1-.277-.786,5.422,5.422,0,0,1-.166-.846,4.025,4.025,0,0,1-1.2,1.319,3.008,3.008,0,0,1-1.772.523,3.677,3.677,0,0,1-2.639-.881,3.155,3.155,0,0,1-.927-2.4,2.873,2.873,0,0,1,1.233-2.482,6.165,6.165,0,0,1,3.6-.881h1.652V151.8a1.7,1.7,0,0,0-.413-1.218,1.622,1.622,0,0,0-1.228-.433,1.6,1.6,0,0,0-1.1.347,1.215,1.215,0,0,0-.388.952h-2.83l-.02-.06a2.763,2.763,0,0,1,1.2-2.382,5.23,5.23,0,0,1,3.329-1,4.876,4.876,0,0,1,3.177.987,3.436,3.436,0,0,1,1.214,2.83v4.5a8.421,8.421,0,0,0,.116,1.44,7.144,7.144,0,0,0,.367,1.339h-2.931Zm-2.689-1.964a2.5,2.5,0,0,0,1.37-.383,2.067,2.067,0,0,0,.826-.886v-1.541h-1.652a1.96,1.96,0,0,0-1.415.463,1.525,1.525,0,0,0-.478,1.138,1.134,1.134,0,0,0,.358.881A1.412,1.412,0,0,0,393.818,157.142Z" fill="#002e3c"/>
            <path id="Trazado_218044" data-name="Trazado 218044" d="M404.685,145.54v2.669h1.843v2.064h-1.843v5.549a1.267,1.267,0,0,0,.267.906.935.935,0,0,0,.7.272,2.832,2.832,0,0,0,.4-.025,3.459,3.459,0,0,0,.394-.086l.241,2.125a5.891,5.891,0,0,1-.861.227,5.084,5.084,0,0,1-.911.076,3.135,3.135,0,0,1-2.342-.836,3.665,3.665,0,0,1-.82-2.648v-5.56h-1.592v-2.064h1.592V145.54h2.931Z" fill="#002e3c"/>
            <path id="Trazado_218045" data-name="Trazado 218045" d="M407.887,153.556a5.849,5.849,0,0,1,1.359-3.993,5.367,5.367,0,0,1,7.554,0,5.816,5.816,0,0,1,1.37,4v.211a5.824,5.824,0,0,1-1.365,4,5.385,5.385,0,0,1-7.553,0,5.824,5.824,0,0,1-1.365-4v-.211Zm2.931.212a4.734,4.734,0,0,0,.524,2.392,2.012,2.012,0,0,0,3.358,0,4.71,4.71,0,0,0,.528-2.387v-.211a4.666,4.666,0,0,0-.533-2.367,1.808,1.808,0,0,0-1.683-.917,1.782,1.782,0,0,0-1.666.921,4.7,4.7,0,0,0-.529,2.362v.211Z" fill="#002e3c"/>
            <path id="Trazado_218046" data-name="Trazado 218046" d="M424.666,153.748a7.086,7.086,0,0,1,1.112-4.159,3.615,3.615,0,0,1,3.138-1.581,3.051,3.051,0,0,1,1.47.352,3.543,3.543,0,0,1,1.148,1.007v-5.972h2.951v15.711h-2.508l-.252-1.339a3.648,3.648,0,0,1-1.219,1.153,3.221,3.221,0,0,1-1.611.4,3.685,3.685,0,0,1-3.117-1.47,6.285,6.285,0,0,1-1.112-3.888v-.211Zm2.931.211a4.438,4.438,0,0,0,.483,2.251,1.682,1.682,0,0,0,1.571.821,2.284,2.284,0,0,0,1.107-.257,2.052,2.052,0,0,0,.775-.75v-4.643a2.261,2.261,0,0,0-.771-.8,2.05,2.05,0,0,0-1.093-.287,1.66,1.66,0,0,0-1.576.957,5.411,5.411,0,0,0-.5,2.5v.211Z" fill="#002e3c"/>
            <path id="Trazado_218047" data-name="Trazado 218047" d="M441.485,159.317a4.9,4.9,0,0,1-3.807-1.5,5.482,5.482,0,0,1-1.37-3.852v-.4a5.963,5.963,0,0,1,1.33-4.008,4.52,4.52,0,0,1,3.655-1.551,4.231,4.231,0,0,1,3.369,1.345,5.314,5.314,0,0,1,1.173,3.621v1.52h-6.5l-.03.061a2.945,2.945,0,0,0,.681,1.813,2.273,2.273,0,0,0,1.808.695,6.032,6.032,0,0,0,1.677-.2,6.808,6.808,0,0,0,1.425-.614l.8,1.813a5.457,5.457,0,0,1-1.772.9A7.861,7.861,0,0,1,441.485,159.317Zm-.192-9.044a1.632,1.632,0,0,0-1.364.609,3.048,3.048,0,0,0-.579,1.617l.02.05h3.586v-.222a2.548,2.548,0,0,0-.393-1.506A1.455,1.455,0,0,0,441.293,150.273Z" fill="#002e3c"/>
            <path id="Trazado_218048" data-name="Trazado 218048" d="M369.073,180.714a6.193,6.193,0,0,1-.276-.786,5.422,5.422,0,0,1-.166-.846,4.037,4.037,0,0,1-1.2,1.319,3,3,0,0,1-1.772.523,3.679,3.679,0,0,1-2.639-.881,3.158,3.158,0,0,1-.926-2.4,2.873,2.873,0,0,1,1.233-2.482,6.161,6.161,0,0,1,3.6-.881h1.651v-.866a1.7,1.7,0,0,0-.413-1.218,1.621,1.621,0,0,0-1.228-.433,1.6,1.6,0,0,0-1.1.347,1.212,1.212,0,0,0-.388.952h-2.83L362.6,173a2.764,2.764,0,0,1,1.2-2.382,5.224,5.224,0,0,1,3.328-1,4.878,4.878,0,0,1,3.178.987,3.439,3.439,0,0,1,1.213,2.83v4.5a8.524,8.524,0,0,0,.116,1.44,7.294,7.294,0,0,0,.367,1.339h-2.931Zm-2.689-1.964a2.5,2.5,0,0,0,1.369-.383,2.055,2.055,0,0,0,.826-.886V175.94h-1.651a1.957,1.957,0,0,0-1.415.463,1.522,1.522,0,0,0-.478,1.138,1.137,1.137,0,0,0,.357.881A1.415,1.415,0,0,0,366.384,178.75Z" fill="#002e3c"/>
            <path id="Trazado_218049" data-name="Trazado 218049" d="M376.818,180.714h-2.941V165h2.941Z" fill="#002e3c"/>
            <path id="Trazado_218050" data-name="Trazado 218050" d="M385.913,179.1a3.7,3.7,0,0,1-1.279,1.35,3.394,3.394,0,0,1-1.8.473,3.314,3.314,0,0,1-2.694-1.168,5.607,5.607,0,0,1-.972-3.626v-6.314H382.1v6.335a3.515,3.515,0,0,0,.388,1.958,1.4,1.4,0,0,0,1.2.529,2.932,2.932,0,0,0,1.208-.227,2.032,2.032,0,0,0,.826-.67v-7.926h2.94v10.9h-2.437Z" fill="#002e3c"/>
            <path id="Trazado_218051" data-name="Trazado 218051" d="M393.607,169.816l.12,1.44a3.668,3.668,0,0,1,1.315-1.213,3.783,3.783,0,0,1,1.828-.428,3.333,3.333,0,0,1,1.793.463,2.866,2.866,0,0,1,1.128,1.4,3.771,3.771,0,0,1,1.309-1.37,3.558,3.558,0,0,1,1.894-.494,3.106,3.106,0,0,1,2.543,1.143,5.458,5.458,0,0,1,.932,3.49v6.466h-2.94v-6.476a3.056,3.056,0,0,0-.4-1.823,1.43,1.43,0,0,0-1.2-.514,2.057,2.057,0,0,0-1.083.277,2.009,2.009,0,0,0-.729.77c0,.127,0,.236.01.327s.01.183.01.277v7.161H397.2v-6.476a3.066,3.066,0,0,0-.4-1.808,1.425,1.425,0,0,0-1.209-.529,2.274,2.274,0,0,0-1.042.227,2,2,0,0,0-.74.639v7.946h-2.931v-10.9h2.729Z" fill="#002e3c"/>
            <path id="Trazado_218052" data-name="Trazado 218052" d="M411.815,167.208h-2.94V165h2.94Zm0,13.506h-2.94v-10.9h2.94Z" fill="#002e3c"/>
            <path id="Trazado_218053" data-name="Trazado 218053" d="M416.921,169.816l.131,1.561a3.981,3.981,0,0,1,1.34-1.3,3.477,3.477,0,0,1,1.782-.463,3.242,3.242,0,0,1,2.578,1.063,5.041,5.041,0,0,1,.927,3.359v6.677h-2.951v-6.667a2.6,2.6,0,0,0-.408-1.657,1.5,1.5,0,0,0-1.224-.489,2.562,2.562,0,0,0-1.152.247,2.249,2.249,0,0,0-.821.68v7.886h-2.94v-10.9h2.739Z" fill="#002e3c"/>
            <path id="Trazado_218054" data-name="Trazado 218054" d="M428.966,167.208h-2.941V165h2.941Zm0,13.506h-2.941v-10.9h2.941Z" fill="#002e3c"/>
            <path id="Trazado_218055" data-name="Trazado 218055" d="M430.93,175.164a5.849,5.849,0,0,1,1.359-3.993,5.367,5.367,0,0,1,7.554,0,5.816,5.816,0,0,1,1.37,4v.211a5.824,5.824,0,0,1-1.365,4,5.385,5.385,0,0,1-7.553,0,5.824,5.824,0,0,1-1.365-4v-.211Zm2.931.212a4.734,4.734,0,0,0,.524,2.392,2.012,2.012,0,0,0,3.358,0,4.71,4.71,0,0,0,.528-2.387v-.211a4.666,4.666,0,0,0-.533-2.367,1.808,1.808,0,0,0-1.683-.917,1.782,1.782,0,0,0-1.666.921,4.7,4.7,0,0,0-.529,2.362v.211Z" fill="#002e3c"/>
          </g>
        </g>
        <circle id="Elipse_4802" data-name="Elipse 4802" cx="101.259" cy="101.259" r="101.259" transform="translate(14.263 158.641)" fill="#eaf7ff"/>
        <ellipse id="Elipse_4803" data-name="Elipse 4803" cx="85.072" cy="85.072" rx="85.072" ry="85.072" transform="translate(-4.79 259.899) rotate(-45)" fill="none" stroke="#007fca" stroke-miterlimit="10" stroke-width="5"/>
        <g id="Grupo_151920" data-name="Grupo 151920">
          <g id="Grupo_151919" data-name="Grupo 151919">
            <path id="Trazado_218056" data-name="Trazado 218056" d="M69.924,302.734l.021.06a4.6,4.6,0,0,1-1.43,3.676,5.834,5.834,0,0,1-4.06,1.329,5.622,5.622,0,0,1-4.26-1.7,6.087,6.087,0,0,1-1.621-4.386v-2.911a6.2,6.2,0,0,1,1.581-4.386,5.39,5.39,0,0,1,4.149-1.707,6.189,6.189,0,0,1,4.189,1.309,4.51,4.51,0,0,1,1.471,3.686l-.021.06h-2.86a2.884,2.884,0,0,0-.68-2.1,2.837,2.837,0,0,0-2.1-.69,2.37,2.37,0,0,0-2.06,1.063,4.693,4.693,0,0,0-.74,2.744v2.931a4.561,4.561,0,0,0,.78,2.76,2.538,2.538,0,0,0,2.17,1.067,2.584,2.584,0,0,0,1.97-.69,3,3,0,0,0,.649-2.12h2.85Z" fill="#002e3c"/>
            <path id="Trazado_218057" data-name="Trazado 218057" d="M71.374,302.039a5.849,5.849,0,0,1,1.359-3.993,5.367,5.367,0,0,1,7.554,0,5.816,5.816,0,0,1,1.37,4v.211a5.824,5.824,0,0,1-1.365,4,5.385,5.385,0,0,1-7.553,0,5.824,5.824,0,0,1-1.365-4v-.211Zm2.931.212a4.734,4.734,0,0,0,.524,2.392,2.012,2.012,0,0,0,3.358,0,4.71,4.71,0,0,0,.528-2.387v-.211a4.666,4.666,0,0,0-.533-2.367,1.808,1.808,0,0,0-1.683-.917,1.783,1.783,0,0,0-1.666.921,4.7,4.7,0,0,0-.529,2.362v.211Z" fill="#002e3c"/>
            <path id="Trazado_218058" data-name="Trazado 218058" d="M86.2,296.691l.121,1.44a3.66,3.66,0,0,1,1.314-1.213,3.777,3.777,0,0,1,1.827-.428,3.333,3.333,0,0,1,1.793.463,2.856,2.856,0,0,1,1.128,1.4,3.781,3.781,0,0,1,1.31-1.37,3.556,3.556,0,0,1,1.894-.494,3.106,3.106,0,0,1,2.543,1.143,5.458,5.458,0,0,1,.932,3.49v6.466H96.12v-6.476a3.057,3.057,0,0,0-.4-1.823,1.43,1.43,0,0,0-1.2-.514,2.054,2.054,0,0,0-1.083.277,2.018,2.018,0,0,0-.73.771c0,.127,0,.236.011.327s.01.183.01.277v7.161H89.8v-6.476a3.065,3.065,0,0,0-.4-1.808,1.423,1.423,0,0,0-1.208-.529,2.279,2.279,0,0,0-1.043.227,2,2,0,0,0-.74.639v7.946H83.47v-10.9H86.2Z" fill="#002e3c"/>
            <path id="Trazado_218059" data-name="Trazado 218059" d="M111.146,302.442a6.37,6.37,0,0,1-1.088,3.9,3.677,3.677,0,0,1-3.142,1.46,3.321,3.321,0,0,1-1.667-.4,3.432,3.432,0,0,1-1.2-1.178l-.242,1.37h-2.487V291.878h2.931v5.972a3.333,3.333,0,0,1,1.133-1.007,3.168,3.168,0,0,1,1.516-.353,3.609,3.609,0,0,1,3.162,1.566,7.185,7.185,0,0,1,1.088,4.174Zm-2.931-.211a5.684,5.684,0,0,0-.468-2.523,1.645,1.645,0,0,0-1.6-.932,2.193,2.193,0,0,0-1.158.287,1.988,1.988,0,0,0-.745.821V304.5a1.868,1.868,0,0,0,.75.755,2.414,2.414,0,0,0,1.174.262,1.671,1.671,0,0,0,1.591-.8,4.666,4.666,0,0,0,.453-2.271v-.211Z" fill="#002e3c"/>
            <path id="Trazado_218060" data-name="Trazado 218060" d="M119.636,305.977a3.7,3.7,0,0,1-1.279,1.35,3.394,3.394,0,0,1-1.8.473,3.314,3.314,0,0,1-2.694-1.168,5.607,5.607,0,0,1-.972-3.626v-6.315h2.931v6.335a3.514,3.514,0,0,0,.388,1.958,1.4,1.4,0,0,0,1.2.529,2.932,2.932,0,0,0,1.208-.227,2.032,2.032,0,0,0,.826-.67v-7.926h2.94v10.9h-2.437Z" fill="#002e3c"/>
            <path id="Trazado_218061" data-name="Trazado 218061" d="M130.492,304.567a1.013,1.013,0,0,0-.469-.831,4.745,4.745,0,0,0-1.737-.609,6.931,6.931,0,0,1-2.905-1.158,2.531,2.531,0,0,1-.992-2.105,3,3,0,0,1,1.188-2.387,4.79,4.79,0,0,1,3.162-.987,5.169,5.169,0,0,1,3.309.987,2.883,2.883,0,0,1,1.193,2.457l-.02.06h-2.841a1.425,1.425,0,0,0-.423-1.067,1.977,1.977,0,0,0-2.336-.061,1.1,1.1,0,0,0-.413.866.978.978,0,0,0,.428.821,4.755,4.755,0,0,0,1.737.569,7.068,7.068,0,0,1,2.986,1.184,2.6,2.6,0,0,1,.981,2.15,2.875,2.875,0,0,1-1.259,2.407,5.432,5.432,0,0,1-3.323.936,5.054,5.054,0,0,1-3.439-1.1,3.083,3.083,0,0,1-1.2-2.513l.02-.06h2.689a1.531,1.531,0,0,0,.574,1.269,2.37,2.37,0,0,0,1.42.393,2.022,2.022,0,0,0,1.244-.327A1.059,1.059,0,0,0,130.492,304.567Z" fill="#002e3c"/>
            <path id="Trazado_218062" data-name="Trazado 218062" d="M138.761,294.023v2.669H140.6v2.065h-1.843v5.549a1.266,1.266,0,0,0,.267.906.935.935,0,0,0,.7.272,2.832,2.832,0,0,0,.4-.025,3.458,3.458,0,0,0,.394-.086l.241,2.125a5.891,5.891,0,0,1-.861.227,5.083,5.083,0,0,1-.911.076,3.135,3.135,0,0,1-2.342-.836,3.666,3.666,0,0,1-.82-2.648v-5.56h-1.592v-2.065h1.592v-2.669h2.931Z" fill="#002e3c"/>
            <path id="Trazado_218063" data-name="Trazado 218063" d="M145.508,294.083h-2.94v-2.206h2.94Zm0,13.506h-2.94v-10.9h2.94Z" fill="#002e3c"/>
            <path id="Trazado_218064" data-name="Trazado 218064" d="M157.755,302.442a6.37,6.37,0,0,1-1.088,3.9,3.677,3.677,0,0,1-3.142,1.46,3.321,3.321,0,0,1-1.667-.4,3.432,3.432,0,0,1-1.2-1.178l-.242,1.37h-2.487V291.878h2.931v5.972a3.333,3.333,0,0,1,1.133-1.007,3.168,3.168,0,0,1,1.516-.353,3.609,3.609,0,0,1,3.162,1.566,7.185,7.185,0,0,1,1.088,4.174v.211Zm-2.93-.211a5.684,5.684,0,0,0-.468-2.523,1.645,1.645,0,0,0-1.6-.932,2.193,2.193,0,0,0-1.158.287,1.988,1.988,0,0,0-.745.821V304.5a1.868,1.868,0,0,0,.75.755,2.414,2.414,0,0,0,1.174.262,1.671,1.671,0,0,0,1.591-.8,4.666,4.666,0,0,0,.453-2.271v-.211Z" fill="#002e3c"/>
            <path id="Trazado_218065" data-name="Trazado 218065" d="M162.66,307.589h-2.94V291.878h2.94Z" fill="#002e3c"/>
            <path id="Trazado_218066" data-name="Trazado 218066" d="M169.8,307.8a4.9,4.9,0,0,1-3.807-1.5,5.482,5.482,0,0,1-1.37-3.852v-.4a5.964,5.964,0,0,1,1.33-4.008,4.52,4.52,0,0,1,3.655-1.551,4.231,4.231,0,0,1,3.369,1.345,5.314,5.314,0,0,1,1.173,3.621v1.521h-6.5l-.03.06a2.945,2.945,0,0,0,.681,1.813,2.273,2.273,0,0,0,1.808.695,6.033,6.033,0,0,0,1.677-.2,6.807,6.807,0,0,0,1.425-.614l.8,1.813a5.457,5.457,0,0,1-1.773.9A7.86,7.86,0,0,1,169.8,307.8Zm-.191-9.044a1.632,1.632,0,0,0-1.364.609,3.048,3.048,0,0,0-.579,1.617l.02.05h3.586v-.222a2.548,2.548,0,0,0-.393-1.506A1.455,1.455,0,0,0,169.609,298.756Z" fill="#002e3c"/>
          </g>
        </g>
        <circle id="Elipse_4804" data-name="Elipse 4804" cx="101.259" cy="101.259" r="101.259" transform="translate(584.855 158.641)" fill="#eaf7ff"/>
        <ellipse id="Elipse_4805" data-name="Elipse 4805" cx="85.072" cy="85.073" rx="85.072" ry="85.073" transform="matrix(0.234, -0.972, 0.972, 0.234, 583.478, 322.718)" fill="none" stroke="#007fca" stroke-miterlimit="10" stroke-width="5"/>
        <g id="Grupo_151922" data-name="Grupo 151922">
          <g id="Grupo_151921" data-name="Grupo 151921">
            <path id="Trazado_218067" data-name="Trazado 218067" d="M674.608,309.75l.021.06a4.6,4.6,0,0,1-1.43,3.676,5.834,5.834,0,0,1-4.06,1.329,5.622,5.622,0,0,1-4.26-1.7,6.087,6.087,0,0,1-1.621-4.386v-2.911a6.2,6.2,0,0,1,1.581-4.386,5.39,5.39,0,0,1,4.149-1.707,6.19,6.19,0,0,1,4.19,1.309,4.511,4.511,0,0,1,1.471,3.686l-.021.06h-2.86a2.884,2.884,0,0,0-.68-2.1,2.837,2.837,0,0,0-2.1-.69,2.37,2.37,0,0,0-2.06,1.063,4.693,4.693,0,0,0-.74,2.744v2.931a4.561,4.561,0,0,0,.78,2.76,2.538,2.538,0,0,0,2.17,1.067,2.584,2.584,0,0,0,1.97-.69,3,3,0,0,0,.649-2.12h2.85Z" fill="#002e3c"/>
            <path id="Trazado_218068" data-name="Trazado 218068" d="M679.6,314.605h-2.94V298.894h2.94Z" fill="#002e3c"/>
            <path id="Trazado_218069" data-name="Trazado 218069" d="M681.568,309.055a5.849,5.849,0,0,1,1.359-3.993,4.74,4.74,0,0,1,3.767-1.556,4.79,4.79,0,0,1,3.787,1.551,5.816,5.816,0,0,1,1.369,4v.211a5.828,5.828,0,0,1-1.364,4,5.387,5.387,0,0,1-7.554,0,5.823,5.823,0,0,1-1.364-4v-.211Zm2.93.212a4.735,4.735,0,0,0,.523,2.392,2.012,2.012,0,0,0,3.358,0,4.71,4.71,0,0,0,.529-2.387v-.211a4.655,4.655,0,0,0-.534-2.367,1.805,1.805,0,0,0-1.682-.917,1.784,1.784,0,0,0-1.667.921,4.705,4.705,0,0,0-.528,2.362Z" fill="#002e3c"/>
            <path id="Trazado_218070" data-name="Trazado 218070" d="M699.393,306.236l-1.077-.03a1.961,1.961,0,0,0-1.078.272,1.726,1.726,0,0,0-.644.766v7.362h-2.931v-10.9h2.729l.131,1.611a3.434,3.434,0,0,1,.992-1.335,2.312,2.312,0,0,1,1.813-.443q.186.035.378.085Z" fill="#002e3c"/>
            <path id="Trazado_218071" data-name="Trazado 218071" d="M700.27,309.055a5.849,5.849,0,0,1,1.359-3.993,4.74,4.74,0,0,1,3.767-1.556,4.79,4.79,0,0,1,3.787,1.551,5.816,5.816,0,0,1,1.369,4v.211a5.828,5.828,0,0,1-1.364,4,5.387,5.387,0,0,1-7.554,0,5.823,5.823,0,0,1-1.364-4v-.211Zm2.931.212a4.735,4.735,0,0,0,.523,2.392,2.012,2.012,0,0,0,3.358,0,4.71,4.71,0,0,0,.529-2.387v-.211a4.655,4.655,0,0,0-.534-2.367,1.805,1.805,0,0,0-1.682-.917,1.784,1.784,0,0,0-1.667.921,4.705,4.705,0,0,0-.528,2.362Z" fill="#002e3c"/>
          </g>
        </g>
        <circle id="Elipse_4806" data-name="Elipse 4806" cx="101.259" cy="101.259" r="101.259" transform="translate(8.095 484.926)" fill="#eaf7ff"/>
        <ellipse id="Elipse_4807" data-name="Elipse 4807" cx="85.072" cy="85.073" rx="85.072" ry="85.073" transform="matrix(0.234, -0.972, 0.972, 0.234, 6.719, 648.978)" fill="none" stroke="#003e50" stroke-miterlimit="10" stroke-width="5"/>
        <g id="Grupo_151924" data-name="Grupo 151924">
          <g id="Grupo_151923" data-name="Grupo 151923">
            <path id="Trazado_218072" data-name="Trazado 218072" d="M82.475,611.838H77.036v4.19H83.5v2.256H74.1V603.62h9.386v2.266H77.036v3.686h5.438Z" fill="#002e3c"/>
            <path id="Trazado_218073" data-name="Trazado 218073" d="M88.035,607.386l.131,1.561a3.982,3.982,0,0,1,1.34-1.3,3.477,3.477,0,0,1,1.782-.463,3.242,3.242,0,0,1,2.578,1.063,5.041,5.041,0,0,1,.927,3.359v6.677H91.841v-6.667a2.6,2.6,0,0,0-.408-1.657,1.5,1.5,0,0,0-1.224-.489,2.562,2.562,0,0,0-1.152.247,2.25,2.25,0,0,0-.821.68v7.886H85.3v-10.9h2.739Z" fill="#002e3c"/>
            <path id="Trazado_218074" data-name="Trazado 218074" d="M101.711,618.495A4.9,4.9,0,0,1,97.9,617a5.481,5.481,0,0,1-1.369-3.852v-.4a5.963,5.963,0,0,1,1.329-4.008,4.521,4.521,0,0,1,3.656-1.551,4.23,4.23,0,0,1,3.368,1.345,5.314,5.314,0,0,1,1.174,3.621v1.521h-6.5l-.03.06a2.944,2.944,0,0,0,.68,1.813,2.276,2.276,0,0,0,1.808.695,6.027,6.027,0,0,0,1.677-.2,6.817,6.817,0,0,0,1.426-.614l.795,1.813a5.456,5.456,0,0,1-1.772.9A7.859,7.859,0,0,1,101.711,618.495Zm-.191-9.044a1.635,1.635,0,0,0-1.365.609,3.064,3.064,0,0,0-.579,1.617l.021.05h3.585v-.222a2.548,2.548,0,0,0-.393-1.506A1.452,1.452,0,0,0,101.52,609.451Z" fill="#002e3c"/>
            <path id="Trazado_218075" data-name="Trazado 218075" d="M113.5,609.914l-1.078-.03a1.958,1.958,0,0,0-1.077.272,1.719,1.719,0,0,0-.645.766v7.362h-2.931v-10.9H110.5l.131,1.611a3.433,3.433,0,0,1,.991-1.334,2.314,2.314,0,0,1,1.813-.443q.186.035.378.085Z" fill="#002e3c"/>
            <path id="Trazado_218076" data-name="Trazado 218076" d="M114.41,612.925a7.057,7.057,0,0,1,1.118-4.159,3.627,3.627,0,0,1,3.143-1.581,3.1,3.1,0,0,1,1.611.413,3.623,3.623,0,0,1,1.188,1.178l.231-1.39h2.527v10.847a4.049,4.049,0,0,1-1.39,3.288,5.868,5.868,0,0,1-3.877,1.163,7.373,7.373,0,0,1-1.753-.227,8.14,8.14,0,0,1-1.712-.619l.493-2.2a6.761,6.761,0,0,0,1.4.489,6.9,6.9,0,0,0,1.556.166,2.632,2.632,0,0,0,1.777-.5,1.992,1.992,0,0,0,.569-1.571v-.987a3.286,3.286,0,0,1-1.138.937,3.355,3.355,0,0,1-1.5.322,3.7,3.7,0,0,1-3.122-1.47,6.261,6.261,0,0,1-1.118-3.888v-.212Zm2.942.212a4.472,4.472,0,0,0,.479,2.251,1.67,1.67,0,0,0,1.565.821,2.428,2.428,0,0,0,1.144-.247,1.891,1.891,0,0,0,.75-.72v-4.723a2.021,2.021,0,0,0-.75-.776,2.2,2.2,0,0,0-1.123-.272,1.65,1.65,0,0,0-1.571.957,5.452,5.452,0,0,0-.493,2.5Z" fill="#002e3c"/>
            <path id="Trazado_218077" data-name="Trazado 218077" d="M129.638,618.283H126.7v-10.9h2.94Zm-.876-15.338h3.273l.02.06-2.789,2.618h-2.508Z" fill="#002e3c"/>
            <path id="Trazado_218078" data-name="Trazado 218078" d="M138.572,618.283a6.176,6.176,0,0,1-.277-.786,5.425,5.425,0,0,1-.166-.846,4.025,4.025,0,0,1-1.2,1.319,3.009,3.009,0,0,1-1.773.523,3.678,3.678,0,0,1-2.639-.881,3.155,3.155,0,0,1-.927-2.4,2.874,2.874,0,0,1,1.233-2.482,6.165,6.165,0,0,1,3.6-.881h1.652v-.866a1.7,1.7,0,0,0-.413-1.218,1.622,1.622,0,0,0-1.229-.433,1.6,1.6,0,0,0-1.1.347,1.216,1.216,0,0,0-.388.952h-2.83l-.02-.06a2.763,2.763,0,0,1,1.2-2.382,5.23,5.23,0,0,1,3.329-1,4.876,4.876,0,0,1,3.177.987,3.436,3.436,0,0,1,1.214,2.83v4.5a8.425,8.425,0,0,0,.116,1.44,7.145,7.145,0,0,0,.367,1.339h-2.931Zm-2.69-1.963a2.5,2.5,0,0,0,1.37-.383,2.067,2.067,0,0,0,.826-.886V613.51h-1.652a1.96,1.96,0,0,0-1.415.463,1.525,1.525,0,0,0-.479,1.138,1.134,1.134,0,0,0,.358.881A1.411,1.411,0,0,0,135.882,616.32Z" fill="#002e3c"/>
            <path id="Trazado_218079" data-name="Trazado 218079" d="M76.151,640.1a4.9,4.9,0,0,1-3.808-1.5,5.481,5.481,0,0,1-1.369-3.852v-.4a5.963,5.963,0,0,1,1.329-4.008,4.521,4.521,0,0,1,3.656-1.551,4.23,4.23,0,0,1,3.368,1.345,5.314,5.314,0,0,1,1.174,3.621v1.521h-6.5l-.03.06a2.944,2.944,0,0,0,.68,1.813,2.276,2.276,0,0,0,1.808.695,6.027,6.027,0,0,0,1.677-.2,6.817,6.817,0,0,0,1.426-.614l.795,1.813a5.456,5.456,0,0,1-1.772.9A7.859,7.859,0,0,1,76.151,640.1Zm-.191-9.044a1.635,1.635,0,0,0-1.365.609,3.064,3.064,0,0,0-.579,1.617l.021.05H77.62v-.222a2.548,2.548,0,0,0-.393-1.506A1.452,1.452,0,0,0,75.959,631.059Z" fill="#002e3c"/>
            <path id="Trazado_218080" data-name="Trazado 218080" d="M85.305,639.891H82.364V624.18h2.941Z" fill="#002e3c"/>
            <path id="Trazado_218081" data-name="Trazado 218081" d="M92.446,640.1a4.9,4.9,0,0,1-3.808-1.5,5.481,5.481,0,0,1-1.369-3.852v-.4a5.963,5.963,0,0,1,1.329-4.008,4.521,4.521,0,0,1,3.656-1.551,4.23,4.23,0,0,1,3.368,1.345,5.314,5.314,0,0,1,1.174,3.621v1.521H90.3l-.03.06a2.944,2.944,0,0,0,.68,1.813,2.276,2.276,0,0,0,1.808.695,6.027,6.027,0,0,0,1.677-.2,6.817,6.817,0,0,0,1.426-.614l.795,1.813a5.456,5.456,0,0,1-1.772.9A7.859,7.859,0,0,1,92.446,640.1Zm-.191-9.044a1.635,1.635,0,0,0-1.365.609,3.064,3.064,0,0,0-.579,1.617l.021.05h3.585v-.222a2.548,2.548,0,0,0-.393-1.506A1.453,1.453,0,0,0,92.254,631.059Zm.352-6.728h3.272l.021.06-2.79,2.619H90.6Z" fill="#002e3c"/>
            <path id="Trazado_218082" data-name="Trazado 218082" d="M103.061,637.847a1.638,1.638,0,0,0,1.219-.458,1.664,1.664,0,0,0,.453-1.224h2.679l.021.06a3.409,3.409,0,0,1-1.229,2.765,4.591,4.591,0,0,1-3.142,1.113,4.642,4.642,0,0,1-3.736-1.546,5.874,5.874,0,0,1-1.319-3.953v-.3a5.916,5.916,0,0,1,1.313-3.953,4.605,4.605,0,0,1,3.722-1.556,4.494,4.494,0,0,1,3.213,1.148,3.838,3.838,0,0,1,1.179,3.021l-.021.06h-2.679a2.174,2.174,0,0,0-.448-1.4,1.507,1.507,0,0,0-1.244-.559,1.678,1.678,0,0,0-1.616.912,4.993,4.993,0,0,0-.479,2.331v.3a4.973,4.973,0,0,0,.479,2.347A1.7,1.7,0,0,0,103.061,637.847Z" fill="#002e3c"/>
            <path id="Trazado_218083" data-name="Trazado 218083" d="M112.668,626.325v2.669h1.843v2.065h-1.843v5.549a1.266,1.266,0,0,0,.267.906.935.935,0,0,0,.7.272,2.832,2.832,0,0,0,.4-.025,3.464,3.464,0,0,0,.394-.086l.241,2.125a5.9,5.9,0,0,1-.861.227,5.086,5.086,0,0,1-.911.076,3.135,3.135,0,0,1-2.342-.836,3.666,3.666,0,0,1-.82-2.648v-5.56h-1.592v-2.065h1.592v-2.669h2.931Z" fill="#002e3c"/>
            <path id="Trazado_218084" data-name="Trazado 218084" d="M122.055,631.522l-1.078-.03a1.958,1.958,0,0,0-1.077.272,1.719,1.719,0,0,0-.645.766v7.362h-2.931v-10.9h2.729l.131,1.611a3.433,3.433,0,0,1,.991-1.334,2.314,2.314,0,0,1,1.813-.443q.186.035.378.085Z" fill="#002e3c"/>
            <path id="Trazado_218085" data-name="Trazado 218085" d="M126.677,626.386h-2.94V624.18h2.94Zm0,13.505h-2.94v-10.9h2.94Z" fill="#002e3c"/>
            <path id="Trazado_218086" data-name="Trazado 218086" d="M133.647,637.847a1.638,1.638,0,0,0,1.219-.458,1.664,1.664,0,0,0,.453-1.224H138l.02.06a3.409,3.409,0,0,1-1.23,2.765,4.591,4.591,0,0,1-3.142,1.113,4.642,4.642,0,0,1-3.736-1.546,5.874,5.874,0,0,1-1.319-3.953v-.3a5.916,5.916,0,0,1,1.314-3.953,4.605,4.605,0,0,1,3.722-1.556,4.494,4.494,0,0,1,3.213,1.148,3.838,3.838,0,0,1,1.179,3.021l-.02.06h-2.679a2.174,2.174,0,0,0-.448-1.4,1.507,1.507,0,0,0-1.244-.559,1.678,1.678,0,0,0-1.616.912,4.993,4.993,0,0,0-.479,2.331v.3a4.973,4.973,0,0,0,.479,2.347A1.7,1.7,0,0,0,133.647,637.847Z" fill="#002e3c"/>
            <path id="Trazado_218087" data-name="Trazado 218087" d="M146.155,639.891a6.188,6.188,0,0,1-.276-.786,5.425,5.425,0,0,1-.166-.846,4.037,4.037,0,0,1-1.2,1.319,3,3,0,0,1-1.773.523,3.679,3.679,0,0,1-2.639-.881,3.158,3.158,0,0,1-.926-2.4,2.874,2.874,0,0,1,1.233-2.482,6.161,6.161,0,0,1,3.6-.881h1.651v-.866a1.7,1.7,0,0,0-.413-1.218,1.621,1.621,0,0,0-1.229-.433,1.6,1.6,0,0,0-1.1.347,1.212,1.212,0,0,0-.388.952H139.7l-.02-.06a2.764,2.764,0,0,1,1.2-2.382,5.224,5.224,0,0,1,3.328-1,4.878,4.878,0,0,1,3.178.987,3.439,3.439,0,0,1,1.213,2.83v4.5a8.526,8.526,0,0,0,.116,1.44,7.292,7.292,0,0,0,.367,1.339h-2.931Zm-2.689-1.964a2.5,2.5,0,0,0,1.369-.383,2.055,2.055,0,0,0,.826-.886v-1.541H144.01a1.957,1.957,0,0,0-1.415.463,1.522,1.522,0,0,0-.479,1.138,1.137,1.137,0,0,0,.357.881A1.415,1.415,0,0,0,143.466,637.927Z" fill="#002e3c"/>
          </g>
        </g>
        <circle id="Elipse_4808" data-name="Elipse 4808" cx="194.809" cy="194.809" r="194.809" transform="translate(125.916 434.804) rotate(-45)" fill="#a6ddfe"/>
        <g id="Grupo_151926" data-name="Grupo 151926">
          <g id="Grupo_151925" data-name="Grupo 151925">
            <path id="Trazado_218088" data-name="Trazado 218088" d="M344.911,528.812h-4.353V507.1h4.353Z" fill="#002e3c"/>
            <path id="Trazado_218089" data-name="Trazado 218089" d="M352.873,512.679l.194,2.311a5.89,5.89,0,0,1,1.982-1.923,5.145,5.145,0,0,1,2.64-.686,4.8,4.8,0,0,1,3.816,1.573q1.373,1.573,1.372,4.973v9.885h-4.369v-9.87a3.865,3.865,0,0,0-.6-2.453,2.225,2.225,0,0,0-1.811-.723,3.8,3.8,0,0,0-1.707.366,3.327,3.327,0,0,0-1.215,1.006v11.674h-4.354V512.679h4.056Z" fill="#002e3c"/>
            <path id="Trazado_218090" data-name="Trazado 218090" d="M374.851,524.339a1.5,1.5,0,0,0-.693-1.23,7.039,7.039,0,0,0-2.572-.9,10.262,10.262,0,0,1-4.3-1.715,3.746,3.746,0,0,1-1.468-3.116,4.446,4.446,0,0,1,1.759-3.534,7.1,7.1,0,0,1,4.682-1.461,7.659,7.659,0,0,1,4.9,1.461,4.27,4.27,0,0,1,1.767,3.638l-.03.089h-4.2a2.114,2.114,0,0,0-.626-1.581,2.93,2.93,0,0,0-3.459-.089,1.621,1.621,0,0,0-.611,1.282,1.448,1.448,0,0,0,.633,1.215,7.055,7.055,0,0,0,2.572.842,10.469,10.469,0,0,1,4.421,1.752,3.844,3.844,0,0,1,1.454,3.183,4.259,4.259,0,0,1-1.864,3.563,8.041,8.041,0,0,1-4.92,1.387,7.477,7.477,0,0,1-5.092-1.632,4.564,4.564,0,0,1-1.782-3.72l.03-.089h3.98a2.263,2.263,0,0,0,.851,1.878,3.506,3.506,0,0,0,2.1.581,2.989,2.989,0,0,0,1.842-.484A1.575,1.575,0,0,0,374.851,524.339Z" fill="#002e3c"/>
            <path id="Trazado_218091" data-name="Trazado 218091" d="M391.758,526.426a5.476,5.476,0,0,1-1.894,2,5.019,5.019,0,0,1-2.669.7,4.9,4.9,0,0,1-3.988-1.729q-1.439-1.729-1.439-5.368v-9.348h4.339v9.378a5.208,5.208,0,0,0,.574,2.9,2.062,2.062,0,0,0,1.781.783,4.341,4.341,0,0,0,1.789-.335,3.016,3.016,0,0,0,1.223-.992V512.68h4.353v16.132h-3.607Z" fill="#002e3c"/>
            <path id="Trazado_218092" data-name="Trazado 218092" d="M403.15,512.679l.179,2.132a5.414,5.414,0,0,1,1.945-1.8,5.6,5.6,0,0,1,2.707-.634,4.925,4.925,0,0,1,2.653.686,4.231,4.231,0,0,1,1.67,2.072,5.6,5.6,0,0,1,1.939-2.028,5.26,5.26,0,0,1,2.8-.731,4.594,4.594,0,0,1,3.765,1.692,8.075,8.075,0,0,1,1.38,5.166v9.572h-4.353v-9.587a4.522,4.522,0,0,0-.6-2.7,2.118,2.118,0,0,0-1.774-.761,3.041,3.041,0,0,0-1.6.41,2.985,2.985,0,0,0-1.081,1.141q0,.284.015.485t.015.41v10.6h-4.339v-9.587a4.536,4.536,0,0,0-.6-2.676,2.109,2.109,0,0,0-1.789-.783,3.38,3.38,0,0,0-1.544.335,2.961,2.961,0,0,0-1.1.947v11.764h-4.339V512.679h4.041Z" fill="#002e3c"/>
            <path id="Trazado_218093" data-name="Trazado 218093" d="M424.859,520.6a8.658,8.658,0,0,1,2.013-5.912,7.014,7.014,0,0,1,5.576-2.3,7.094,7.094,0,0,1,5.606,2.3,8.612,8.612,0,0,1,2.027,5.919v.313a8.626,8.626,0,0,1-2.021,5.927,7.974,7.974,0,0,1-11.183,0,8.625,8.625,0,0,1-2.02-5.927Zm4.339.313a7.009,7.009,0,0,0,.775,3.541,2.676,2.676,0,0,0,2.5,1.334,2.649,2.649,0,0,0,2.467-1.342,6.964,6.964,0,0,0,.783-3.534V520.6a6.907,6.907,0,0,0-.79-3.5,2.675,2.675,0,0,0-2.49-1.357,2.643,2.643,0,0,0-2.468,1.364,6.968,6.968,0,0,0-.782,3.5v.313Z" fill="#002e3c"/>
            <path id="Trazado_218094" data-name="Trazado 218094" d="M451.488,524.339a1.5,1.5,0,0,0-.693-1.23,7.039,7.039,0,0,0-2.572-.9,10.262,10.262,0,0,1-4.3-1.715,3.746,3.746,0,0,1-1.468-3.116,4.446,4.446,0,0,1,1.759-3.534,7.1,7.1,0,0,1,4.682-1.461,7.659,7.659,0,0,1,4.9,1.461,4.27,4.27,0,0,1,1.767,3.638l-.03.089h-4.2a2.114,2.114,0,0,0-.626-1.581,2.93,2.93,0,0,0-3.459-.089,1.621,1.621,0,0,0-.611,1.282,1.448,1.448,0,0,0,.633,1.215,7.055,7.055,0,0,0,2.572.842,10.469,10.469,0,0,1,4.421,1.752,3.844,3.844,0,0,1,1.454,3.183,4.259,4.259,0,0,1-1.864,3.563,8.041,8.041,0,0,1-4.92,1.387,7.477,7.477,0,0,1-5.092-1.632,4.564,4.564,0,0,1-1.782-3.72l.03-.089h3.98a2.263,2.263,0,0,0,.851,1.878,3.506,3.506,0,0,0,2.1.581,2.989,2.989,0,0,0,1.842-.484A1.575,1.575,0,0,0,451.488,524.339Z" fill="#002e3c"/>
          </g>
        </g>
        <g id="Grupo_151949" data-name="Grupo 151949">
          <g id="Grupo_151948" data-name="Grupo 151948">
            <g id="Grupo_151944" data-name="Grupo 151944">
              <g id="Grupo_151934" data-name="Grupo 151934">
                <g id="Grupo_151928" data-name="Grupo 151928">
                  <path id="Trazado_218095" data-name="Trazado 218095" d="M406.667,367.884v50.453h10.786a1.457,1.457,0,0,1,1.455,1.455v40.461l5.455-5.44a15,15,0,0,1,21.19,0L470.806,480h12.371V367.884Z" fill="#0593fc"/>
                  <path id="Trazado_218096" data-name="Trazado 218096" d="M406.667,368.231h10.342v50.106H406.667Z" fill="#0182fc"/>
                  <path id="Trazado_218097" data-name="Trazado 218097" d="M486.171,359.22h-79.5v9.011h79.5a1.8,1.8,0,0,0,1.8-1.8v-5.406A1.8,1.8,0,0,0,486.171,359.22Z" fill="#0182fc"/>
                  <path id="Trazado_218098" data-name="Trazado 218098" d="M418.513,359.22H406.667v9.011h11.845a1.8,1.8,0,0,1-1.8-1.8v-5.406A1.8,1.8,0,0,1,418.513,359.22Z" fill="#0172fb"/>
                  <path id="Trazado_218099" data-name="Trazado 218099" d="M486.171,479.65H470.459l8.28,8.258,1.247.754h6.185a1.8,1.8,0,0,0,1.8-1.8v-5.406A1.8,1.8,0,0,0,486.171,479.65Z" fill="#0182fc"/>
                  <g id="Grupo_151927" data-name="Grupo 151927">
                    <path id="Trazado_218100" data-name="Trazado 218100" d="M406.667,402.394h76.449a2.6,2.6,0,0,0,0-5.2H406.667Z" fill="#0172fb"/>
                    <path id="Trazado_218101" data-name="Trazado 218101" d="M418.908,441.638h64.208a2.6,2.6,0,0,0,0-5.2H418.908Z" fill="#0172fb"/>
                  </g>
                </g>
                <g id="Grupo_151933" data-name="Grupo 151933">
                  <path id="Trazado_218102" data-name="Trazado 218102" d="M315.143,349.207V480h33.789v-60.2a1.457,1.457,0,0,1,1.455-1.455h56.627v-69.13Z" fill="#fed402"/>
                  <path id="Trazado_218103" data-name="Trazado 218103" d="M315.143,349.207H328.03V480H315.143Z" fill="#fac600"/>
                  <g id="Grupo_151929" data-name="Grupo 151929">
                    <path id="Trazado_218104" data-name="Trazado 218104" d="M410.007,340.543H312.149a1.8,1.8,0,0,0-1.8,1.8v5.406a1.8,1.8,0,0,0,1.8,1.8h97.858a1.8,1.8,0,0,0,1.8-1.8v-5.406A1.8,1.8,0,0,0,410.007,340.543Z" fill="#fac600"/>
                  </g>
                  <g id="Grupo_151930" data-name="Grupo 151930">
                    <path id="Trazado_218105" data-name="Trazado 218105" d="M325.536,347.752v-5.406a1.8,1.8,0,0,1,1.8-1.8H312.149a1.8,1.8,0,0,0-1.8,1.8v5.406a1.8,1.8,0,0,0,1.8,1.8h15.189A1.8,1.8,0,0,1,325.536,347.752Z" fill="#e8b800"/>
                  </g>
                  <path id="Trazado_218106" data-name="Trazado 218106" d="M348.932,479.65H312.15a1.8,1.8,0,0,0-1.8,1.8v5.406a1.8,1.8,0,0,0,1.8,1.8h36.782Z" fill="#fac600"/>
                  <g id="Grupo_151931" data-name="Grupo 151931">
                    <path id="Trazado_218107" data-name="Trazado 218107" d="M325.536,486.858v-5.406a1.8,1.8,0,0,1,1.8-1.8H312.149a1.8,1.8,0,0,0-1.8,1.8v5.406a1.8,1.8,0,0,0,1.8,1.8h15.189a1.8,1.8,0,0,1-1.8-1.8Z" fill="#e8b800"/>
                  </g>
                  <g id="Grupo_151932" data-name="Grupo 151932">
                    <path id="Trazado_218108" data-name="Trazado 218108" d="M407.486,388.791H314.67a2.6,2.6,0,1,1,0-5.2h92.816a2.6,2.6,0,1,1,0,5.2Z" fill="#e8b800"/>
                  </g>
                  <path id="Trazado_218109" data-name="Trazado 218109" d="M348.932,429.522H314.671a2.6,2.6,0,1,0,0,5.2h34.261Z" fill="#e8b800"/>
                </g>
              </g>
              <g id="Grupo_151943" data-name="Grupo 151943">
                <g id="Grupo_151940" data-name="Grupo 151940">
                  <path id="Trazado_218110" data-name="Trazado 218110" d="M419.255,459.908V419.793a1.8,1.8,0,0,0-1.8-1.8H350.387a1.8,1.8,0,0,0-1.8,1.8v68.868h41.346l2.462-1.965Z" fill="#ffbd86"/>
                  <g id="Grupo_151935" data-name="Grupo 151935">
                    <path id="Trazado_218111" data-name="Trazado 218111" d="M362.457,417.99H350.386a1.8,1.8,0,0,0-1.8,1.8V488.66h12.071V419.792a1.8,1.8,0,0,1,1.8-1.8Z" fill="#f6a96c"/>
                  </g>
                  <g id="Grupo_151936" data-name="Grupo 151936">
                    <path id="Trazado_218112" data-name="Trazado 218112" d="M388.9,435.153h-9.952a1.081,1.081,0,0,1-1.081-1.081V417.99h12.115v16.081A1.081,1.081,0,0,1,388.9,435.153Z" fill="#fe646f"/>
                  </g>
                  <g id="Grupo_151937" data-name="Grupo 151937">
                    <path id="Trazado_218113" data-name="Trazado 218113" d="M383.829,434.072V417.991h-5.966v16.081a1.081,1.081,0,0,0,1.081,1.081h5.966A1.082,1.082,0,0,1,383.829,434.072Z" fill="#fd4755"/>
                  </g>
                  <g id="Grupo_151938" data-name="Grupo 151938">
                    <path id="Trazado_218114" data-name="Trazado 218114" d="M374.8,479.514H358.79a1.081,1.081,0,0,1-1.081-1.081v-16.01a1.081,1.081,0,0,1,1.081-1.081H374.8a1.081,1.081,0,0,1,1.081,1.081v16.01A1.082,1.082,0,0,1,374.8,479.514Z" fill="#fff"/>
                  </g>
                  <g id="Grupo_151939" data-name="Grupo 151939">
                    <path id="Trazado_218115" data-name="Trazado 218115" d="M366.692,478.432v-16.01a1.081,1.081,0,0,1,1.081-1.081h-8.983a1.082,1.082,0,0,0-1.081,1.081v16.01a1.081,1.081,0,0,0,1.081,1.081h8.983A1.08,1.08,0,0,1,366.692,478.432Z" fill="#f3f0f3"/>
                  </g>
                </g>
                <g id="Grupo_151941" data-name="Grupo 151941">
                  <path id="Trazado_218116" data-name="Trazado 218116" d="M424.118,454.568l-34.187,34.093h90.055L445.8,454.568A15.351,15.351,0,0,0,424.118,454.568Z" fill="#7a6d79"/>
                </g>
                <g id="Grupo_151942" data-name="Grupo 151942">
                  <path id="Trazado_218117" data-name="Trazado 218117" d="M441.9,451.743a15.355,15.355,0,0,0-17.777,2.825l-34.187,34.093h13.875l34.187-34.093a15.323,15.323,0,0,1,3.9-2.825Z" fill="#685e68"/>
                </g>
              </g>
            </g>
            <g id="Grupo_151945" data-name="Grupo 151945">
              <path id="Trazado_218118" data-name="Trazado 218118" d="M442.413,467.7H440.25a2.6,2.6,0,0,1,0-5.2h2.163a2.6,2.6,0,0,1,0,5.2Z" fill="#a79ba7"/>
            </g>
            <g id="Grupo_151946" data-name="Grupo 151946">
              <path id="Trazado_218119" data-name="Trazado 218119" d="M433.4,476.709h-2.163a2.6,2.6,0,1,1,0-5.2H433.4a2.6,2.6,0,1,1,0,5.2Z" fill="#a79ba7"/>
            </g>
            <g id="Grupo_151947" data-name="Grupo 151947">
              <path id="Trazado_218120" data-name="Trazado 218120" d="M453.227,480.674h-2.163a2.6,2.6,0,0,1,0-5.2h2.163a2.6,2.6,0,0,1,0,5.2Z" fill="#a79ba7"/>
            </g>
          </g>
        </g>
        <g id="Grupo_151951" data-name="Grupo 151951">
          <g id="Grupo_151950" data-name="Grupo 151950">
            <path id="Trazado_218121" data-name="Trazado 218121" d="M657.845,540.587h4.305v49.084h-4.305Z" fill="#be652b"/>
            <path id="Trazado_218122" data-name="Trazado 218122" d="M719.272,540.587h4.305v49.084h-4.305Z" fill="#be652b"/>
            <path id="Trazado_218123" data-name="Trazado 218123" d="M677.668,530.954H665.612v-7.877a2.583,2.583,0,0,1,2.583-2.583h6.889a2.583,2.583,0,0,1,2.583,2.583v7.877Z" fill="#ffd54f"/>
            <path id="Trazado_218124" data-name="Trazado 218124" d="M675.085,520.494h-4.306a2.583,2.583,0,0,1,2.583,2.583v7.877h4.306v-7.877A2.583,2.583,0,0,0,675.085,520.494Z" fill="#ffc328"/>
            <path id="Trazado_218125" data-name="Trazado 218125" d="M671.64,577.041a5.454,5.454,0,0,1-5.454-5.454V531.867h10.908v39.721A5.453,5.453,0,0,1,671.64,577.041Z" fill="#bbf7ff"/>
            <path id="Trazado_218126" data-name="Trazado 218126" d="M672.789,531.867v39.721a5.455,5.455,0,0,1-3.3,5.012,5.455,5.455,0,0,0,7.607-5.012V531.867Z" fill="#8bf0ff"/>
            <path id="Trazado_218127" data-name="Trazado 218127" d="M666.187,551.364v20.224a5.454,5.454,0,1,0,10.908,0V551.364Z" fill="#f75632"/>
            <path id="Trazado_218128" data-name="Trazado 218128" d="M672.789,551.364v20.224a5.455,5.455,0,0,1-3.3,5.012,5.455,5.455,0,0,0,7.607-5.012V551.364Z" fill="#e33629"/>
            <path id="Trazado_218129" data-name="Trazado 218129" d="M696.82,530.954H684.764v-7.877a2.583,2.583,0,0,1,2.583-2.583h6.889a2.583,2.583,0,0,1,2.583,2.583Z" fill="#29cef6"/>
            <path id="Trazado_218130" data-name="Trazado 218130" d="M694.237,520.494h-4.306a2.583,2.583,0,0,1,2.583,2.583v7.877h4.306v-7.877A2.583,2.583,0,0,0,694.237,520.494Z" fill="#22b5ed"/>
            <path id="Trazado_218131" data-name="Trazado 218131" d="M690.792,577.041a5.454,5.454,0,0,1-5.454-5.454V531.867h10.908v39.721A5.454,5.454,0,0,1,690.792,577.041Z" fill="#bbf7ff"/>
            <path id="Trazado_218132" data-name="Trazado 218132" d="M691.941,531.867v39.721a5.455,5.455,0,0,1-3.3,5.012,5.455,5.455,0,0,0,7.607-5.012V531.867Z" fill="#8bf0ff"/>
            <path id="Trazado_218133" data-name="Trazado 218133" d="M685.339,551.364v20.224a5.454,5.454,0,0,0,10.908,0V551.364Z" fill="#f75632"/>
            <path id="Trazado_218134" data-name="Trazado 218134" d="M691.941,551.364v20.224a5.455,5.455,0,0,1-3.3,5.012,5.455,5.455,0,0,0,7.607-5.012V551.364Z" fill="#e33629"/>
            <path id="Trazado_218135" data-name="Trazado 218135" d="M715.972,530.954H703.916v-7.877a2.583,2.583,0,0,1,2.583-2.583h6.889a2.583,2.583,0,0,1,2.583,2.583Z" fill="#00d9c8"/>
            <path id="Trazado_218136" data-name="Trazado 218136" d="M713.389,520.494h-4.306a2.583,2.583,0,0,1,2.583,2.583v7.877h4.306v-7.877A2.583,2.583,0,0,0,713.389,520.494Z" fill="#00bcb9"/>
            <path id="Trazado_218137" data-name="Trazado 218137" d="M709.945,577.041a5.454,5.454,0,0,1-5.454-5.454V531.867H715.4v39.721A5.455,5.455,0,0,1,709.945,577.041Z" fill="#bbf7ff"/>
            <path id="Trazado_218138" data-name="Trazado 218138" d="M711.093,531.867v39.721a5.455,5.455,0,0,1-3.3,5.012,5.455,5.455,0,0,0,7.607-5.012V531.867Z" fill="#8bf0ff"/>
            <path id="Trazado_218139" data-name="Trazado 218139" d="M704.491,551.364v20.224a5.454,5.454,0,0,0,10.908,0V551.364Z" fill="#f75632"/>
            <path id="Trazado_218140" data-name="Trazado 218140" d="M711.093,551.364v20.224a5.455,5.455,0,0,1-3.3,5.012,5.455,5.455,0,0,0,7.607-5.012V551.364Z" fill="#e33629"/>
            <path id="Trazado_218141" data-name="Trazado 218141" d="M725.946,591.824H655.477a.431.431,0,0,1-.431-.431v-1.719a2.156,2.156,0,0,1,2.156-2.156h67.019a2.156,2.156,0,0,1,2.156,2.156v1.719a.43.43,0,0,1-.431.431Z" fill="#d67b42"/>
            <path id="Trazado_218142" data-name="Trazado 218142" d="M724.221,587.518h-4.306a2.156,2.156,0,0,1,2.156,2.156v1.719a.431.431,0,0,1-.431.431h4.306a.431.431,0,0,0,.431-.431v-1.719a2.155,2.155,0,0,0-2.156-2.156Z" fill="#be652b"/>
            <path id="Trazado_218143" data-name="Trazado 218143" d="M657.845,542.739v-3.748a.557.557,0,0,1,.557-.557h64.618a.557.557,0,0,1,.557.557v3.748Z" fill="#d67b42"/>
            <path id="Trazado_218144" data-name="Trazado 218144" d="M677.731,533.7H665.388a1.435,1.435,0,0,1-1.435-1.435v-1.435a1.435,1.435,0,0,1,1.435-1.435h12.343a1.435,1.435,0,0,1,1.435,1.435v1.435a1.436,1.436,0,0,1-1.435,1.435Z" fill="#f3f3f3"/>
            <path id="Trazado_218145" data-name="Trazado 218145" d="M677.731,529.392h-4.306a1.435,1.435,0,0,1,1.435,1.435v1.435a1.435,1.435,0,0,1-1.435,1.435h4.306a1.435,1.435,0,0,0,1.435-1.435v-1.435A1.435,1.435,0,0,0,677.731,529.392Z" fill="#e4e4e4"/>
            <path id="Trazado_218146" data-name="Trazado 218146" d="M696.883,533.7H684.54a1.435,1.435,0,0,1-1.435-1.435v-1.435a1.435,1.435,0,0,1,1.435-1.435h12.343a1.435,1.435,0,0,1,1.435,1.435v1.435A1.436,1.436,0,0,1,696.883,533.7Z" fill="#f3f3f3"/>
            <path id="Trazado_218147" data-name="Trazado 218147" d="M696.883,529.392h-4.306a1.435,1.435,0,0,1,1.435,1.435v1.435a1.435,1.435,0,0,1-1.435,1.435h4.306a1.435,1.435,0,0,0,1.435-1.435v-1.435A1.435,1.435,0,0,0,696.883,529.392Z" fill="#e4e4e4"/>
            <path id="Trazado_218148" data-name="Trazado 218148" d="M716.035,533.7H703.692a1.435,1.435,0,0,1-1.435-1.435v-1.435a1.435,1.435,0,0,1,1.435-1.435h12.343a1.435,1.435,0,0,1,1.435,1.435v1.435A1.435,1.435,0,0,1,716.035,533.7Z" fill="#f3f3f3"/>
            <path id="Trazado_218149" data-name="Trazado 218149" d="M716.035,529.392h-4.306a1.435,1.435,0,0,1,1.435,1.435v1.435a1.435,1.435,0,0,1-1.435,1.435h4.306a1.435,1.435,0,0,0,1.435-1.435v-1.435A1.435,1.435,0,0,0,716.035,529.392Z" fill="#e4e4e4"/>
          </g>
        </g>
        <g id="Grupo_151952" data-name="Grupo 151952">
          <g id="Page-1_00000170975900536911614120000012976459632425708213_">
            <g id="_x30_29---Chlorine_00000149352293456507833410000001384805824601165224_">
              <path id="Rectangle_00000005949777245243348700000009830845105626462090_" d="M661.973,205.938h49.032a12.9,12.9,0,0,1,12.9,12.9v49.032a12.9,12.9,0,0,1-12.9,12.9H661.973a12.9,12.9,0,0,1-12.9-12.9V218.841A12.9,12.9,0,0,1,661.973,205.938Z" fill="#f0c419" fill-rule="evenodd"/>
              <path id="Path_00000109027669321178969800000018375624224741865898_" d="M723.908,231.938v35.935a12.9,12.9,0,0,1-12.9,12.9H661.973a12.9,12.9,0,0,1-12.9-12.9v-8.606c11.639-11.188,36.465-29.1,74.839-27.329Z" fill="#f29c1f" fill-rule="evenodd"/>
              <path id="Path_00000003783485494516657210000009534277316552485779_" d="M664.553,211.1h-2.581a7.742,7.742,0,0,0-7.742,7.742v49.032a7.742,7.742,0,0,0,7.742,7.742H711a7.742,7.742,0,0,0,7.742-7.742V218.841A7.742,7.742,0,0,0,711,211.1H664.553Z" fill="#f3d55b" fill-rule="evenodd"/>
              <path id="Path_00000066504874502943681140000015672757891939906204_" d="M718.747,231.821v36.052a7.742,7.742,0,0,1-7.742,7.742H661.973a7.742,7.742,0,0,1-7.742-7.742V254.66A94.86,94.86,0,0,1,668.4,244.84a96.54,96.54,0,0,1,15.884-7.213,103.31,103.31,0,0,1,34.464-5.806Z" fill="#f0c419" fill-rule="evenodd"/>
              <path id="Path_00000124142293103353020190000016457001719011285634_" d="M681.328,233.034a1.29,1.29,0,0,1-1.29-1.29V218.671l-1.865,1.243a1.29,1.29,0,1,1-1.432-2.147l3.871-2.581a1.29,1.29,0,0,1,2.006,1.073v15.484A1.291,1.291,0,0,1,681.328,233.034Z" fill="#547580" fill-rule="evenodd"/>
              <path id="Rectangle_00000042726583859478642870000001896445005834054826_" d="M699.392,238.2h2.581a1.29,1.29,0,0,1,1.29,1.29v29.677a1.29,1.29,0,0,1-1.29,1.29h-2.581a1.29,1.29,0,0,1-1.29-1.29V239.486A1.29,1.29,0,0,1,699.392,238.2Z" fill="#35495e" fill-rule="evenodd"/>
              <path id="Path_00000178912517216421384520000001190443843148233108_" d="M684.282,237.628a96.546,96.546,0,0,0-15.884,7.213c2.039-5.845,6.336-7.936,11.316-7.936A13.552,13.552,0,0,1,684.282,237.628Z" fill="#3f5c6c" fill-rule="evenodd"/>
              <path id="Path_00000031200087352638786680000003898714451120980670_" d="M691.612,260.441c-1.69,7.445-6.374,10.013-11.9,10.013-6.955,0-12.581-4.065-12.581-16.774a26.9,26.9,0,0,1,1.265-8.839,96.54,96.54,0,0,1,15.884-7.213c3.432,1.2,6.129,4.026,7.329,9.29a1.27,1.27,0,0,1-1.161,1.6h-2.439a1.194,1.194,0,0,1-1.148-.9c-1.226-4.761-4.1-5.548-7.148-5.548-4.052,0-7.794,1.406-7.794,11.613s3.742,11.613,7.794,11.613c3.045,0,5.923-.787,7.148-5.548a1.194,1.194,0,0,1,1.148-.9h2.439a1.27,1.27,0,0,1,1.161,1.6Z" fill="#35495e" fill-rule="evenodd"/>
              <path id="Path_00000003823573908948130330000003780647263393405352_" d="M689.07,233.034a1.274,1.274,0,0,1-.5-.1,1.29,1.29,0,0,1-.694-1.688l5.707-13.7h-7.1a1.29,1.29,0,0,1,0-2.581h9.032a1.29,1.29,0,0,1,1.191,1.787l-6.452,15.484A1.292,1.292,0,0,1,689.07,233.034Z" fill="#547580" fill-rule="evenodd"/>
            </g>
          </g>
        </g>
        <g id="Grupo_151953" data-name="Grupo 151953">
          <g id="Page-1_00000037659578367853126170000012004564653701842597_">
            <g id="_x30_25---Aluminium_00000050644932406128960200000011542433495754882975_">
              <path id="Rectangle_00000107550421701879435720000011374086487360218815_" d="M376.216,58.469h48.862a12.858,12.858,0,0,1,12.858,12.858v48.862a12.858,12.858,0,0,1-12.858,12.858H376.216a12.858,12.858,0,0,1-12.858-12.858V71.328A12.859,12.859,0,0,1,376.216,58.469Z" fill="#24ae5f" fill-rule="evenodd"/>
              <path id="Path_00000030448633628384639340000003421675601205948315_" d="M437.936,84.379v35.811a12.858,12.858,0,0,1-12.858,12.858H376.216a12.858,12.858,0,0,1-12.858-12.858v-8.576c11.6-11.148,36.339-29,74.579-27.234Z" fill="#4c8056" fill-rule="evenodd"/>
              <path id="Path_00000005224880088543742810000010078072779189379994_" d="M378.788,63.612h-2.572a7.715,7.715,0,0,0-7.715,7.715v48.862a7.715,7.715,0,0,0,7.715,7.715h48.862a7.715,7.715,0,0,0,7.715-7.715V71.328a7.715,7.715,0,0,0-7.715-7.715h-46.29Z" fill="#4fba6f" fill-rule="evenodd"/>
              <path id="Path_00000140734960385880285720000011480221112689694387_" d="M432.793,84.263v35.926a7.715,7.715,0,0,1-7.715,7.715H376.216a7.715,7.715,0,0,1-7.715-7.715V107.022a99.556,99.556,0,0,1,64.292-22.759Z" fill="#24ae5f" fill-rule="evenodd"/>
              <path id="Path_00000101061855059164637190000009767351914253140097_" d="M395.5,85.472a1.286,1.286,0,0,1-1.286-1.286V71.159L392.36,72.4a1.286,1.286,0,1,1-1.427-2.14l3.858-2.572a1.286,1.286,0,0,1,2,1.07v15.43A1.286,1.286,0,0,1,395.5,85.472Z" fill="#fff" fill-rule="evenodd"/>
              <path id="Path_00000143590774829424373830000017921303486830315708_" d="M406.433,85.472a5.658,5.658,0,0,1-5.786-5.493,1.286,1.286,0,0,1,2.572,0,3.229,3.229,0,0,0,6.429,0c0-2.061-2.46-2.222-3.215-2.222a1.286,1.286,0,0,1,0-2.572,2.975,2.975,0,0,0,2.16-1.092,2.341,2.341,0,0,0,.561-1.9,2.4,2.4,0,0,0-1.049-1.652,3.746,3.746,0,0,0-2.806-.394c-1.012.237-2.095,1.106-2.084,2.1a1.286,1.286,0,0,1-1.27,1.3,1.268,1.268,0,0,1-1.3-1.27,5.007,5.007,0,0,1,4.072-4.629,6.3,6.3,0,0,1,4.8.744,4.956,4.956,0,0,1,2.169,3.343,4.83,4.83,0,0,1-1.115,4.009,5.824,5.824,0,0,1-.4.435,4.392,4.392,0,0,1,2.05,3.8,5.657,5.657,0,0,1-5.786,5.493Z" fill="#fff" fill-rule="evenodd"/>
              <path id="Rectangle_00000092448054349760888170000007782407412834330517_" d="M413.505,89.329h2.572a1.286,1.286,0,0,1,1.286,1.286v30.86a1.286,1.286,0,0,1-1.286,1.286h-2.572a1.286,1.286,0,0,1-1.286-1.286V90.615A1.286,1.286,0,0,1,413.505,89.329Z" fill="#ecf0f1" fill-rule="evenodd"/>
              <path id="Shape_00000116195212794754168170000004562865752108399254_" d="M407,121.025l-8.847-30.86-.013-.013c-2.019.72-4.012,1.492-5.953,2.327l-8.178,28.546a1.275,1.275,0,0,0,1.106,1.736h3.1a1.176,1.176,0,0,0,1.106-.836l2.327-8.165h7.715l2.327,8.165a1.176,1.176,0,0,0,1.106.836h3.1A1.275,1.275,0,0,0,407,121.025Zm-14.067-12.408L395.5,98.33l2.572,10.287Z" fill="#ecf0f1"/>
              <path id="Path_00000149355357163626092890000015692358352750361000_" d="M398.14,90.152c-2.019.72-4.012,1.492-5.953,2.327l.669-2.314a1.176,1.176,0,0,1,1.106-.836h3.086A1.191,1.191,0,0,1,398.14,90.152Z" fill="#fff" fill-rule="evenodd"/>
            </g>
          </g>
        </g>
        <g id="Grupo_151954" data-name="Grupo 151954">
          <g id="Layer_32_00000174580574375170218230000017638541414010237345_">
            <path id="Trazado_218150" data-name="Trazado 218150" d="M138.6,197.362H111.987a5.323,5.323,0,0,0-5.323,5.323v6.065a2.661,2.661,0,0,1-1.82,2.528l-20.311,6.768a2.661,2.661,0,0,0-1.82,2.526v48.646a5.323,5.323,0,0,0,5.323,5.323H138.6a5.323,5.323,0,0,0,5.323-5.323V202.685A5.322,5.322,0,0,0,138.6,197.362Zm0,7.984v7.984H111.987v-7.984a2.661,2.661,0,0,1,2.661-2.661h21.29A2.662,2.662,0,0,1,138.6,205.346Z" fill="#fcbf44"/>
            <path id="Trazado_218151" data-name="Trazado 218151" d="M86.705,269.217V220.571a2.661,2.661,0,0,1,1.82-2.528l20.311-6.77a2.661,2.661,0,0,0,1.82-2.523v-6.065a5.323,5.323,0,0,1,5.323-5.323h-3.992a5.323,5.323,0,0,0-5.323,5.323v6.065a2.661,2.661,0,0,1-1.82,2.528l-20.311,6.768a2.661,2.661,0,0,0-1.82,2.526v48.646a5.323,5.323,0,0,0,5.323,5.323h3.992A5.322,5.322,0,0,1,86.705,269.217Z" fill="#f9b130"/>
            <path id="Trazado_218152" data-name="Trazado 218152" d="M87.712,211.22l10.9-3.634a2.661,2.661,0,0,1,3.366,1.685q.033.1.058.2l.633,2.528-15.968,5.322-.733-2.927A2.661,2.661,0,0,1,87.712,211.22Z" fill="#7a838b"/>
            <path id="Trazado_218153" data-name="Trazado 218153" d="M96.02,223.975h34.6a2.661,2.661,0,0,1,2.661,2.661v34.6a2.661,2.661,0,0,1-2.661,2.661H96.02a2.661,2.661,0,0,1-2.661-2.661v-34.6A2.662,2.662,0,0,1,96.02,223.975Z" fill="#d6e4e8"/>
            <path id="Trazado_218154" data-name="Trazado 218154" d="M97.35,261.233v-34.6a2.661,2.661,0,0,1,2.661-2.661H96.02a2.661,2.661,0,0,0-2.661,2.661v34.6a2.661,2.661,0,0,0,2.661,2.661h3.992A2.661,2.661,0,0,1,97.35,261.233Z" fill="#baced3"/>
            <path id="Trazado_218155" data-name="Trazado 218155" d="M122.632,246.6a9.314,9.314,0,0,1-18.629,0c0-5.144,9.314-14.637,9.314-14.637S122.632,241.452,122.632,246.6Z" fill="#7a838b"/>
          </g>
        </g>
      </g>
      <g id="Grupo_151999" data-name="Grupo 151999">
        <g id="Grupo_151998" data-name="Grupo 151998">
          <g id="Grupo_151984" data-name="Grupo 151984">
            <g id="Grupo_151957" data-name="Grupo 151957">
              <g id="Grupo_151956" data-name="Grupo 151956">
                <path id="Trazado_218156" data-name="Trazado 218156" d="M79.783,552.178h33.368a2.383,2.383,0,0,0,2.383-2.383v-4.767a2.383,2.383,0,0,0-2.383-2.383H79.783a2.383,2.383,0,0,0-2.383,2.383v4.767A2.383,2.383,0,0,0,79.783,552.178Z" fill="#5ad7ff"/>
              </g>
            </g>
            <g id="Grupo_151959" data-name="Grupo 151959">
              <g id="Grupo_151958" data-name="Grupo 151958">
                <path id="Trazado_218157" data-name="Trazado 218157" d="M103.618,552.178h9.534a2.383,2.383,0,0,0,2.383-2.383v-4.767a2.383,2.383,0,0,0-2.383-2.383h-9.534a2.383,2.383,0,0,0-2.383,2.383v4.767A2.383,2.383,0,0,0,103.618,552.178Z" fill="#23aae6"/>
              </g>
            </g>
            <g id="Grupo_151961" data-name="Grupo 151961">
              <g id="Grupo_151960" data-name="Grupo 151960">
                <path id="Trazado_218158" data-name="Trazado 218158" d="M91.7,578.4h9.534a11.917,11.917,0,0,0,11.917-11.917v-14.3H79.783v14.3A11.918,11.918,0,0,0,91.7,578.4Z" fill="#4b9641"/>
              </g>
            </g>
            <g id="Grupo_151963" data-name="Grupo 151963">
              <g id="Grupo_151962" data-name="Grupo 151962">
                <path id="Trazado_218159" data-name="Trazado 218159" d="M91.7,578.4a11.917,11.917,0,0,0,11.917-11.917V554.562H79.783v11.917A11.918,11.918,0,0,0,91.7,578.4Z" fill="#91c83c"/>
              </g>
            </g>
            <g id="Grupo_151965" data-name="Grupo 151965">
              <g id="Grupo_151964" data-name="Grupo 151964">
                <path id="Trazado_218160" data-name="Trazado 218160" d="M91.7,583.163h9.534V595.08H91.7Z" fill="#463c4b"/>
              </g>
            </g>
            <g id="Grupo_151967" data-name="Grupo 151967">
              <g id="Grupo_151966" data-name="Grupo 151966">
                <path id="Trazado_218161" data-name="Trazado 218161" d="M91.7,585.546h4.767v9.534H91.7Z" fill="#555a6e"/>
              </g>
            </g>
            <g id="Grupo_151969" data-name="Grupo 151969">
              <g id="Grupo_151968" data-name="Grupo 151968">
                <path id="Trazado_218162" data-name="Trazado 218162" d="M122.686,578.4h9.534V595.08h-9.534V578.4Z" fill="#463c4b"/>
              </g>
            </g>
            <g id="Grupo_151971" data-name="Grupo 151971">
              <g id="Grupo_151970" data-name="Grupo 151970">
                <path id="Trazado_218163" data-name="Trazado 218163" d="M122.686,586.738h4.767v8.342h-4.767Z" fill="#555a6e"/>
              </g>
            </g>
            <g id="Grupo_151973" data-name="Grupo 151973">
              <g id="Grupo_151972" data-name="Grupo 151972">
                <path id="Trazado_218164" data-name="Trazado 218164" d="M101.234,583.163H91.7a2.383,2.383,0,1,1,0-4.767h9.534a2.383,2.383,0,0,1,0,4.767Z" fill="#23aae6"/>
              </g>
            </g>
            <g id="Grupo_151975" data-name="Grupo 151975">
              <g id="Grupo_151974" data-name="Grupo 151974">
                <path id="Trazado_218165" data-name="Trazado 218165" d="M94.084,583.163H91.7a2.383,2.383,0,1,1,0-4.767h2.383a2.383,2.383,0,0,1,0,4.767Z" fill="#5ad7ff"/>
              </g>
            </g>
            <g id="Grupo_151977" data-name="Grupo 151977">
              <g id="Grupo_151976" data-name="Grupo 151976">
                <path id="Trazado_218166" data-name="Trazado 218166" d="M85.742,525.96a3.575,3.575,0,0,0-3.575,3.575v13.109h7.15V529.535A3.575,3.575,0,0,0,85.742,525.96Z" fill="#d7e6f0"/>
              </g>
            </g>
            <g id="Grupo_151979" data-name="Grupo 151979">
              <g id="Grupo_151978" data-name="Grupo 151978">
                <path id="Trazado_218167" data-name="Trazado 218167" d="M87.53,528.343a1.788,1.788,0,0,0-1.788,1.788v12.513h3.575V530.131A1.788,1.788,0,0,0,87.53,528.343Z" fill="#a5c3dc"/>
              </g>
            </g>
            <g id="Grupo_151981" data-name="Grupo 151981">
              <g id="Grupo_151980" data-name="Grupo 151980">
                <path id="Trazado_218168" data-name="Trazado 218168" d="M107.193,525.96a3.575,3.575,0,0,0-3.575,3.575v13.109h7.15V529.535A3.575,3.575,0,0,0,107.193,525.96Z" fill="#d7e6f0"/>
              </g>
            </g>
            <g id="Grupo_151983" data-name="Grupo 151983">
              <g id="Grupo_151982" data-name="Grupo 151982">
                <path id="Trazado_218169" data-name="Trazado 218169" d="M108.981,528.343a1.788,1.788,0,0,0-1.788,1.788v12.513h3.575V530.131A1.789,1.789,0,0,0,108.981,528.343Z" fill="#a5c3dc"/>
              </g>
            </g>
          </g>
          <g id="Grupo_151991" data-name="Grupo 151991">
            <g id="Grupo_151986" data-name="Grupo 151986">
              <g id="Grupo_151985" data-name="Grupo 151985">
                <path id="Trazado_218170" data-name="Trazado 218170" d="M95.276,561.712h-7.15a1.192,1.192,0,0,1,0-2.383h7.15a1.192,1.192,0,0,1,0,2.383Z" fill="#4b9641"/>
              </g>
            </g>
            <g id="Grupo_151988" data-name="Grupo 151988">
              <g id="Grupo_151987" data-name="Grupo 151987">
                <path id="Trazado_218171" data-name="Trazado 218171" d="M95.276,566.479h-7.15a1.192,1.192,0,0,1,0-2.383h7.15a1.192,1.192,0,0,1,0,2.383Z" fill="#4b9641"/>
              </g>
            </g>
            <g id="Grupo_151990" data-name="Grupo 151990">
              <g id="Grupo_151989" data-name="Grupo 151989">
                <path id="Trazado_218172" data-name="Trazado 218172" d="M95.276,571.245h-7.15a1.192,1.192,0,0,1,0-2.383h7.15a1.192,1.192,0,0,1,0,2.383Z" fill="#4b9641"/>
              </g>
            </g>
          </g>
          <g id="Grupo_151997" data-name="Grupo 151997">
            <g id="Grupo_151993" data-name="Grupo 151993">
              <g id="Grupo_151992" data-name="Grupo 151992">
                <circle id="Elipse_4809" data-name="Elipse 4809" cx="21.451" cy="21.451" r="21.451" transform="translate(106.001 537.877)" fill="#d7e6f0"/>
              </g>
            </g>
            <g id="Grupo_151995" data-name="Grupo 151995">
              <g id="Grupo_151994" data-name="Grupo 151994">
                <path id="Trazado_218173" data-name="Trazado 218173" d="M108.385,561.712A2.383,2.383,0,0,1,106,559.328a21.475,21.475,0,0,1,21.451-21.451,2.383,2.383,0,0,1,0,4.767,16.7,16.7,0,0,0-16.684,16.684A2.384,2.384,0,0,1,108.385,561.712Z" fill="#fff"/>
              </g>
            </g>
            <g id="Grupo_151996" data-name="Grupo 151996">
              <path id="Trazado_218174" data-name="Trazado 218174" d="M140.4,556.3a1.192,1.192,0,0,0-1-.547h-7.789l1.825-20.152a1.192,1.192,0,0,0-1.187-1.3h-4.767a1.191,1.191,0,0,0-1.084.7l-11.968,26.218a1.192,1.192,0,0,0,1.084,1.687h7.853l-1.839,20.151a1.192,1.192,0,0,0,1.187,1.3h4.767a1.192,1.192,0,0,0,1.085-.7l11.917-26.218a1.191,1.191,0,0,0-.083-1.138Z" fill="#f06423"/>
              <path id="Trazado_218175" data-name="Trazado 218175" d="M135.63,556.3a1.192,1.192,0,0,0-1-.547h-7.789l1.825-20.152a1.192,1.192,0,0,0-2.271-.6l-11.968,26.218a1.191,1.191,0,0,0,1.084,1.686h7.853l-1.839,20.151a1.192,1.192,0,0,0,2.272.6l11.917-26.218a1.188,1.188,0,0,0-.083-1.138Z" fill="#faa019"/>
            </g>
          </g>
        </g>
      </g>
    </g>
  </g>
</svg>
